<?xml version="1.0" encoding="utf-8"?>
<!-- Generator: Adobe Illustrator 27.5.0, SVG Export Plug-In . SVG Version: 6.00 Build 0)  -->
<svg version="1.1" id="_x30_" xmlns="http://www.w3.org/2000/svg" xmlns:xlink="http://www.w3.org/1999/xlink" x="0px" y="0px"
	 viewBox="0 0 450 450" style="enable-background:new 0 0 450 450;" xml:space="preserve">
<g id="_x31_3">
	<g>
		<g>
			<g id="Axonometric_Cube_165_">
				<polygon id="Cube_face_-_left_552_" style="fill:#D88E00;" points="258.454,403.333 86.024,303.78 86.024,293.952 
					258.454,393.505 				"/>
				<polygon id="Cube_face_-_right_567_" style="fill:#F8B71D;" points="374.564,336.297 258.454,403.333 258.454,393.505 
					374.564,326.469 				"/>
				<polygon id="Cube_face_-_top_554_" style="fill:#FFD73B;" points="258.454,393.505 86.024,293.952 202.133,226.916 
					374.564,326.469 				"/>
				<polygon id="Cube_face_-_top_556_" style="opacity:0.6;fill:#D88E00;" points="226.41,375.004 191.964,357.927 86.024,293.952 
					202.133,226.916 265.049,375.042 				"/>
			</g>
			<g>
				<polygon style="fill:#F8B71D;" points="265.272,266.841 265.049,375.042 344.672,328.771 344.894,220.57 				"/>
				<path style="fill:#AF6C00;" d="M267.557,165.542l-54.773-31.623c-2.507-1.447-4.78-1.587-6.42-0.633l-79.622,46.271
					c1.64-0.953,3.913-0.814,6.42,0.633l72.059,41.603C225.716,202.722,246.311,183.754,267.557,165.542z"/>
				<path style="fill:#FFD73B;" d="M270.979,167.518c-21.265,18.192-41.859,37.168-62.35,56.243l47.657,27.515l79.622-46.271
					L270.979,167.518z"/>
				<path style="fill:#FFE33E;" d="M343.336,213.799c-0.876-1.98-2.074-3.87-3.479-5.47c-1.191-1.357-2.532-2.506-3.949-3.324
					l-79.622,46.271c1.417,0.818,2.758,1.967,3.949,3.324c1.406,1.6,2.604,3.49,3.479,5.471c0.989,2.238,1.565,4.591,1.558,6.771
					l79.622-46.271C344.9,218.39,344.324,216.037,343.336,213.799z"/>
				<path style="fill:#D88E00;" d="M256.286,251.276l-123.123-71.085c-4.977-2.873-9.029-0.592-9.045,5.155l-0.223,108.2
					l141.155,81.496l0.223-108.201C265.289,261.095,261.262,254.149,256.286,251.276z"/>
				<path style="fill:#FFEB97;" d="M339.856,208.329L260.235,254.6c1.406,1.6,2.604,3.49,3.479,5.471l79.622-46.271
					C342.46,211.819,341.261,209.929,339.856,208.329z"/>
			</g>
			<g style="enable-background:new    ;">
				<path style="fill:#F8B71D;" d="M234.563,246.134c-0.16-0.362-0.327-0.723-0.499-1.086c-1.685-3.527-3.805-6.703-6.151-9.375
					c-2.376-2.706-4.985-4.896-7.613-6.413c-3.662-2.114-7.36-2.919-10.509-1.989l-85.419,25.398
					c-0.646,0.195-1.247,0.457-1.804,0.781l-10.616,6.169c0.557-0.324,1.159-0.585,1.804-0.781l108.166,17.609l10.616-6.169
					C238.338,266.907,239.28,256.806,234.563,246.134z"/>
				<path style="fill:#E29500;" d="M209.684,235.429c5.223,3.015,10.372,8.689,13.764,15.788c5.77,12.103,4.268,23.744-3.349,26.015
					l-85.419,25.426c-3.147,0.93-6.841,0.126-10.501-1.986c-5.225-3.016-10.379-8.701-13.772-15.819
					c-5.77-12.075-4.267-23.716,3.349-26.015l85.419-25.398C202.324,232.509,206.022,233.316,209.684,235.429z"/>
			</g>
			<g style="enable-background:new    ;">
				<path style="fill:#FFE33E;" d="M359.66,151.135c-0.16-0.361-0.326-0.723-0.499-1.086c-1.686-3.527-3.805-6.702-6.151-9.375
					c-2.377-2.706-4.986-4.896-7.613-6.413c-3.662-2.114-7.359-2.919-10.509-1.989l-85.419,25.398
					c-0.645,0.195-1.247,0.457-1.804,0.781l-10.616,6.17c0.557-0.324,1.159-0.586,1.805-0.781l108.165,17.609l10.616-6.169
					C363.435,171.908,364.377,161.807,359.66,151.135z"/>
				<path style="fill:#E29500;" d="M334.781,140.43c5.223,3.015,10.372,8.689,13.764,15.788c5.77,12.103,4.267,23.744-3.349,26.015
					l-85.419,25.426c-3.147,0.93-6.841,0.127-10.501-1.986c-5.225-3.016-10.379-8.701-13.772-15.818
					c-5.769-12.076-4.267-23.716,3.349-26.016l85.419-25.398C327.421,137.51,331.119,138.317,334.781,140.43z"/>
			</g>
			<g style="enable-background:new    ;">
				<path style="fill:#FFD73B;" d="M180.069,49.167c-5.068-2.926-9.656-3.196-12.97-1.27l-5.434,3.158
					c3.314-1.926,7.902-1.656,12.97,1.27l155.235,89.624l5.434-3.158L180.069,49.167z"/>
				<path style="fill:#FFE33E;" d="M350.321,156.598c-1.776-4.02-4.211-7.861-7.064-11.111c-2.402-2.734-5.1-5.049-7.953-6.695
					l-5.434,3.158c2.852,1.647,5.551,3.961,7.953,6.696c2.853,3.249,5.288,7.09,7.064,11.11c2,4.528,3.166,9.281,3.153,13.667
					c-0.016,5.749-2.046,9.79-5.317,11.691l5.434-3.158c3.271-1.901,5.301-5.942,5.318-11.692
					C353.487,165.878,352.321,161.125,350.321,156.598z"/>
				<path style="fill:#FFEB97;" d="M343.257,145.487l-5.434,3.158c2.853,3.249,5.288,7.09,7.064,11.11l5.434-3.158
					C348.545,152.578,346.11,148.736,343.257,145.487z"/>
				<path style="fill:#D88E00;" d="M329.87,141.949L174.635,52.325c-10.074-5.817-18.256-1.136-18.289,10.422
					c-0.033,11.577,8.096,25.656,18.171,31.473l155.234,89.625c10.058,5.807,18.257,1.154,18.289-10.423
					C348.073,161.864,339.928,147.757,329.87,141.949z"/>
			</g>
			<g style="enable-background:new    ;">
				<path style="fill:#49303A;" d="M176.207,56.248c-4.906-2.833-9.348-3.093-12.556-1.229l-80.421,46.45
					c3.208-1.864,7.65-1.603,12.556,1.229l150.275,86.761l61.454-22.202l18.966-24.248L176.207,56.248z"/>
				<linearGradient id="SVGID_1_" gradientUnits="userSpaceOnUse" x1="283.7121" y1="167.7021" x2="304.9249" y2="204.4437">
					<stop  offset="0" style="stop-color:#49303A"/>
					<stop  offset="0.3157" style="stop-color:#442E36"/>
					<stop  offset="0.6878" style="stop-color:#36272C"/>
					<stop  offset="1" style="stop-color:#241F1F"/>
				</linearGradient>
				<path style="fill:url(#SVGID_1_);" d="M341.019,160.247c-1.719-3.891-4.076-7.611-6.839-10.756
					c-2.325-2.647-4.937-4.888-7.699-6.482l-80.42,46.45c2.761,1.595,5.374,3.835,7.699,6.482c2.762,3.145,5.119,6.864,6.838,10.755
					c1.937,4.383,3.065,8.984,3.052,13.23c-0.016,5.565-1.981,9.478-5.147,11.318l80.42-46.45c3.167-1.84,5.132-5.753,5.147-11.318
					C344.084,169.23,342.956,164.629,341.019,160.247z"/>
				<path style="fill:#6C4756;" d="M334.18,149.491l-80.42,46.451c2.762,3.145,5.119,6.864,6.838,10.755l80.42-46.45
					C339.3,156.355,336.943,152.636,334.18,149.491z"/>
			</g>
			<g style="enable-background:new    ;">
				<path style="fill:#FFD73B;" d="M99.16,95.88c-5.068-2.926-9.656-3.196-12.97-1.27l-5.434,3.158
					c3.314-1.926,7.902-1.656,12.97,1.27l155.235,89.625l5.434-3.158L99.16,95.88z"/>
				<path style="fill:#FFE33E;" d="M269.412,203.311c-1.776-4.02-4.211-7.861-7.064-11.11c-2.402-2.735-5.1-5.049-7.953-6.696
					l-5.434,3.158c2.852,1.647,5.551,3.961,7.953,6.696c2.853,3.249,5.288,7.09,7.064,11.11c2.001,4.527,3.166,9.281,3.153,13.667
					c-0.016,5.749-2.046,9.79-5.317,11.691l5.434-3.158c3.271-1.901,5.301-5.942,5.318-11.691
					C272.577,212.591,271.412,207.838,269.412,203.311z"/>
				<path style="fill:#FFEB97;" d="M262.347,192.201l-5.434,3.158c2.853,3.249,5.288,7.09,7.064,11.11l5.434-3.158
					C267.635,199.291,265.201,195.449,262.347,192.201z"/>
				<path style="fill:#D88E00;" d="M248.96,188.663L93.726,99.038c-10.075-5.817-18.256-1.136-18.289,10.423
					c-0.033,11.577,8.096,25.656,18.171,31.473l155.234,89.624c10.058,5.807,18.257,1.155,18.289-10.422
					C267.164,208.577,259.019,194.47,248.96,188.663z"/>
			</g>
			<g>
				<g id="Axonometric_Cylinder_1_">
					<path id="Cylinder_face_62_" style="fill:#D88E00;" d="M267.386,276.572c0,29.348-20.604,41.244-46.02,26.57
						c-25.417-14.674-46.02-50.361-46.02-79.71c0-29.348,20.604-41.244,46.02-26.57
						C246.782,211.537,267.386,247.224,267.386,276.572z"/>
					<path id="Cylinder_body_52_" style="fill:#FFD73B;" d="M188.526,193.815l8.051-4.649c8.351-4.999,19.979-4.377,32.84,3.048
						c25.416,14.674,46.02,50.361,46.02,79.71c0,14.498-5.028,24.737-13.18,29.618l-8.052,4.649
						c8.152-4.881,13.181-15.12,13.181-29.618c0-29.348-20.604-65.035-46.02-79.709
						C208.505,189.438,196.876,188.815,188.526,193.815z"/>
				</g>
				<g id="Axonometric_Cylinder_8_">
					<path style="fill:#49303A;" d="M220.053,197.995c-12.77-7.372-24.317-7.99-32.608-3.026l-1.473,0.85l65.217,111.584
						l1.473-0.851c8.095-4.846,13.088-15.013,13.088-29.409C265.749,248.001,245.29,212.566,220.053,197.995z"/>
					<path id="Cylinder_face_65_" style="fill:#2E1A21;" d="M264.277,277.993c0,29.141-20.459,40.953-45.696,26.383
						c-25.237-14.571-45.696-50.007-45.696-79.148s20.458-40.953,45.696-26.383C243.818,213.416,264.277,248.852,264.277,277.993z"
						/>
				</g>
			</g>
		</g>
		<g>
			<g>
				<polygon style="fill:#FFD73B;" points="228.294,364.62 222.09,361.014 253.171,343.07 259.375,346.675 				"/>
				<polygon style="fill:#D88E00;" points="222.076,375.39 215.872,371.784 215.906,320.731 222.11,324.337 				"/>
				<polygon style="fill:#FFD73B;" points="222.11,324.337 215.906,320.731 222.145,317.129 228.349,320.735 				"/>
				<polygon style="fill:#F8B71D;" points="228.349,320.735 228.294,364.62 259.375,346.675 259.395,353.844 222.076,375.39 
					222.11,324.337 				"/>
			</g>
			<g>
				<polygon style="fill:#FFD73B;" points="143.717,315.789 137.512,312.183 168.592,294.239 174.797,297.844 				"/>
				<polygon style="fill:#D88E00;" points="137.499,326.559 131.294,322.953 131.328,271.9 137.532,275.506 				"/>
				<polygon style="fill:#FFD73B;" points="137.532,275.506 131.328,271.9 137.566,268.298 143.77,271.904 				"/>
				<polygon style="fill:#F8B71D;" points="143.77,271.904 143.717,315.789 174.797,297.844 174.817,305.013 137.499,326.559 
					137.532,275.506 				"/>
			</g>
		</g>
		<g id="Axonometric_Cube_167_">
			<polygon id="Cube_face_-_left_595_" style="fill:#C3BEBE;" points="217.469,328.995 110.663,267.331 110.663,273.788 
				217.469,335.453 			"/>
			<polygon id="Cube_face_-_right_609_" style="fill:#DED9D8;" points="269.61,305.349 217.469,335.453 217.469,328.995 
				269.61,298.891 			"/>
			<polygon id="Cube_face_-_top_598_" style="fill:#F3EDE9;" points="217.469,328.995 110.663,267.331 162.805,237.227 
				269.61,298.891 			"/>
		</g>
		<path style="fill:#FFF9F5;" d="M196.435,301.82c0,0.276-3.723,0.276-3.723,0.276C192.712,301.82,196.435,301.82,196.435,301.82z
			 M196.822,266.154c0,0.276,3.724,0.276,3.724,0.276C200.546,266.154,196.822,266.154,196.822,266.154z M199.042,264.42v-1.688
			c0-0.131-0.106-0.237-0.236-0.237h-0.26c-0.13,0-0.236,0.106-0.236,0.237v1.688c0,0.131,0.106,0.237,0.236,0.237h0.26
			C198.936,264.656,199.042,264.551,199.042,264.42z M195.03,305.576v-1.688c0-0.131-0.106-0.237-0.237-0.237h-0.26
			c-0.13,0-0.236,0.106-0.236,0.237v1.688c0,0.131,0.106,0.237,0.236,0.237h0.26C194.924,305.813,195.03,305.708,195.03,305.576z
			 M196.922,271.646c0,0.276,3.723,0.276,3.723,0.276C200.645,271.646,196.922,271.646,196.922,271.646z M193.982,307.679
			c0.139,0.138,3.861,0.138,3.861,0.138c0-0.276-3.723-0.276-3.723-0.276C194.045,307.541,193.982,307.603,193.982,307.679z
			 M196.723,260.663c0,0.276,3.724,0.276,3.724,0.276C200.447,260.663,196.723,260.663,196.723,260.663z M199.141,269.911v-1.688
			c0-0.131-0.106-0.237-0.237-0.237h-0.259c-0.131,0-0.237,0.106-0.237,0.237v1.688c0,0.131,0.106,0.237,0.237,0.237h0.259
			C199.035,270.148,199.141,270.042,199.141,269.911z M197.219,288.12c0,0.276,3.724,0.276,3.724,0.276
			C200.942,288.12,197.219,288.12,197.219,288.12z M199.538,291.876v-1.688c0-0.13-0.106-0.236-0.237-0.236h-0.259
			c-0.13,0-0.236,0.106-0.236,0.236v1.688c0,0.13,0.106,0.237,0.236,0.237h0.259C199.432,292.114,199.538,292.007,199.538,291.876z
			 M199.438,286.385v-1.688c0-0.131-0.106-0.237-0.237-0.237h-0.26c-0.13,0-0.236,0.106-0.236,0.237v1.688
			c0,0.131,0.106,0.237,0.236,0.237h0.26C199.332,286.622,199.438,286.516,199.438,286.385z M199.24,275.403v-1.689
			c0-0.13-0.106-0.236-0.236-0.236h-0.26c-0.131,0-0.237,0.106-0.237,0.236v1.689c0,0.13,0.106,0.237,0.237,0.237h0.26
			C199.133,275.64,199.24,275.533,199.24,275.403z M197.021,277.138c0,0.276,3.723,0.276,3.723,0.276
			C200.744,277.138,197.021,277.138,197.021,277.138z M197.12,282.629c0,0.276,3.723,0.276,3.723,0.276
			C200.843,282.629,197.12,282.629,197.12,282.629z M199.339,280.894v-1.689c0-0.129-0.106-0.236-0.237-0.236
			c-0.389,0-0.495,0.107-0.495,0.236v1.689c0,0.13,0.106,0.236,0.236,0.236C199.233,281.13,199.339,281.024,199.339,280.894z
			 M192.117,268.872c0,0.276,3.723,0.276,3.723,0.276C195.839,268.872,192.117,268.872,192.117,268.872z M192.314,279.855
			c0,0.276,3.724,0.276,3.724,0.276C196.038,279.855,192.314,279.855,192.314,279.855z M194.633,283.611v-1.689
			c0-0.129-0.106-0.236-0.237-0.236h-0.26c-0.131,0-0.236,0.107-0.236,0.236v1.689c0,0.131,0.105,0.237,0.236,0.237h0.26
			C194.527,283.848,194.633,283.742,194.633,283.611z M194.534,278.12v-1.688c0-0.13-0.106-0.237-0.237-0.237h-0.259
			c-0.13,0-0.236,0.107-0.236,0.237v1.688c0,0.131,0.106,0.237,0.236,0.237h0.259C194.428,278.357,194.534,278.251,194.534,278.12z
			 M194.335,267.137v-1.688c0-0.13-0.106-0.237-0.236-0.237h-0.26c-0.13,0-0.236,0.106-0.236,0.237v1.688
			c0,0.131,0.106,0.237,0.236,0.237h0.26C194.229,267.374,194.335,267.267,194.335,267.137z M192.414,285.346
			c0,0.276,3.723,0.276,3.723,0.276C196.137,285.346,192.414,285.346,192.414,285.346z M189.277,310.396
			c0.137,0.138,3.86,0.138,3.86,0.138c0-0.276-3.723-0.276-3.723-0.276C189.339,310.258,189.277,310.32,189.277,310.396z
			 M192.216,274.363c0,0.276,3.723,0.276,3.723,0.276C195.939,274.363,192.216,274.363,192.216,274.363z M194.435,272.628v-1.688
			c0-0.13-0.106-0.237-0.237-0.237c-0.39,0-0.496,0.106-0.496,0.237v1.688c0,0.131,0.106,0.237,0.237,0.237
			C194.329,272.865,194.435,272.759,194.435,272.628z M192.613,296.328c0,0.276,3.723,0.276,3.723,0.276
			C196.335,296.328,192.613,296.328,192.613,296.328z M194.732,289.103v-1.689c0-0.131-0.106-0.236-0.236-0.236h-0.26
			c-0.13,0-0.236,0.105-0.236,0.236v1.689c0,0.13,0.106,0.236,0.236,0.236h0.26C194.626,289.339,194.732,289.233,194.732,289.103z
			 M191.634,308.523v-1.278v-0.41c0-0.13-0.105-0.237-0.237-0.237h-0.26c-0.125,0-0.217,0.104-0.226,0.227
			c-0.01,0.01-0.01,1.699-0.01,1.699c0,0.13,0.106,0.237,0.236,0.237h0.26C191.528,308.76,191.634,308.654,191.634,308.523z
			 M194.93,300.085v-1.688c0-0.131-0.106-0.237-0.236-0.237c-0.389,0-0.496,0.106-0.496,0.237v1.688c0,0.13,0.107,0.237,0.237,0.237
			C194.824,300.322,194.93,300.216,194.93,300.085z M194.831,294.593v-1.688c0-0.13-0.106-0.236-0.236-0.236h-0.26
			c-0.131,0-0.236,0.106-0.236,0.236v1.688c0,0.131,0.106,0.237,0.236,0.237h0.26C194.725,294.83,194.831,294.724,194.831,294.593z
			 M192.513,290.838c0,0.276,3.723,0.276,3.723,0.276C196.236,290.838,192.513,290.838,192.513,290.838z M197.318,293.611
			c0,0.276,3.724,0.276,3.724,0.276C201.042,293.611,197.318,293.611,197.318,293.611z M204.046,278.178v-1.689
			c0-0.131-0.106-0.237-0.236-0.237h-0.26c-0.13,0-0.236,0.106-0.236,0.237v1.689c0,0.13,0.106,0.236,0.236,0.236h0.26
			C203.939,278.414,204.046,278.308,204.046,278.178z M201.926,285.403c0,0.276,3.722,0.276,3.722,0.276
			C205.648,285.403,201.926,285.403,201.926,285.403z M199.637,297.368v-1.688c0-0.131-0.106-0.237-0.237-0.237h-0.26
			c-0.131,0-0.237,0.106-0.237,0.237v1.688c0,0.13,0.105,0.237,0.237,0.237h0.26C199.531,297.605,199.637,297.499,199.637,297.368z
			 M201.008,314.308c0.236-0.237,0.236-1.925,0.236-1.925c0-0.13-0.106-0.236-0.236-0.236h-0.26c-0.131,0-0.237,0.106-0.237,0.236
			c0,0.02,0,1.689,0,1.689c0,0.13,0.106,0.236,0.237,0.236C201.007,314.308,201.008,314.308,201.008,314.308z M204.541,305.633
			v-1.688c0-0.13-0.106-0.237-0.236-0.237h-0.26c-0.13,0-0.235,0.106-0.235,0.237v1.688c0,0.132,0.106,0.237,0.235,0.237h0.26
			C204.435,305.87,204.541,305.765,204.541,305.633z M204.442,300.143v-1.689c0-0.131-0.106-0.237-0.237-0.237h-0.26
			c-0.13,0-0.236,0.106-0.236,0.237v1.689c0,0.13,0.106,0.236,0.236,0.236h0.26C204.336,300.379,204.442,300.273,204.442,300.143z
			 M204.342,294.651v-1.689c0-0.13-0.106-0.236-0.236-0.236c-0.39,0-0.496,0.106-0.496,0.236v1.689c0,0.131,0.106,0.237,0.237,0.237
			C204.236,294.888,204.342,294.782,204.342,294.651z M204.243,289.16v-1.689c0-0.13-0.106-0.236-0.236-0.236h-0.26
			c-0.131,0-0.237,0.106-0.237,0.236v1.689c0,0.13,0.106,0.237,0.237,0.237h0.26C204.137,289.397,204.243,289.29,204.243,289.16z
			 M202.025,290.895c0,0.276,3.723,0.276,3.723,0.276C205.747,290.895,202.025,290.895,202.025,290.895z M202.222,301.878
			c0,0.276,3.724,0.276,3.724,0.276C205.946,301.878,202.222,301.878,202.222,301.878z M198.887,315.945
			c0.138,0.138,3.861,0.138,3.861,0.138c0-0.276-3.723-0.276-3.723-0.276C198.949,315.807,198.887,315.869,198.887,315.945z
			 M208.652,269.969v-1.689c0-0.131-0.106-0.237-0.236-0.237h-0.26c-0.13,0-0.237,0.106-0.237,0.237v1.689
			c0,0.13,0.106,0.236,0.237,0.236h0.26C208.546,270.205,208.652,270.099,208.652,269.969z M206.433,271.703
			c0,0.276,3.723,0.276,3.723,0.276C210.156,271.703,206.433,271.703,206.433,271.703z M206.334,266.212
			c0,0.276,3.723,0.276,3.723,0.276C210.056,266.212,206.334,266.212,206.334,266.212z M202.322,307.368
			c0,0.276,3.723,0.276,3.723,0.276C206.044,307.368,202.322,307.368,202.322,307.368z M204.64,311.125v-1.688
			c0-0.13-0.106-0.237-0.236-0.237h-0.26c-0.131,0-0.237,0.106-0.237,0.237v1.688c0,0.131,0.106,0.237,0.237,0.237h0.26
			C204.534,311.362,204.64,311.256,204.64,311.125z M203.593,313.228c0.139,0.138,3.861,0.138,3.861,0.138
			c0-0.276-3.723-0.276-3.723-0.276C203.655,313.09,203.593,313.152,203.593,313.228z M202.124,296.386
			c0,0.276,3.723,0.276,3.723,0.276C205.847,296.386,202.124,296.386,202.124,296.386z M194.082,313.17
			c0.138,0.138,3.861,0.138,3.861,0.138c0-0.276-3.723-0.276-3.723-0.276C194.144,313.033,194.082,313.095,194.082,313.17z
			 M197.517,304.595c0,0.276,3.723,0.276,3.723,0.276C201.239,304.595,197.517,304.595,197.517,304.595z M199.835,308.351v-1.689
			c0-0.131-0.106-0.237-0.237-0.237c-0.39,0-0.496,0.106-0.496,0.237v1.689c0,0.13,0.106,0.236,0.237,0.236
			C199.729,308.587,199.835,308.481,199.835,308.351z M197.417,299.103c0,0.276,3.723,0.276,3.723,0.276
			C201.14,299.103,197.417,299.103,197.417,299.103z M198.788,310.453c0.138,0.137,3.861,0.137,3.861,0.137
			c0-0.275-3.724-0.275-3.724-0.275C198.85,310.315,198.788,310.377,198.788,310.453z M199.736,302.86v-1.689
			c0-0.13-0.107-0.236-0.236-0.236h-0.26c-0.13,0-0.236,0.106-0.236,0.236v1.689c0,0.13,0.106,0.237,0.236,0.237h0.26
			C199.629,303.096,199.736,302.99,199.736,302.86z M196.439,311.298v-1.261v-0.428c0-0.131-0.106-0.237-0.237-0.237
			c-0.389,0-0.496,0.106-0.496,0.237v1.689c0,0.132,0.106,0.237,0.236,0.237h0.26C196.333,311.534,196.439,311.429,196.439,311.298z
			 M203.847,267.194v-1.689c0-0.13-0.106-0.236-0.237-0.236c-0.39,0-0.496,0.106-0.496,0.236v1.689c0,0.13,0.106,0.237,0.237,0.237
			C203.741,267.431,203.847,267.325,203.847,267.194z M192.017,263.381c0,0.276,3.723,0.276,3.723,0.276
			C195.74,263.381,192.017,263.381,192.017,263.381z M201.726,274.421c0,0.276,3.724,0.276,3.724,0.276
			C205.45,274.421,201.726,274.421,201.726,274.421z M201.826,279.911c0,0.276,3.723,0.276,3.723,0.276
			C205.548,279.911,201.826,279.911,201.826,279.911z M201.529,263.438c0,0.276,3.723,0.276,3.723,0.276
			C205.251,263.438,201.529,263.438,201.529,263.438z M204.144,283.668v-1.688c0-0.131-0.106-0.237-0.236-0.237h-0.26
			c-0.131,0-0.236,0.106-0.236,0.237v1.688c0,0.13,0.106,0.236,0.236,0.236h0.26C204.038,283.905,204.144,283.799,204.144,283.668z
			 M203.946,272.686v-1.689c0-0.13-0.106-0.236-0.237-0.236h-0.259c-0.13,0-0.236,0.106-0.236,0.236v1.689
			c0,0.13,0.106,0.236,0.236,0.236h0.259C203.84,272.922,203.946,272.816,203.946,272.686z M201.628,268.929
			c0,0.276,3.723,0.276,3.723,0.276C205.351,268.929,201.628,268.929,201.628,268.929z M191.918,257.889
			c0,0.276,3.723,0.276,3.723,0.276C195.641,257.889,191.918,257.889,191.918,257.889z M182.407,257.832
			c0,0.276,3.724,0.276,3.724,0.276C186.13,257.832,182.407,257.832,182.407,257.832z M184.626,256.097v-1.688
			c0-0.131-0.106-0.237-0.236-0.237h-0.26c-0.13,0-0.236,0.106-0.236,0.237v1.688c0,0.131,0.106,0.237,0.236,0.237h0.26
			C184.52,256.334,184.626,256.228,184.626,256.097z M179.567,299.355c0.139,0.139,3.861,0.139,3.861,0.139
			c0-0.275-3.723-0.275-3.723-0.275C179.629,299.218,179.567,299.28,179.567,299.355z M182.308,252.341
			c0,0.276,3.724,0.276,3.724,0.276C186.031,252.341,182.308,252.341,182.308,252.341z M174.862,302.074
			c0.137,0.138,3.86,0.138,3.86,0.138c0-0.276-3.723-0.276-3.723-0.276C174.923,301.935,174.862,301.998,174.862,302.074z
			 M178.296,293.497c0,0.276,3.723,0.276,3.723,0.276C182.019,293.497,178.296,293.497,178.296,293.497z M180.614,297.254v-1.689
			c0-0.13-0.106-0.237-0.237-0.237h-0.259c-0.13,0-0.236,0.106-0.236,0.237v1.689c0,0.13,0.106,0.237,0.236,0.237h0.259
			C180.508,297.491,180.614,297.384,180.614,297.254z M184.726,261.588V259.9c0-0.131-0.106-0.237-0.237-0.237h-0.259
			c-0.131,0-0.237,0.106-0.237,0.237v1.688c0,0.13,0.106,0.236,0.237,0.236h0.259C184.62,261.825,184.726,261.719,184.726,261.588z
			 M182.705,274.306c0,0.276,3.723,0.276,3.723,0.276C186.427,274.306,182.705,274.306,182.705,274.306z M184.923,272.571v-1.689
			c0-0.13-0.106-0.236-0.236-0.236h-0.259c-0.13,0-0.236,0.106-0.236,0.236v1.689c0,0.131,0.106,0.237,0.236,0.237h0.259
			C184.817,272.808,184.923,272.702,184.923,272.571z M185.023,278.063v-1.689c0-0.131-0.106-0.237-0.236-0.237h-0.259
			c-0.131,0-0.237,0.106-0.237,0.237v1.689c0,0.13,0.106,0.236,0.237,0.236h0.259C184.917,278.299,185.023,278.193,185.023,278.063z
			 M177.218,300.201v-1.334v-0.355c0-0.131-0.106-0.237-0.236-0.237h-0.26c-0.105,0-0.161,0.096-0.191,0.192
			c-0.045,0.045-0.045,1.734-0.045,1.734c0,0.13,0.106,0.236,0.236,0.236h0.26C177.112,300.437,177.218,300.331,177.218,300.201z
			 M182.605,268.815c0,0.276,3.723,0.276,3.723,0.276C186.328,268.815,182.605,268.815,182.605,268.815z M182.506,263.323
			c0,0.276,3.723,0.276,3.723,0.276C186.229,263.323,182.506,263.323,182.506,263.323z M184.824,267.08v-1.689
			c0-0.13-0.106-0.237-0.236-0.237h-0.259c-0.131,0-0.237,0.106-0.237,0.237v1.689c0,0.13,0.106,0.236,0.237,0.236h0.259
			C184.718,267.317,184.824,267.211,184.824,267.08z M180.218,275.288V273.6c0-0.131-0.106-0.237-0.237-0.237h-0.259
			c-0.13,0-0.236,0.106-0.236,0.237v1.688c0,0.13,0.107,0.237,0.236,0.237h0.259C180.112,275.525,180.218,275.419,180.218,275.288z
			 M180.019,264.305v-1.688c0-0.13-0.106-0.237-0.236-0.237c-0.39,0-0.496,0.107-0.496,0.237v1.688c0,0.131,0.106,0.237,0.237,0.237
			C179.913,264.542,180.019,264.436,180.019,264.305z M177.801,266.04c0,0.275,3.723,0.275,3.723,0.275
			C181.523,266.04,177.801,266.04,177.801,266.04z M180.118,269.797v-1.688c0-0.131-0.106-0.237-0.236-0.237h-0.26
			c-0.13,0-0.236,0.106-0.236,0.237v1.688c0,0.131,0.106,0.237,0.236,0.237h0.26C180.012,270.034,180.118,269.928,180.118,269.797z
			 M177.702,260.549c0,0.276,3.722,0.276,3.722,0.276C181.424,260.549,177.702,260.549,177.702,260.549z M179.82,253.323v-1.689
			c0-0.13-0.105-0.236-0.235-0.236h-0.26c-0.13,0-0.236,0.106-0.236,0.236v1.689c0,0.131,0.106,0.237,0.236,0.237h0.26
			C179.715,253.56,179.82,253.454,179.82,253.323z M177.602,255.058c0,0.276,3.723,0.276,3.723,0.276
			C181.324,255.058,177.602,255.058,177.602,255.058z M180.515,291.762v-1.688c0-0.131-0.106-0.237-0.237-0.237
			c-0.389,0-0.495,0.106-0.495,0.237v1.688c0,0.131,0.106,0.236,0.236,0.236C180.409,291.999,180.515,291.893,180.515,291.762z
			 M179.92,258.814v-1.689c0-0.131-0.106-0.236-0.236-0.236h-0.26c-0.13,0-0.236,0.106-0.236,0.236v1.689
			c0,0.13,0.106,0.236,0.236,0.236h0.26C179.814,259.05,179.92,258.944,179.92,258.814z M178.098,282.515
			c0,0.276,3.723,0.276,3.723,0.276C181.821,282.515,178.098,282.515,178.098,282.515z M180.416,286.272v-1.689
			c0-0.131-0.106-0.237-0.236-0.237h-0.26c-0.131,0-0.237,0.106-0.237,0.237v1.689c0,0.13,0.106,0.236,0.237,0.236h0.26
			C180.309,286.508,180.416,286.401,180.416,286.272z M178.197,288.006c0,0.276,3.723,0.276,3.723,0.276
			C181.92,288.006,178.197,288.006,178.197,288.006z M177.899,271.531c0,0.276,3.724,0.276,3.724,0.276
			C181.622,271.531,177.899,271.531,177.899,271.531z M182.803,279.798c0,0.276,3.724,0.276,3.724,0.276
			C186.527,279.798,182.803,279.798,182.803,279.798z M177.998,277.023c0,0.276,3.723,0.276,3.723,0.276
			C181.721,277.023,177.998,277.023,177.998,277.023z M180.316,280.78v-1.689c0-0.13-0.106-0.236-0.236-0.236h-0.26
			c-0.13,0-0.237,0.106-0.237,0.236v1.689c0,0.13,0.106,0.236,0.237,0.236h0.26C180.21,281.016,180.316,280.91,180.316,280.78z
			 M190.224,302.802v-1.689c0-0.13-0.106-0.236-0.236-0.236h-0.26c-0.131,0-0.237,0.106-0.237,0.236v1.689
			c0,0.13,0.106,0.237,0.237,0.237h0.26C190.118,303.039,190.224,302.933,190.224,302.802z M189.927,286.328v-1.688
			c0-0.131-0.106-0.237-0.237-0.237c-0.389,0-0.495,0.106-0.495,0.237v1.688c0,0.131,0.106,0.237,0.236,0.237
			C189.821,286.565,189.927,286.459,189.927,286.328z M190.026,291.82v-1.689c0-0.13-0.106-0.236-0.237-0.236h-0.26
			c-0.13,0-0.236,0.106-0.236,0.236v1.689c0,0.13,0.106,0.237,0.236,0.237h0.26C189.92,292.057,190.026,291.951,190.026,291.82z
			 M187.609,282.572c0,0.276,3.723,0.276,3.723,0.276C191.332,282.572,187.609,282.572,187.609,282.572z M187.51,277.08
			c0,0.276,3.723,0.276,3.723,0.276C191.232,277.08,187.51,277.08,187.51,277.08z M189.828,280.837v-1.689
			c0-0.13-0.106-0.237-0.236-0.237h-0.26c-0.131,0-0.236,0.106-0.236,0.237v1.689c0,0.13,0.106,0.237,0.236,0.237h0.26
			C189.721,281.073,189.828,280.967,189.828,280.837z M189.728,275.345v-1.688c0-0.131-0.106-0.237-0.236-0.237h-0.26
			c-0.13,0-0.237,0.106-0.237,0.237v1.688c0,0.13,0.106,0.236,0.237,0.236h0.26C189.623,275.582,189.728,275.476,189.728,275.345z
			 M187.41,271.589c0,0.276,3.723,0.276,3.723,0.276C191.133,271.589,187.41,271.589,187.41,271.589z M187.807,293.555
			c0,0.275,3.724,0.275,3.724,0.275C191.53,293.555,187.807,293.555,187.807,293.555z M189.178,304.905
			c0.139,0.138,3.861,0.138,3.861,0.138c0-0.276-3.723-0.276-3.723-0.276C189.24,304.766,189.178,304.828,189.178,304.905z
			 M194.236,261.646v-1.689c0-0.129-0.106-0.236-0.235-0.236h-0.26c-0.131,0-0.237,0.107-0.237,0.236v1.689
			c0,0.13,0.106,0.236,0.237,0.236h0.26C194.13,261.882,194.236,261.776,194.236,261.646z M190.126,297.311v-1.689
			c0-0.13-0.106-0.237-0.237-0.237h-0.26c-0.129,0-0.236,0.106-0.236,0.237v1.689c0,0.13,0.106,0.236,0.236,0.236h0.26
			C190.02,297.547,190.126,297.441,190.126,297.311z M208.751,275.46v-1.688c0-0.13-0.106-0.237-0.237-0.237
			c-0.389,0-0.495,0.106-0.495,0.237v1.688c0,0.13,0.106,0.237,0.236,0.237C208.645,275.697,208.751,275.59,208.751,275.46z
			 M187.906,299.046c0,0.276,3.723,0.276,3.723,0.276C191.629,299.046,187.906,299.046,187.906,299.046z M186.592,305.985
			c0.13,0,0.236-0.106,0.236-0.237v-1.688c0-0.13-0.106-0.237-0.236-0.237h-0.26c-0.119,0-0.198,0.101-0.215,0.215
			c-0.021,0.022-0.021,1.709-0.021,1.709c0,0.131,0.106,0.237,0.237,0.237H186.592z M184.471,307.622
			c0.138,0.138,3.861,0.138,3.861,0.138c0-0.276-3.723-0.276-3.723-0.276C184.533,307.484,184.471,307.546,184.471,307.622z
			 M189.531,264.363v-1.689c0-0.13-0.106-0.236-0.237-0.236h-0.259c-0.13,0-0.236,0.106-0.236,0.236v1.689
			c0,0.13,0.106,0.236,0.236,0.236h0.259C189.424,264.599,189.531,264.493,189.531,264.363z M181.788,303.211
			c0.129,0,0.236-0.107,0.236-0.236l0.001-1.689c0-0.13-0.106-0.236-0.236-0.236h-0.26c-0.113,0-0.18,0.098-0.204,0.203
			c-0.033,0.034-0.033,1.722-0.033,1.722c0,0.131,0.106,0.237,0.236,0.237h0.26L181.788,303.211z M189.63,269.855v-1.689
			c0-0.131-0.106-0.237-0.236-0.237h-0.26c-0.13,0-0.237,0.106-0.237,0.237v1.689c0,0.129,0.106,0.235,0.237,0.235h0.26
			C189.524,270.09,189.63,269.984,189.63,269.855z M185.32,294.537v-1.688c0-0.131-0.106-0.237-0.236-0.237h-0.26
			c-0.13,0-0.237,0.105-0.237,0.237v1.688c0,0.13,0.106,0.236,0.237,0.236h0.26C185.214,294.773,185.32,294.667,185.32,294.537z
			 M182.903,285.288c0,0.276,3.723,0.276,3.723,0.276C186.626,285.288,182.903,285.288,182.903,285.288z M183.101,296.272
			c0,0.276,3.723,0.276,3.723,0.276C186.824,296.272,183.101,296.272,183.101,296.272z M183.002,290.78
			c0,0.276,3.723,0.276,3.723,0.276C186.724,290.78,183.002,290.78,183.002,290.78z M185.221,289.045v-1.688
			c0-0.131-0.106-0.237-0.237-0.237h-0.26c-0.131,0-0.237,0.106-0.237,0.237v1.688c0,0.131,0.107,0.237,0.237,0.237h0.26
			C185.115,289.282,185.221,289.176,185.221,289.045z M179.667,304.848c0.137,0.138,3.861,0.138,3.861,0.138
			c0-0.276-3.724-0.276-3.724-0.276C179.728,304.71,179.667,304.772,179.667,304.848z M187.212,260.606
			c0,0.276,3.723,0.276,3.723,0.276C190.935,260.606,187.212,260.606,187.212,260.606z M185.122,283.554v-1.688
			c0-0.131-0.106-0.237-0.237-0.237h-0.26c-0.129,0-0.236,0.106-0.236,0.237v1.688c0,0.13,0.106,0.237,0.236,0.237h0.26
			C185.016,283.79,185.122,283.684,185.122,283.554z M187.311,266.098c0,0.275,3.724,0.275,3.724,0.275
			C191.035,266.098,187.311,266.098,187.311,266.098z M189.431,258.871v-1.688c0-0.131-0.106-0.237-0.236-0.237h-0.259
			c-0.13,0-0.236,0.106-0.236,0.237v1.688c0,0.13,0.106,0.236,0.236,0.236h0.259C189.325,259.108,189.431,259.002,189.431,258.871z
			 M184.373,302.13c0.138,0.138,3.861,0.138,3.861,0.138c0-0.276-3.724-0.276-3.724-0.276
			C184.435,301.992,184.373,302.055,184.373,302.13z M187.113,255.115c0,0.276,3.723,0.276,3.723,0.276
			C190.836,255.115,187.113,255.115,187.113,255.115z M185.419,300.028v-1.689c0-0.13-0.106-0.236-0.237-0.236h-0.259
			c-0.131,0-0.236,0.106-0.236,0.236v1.689c0,0.129,0.106,0.236,0.236,0.236h0.259C185.313,300.264,185.419,300.158,185.419,300.028
			z M223.822,317.065v-1.689c0-0.13-0.106-0.236-0.236-0.236h-0.26c-0.13,0-0.236,0.106-0.236,0.236v1.689
			c0,0.13,0.106,0.236,0.236,0.236h0.26C223.716,317.301,223.822,317.195,223.822,317.065z M228.17,297.539v-1.688
			c0-0.13-0.106-0.237-0.236-0.237c-0.39,0-0.496,0.106-0.496,0.237v1.688c0,0.131,0.106,0.237,0.237,0.237
			C228.064,297.776,228.17,297.67,228.17,297.539z M225.951,299.275c0,0.276,3.723,0.276,3.723,0.276
			C229.674,299.275,225.951,299.275,225.951,299.275z M228.33,303.365v-1.689c0-0.13-0.106-0.236-0.236-0.236h-0.259
			c-0.131,0-0.237,0.106-0.237,0.236v1.689c0,0.131,0.106,0.237,0.237,0.237h0.259C228.224,303.603,228.33,303.496,228.33,303.365z
			 M226.111,305.1c0,0.276,3.723,0.276,3.723,0.276C229.834,305.1,226.111,305.1,226.111,305.1z M225.753,288.292
			c0,0.276,3.723,0.276,3.723,0.276C229.475,288.292,225.753,288.292,225.753,288.292z M228.429,308.857v-1.689
			c0-0.13-0.106-0.236-0.237-0.236c-0.389,0-0.495,0.106-0.495,0.236v1.689c0,0.13,0.106,0.236,0.236,0.236
			C228.323,309.093,228.429,308.987,228.429,308.857z M228.071,292.049v-1.689c0-0.13-0.106-0.236-0.236-0.236h-0.26
			c-0.131,0-0.237,0.106-0.237,0.236v1.689c0,0.13,0.106,0.236,0.237,0.236h0.26C227.965,292.285,228.071,292.179,228.071,292.049z
			 M160.7,247.717v-1.688c0-0.131-0.107-0.237-0.238-0.237h-0.26c-0.131,0-0.238,0.106-0.238,0.237v1.688
			c0,0.131,0.107,0.237,0.238,0.237h0.26C160.593,247.954,160.7,247.848,160.7,247.717z M158.937,282.538
			c0.139,0.139,3.862,0.139,3.862,0.139c0-0.276-3.723-0.276-3.723-0.276C158.999,282.4,158.937,282.462,158.937,282.538z
			 M227.971,286.558v-1.689c0-0.13-0.107-0.236-0.236-0.236h-0.26c-0.13,0-0.237,0.106-0.237,0.236v1.689
			c0,0.13,0.107,0.236,0.237,0.236h0.26C227.865,286.794,227.971,286.688,227.971,286.558z M226.21,310.592
			c0,0.276,3.723,0.276,3.723,0.276C229.933,310.592,226.21,310.592,226.21,310.592z M161.294,280.665v-1.689
			c0-0.13-0.107-0.236-0.236-0.236h-0.26c-0.13,0-0.238,0.106-0.238,0.236v1.689c0,0.131,0.107,0.237,0.238,0.237h0.26
			C161.187,280.902,161.294,280.796,161.294,280.665z M155.542,285.484c0.137,0.138,3.861,0.138,3.861,0.138
			c0-0.275-3.724-0.275-3.724-0.275C155.604,285.347,155.542,285.408,155.542,285.484z M228.528,314.349v-1.689
			c0-0.13-0.106-0.237-0.237-0.237h-0.259c-0.13,0-0.236,0.107-0.236,0.237v1.689c0,0.13,0.106,0.236,0.236,0.236h0.259
			C228.422,314.585,228.528,314.479,228.528,314.349z M227.895,318.151v1.688c0,0.13,0.107,0.237,0.236,0.237h0.26
			c0.131,0,0.237-0.106,0.237-0.237v-1.688c0-0.13-0.106-0.237-0.237-0.237h-0.26C228.001,317.914,227.895,318.021,227.895,318.151z
			 M230.17,316.221c-0.138-0.138-3.861-0.138-3.861-0.138c0,0.276,3.724,0.276,3.724,0.276
			C230.108,316.358,230.17,316.296,230.17,316.221z M225.852,293.783c0,0.277,3.723,0.277,3.723,0.277
			C229.575,293.783,225.852,293.783,225.852,293.783z M225.653,282.801c0,0.276,3.723,0.276,3.723,0.276
			C229.376,282.801,225.653,282.801,225.653,282.801z M177.503,249.566c0,0.276,3.723,0.276,3.723,0.276
			C181.226,249.566,177.503,249.566,177.503,249.566z M221.504,313.309c0,0.276,3.723,0.276,3.723,0.276
			C225.227,313.309,221.504,313.309,221.504,313.309z M221.405,307.817c0,0.275,3.723,0.275,3.723,0.275
			C225.128,307.817,221.405,307.817,221.405,307.817z M223.465,300.258v-1.689c0-0.131-0.106-0.237-0.237-0.237h-0.26
			c-0.13,0-0.237,0.106-0.237,0.237v1.689c0,0.129,0.107,0.236,0.237,0.236h0.26C223.359,300.494,223.465,300.387,223.465,300.258z
			 M223.624,306.082v-1.688c0-0.131-0.106-0.237-0.237-0.237h-0.26c-0.129,0-0.236,0.106-0.236,0.237v1.688
			c0,0.131,0.107,0.237,0.236,0.237h0.26C223.518,306.319,223.624,306.213,223.624,306.082z M221.245,301.991
			c0,0.276,3.723,0.276,3.723,0.276C224.968,301.991,221.245,301.991,221.245,301.991z M223.723,311.574v-1.689
			c0-0.13-0.106-0.236-0.236-0.236h-0.259c-0.131,0-0.237,0.106-0.237,0.236v1.689c0,0.131,0.106,0.237,0.237,0.237h0.259
			C223.616,311.811,223.723,311.705,223.723,311.574z M221.603,318.8c0,0.276,3.723,0.276,3.723,0.276
			C225.326,318.8,221.603,318.8,221.603,318.8z M225.554,277.309c0,0.276,3.724,0.276,3.724,0.276
			C229.278,277.309,225.554,277.309,225.554,277.309z M219.116,319.782v-1.689c0-0.13-0.106-0.236-0.237-0.236h-0.259
			c-0.13,0-0.236,0.106-0.236,0.236v1.689c0,0.13,0.106,0.236,0.236,0.236h0.259C219.01,320.019,219.116,319.913,219.116,319.782z
			 M227.873,281.066v-1.689c0-0.13-0.106-0.236-0.236-0.236h-0.26c-0.13,0-0.236,0.106-0.236,0.236v1.689
			c0,0.131,0.106,0.237,0.236,0.237h0.26C227.767,281.303,227.873,281.197,227.873,281.066z M219.806,323.802
			c-0.012,0.013-0.012,1.701-0.012,1.701c0,0.132,0.106,0.238,0.235,0.238h0.26c0.131,0,0.237-0.106,0.237-0.237v-1.283v-0.406
			c0-0.131-0.106-0.237-0.237-0.237C219.907,323.578,219.816,323.681,219.806,323.802z M222.069,321.884
			c-0.139-0.138-3.861-0.138-3.861-0.138c0,0.276,3.723,0.276,3.723,0.276C222.007,322.023,222.069,321.96,222.069,321.884z
			 M223.189,320.868v1.689c0,0.13,0.106,0.237,0.237,0.237c0.389,0,0.495-0.106,0.495-0.237v-1.689c0-0.13-0.106-0.237-0.237-0.237
			C223.295,320.631,223.189,320.737,223.189,320.868z M132.365,258.528v-1.688c0-0.13-0.107-0.237-0.238-0.237h-0.26
			c-0.131,0-0.238,0.107-0.238,0.237v1.688c0,0.13,0.107,0.236,0.238,0.236h0.26C132.258,258.764,132.365,258.658,132.365,258.528z
			 M221.146,296.501c0,0.276,3.723,0.276,3.723,0.276C224.869,296.501,221.146,296.501,221.146,296.501z M130.005,260.401
			c0.139,0.137,3.862,0.137,3.862,0.137c0-0.275-3.723-0.275-3.723-0.275C130.068,260.263,130.005,260.324,130.005,260.401z
			 M125.299,263.118c0.14,0.138,3.862,0.138,3.862,0.138c0-0.276-3.723-0.276-3.723-0.276
			C125.363,262.98,125.299,263.042,125.299,263.118z M127.66,261.245v-1.689c0-0.13-0.107-0.237-0.238-0.237h-0.26
			c-0.131,0-0.238,0.106-0.238,0.237v1.689c0,0.13,0.107,0.236,0.238,0.236h0.26C127.552,261.481,127.66,261.375,127.66,261.245z
			 M139.419,254.967c0.139,0.138,3.861,0.138,3.861,0.138c0-0.276-3.722-0.276-3.722-0.276
			C139.481,254.828,139.419,254.891,139.419,254.967z M134.712,257.684c0.138,0.137,3.862,0.137,3.862,0.137
			c0-0.275-3.724-0.275-3.724-0.275C134.776,257.546,134.712,257.608,134.712,257.684z M137.07,255.811v-1.689
			c0-0.131-0.107-0.237-0.238-0.237c-0.389,0-0.496,0.106-0.496,0.237v1.689c0,0.13,0.107,0.237,0.238,0.237
			C136.964,256.048,137.07,255.941,137.07,255.811z M121.905,266.064c0.138,0.138,3.861,0.138,3.861,0.138
			c0-0.276-3.723-0.276-3.723-0.276C121.967,265.927,121.905,265.989,121.905,266.064z M116.255,266.145
			c0-0.275-3.062-0.275-3.062-0.275l-0.478,0.275H116.255z M122.952,263.962v-1.689c0-0.13-0.107-0.236-0.236-0.236h-0.259
			c-0.131,0-0.237,0.106-0.237,0.236v1.689c0,0.129,0.107,0.236,0.237,0.236h0.259C122.845,264.198,122.952,264.092,122.952,263.962
			z M119.32,264.984h-0.259c-0.17,0.071-0.238,0.139-0.238,0.236v1.688c0.237,0.236,0.497,0.236,0.497,0.236
			c0.131,0,0.238-0.106,0.238-0.236v-1.551C119.557,265.09,119.45,264.984,119.32,264.984z M117.197,268.782
			c0.14,0.138,3.862,0.138,3.862,0.138c0-0.276-3.723-0.276-3.723-0.276C117.26,268.644,117.197,268.706,117.197,268.782z
			 M141.776,253.094v-1.688c0-0.131-0.107-0.237-0.236-0.237h-0.259c-0.131,0-0.238,0.106-0.238,0.237v1.688
			c0,0.13,0.107,0.237,0.238,0.237h0.259C141.669,253.331,141.776,253.224,141.776,253.094z M119.656,270.712
			c0-0.131-0.107-0.237-0.238-0.237h-0.26c-0.129,0-0.236,0.106-0.236,0.237v1.387l0.656,0.379
			C119.656,272.4,119.656,270.712,119.656,270.712z M114.851,267.938c0-0.131-0.107-0.237-0.238-0.237h-0.26
			c-0.13,0-0.238,0.106-0.238,0.237v1.387l0.657,0.379C114.851,269.626,114.851,267.938,114.851,267.938z M158.243,244.098
			c0.139,0.138,3.861,0.138,3.861,0.138c0-0.276-3.723-0.276-3.723-0.276C158.305,243.96,158.243,244.022,158.243,244.098z
			 M158.679,260.435c0,0.276,3.723,0.276,3.723,0.276C162.402,260.435,158.679,260.435,158.679,260.435z M160.997,264.191v-1.689
			c0-0.13-0.107-0.237-0.238-0.237h-0.26c-0.129,0-0.236,0.107-0.236,0.237v1.689c0,0.13,0.107,0.237,0.236,0.237h0.26
			C160.89,264.428,160.997,264.322,160.997,264.191z M160.362,267.994v1.688c0,0.13,0.107,0.236,0.238,0.236h0.26
			c0.131,0,0.238-0.106,0.238-0.236v-1.688c0-0.131-0.107-0.237-0.238-0.237h-0.26C160.469,267.757,160.362,267.863,160.362,267.994
			z M160.799,253.208v-1.689c0-0.13-0.107-0.236-0.236-0.236h-0.26c-0.13,0-0.238,0.106-0.238,0.236v1.689
			c0,0.131,0.107,0.236,0.238,0.236h0.26C160.692,253.445,160.799,253.339,160.799,253.208z M162.639,266.064
			c-0.138-0.138-3.862-0.138-3.862-0.138c0,0.277,3.724,0.277,3.724,0.277C162.576,266.202,162.639,266.14,162.639,266.064z
			 M158.58,254.943c0,0.276,3.723,0.276,3.723,0.276C162.303,254.943,158.58,254.943,158.58,254.943z M160.899,258.7v-1.689
			c0-0.13-0.107-0.236-0.237-0.236h-0.26c-0.13,0-0.238,0.106-0.238,0.236v1.689c0,0.13,0.107,0.236,0.238,0.236h0.26
			C160.792,258.936,160.899,258.83,160.899,258.7z M151.189,247.66v-1.689c0-0.129-0.107-0.235-0.238-0.235h-0.26
			c-0.131,0-0.238,0.106-0.238,0.235v1.689c0,0.13,0.107,0.236,0.238,0.236h0.26C151.082,247.896,151.189,247.79,151.189,247.66z
			 M144.124,252.249c0.139,0.138,3.862,0.138,3.862,0.138c0-0.276-3.723-0.276-3.723-0.276
			C144.187,252.112,144.124,252.174,144.124,252.249z M160.602,242.226v-1.689c0-0.131-0.107-0.236-0.238-0.236h-0.259
			c-0.131,0-0.238,0.106-0.238,0.236v1.689c0,0.13,0.107,0.236,0.238,0.236h0.259C160.495,242.462,160.602,242.356,160.602,242.226z
			 M146.484,250.377v-1.689c0-0.13-0.107-0.236-0.238-0.236h-0.26c-0.131,0-0.238,0.106-0.238,0.236v1.689
			c0,0.13,0.107,0.236,0.238,0.236h0.26C146.376,250.613,146.484,250.507,146.484,250.377z M148.831,249.532
			c0.138,0.138,3.86,0.138,3.86,0.138c0-0.276-3.722-0.276-3.722-0.276C148.894,249.395,148.831,249.457,148.831,249.532z
			 M158.48,249.452c0,0.276,3.723,0.276,3.723,0.276C162.203,249.452,158.48,249.452,158.48,249.452z M155.895,244.943v-1.689
			c0-0.131-0.107-0.237-0.238-0.237c-0.389,0-0.496,0.106-0.496,0.237v1.689c0,0.13,0.107,0.236,0.238,0.236
			C155.788,245.179,155.895,245.073,155.895,244.943z M153.537,246.816c0.139,0.138,3.862,0.138,3.862,0.138
			c0-0.277-3.723-0.277-3.723-0.277C153.6,246.677,153.537,246.739,153.537,246.816z M216.341,293.726
			c0,0.276,3.723,0.276,3.723,0.276C220.064,293.726,216.341,293.726,216.341,293.726z M213.655,283.726v-1.689
			c0-0.13-0.106-0.236-0.236-0.236h-0.26c-0.131,0-0.237,0.106-0.237,0.236v1.689c0,0.13,0.106,0.236,0.237,0.236h0.26
			C213.549,283.962,213.655,283.856,213.655,283.726z M213.556,278.235v-1.69c0-0.129-0.106-0.236-0.236-0.236h-0.259
			c-0.131,0-0.237,0.106-0.237,0.236v1.69c0,0.131,0.106,0.237,0.237,0.237h0.259C213.45,278.471,213.556,278.365,213.556,278.235z
			 M211.337,279.969c0,0.275,3.723,0.275,3.723,0.275C215.06,279.969,211.337,279.969,211.337,279.969z M213.755,289.217v-1.689
			c0-0.13-0.107-0.237-0.237-0.237c-0.39,0-0.495,0.106-0.495,0.237v1.689c0,0.13,0.106,0.236,0.237,0.236
			C213.648,289.453,213.755,289.347,213.755,289.217z M211.437,285.461c0,0.275,3.723,0.275,3.723,0.275
			C215.159,285.461,211.437,285.461,211.437,285.461z M211.238,274.478c0,0.275,3.724,0.275,3.724,0.275
			C214.962,274.478,211.238,274.478,211.238,274.478z M211.139,268.986c0,0.276,3.723,0.276,3.723,0.276
			C214.862,268.986,211.139,268.986,211.139,268.986z M213.458,272.743v-1.688c0-0.131-0.106-0.237-0.237-0.237h-0.26
			c-0.13,0-0.236,0.106-0.236,0.237v1.688c0,0.13,0.106,0.236,0.236,0.236h0.26C213.352,272.979,213.458,272.873,213.458,272.743z
			 M211.536,290.952c0,0.276,3.723,0.276,3.723,0.276C215.259,290.952,211.536,290.952,211.536,290.952z M214.212,311.516v-1.688
			c0-0.131-0.106-0.237-0.237-0.237h-0.26c-0.129,0-0.236,0.106-0.236,0.237v1.688c0,0.13,0.107,0.237,0.236,0.237h0.26
			C214.106,311.753,214.212,311.647,214.212,311.516z M211.833,307.426c0,0.276,3.723,0.276,3.723,0.276
			C215.556,307.426,211.833,307.426,211.833,307.426z M211.734,301.935c0,0.275,3.724,0.275,3.724,0.275
			C215.457,301.935,211.734,301.935,211.734,301.935z M211.634,296.443c0,0.276,3.724,0.276,3.724,0.276
			C215.358,296.443,211.634,296.443,211.634,296.443z M213.854,294.708v-1.688c0-0.13-0.106-0.237-0.237-0.237h-0.26
			c-0.13,0-0.236,0.107-0.236,0.237v1.688c0,0.131,0.106,0.237,0.236,0.237h0.26C213.748,294.945,213.854,294.839,213.854,294.708z
			 M213.953,300.2v-1.688c0-0.13-0.106-0.237-0.237-0.237h-0.26c-0.13,0-0.236,0.107-0.236,0.237v1.688
			c0,0.131,0.106,0.237,0.236,0.237h0.26C213.847,300.437,213.953,300.331,213.953,300.2z M208.46,316.336
			c0.138,0.137,3.861,0.137,3.861,0.137c0-0.276-3.723-0.276-3.723-0.276C208.521,316.197,208.46,316.259,208.46,316.336z
			 M214.052,305.691v-1.689c0-0.13-0.106-0.236-0.236-0.236h-0.26c-0.131,0-0.237,0.106-0.237,0.236v1.689
			c0,0.131,0.106,0.237,0.237,0.237h0.26C213.946,305.928,214.052,305.822,214.052,305.691z M209.049,291.934v-1.689
			c0-0.13-0.106-0.236-0.237-0.236h-0.26c-0.13,0-0.237,0.106-0.237,0.236v1.689c0,0.13,0.107,0.236,0.237,0.236h0.26
			C208.943,292.17,209.049,292.064,209.049,291.934z M206.73,288.178c0,0.276,3.724,0.276,3.724,0.276
			C210.454,288.178,206.73,288.178,206.73,288.178z M206.829,293.669c0,0.276,3.723,0.276,3.723,0.276
			C210.552,293.669,206.829,293.669,206.829,293.669z M206.631,282.686c0,0.276,3.724,0.276,3.724,0.276
			C210.354,282.686,206.631,282.686,206.631,282.686z M208.85,280.951v-1.688c0-0.13-0.106-0.237-0.236-0.237h-0.259
			c-0.131,0-0.237,0.107-0.237,0.237v1.688c0,0.131,0.106,0.237,0.237,0.237h0.259C208.744,281.188,208.85,281.082,208.85,280.951z
			 M208.95,286.443v-1.689c0-0.13-0.106-0.236-0.237-0.236h-0.259c-0.13,0-0.236,0.106-0.236,0.236v1.689
			c0,0.131,0.106,0.237,0.236,0.237h0.259C208.844,286.679,208.95,286.574,208.95,286.443z M209.147,297.425v-1.688
			c0-0.131-0.106-0.237-0.236-0.237h-0.26c-0.131,0-0.237,0.106-0.237,0.237v1.688c0,0.13,0.107,0.237,0.237,0.237h0.26
			C209.041,297.662,209.147,297.556,209.147,297.425z M207.126,310.143c0,0.276,3.723,0.276,3.723,0.276
			C210.85,310.143,207.126,310.143,207.126,310.143z M203.753,319.053c0.137,0.139,3.861,0.139,3.861,0.139
			c0-0.276-3.724-0.276-3.724-0.276C203.815,318.915,203.753,318.977,203.753,319.053z M209.506,314.234v-1.689
			c0-0.131-0.106-0.237-0.237-0.237c-0.389,0-0.495,0.106-0.495,0.237v1.689c0,0.13,0.106,0.236,0.236,0.236
			C209.4,314.47,209.506,314.364,209.506,314.234z M206.11,317.181v-1.689c0-0.131-0.106-0.237-0.237-0.237
			c-0.363,0-0.418,0.096-0.449,0.19c-0.047,0.048-0.047,1.736-0.047,1.736c0,0.131,0.106,0.237,0.236,0.237h0.26
			C206.004,317.417,206.11,317.311,206.11,317.181z M209.346,308.408v-1.688c0-0.131-0.106-0.237-0.236-0.237
			c-0.39,0-0.495,0.106-0.495,0.237v1.688c0,0.13,0.106,0.237,0.236,0.237C209.24,308.645,209.346,308.539,209.346,308.408z
			 M209.247,302.917v-1.688c0-0.131-0.106-0.237-0.237-0.237c-0.39,0-0.496,0.106-0.496,0.237v1.688
			c0,0.131,0.106,0.237,0.237,0.237C209.141,303.153,209.247,303.047,209.247,302.917z M207.028,304.651
			c0,0.276,3.723,0.276,3.723,0.276C210.751,304.651,207.028,304.651,207.028,304.651z M206.929,299.16
			c0,0.276,3.723,0.276,3.723,0.276C210.651,299.16,206.929,299.16,206.929,299.16z M223.067,278.291v-1.688
			c0-0.13-0.106-0.237-0.236-0.237h-0.26c-0.13,0-0.237,0.106-0.237,0.237v1.688c0,0.131,0.107,0.237,0.237,0.237h0.26
			C222.961,278.528,223.067,278.422,223.067,278.291z M214.311,317.008v-1.688c0-0.131-0.106-0.237-0.236-0.237h-0.259
			c-0.131,0-0.237,0.106-0.237,0.237v1.688c0,0.13,0.106,0.237,0.237,0.237h0.259C214.204,317.245,214.311,317.138,214.311,317.008z
			 M213.264,319.11c0.138,0.138,3.861,0.138,3.861,0.138c0-0.275-3.723-0.275-3.723-0.275
			C213.326,318.972,213.264,319.034,213.264,319.11z M216.798,316.026c0,0.276,3.723,0.276,3.723,0.276
			C220.521,316.026,216.798,316.026,216.798,316.026z M213.501,324.464c0,0.276,3.723,0.276,3.723,0.276
			C217.224,324.464,213.501,324.464,213.501,324.464z M218.918,308.799v-1.688c0-0.13-0.106-0.237-0.236-0.237
			c-0.39,0-0.496,0.106-0.496,0.237v1.688c0,0.131,0.106,0.237,0.237,0.237C218.811,309.036,218.918,308.93,218.918,308.799z
			 M216.699,310.534c0,0.276,3.723,0.276,3.723,0.276C220.422,310.534,216.699,310.534,216.699,310.534z M219.017,314.291v-1.688
			c0-0.13-0.106-0.237-0.236-0.237h-0.259c-0.13,0-0.236,0.106-0.236,0.237v1.688c0,0.131,0.106,0.237,0.236,0.237h0.259
			C218.911,314.528,219.017,314.422,219.017,314.291z M215.012,321.016c-0.024,0.025-0.024,1.713-0.024,1.713
			c0,0.131,0.106,0.237,0.237,0.237h0.26c0.142-0.079,0.237-0.132,0.237-0.237v-1.689c0-0.13-0.106-0.236-0.237-0.236h-0.26
			C215.107,320.803,215.03,320.904,215.012,321.016z M220.749,274.535c0,0.276,3.723,0.276,3.723,0.276
			C224.472,274.535,220.749,274.535,220.749,274.535z M210.678,320.191c0.236-0.237,0.236-1.556,0.236-1.556v-0.369
			c0-0.131-0.106-0.236-0.236-0.236h-0.26c-0.111,0-0.175,0.098-0.201,0.201c-0.036,0.036-0.036,1.724-0.036,1.724
			c0,0.131,0.106,0.237,0.236,0.237C210.678,320.191,210.678,320.191,210.678,320.191z M220.948,285.517
			c0,0.276,3.723,0.276,3.723,0.276C224.671,285.517,220.948,285.517,220.948,285.517z M223.266,289.274v-1.689
			c0-0.13-0.106-0.236-0.237-0.236c-0.39,0-0.496,0.106-0.496,0.236v1.689c0,0.13,0.106,0.237,0.237,0.237
			C223.16,289.511,223.266,289.405,223.266,289.274z M223.365,294.766v-1.689c0-0.13-0.106-0.236-0.237-0.236h-0.26
			c-0.13,0-0.235,0.106-0.235,0.236v1.689c0,0.13,0.105,0.236,0.235,0.236h0.26C223.259,295.002,223.365,294.896,223.365,294.766z
			 M223.166,283.783v-1.688c0-0.132-0.106-0.237-0.237-0.237c-0.39,0-0.496,0.105-0.496,0.237v1.688c0,0.13,0.106,0.237,0.237,0.237
			C223.06,284.02,223.166,283.913,223.166,283.783z M220.849,280.026c0,0.276,3.723,0.276,3.723,0.276
			C224.571,280.026,220.849,280.026,220.849,280.026z M221.046,291.009c0,0.276,3.724,0.276,3.724,0.276
			C224.77,291.009,221.046,291.009,221.046,291.009z M216.044,277.252c0,0.276,3.723,0.276,3.723,0.276
			C219.766,277.252,216.044,277.252,216.044,277.252z M216.142,282.743c0,0.277,3.724,0.277,3.724,0.277
			C219.866,282.743,216.142,282.743,216.142,282.743z M218.362,281.009v-1.689c0-0.131-0.106-0.237-0.237-0.237h-0.259
			c-0.13,0-0.236,0.106-0.236,0.237v1.689c0,0.13,0.106,0.236,0.236,0.236h0.259C218.256,281.245,218.362,281.139,218.362,281.009z
			 M216.539,304.709c0,0.276,3.723,0.276,3.723,0.276C220.262,304.709,216.539,304.709,216.539,304.709z M208.558,321.827
			c0.138,0.139,3.861,0.139,3.861,0.139c0-0.276-3.723-0.276-3.723-0.276C208.62,321.69,208.558,321.752,208.558,321.827z
			 M211.993,313.251c0,0.276,3.723,0.276,3.723,0.276C215.716,313.251,211.993,313.251,211.993,313.251z M215.944,271.761
			c0,0.276,3.723,0.276,3.723,0.276C219.667,271.761,215.944,271.761,215.944,271.761z M218.262,275.517v-1.689
			c0-0.13-0.106-0.236-0.237-0.236c-0.39,0-0.496,0.106-0.496,0.236v1.689c0,0.13,0.106,0.236,0.237,0.236
			C218.156,275.754,218.262,275.647,218.262,275.517z M218.659,297.483v-1.689c0-0.13-0.106-0.236-0.236-0.236h-0.26
			c-0.131,0-0.237,0.106-0.237,0.236v1.689c0,0.13,0.106,0.237,0.237,0.237h0.26C218.553,297.72,218.659,297.613,218.659,297.483z
			 M216.44,299.218c0,0.276,3.723,0.276,3.723,0.276C220.163,299.218,216.44,299.218,216.44,299.218z M218.758,302.974v-1.689
			c0-0.13-0.106-0.236-0.237-0.236c-0.389,0-0.496,0.106-0.496,0.236v1.689c0,0.13,0.107,0.236,0.237,0.236
			C218.652,303.21,218.758,303.104,218.758,302.974z M218.461,286.5v-1.688c0-0.131-0.106-0.237-0.237-0.237h-0.26
			c-0.13,0-0.236,0.105-0.236,0.237v1.688c0,0.131,0.106,0.237,0.236,0.237h0.26C218.355,286.737,218.461,286.631,218.461,286.5z
			 M216.241,288.235c0,0.276,3.723,0.276,3.723,0.276C219.964,288.235,216.241,288.235,216.241,288.235z M218.559,291.991v-1.688
			c0-0.131-0.106-0.237-0.236-0.237h-0.26c-0.131,0-0.237,0.106-0.237,0.237v1.688c0,0.131,0.105,0.237,0.237,0.237h0.26
			C218.453,292.228,218.559,292.122,218.559,291.991z M206.532,277.194c0,0.276,3.723,0.276,3.723,0.276
			C210.255,277.194,206.532,277.194,206.532,277.194z M187.708,288.063c0,0.275,3.723,0.275,3.723,0.275
			C191.431,288.063,187.708,288.063,187.708,288.063z M230.36,280.084c0,0.276,3.723,0.276,3.723,0.276
			C234.083,280.084,230.36,280.084,230.36,280.084z M234.837,318.857h-3.723c0,0.276,3.434,0.276,3.434,0.276l0.358-0.206
			C234.881,318.901,234.875,318.857,234.837,318.857z M232.678,283.84v-1.688c0-0.131-0.106-0.237-0.237-0.237
			c-0.39,0-0.496,0.106-0.496,0.237v1.688c0,0.13,0.106,0.236,0.237,0.236C232.572,284.076,232.678,283.97,232.678,283.84z
			 M230.459,285.575c0,0.276,3.723,0.276,3.723,0.276C234.182,285.575,230.459,285.575,230.459,285.575z M237.94,308.914v-1.688
			c0-0.131-0.106-0.237-0.237-0.237h-0.259c-0.13,0-0.236,0.106-0.236,0.237v1.688c0,0.13,0.106,0.237,0.236,0.237h0.259
			C237.834,309.151,237.94,309.044,237.94,308.914z M232.777,289.331v-1.688c0-0.131-0.106-0.237-0.236-0.237h-0.26
			c-0.13,0-0.236,0.106-0.236,0.237v1.688c0,0.13,0.106,0.237,0.236,0.237h0.26C232.671,289.568,232.777,289.462,232.777,289.331z
			 M237.307,312.716v1.689c0,0.13,0.107,0.237,0.236,0.237h0.26c0.13,0,0.236-0.106,0.236-0.237v-1.689
			c0-0.13-0.106-0.236-0.236-0.236h-0.26C237.413,312.48,237.307,312.586,237.307,312.716z M239.582,310.787
			c-0.138-0.138-3.861-0.138-3.861-0.138c0,0.276,3.724,0.276,3.724,0.276C239.52,310.925,239.582,310.863,239.582,310.787z
			 M230.916,307.874c0,0.276,3.723,0.276,3.723,0.276C234.639,307.874,230.916,307.874,230.916,307.874z M233.135,306.14v-1.689
			c0-0.131-0.106-0.237-0.237-0.237h-0.259c-0.131,0-0.237,0.106-0.237,0.237v1.689c0,0.13,0.106,0.236,0.237,0.236h0.259
			C233.029,306.376,233.135,306.27,233.135,306.14z M235.622,305.157c0,0.276,3.723,0.276,3.723,0.276
			C239.345,305.157,235.622,305.157,235.622,305.157z M230.817,302.384c0,0.276,3.723,0.276,3.723,0.276
			C234.54,302.384,230.817,302.384,230.817,302.384z M232.877,294.823v-1.688c0-0.131-0.106-0.237-0.237-0.237h-0.26
			c-0.13,0-0.237,0.106-0.237,0.237v1.688c0,0.13,0.107,0.236,0.237,0.236h0.26C232.771,295.059,232.877,294.953,232.877,294.823z
			 M230.558,291.066c0,0.276,3.724,0.276,3.724,0.276C234.281,291.066,230.558,291.066,230.558,291.066z M233.036,300.649v-1.689
			c0-0.13-0.106-0.236-0.237-0.236h-0.26c-0.129,0-0.236,0.106-0.236,0.236v1.689c0,0.129,0.106,0.236,0.236,0.236h0.26
			C232.93,300.884,233.036,300.778,233.036,300.649z M230.657,296.558c0,0.275,3.723,0.275,3.723,0.275
			C234.38,296.558,230.657,296.558,230.657,296.558z M240.229,296.948c0,0.276,3.723,0.276,3.723,0.276
			C243.952,296.948,240.229,296.948,240.229,296.948z M242.646,306.197v-1.689c0-0.13-0.106-0.236-0.236-0.236h-0.26
			c-0.13,0-0.236,0.106-0.236,0.236v1.689c0,0.131,0.106,0.237,0.236,0.237h0.26C242.54,306.434,242.646,306.328,242.646,306.197z
			 M242.013,309.999v1.689c0,0.131,0.106,0.237,0.237,0.237h0.259c0.13,0,0.236-0.106,0.236-0.237v-1.689
			c0-0.129-0.106-0.236-0.236-0.236h-0.259C242.119,309.763,242.013,309.87,242.013,309.999z M244.288,308.069
			c-0.138-0.138-3.86-0.138-3.86-0.138c0,0.276,3.722,0.276,3.722,0.276C244.227,308.208,244.288,308.146,244.288,308.069z
			 M242.548,300.705v-1.688c0-0.13-0.106-0.237-0.237-0.237h-0.259c-0.131,0-0.237,0.106-0.237,0.237v1.688
			c0,0.131,0.106,0.237,0.237,0.237h0.259C242.441,300.942,242.548,300.836,242.548,300.705z M233.234,311.631v-1.688
			c0-0.131-0.106-0.237-0.236-0.237h-0.26c-0.13,0-0.237,0.106-0.237,0.237v1.688c0,0.131,0.106,0.237,0.237,0.237h0.26
			C233.128,311.868,233.234,311.762,233.234,311.631z M240.328,302.441c0,0.276,3.723,0.276,3.723,0.276
			C244.051,302.441,240.328,302.441,240.328,302.441z M239.544,316.141h-3.724c0,0.276,3.434,0.276,3.434,0.276l0.358-0.207
			C239.588,316.184,239.582,316.141,239.544,316.141z M237.742,297.932v-1.689c0-0.131-0.106-0.237-0.236-0.237h-0.26
			c-0.13,0-0.237,0.106-0.237,0.237v1.689c0,0.129,0.106,0.236,0.237,0.236h0.26C237.636,298.168,237.742,298.061,237.742,297.932z
			 M237.841,303.422v-1.688c0-0.131-0.106-0.237-0.237-0.237c-0.389,0-0.495,0.106-0.495,0.237v1.688
			c0,0.13,0.106,0.237,0.236,0.237C237.735,303.659,237.841,303.553,237.841,303.422z M235.523,299.665
			c0,0.277,3.723,0.277,3.723,0.277C239.246,299.665,235.523,299.665,235.523,299.665z M235.363,293.841
			c0,0.276,3.723,0.276,3.723,0.276C239.086,293.841,235.363,293.841,235.363,293.841z M237.582,292.106v-1.688
			c0-0.131-0.106-0.237-0.236-0.237c-0.39,0-0.495,0.106-0.495,0.237v1.688c0,0.131,0.106,0.237,0.237,0.237
			C237.476,292.343,237.582,292.237,237.582,292.106z M237.483,286.615v-1.689c0-0.13-0.106-0.237-0.236-0.237h-0.26
			c-0.13,0-0.237,0.107-0.237,0.237v1.689c0,0.13,0.107,0.237,0.237,0.237h0.26C237.377,286.851,237.483,286.745,237.483,286.615z
			 M235.165,282.858c0,0.275,3.722,0.275,3.722,0.275C238.887,282.858,235.165,282.858,235.165,282.858z M235.264,288.349
			c0,0.276,3.723,0.276,3.723,0.276C238.987,288.349,235.264,288.349,235.264,288.349z M234.876,313.504
			c-0.138-0.139-3.86-0.139-3.86-0.139c0,0.276,3.723,0.276,3.723,0.276C234.814,313.642,234.876,313.58,234.876,313.504z
			 M129.265,276.26c0-0.13-0.106-0.236-0.236-0.236c-0.39,0-0.496,0.106-0.496,0.236v1.387l0.655,0.379
			C129.265,277.949,129.265,276.26,129.265,276.26z M143.681,284.583c0-0.13-0.106-0.237-0.237-0.237
			c-0.39,0-0.496,0.106-0.496,0.237v1.386l0.656,0.379C143.681,286.272,143.681,284.583,143.681,284.583z M232.601,315.435v1.688
			c0,0.13,0.106,0.237,0.237,0.237c0.389,0,0.495-0.107,0.495-0.237v-1.688c0-0.131-0.106-0.237-0.237-0.237
			C232.707,315.198,232.601,315.304,232.601,315.435z M162.902,295.681c0-0.131-0.106-0.237-0.236-0.237h-0.26
			c-0.131,0-0.236,0.106-0.236,0.237v1.387l0.656,0.378C162.902,297.369,162.902,295.681,162.902,295.681z M148.486,287.357
			c0-0.13-0.106-0.236-0.236-0.236h-0.26c-0.13,0-0.237,0.106-0.237,0.236v1.387l0.656,0.378
			C148.486,289.047,148.486,287.357,148.486,287.357z M158.097,292.906c0-0.13-0.106-0.236-0.236-0.236h-0.259
			c-0.131,0-0.237,0.106-0.237,0.236v1.387l0.656,0.379C158.097,294.595,158.097,292.906,158.097,292.906z M153.292,290.132
			c0-0.13-0.106-0.237-0.237-0.237h-0.26c-0.13,0-0.236,0.106-0.236,0.237v1.387l0.656,0.378
			C153.292,291.82,153.292,290.132,153.292,290.132z M138.876,281.809c0-0.13-0.106-0.237-0.236-0.237h-0.26
			c-0.13,0-0.236,0.106-0.236,0.237v1.387l0.656,0.379C138.876,283.497,138.876,281.809,138.876,281.809z M132.464,264.019v-1.688
			c0-0.131-0.107-0.237-0.236-0.237h-0.26c-0.13,0-0.238,0.106-0.238,0.237v1.688c0,0.131,0.107,0.237,0.238,0.237h0.26
			C132.357,264.256,132.464,264.15,132.464,264.019z M128.67,272.693l0.26,0.001c0.142-0.079,0.237-0.133,0.237-0.238v-1.688
			c0-0.13-0.106-0.236-0.237-0.236h-0.26c-0.236,0.236-0.236,1.925-0.236,1.925C128.611,272.671,128.636,272.693,128.67,272.693z
			 M126.711,268.839c0.137,0.138,3.861,0.138,3.861,0.138c0-0.276-3.724-0.276-3.724-0.276
			C126.772,268.701,126.711,268.763,126.711,268.839z M127.758,266.736v-1.688c0-0.13-0.107-0.237-0.237-0.237h-0.26
			c-0.129,0-0.236,0.106-0.236,0.237v1.688c0,0.131,0.107,0.237,0.236,0.237h0.26C127.651,266.973,127.758,266.867,127.758,266.736z
			 M124.461,273.486c0-0.131-0.106-0.237-0.237-0.237h-0.26c-0.13,0-0.236,0.106-0.236,0.237v1.388l0.655,0.379
			C124.461,275.175,124.461,273.486,124.461,273.486z M123.857,269.911c0.009,0.009,0.268,0.009,0.268,0.009
			c0.13,0,0.237-0.106,0.237-0.237v-1.533c0-0.287-0.106-0.392-0.236-0.392h-0.26c-0.237,0.237-0.237,1.926-0.237,1.926
			C123.682,269.809,123.857,269.911,123.857,269.911z M122.003,271.556c0.14,0.138,3.862,0.138,3.862,0.138
			c0-0.276-3.723-0.276-3.723-0.276C122.066,271.418,122.003,271.48,122.003,271.556z M134.07,279.034
			c0-0.13-0.106-0.236-0.236-0.236h-0.259c-0.131,0-0.237,0.106-0.237,0.236v1.388l0.656,0.378
			C134.07,280.723,134.07,279.034,134.07,279.034z M167.707,298.455c0-0.131-0.106-0.236-0.237-0.236h-0.26
			c-0.13,0-0.236,0.106-0.236,0.236v1.387l0.656,0.379C167.707,300.143,167.707,298.455,167.707,298.455z M210.777,323.521h-0.259
			c-0.131,0-0.237,0.106-0.237,0.237v1.087l0.732,0.423v-1.51C211.014,323.627,210.908,323.521,210.777,323.521z M218.169,327.376
			c0.138,0.139,1.863,0.139,1.863,0.139l0.478-0.276h-2.203C218.23,327.239,218.169,327.3,218.169,327.376z M222.875,324.659
			c0.137,0.137,1.864,0.137,1.864,0.137l0.479-0.276h-2.205C222.937,324.521,222.875,324.583,222.875,324.659z M242.448,295.214
			v-1.688c0-0.13-0.106-0.236-0.237-0.236h-0.26c-0.129,0-0.235,0.106-0.235,0.236v1.688c0,0.131,0.106,0.237,0.235,0.237h0.26
			C242.342,295.451,242.448,295.345,242.448,295.214z M230.131,321.574h-3.723c0,0.276,3.434,0.276,3.434,0.276l0.358-0.207
			C230.175,321.618,230.169,321.574,230.131,321.574z M205.972,320.747h-0.259c-0.131,0-0.236,0.107-0.236,0.236v1.088l0.732,0.423
			v-1.511C206.209,320.853,206.103,320.747,205.972,320.747z M215.819,326.532c0-0.131-0.106-0.237-0.236-0.237h-0.26
			c-0.131,0-0.237,0.106-0.237,0.237v1.087l0.733,0.423V326.532z M177.317,304.004c0-0.131-0.106-0.237-0.236-0.237h-0.26
			c-0.131,0-0.237,0.106-0.237,0.237v1.387l0.656,0.378C177.317,305.692,177.317,304.004,177.317,304.004z M182.123,306.777
			c0-0.13-0.106-0.236-0.237-0.236h-0.26c-0.13,0-0.236,0.106-0.236,0.236v1.388l0.656,0.378
			C182.123,308.466,182.123,306.777,182.123,306.777z M172.512,301.228c0-0.129-0.106-0.235-0.237-0.235
			c-0.39,0-0.496,0.106-0.496,0.235v1.388l0.656,0.378C172.512,302.918,172.512,301.228,172.512,301.228z M201.167,317.973h-0.259
			c-0.131,0-0.237,0.106-0.237,0.237v1.087l0.732,0.423v-1.51C201.404,318.079,201.297,317.973,201.167,317.973z M186.928,309.552
			c0-0.131-0.106-0.237-0.237-0.237h-0.259c-0.131,0-0.237,0.106-0.237,0.237v1.387l0.656,0.379
			C186.928,311.241,186.928,309.552,186.928,309.552z M196.538,315.1c0-0.13-0.106-0.236-0.237-0.236h-0.259
			c-0.13,0-0.236,0.106-0.236,0.236v1.387l0.656,0.379C196.538,316.789,196.538,315.1,196.538,315.1z M191.733,312.326
			c0-0.13-0.106-0.237-0.236-0.237h-0.26c-0.131,0-0.237,0.106-0.237,0.237v1.387l0.656,0.379
			C191.733,314.015,191.733,312.326,191.733,312.326z M242.289,289.389V287.7c0-0.13-0.106-0.236-0.237-0.236h-0.26
			c-0.13,0-0.236,0.106-0.236,0.236v1.689c0,0.131,0.106,0.237,0.236,0.237h0.26C242.183,289.626,242.289,289.52,242.289,289.389z
			 M203.015,261.703c0,0.13,0.106,0.237,0.236,0.237h0.26c0.13,0,0.236-0.107,0.236-0.237v-0.838l-0.732-0.423V261.703z
			 M198.21,258.929c0,0.13,0.106,0.236,0.236,0.236h0.259c0.131,0,0.237-0.106,0.237-0.236v-0.838l-0.732-0.423V258.929z
			 M251.128,289.78c0,0.131,0.106,0.237,0.236,0.237h0.259c0.131,0,0.237-0.106,0.237-0.237v-1.137l-0.732-0.423V289.78z
			 M174.184,245.057c0,0.131,0.106,0.237,0.236,0.237h0.26c0.13,0,0.236-0.106,0.236-0.237v-0.837l-0.733-0.423V245.057z
			 M212.626,267.251c0,0.13,0.106,0.237,0.236,0.237h0.259c0.131,0,0.237-0.106,0.237-0.237v-0.837l-0.732-0.423V267.251z
			 M178.989,247.831c0,0.131,0.106,0.237,0.237,0.237h0.259c0.131,0,0.237-0.106,0.237-0.237v-0.837l-0.733-0.423V247.831z
			 M188.6,253.38c0,0.13,0.106,0.236,0.236,0.236h0.26c0.13,0,0.236-0.106,0.236-0.236v-0.837l-0.732-0.423V253.38z
			 M183.795,250.606c0,0.13,0.106,0.236,0.236,0.236h0.259c0.131,0,0.237-0.106,0.237-0.236v-0.838l-0.732-0.423V250.606z
			 M207.82,264.477c0,0.13,0.106,0.236,0.237,0.236h0.259c0.131,0,0.237-0.105,0.237-0.236v-0.838l-0.733-0.423V264.477z
			 M236.651,281.122c0,0.131,0.106,0.237,0.236,0.237h0.26c0.13,0,0.237-0.106,0.237-0.237v-0.837l-0.733-0.423V281.122z
			 M241.457,283.897c0,0.131,0.106,0.237,0.236,0.237h0.26c0.13,0,0.237-0.106,0.237-0.237v-0.838l-0.732-0.423V283.897z
			 M246.261,286.672c0,0.129,0.107,0.236,0.237,0.236c0.389,0,0.496-0.107,0.496-0.236v-0.839l-0.733-0.423V286.672z
			 M227.042,275.574c0,0.13,0.106,0.237,0.236,0.237h0.259c0.131,0,0.237-0.106,0.237-0.237v-0.838l-0.732-0.423V275.574z
			 M231.846,278.349c0,0.13,0.105,0.236,0.236,0.236h0.26c0.129,0,0.236-0.106,0.236-0.236v-0.838l-0.732-0.423V278.349z
			 M222.236,272.801c0,0.13,0.106,0.236,0.237,0.236h0.259c0.131,0,0.237-0.106,0.237-0.236v-0.838l-0.733-0.423V272.801z
			 M217.431,270.026c0,0.131,0.106,0.237,0.237,0.237h0.26c0.13,0,0.236-0.106,0.236-0.237v-0.838l-0.732-0.423V270.026z
			 M193.404,256.155c0,0.13,0.106,0.237,0.237,0.237h0.259c0.131,0,0.237-0.106,0.237-0.237v-0.838l-0.733-0.424V256.155z
			 M133.908,254.91c-0.139-0.138-1.493-0.138-1.493-0.138l-0.478,0.276h1.831C133.845,255.048,133.908,254.986,133.908,254.91z
			 M138.614,252.193c-0.139-0.139-1.49-0.139-1.49-0.139l-0.478,0.276h1.829C138.551,252.33,138.614,252.268,138.614,252.193z
			 M143.319,249.475c-0.138-0.139-1.49-0.139-1.49-0.139l-0.478,0.276h1.831C143.256,249.613,143.319,249.551,143.319,249.475z
			 M148.026,246.759c-0.139-0.139-1.492-0.139-1.492-0.139l-0.478,0.276h1.831C147.964,246.896,148.026,246.834,148.026,246.759z
			 M129.201,257.626c-0.137-0.137-1.491-0.137-1.491-0.137l-0.478,0.276h1.832C129.138,257.765,129.201,257.702,129.201,257.626z
			 M120.961,263.428c0-0.276-3.06-0.276-3.06-0.276l-0.478,0.276H120.961z M124.495,260.343c-0.139-0.138-1.491-0.138-1.491-0.138
			l-0.478,0.276h1.83C124.432,260.481,124.495,260.42,124.495,260.343z M169.379,242.283c0,0.13,0.106,0.237,0.236,0.237h0.259
			c0.131,0,0.236-0.106,0.236-0.237v-0.838l-0.732-0.423V242.283z M158.975,276.909c0,0.276,3.723,0.276,3.723,0.276
			C162.698,276.909,158.975,276.909,158.975,276.909z M164.573,239.508c0,0.131,0.107,0.237,0.238,0.237h0.26
			c0.131,0,0.237-0.106,0.237-0.237v-0.837l-0.735-0.424V239.508z M161.196,275.173v-1.688c0-0.131-0.107-0.237-0.238-0.237h-0.26
			c-0.131,0-0.238,0.106-0.238,0.237v1.688c0,0.131,0.107,0.237,0.238,0.237h0.26C161.089,275.41,161.196,275.305,161.196,275.173z
			 M152.732,244.041c-0.139-0.137-1.492-0.137-1.492-0.137l-0.478,0.276h1.831C152.669,244.179,152.732,244.117,152.732,244.041z
			 M157.438,241.324c-0.14-0.138-1.492-0.138-1.492-0.138l-0.477,0.276h1.829C157.375,241.462,157.438,241.4,157.438,241.324z
			 M162.006,238.745c0-0.276-1.354-0.276-1.354-0.276l-0.478,0.276H162.006z M158.878,271.417c0,0.276,3.723,0.276,3.723,0.276
			C162.6,271.417,158.878,271.417,158.878,271.417z M245.034,299.724c0,0.275,3.723,0.275,3.723,0.275
			C248.757,299.724,245.034,299.724,245.034,299.724z M247.154,292.497v-1.688c0-0.131-0.106-0.237-0.236-0.237h-0.259
			c-0.131,0-0.237,0.106-0.237,0.237v1.688c0,0.13,0.106,0.237,0.237,0.237h0.259C247.048,292.734,247.154,292.628,247.154,292.497z
			 M252.058,300.763v-1.689c0-0.13-0.106-0.237-0.236-0.237h-0.26c-0.13,0-0.236,0.107-0.236,0.237v1.689
			c0,0.13,0.106,0.236,0.236,0.236h0.26C251.952,300.999,252.058,300.893,252.058,300.763z M244.935,294.232
			c0,0.276,3.723,0.276,3.723,0.276C248.658,294.232,244.935,294.232,244.935,294.232z M248.956,310.706h-3.724
			c0,0.276,3.435,0.276,3.435,0.276l0.358-0.206C249,310.75,248.993,310.706,248.956,310.706z M251.425,304.566v1.688
			c0,0.131,0.106,0.237,0.237,0.237h0.259c0.13,0,0.236-0.106,0.236-0.237v-1.688c0-0.131-0.106-0.237-0.236-0.237h-0.259
			C251.531,304.329,251.425,304.435,251.425,304.566z M253.7,302.636c-0.138-0.138-3.86-0.138-3.86-0.138
			c0,0.276,3.723,0.276,3.723,0.276C253.639,302.774,253.7,302.712,253.7,302.636z M247.253,297.988v-1.688
			c0-0.131-0.106-0.237-0.237-0.237h-0.259c-0.13,0-0.236,0.106-0.236,0.237v1.688c0,0.131,0.106,0.237,0.236,0.237h0.259
			C247.147,298.225,247.253,298.119,247.253,297.988z M244.775,288.407c0,0.276,3.723,0.276,3.723,0.276
			C248.498,288.407,244.775,288.407,244.775,288.407z M239.97,285.632c0,0.276,3.723,0.276,3.723,0.276
			C243.693,285.632,239.97,285.632,239.97,285.632z M240.069,291.124c0,0.276,3.723,0.276,3.723,0.276
			C243.792,291.124,240.069,291.124,240.069,291.124z M126.809,274.33c0.139,0.138,3.861,0.138,3.861,0.138
			c0-0.276-3.722-0.276-3.722-0.276C126.871,274.192,126.809,274.254,126.809,274.33z M244.249,313.423h-3.723
			c0,0.276,3.434,0.276,3.434,0.276l0.358-0.207C244.294,313.467,244.288,313.423,244.249,313.423z M255.933,292.555
			c0,0.13,0.106,0.236,0.237,0.236c0.39,0,0.496-0.106,0.496-0.236v-1.138l-0.732-0.423V292.555z M246.719,307.283v1.689
			c0,0.13,0.106,0.236,0.235,0.236h0.26c0.131,0,0.237-0.106,0.237-0.236v-1.689c0-0.131-0.106-0.237-0.237-0.237h-0.26
			C246.826,307.046,246.719,307.152,246.719,307.283z M248.994,305.352c-0.138-0.138-3.861-0.138-3.861-0.138
			c0,0.276,3.723,0.276,3.723,0.276C248.932,305.491,248.994,305.429,248.994,305.352z M247.352,303.48v-1.689
			c0-0.13-0.106-0.236-0.236-0.236h-0.26c-0.13,0-0.236,0.106-0.236,0.236v1.689c0,0.13,0.106,0.236,0.236,0.236h0.26
			C247.246,303.716,247.352,303.61,247.352,303.48z M260.837,299.132v1.688c0,0.131,0.106,0.237,0.236,0.237h0.26
			c0.13,0,0.236-0.106,0.236-0.237v-1.688c0-0.131-0.106-0.237-0.236-0.237h-0.26C260.943,298.895,260.837,299.001,260.837,299.132z
			 M263.073,302.555h-3.723c0,0.276,3.435,0.276,3.435,0.276l0.358-0.207C263.118,302.599,263.112,302.555,263.073,302.555z
			 M263.113,297.202c-0.139-0.138-3.861-0.138-3.861-0.138c0,0.276,3.722,0.276,3.722,0.276
			C263.051,297.339,263.113,297.278,263.113,297.202z M265.543,298.103c0,0.131,0.106,0.237,0.236,0.237h0.259
			c0.131,0,0.237-0.106,0.237-0.237v-1.137l-0.732-0.423V298.103z M260.738,295.328c0,0.131,0.106,0.237,0.236,0.237h0.26
			c0.13,0,0.236-0.106,0.236-0.237v-1.137l-0.732-0.423V295.328z M264.056,299.838c0,0.276,3.435,0.276,3.435,0.276l0.358-0.207
			C267.78,299.838,264.056,299.838,264.056,299.838z M258.368,305.272h-3.724c0,0.276,3.435,0.276,3.435,0.276l0.358-0.206
			C258.412,305.316,258.406,305.272,258.368,305.272z M256.764,298.045v-1.688c0-0.131-0.106-0.237-0.237-0.237h-0.259
			c-0.13,0-0.236,0.106-0.236,0.237v1.688c0,0.131,0.106,0.237,0.236,0.237h0.259C256.658,298.282,256.764,298.176,256.764,298.045z
			 M249.641,291.515c0,0.276,3.723,0.276,3.723,0.276C253.364,291.515,249.641,291.515,249.641,291.515z M251.96,295.272v-1.689
			c0-0.13-0.106-0.236-0.237-0.236h-0.259c-0.13,0-0.236,0.106-0.236,0.236v1.689c0,0.131,0.105,0.237,0.236,0.237h0.259
			C251.854,295.509,251.96,295.402,251.96,295.272z M253.661,307.989h-3.723c0,0.276,3.435,0.276,3.435,0.276l0.357-0.206
			C253.706,308.033,253.7,307.989,253.661,307.989z M256.132,301.849v1.688c0,0.131,0.106,0.237,0.236,0.237h0.26
			c0.131,0,0.237-0.106,0.237-0.237v-1.688c0-0.131-0.106-0.237-0.237-0.237h-0.26C256.238,301.612,256.132,301.718,256.132,301.849
			z M258.406,299.919c-0.138-0.139-3.86-0.139-3.86-0.139c0,0.276,3.723,0.276,3.723,0.276
			C258.344,300.056,258.406,299.994,258.406,299.919z M249.74,297.006c0,0.276,3.723,0.276,3.723,0.276
			C253.462,297.006,249.74,297.006,249.74,297.006z M254.447,294.289c0,0.276,3.722,0.276,3.722,0.276
			C258.169,294.289,254.447,294.289,254.447,294.289z M156.491,277.891v-1.688c0-0.131-0.107-0.237-0.238-0.237h-0.26
			c-0.13,0-0.238,0.106-0.238,0.237v1.688c0,0.131,0.107,0.237,0.238,0.237h0.26C156.384,278.128,156.491,278.021,156.491,277.891z
			 M163.88,285.174c0,0.276,3.723,0.276,3.723,0.276C167.603,285.174,163.88,285.174,163.88,285.174z M166.199,288.931v-1.688
			c0-0.131-0.107-0.237-0.236-0.237h-0.26c-0.131,0-0.238,0.106-0.238,0.237v1.688c0,0.13,0.107,0.237,0.238,0.237h0.26
			C166.092,289.167,166.199,289.061,166.199,288.931z M165.151,291.034c0.139,0.137,3.861,0.137,3.861,0.137
			c0-0.276-3.723-0.276-3.723-0.276C165.214,290.895,165.151,290.957,165.151,291.034z M167.893,244.018
			c0,0.275,3.723,0.275,3.723,0.275C171.616,244.018,167.893,244.018,167.893,244.018z M162.803,291.878v-1.388v-0.301
			c0-0.13-0.106-0.237-0.237-0.237h-0.26c-0.237,0.237-0.237,1.926-0.237,1.926c0,0.13,0.106,0.236,0.237,0.236h0.26
			C162.697,292.114,162.803,292.008,162.803,291.878z M166.1,283.44v-1.689c0-0.131-0.107-0.237-0.238-0.237h-0.26
			c-0.131,0-0.238,0.106-0.238,0.237v1.689c0,0.129,0.107,0.236,0.238,0.236h0.26C165.993,283.676,166.1,283.569,166.1,283.44z
			 M170.211,247.775v-1.689c0-0.131-0.106-0.237-0.236-0.237h-0.26c-0.13,0-0.236,0.106-0.236,0.237v1.689
			c0,0.129,0.106,0.235,0.236,0.235h0.26C170.105,248.01,170.211,247.904,170.211,247.775z M160.446,293.751
			c0.137,0.138,3.86,0.138,3.86,0.138c0-0.276-3.723-0.276-3.723-0.276C160.508,293.613,160.446,293.675,160.446,293.751z
			 M168.091,255c0,0.276,3.722,0.276,3.722,0.276C171.814,255,168.091,255,168.091,255z M168.19,260.492
			c0,0.276,3.723,0.276,3.723,0.276C171.913,260.492,168.19,260.492,168.19,260.492z M170.508,264.248v-1.688
			c0-0.13-0.106-0.237-0.237-0.237c-0.389,0-0.495,0.106-0.495,0.237v1.688c0,0.131,0.106,0.237,0.236,0.237
			C170.402,264.485,170.508,264.379,170.508,264.248z M168.289,265.983c0,0.276,3.723,0.276,3.723,0.276
			C172.012,265.983,168.289,265.983,168.289,265.983z M163.781,279.683c0,0.276,3.723,0.276,3.723,0.276
			C167.504,279.683,163.781,279.683,163.781,279.683z M170.607,269.74v-1.689c0-0.13-0.106-0.236-0.237-0.236h-0.259
			c-0.13,0-0.236,0.106-0.236,0.236v1.689c0,0.13,0.106,0.236,0.236,0.236h0.259C170.501,269.976,170.607,269.87,170.607,269.74z
			 M167.991,249.51c0,0.275,3.724,0.275,3.724,0.275C171.715,249.51,167.991,249.51,167.991,249.51z M170.408,258.757v-1.689
			c0-0.13-0.106-0.237-0.236-0.237h-0.259c-0.131,0-0.237,0.106-0.237,0.237v1.689c0,0.13,0.106,0.237,0.237,0.237h0.259
			C170.302,258.993,170.408,258.887,170.408,258.757z M170.311,253.265v-1.688c0-0.131-0.106-0.237-0.237-0.237h-0.26
			c-0.131,0-0.237,0.106-0.237,0.237v1.688c0,0.13,0.106,0.236,0.237,0.236h0.26C170.204,253.502,170.311,253.396,170.311,253.265z
			 M165.506,250.491v-1.689c0-0.13-0.107-0.236-0.238-0.236h-0.26c-0.131,0-0.238,0.106-0.238,0.236v1.689
			c0,0.13,0.107,0.236,0.238,0.236h0.26C165.399,250.727,165.506,250.621,165.506,250.491z M163.185,246.734
			c0,0.276,3.725,0.276,3.725,0.276C166.91,246.734,163.185,246.734,163.185,246.734z M163.286,252.226
			c0,0.276,3.723,0.276,3.723,0.276C167.009,252.226,163.286,252.226,163.286,252.226z M160.346,288.258
			c0.139,0.139,3.861,0.139,3.861,0.139c0-0.277-3.723-0.277-3.723-0.277C160.409,288.12,160.346,288.182,160.346,288.258z
			 M165.605,255.983v-1.689c0-0.131-0.107-0.237-0.238-0.237h-0.26c-0.13,0-0.237,0.106-0.237,0.237v1.689
			c0,0.13,0.107,0.236,0.237,0.236h0.26C165.497,256.219,165.605,256.113,165.605,255.983z M165.406,245v-1.688
			c0-0.131-0.107-0.237-0.238-0.237h-0.26c-0.129,0-0.236,0.106-0.236,0.237V245c0,0.131,0.107,0.237,0.236,0.237h0.26
			C165.299,245.237,165.406,245.131,165.406,245z M163.087,241.243c0,0.276,3.723,0.276,3.723,0.276
			C166.81,241.243,163.087,241.243,163.087,241.243z M165.803,266.965v-1.688c0-0.131-0.107-0.237-0.237-0.237h-0.259
			c-0.131,0-0.238,0.106-0.238,0.237v1.688c0,0.131,0.107,0.237,0.238,0.237h0.259C165.696,267.202,165.803,267.096,165.803,266.965
			z M163.384,257.718c0,0.276,3.723,0.276,3.723,0.276C167.107,257.718,163.384,257.718,163.384,257.718z M163.583,268.7
			c0,0.276,3.723,0.276,3.723,0.276C167.305,268.7,163.583,268.7,163.583,268.7z M163.681,274.192c0,0.276,3.725,0.276,3.725,0.276
			C167.406,274.192,163.681,274.192,163.681,274.192z M165.902,272.457v-1.689c0-0.13-0.107-0.236-0.238-0.236
			c-0.389,0-0.496,0.106-0.496,0.236v1.689c0,0.13,0.107,0.237,0.238,0.237C165.794,272.693,165.902,272.587,165.902,272.457z
			 M165.703,261.474v-1.688c0-0.13-0.107-0.237-0.236-0.237h-0.26c-0.13,0-0.238,0.106-0.238,0.237v1.688
			c0,0.13,0.107,0.236,0.238,0.236h0.26C165.596,261.71,165.703,261.604,165.703,261.474z M163.484,263.208
			c0,0.276,3.723,0.276,3.723,0.276C167.207,263.208,163.484,263.208,163.484,263.208z M166.001,277.948v-1.689
			c0-0.13-0.107-0.236-0.237-0.236h-0.259c-0.131,0-0.238,0.106-0.238,0.236v1.689c0,0.129,0.107,0.236,0.238,0.236h0.259
			C165.895,278.184,166.001,278.078,166.001,277.948z M168.587,282.457c0,0.276,3.722,0.276,3.722,0.276
			C172.309,282.457,168.587,282.457,168.587,282.457z M173.193,274.249c0,0.276,3.723,0.276,3.723,0.276
			C176.916,274.249,173.193,274.249,173.193,274.249z M175.511,278.005v-1.688c0-0.131-0.106-0.237-0.237-0.237
			c-0.389,0-0.495,0.106-0.495,0.237v1.688c0,0.131,0.106,0.237,0.236,0.237C175.406,278.242,175.511,278.136,175.511,278.005z
			 M173.293,279.74c0,0.276,3.723,0.276,3.723,0.276C177.015,279.74,173.293,279.74,173.293,279.74z M175.412,272.513v-1.688
			c0-0.131-0.106-0.237-0.236-0.237h-0.259c-0.131,0-0.237,0.106-0.237,0.237v1.688c0,0.131,0.106,0.237,0.237,0.237h0.259
			C175.306,272.75,175.412,272.644,175.412,272.513z M172.995,263.266c0,0.276,3.724,0.276,3.724,0.276
			C176.718,263.266,172.995,263.266,172.995,263.266z M173.094,268.758c0,0.276,3.723,0.276,3.723,0.276
			C176.817,268.758,173.094,268.758,173.094,268.758z M175.313,267.023v-1.689c0-0.131-0.106-0.237-0.236-0.237h-0.26
			c-0.13,0-0.236,0.106-0.236,0.237v1.689c0,0.13,0.106,0.236,0.236,0.236h0.26C175.207,267.259,175.313,267.153,175.313,267.023z
			 M173.49,290.723c0,0.276,3.724,0.276,3.724,0.276C177.214,290.723,173.49,290.723,173.49,290.723z M175.214,261.531v-1.689
			c0-0.129-0.106-0.236-0.236-0.236h-0.26c-0.13,0-0.236,0.107-0.236,0.236v1.689c0,0.131,0.106,0.237,0.236,0.237h0.26
			C175.108,261.768,175.214,261.662,175.214,261.531z M175.611,283.496v-1.689c0-0.13-0.106-0.236-0.237-0.236h-0.26
			c-0.13,0-0.236,0.106-0.236,0.236v1.689c0,0.131,0.106,0.237,0.236,0.237h0.26C175.505,283.733,175.611,283.627,175.611,283.496z
			 M170.056,299.299c0.138,0.139,3.861,0.139,3.861,0.139c0-0.276-3.723-0.276-3.723-0.276
			C170.118,299.161,170.056,299.223,170.056,299.299z M175.809,294.48v-1.689c0-0.131-0.106-0.237-0.236-0.237h-0.26
			c-0.131,0-0.237,0.106-0.237,0.237v1.689c0,0.13,0.106,0.236,0.237,0.236h0.26C175.702,294.716,175.809,294.61,175.809,294.48z
			 M172.295,297.544c0.118-0.118,0.118-1.807,0.118-1.807c0-0.131-0.106-0.237-0.237-0.237h-0.26c-0.099,0-0.146,0.093-0.181,0.181
			c-0.056,0.056-0.056,1.745-0.056,1.745c0,0.131,0.106,0.237,0.237,0.237h0.26C172.242,297.663,172.252,297.587,172.295,297.544z
			 M173.391,285.231c0,0.276,3.724,0.276,3.724,0.276C177.115,285.231,173.391,285.231,173.391,285.231z M175.71,288.988v-1.689
			c0-0.13-0.106-0.236-0.237-0.236h-0.26c-0.129,0-0.236,0.106-0.236,0.236v1.689c0,0.13,0.106,0.236,0.236,0.236h0.26
			C175.604,289.224,175.71,289.118,175.71,288.988z M168.487,276.966c0,0.276,3.724,0.276,3.724,0.276
			C172.21,276.966,168.487,276.966,168.487,276.966z M170.905,286.214v-1.688c0-0.13-0.107-0.236-0.236-0.236h-0.26
			c-0.13,0-0.236,0.106-0.236,0.236v1.688c0,0.131,0.106,0.237,0.236,0.237h0.26C170.798,286.451,170.905,286.345,170.905,286.214z
			 M167.371,294.888c0.109,0,0.17-0.097,0.198-0.197c0.039-0.039,0.039-1.409,0.039-1.409v-0.319c0-0.13-0.106-0.236-0.236-0.236
			h-0.26c-0.093,0-0.131,0.091-0.169,0.169c-0.068,0.068-0.068,1.756-0.068,1.756c0,0.131,0.107,0.236,0.236,0.236H167.371z
			 M161.394,286.157v-1.689c0-0.13-0.107-0.236-0.238-0.236h-0.259c-0.131,0-0.238,0.106-0.238,0.236v1.689
			c0,0.13,0.107,0.236,0.238,0.236h0.259C161.288,286.393,161.394,286.287,161.394,286.157z M168.389,271.475
			c0,0.275,3.723,0.275,3.723,0.275C172.111,271.475,168.389,271.475,168.389,271.475z M170.806,280.722v-1.688
			c0-0.13-0.106-0.236-0.237-0.236h-0.259c-0.131,0-0.237,0.106-0.237,0.236v1.688c0,0.131,0.106,0.237,0.237,0.237h0.259
			C170.7,280.959,170.806,280.853,170.806,280.722z M170.706,275.231v-1.689c0-0.13-0.106-0.237-0.237-0.237h-0.26
			c-0.129,0-0.236,0.106-0.236,0.237v1.689c0,0.13,0.106,0.236,0.236,0.236h0.26C170.6,275.467,170.706,275.361,170.706,275.231z
			 M172.896,257.775c0,0.276,3.724,0.276,3.724,0.276C176.62,257.775,172.896,257.775,172.896,257.775z M165.251,296.525
			c0.137,0.137,3.861,0.137,3.861,0.137c0-0.276-3.724-0.276-3.724-0.276C165.313,296.386,165.251,296.448,165.251,296.525z
			 M172.797,252.283c0,0.276,3.723,0.276,3.723,0.276C176.52,252.283,172.797,252.283,172.797,252.283z M175.115,256.04v-1.688
			c0-0.131-0.106-0.236-0.237-0.236h-0.259c-0.13,0-0.236,0.106-0.236,0.236v1.688c0,0.131,0.106,0.237,0.236,0.237h0.259
			C175.009,256.277,175.115,256.171,175.115,256.04z M175.016,250.548v-1.688c0-0.13-0.106-0.236-0.236-0.236h-0.259
			c-0.13,0-0.237,0.106-0.237,0.236v1.688c0,0.131,0.106,0.236,0.237,0.236h0.259C174.91,250.785,175.016,250.679,175.016,250.548z
			 M168.686,287.948c0,0.276,3.723,0.276,3.723,0.276C172.409,287.948,168.686,287.948,168.686,287.948z M171.004,291.705v-1.689
			c0-0.129-0.106-0.236-0.236-0.236h-0.259c-0.13,0-0.237,0.107-0.237,0.236v1.689c0,0.131,0.107,0.237,0.237,0.237h0.259
			C170.898,291.942,171.004,291.836,171.004,291.705z M172.698,246.791c0,0.276,3.723,0.276,3.723,0.276
			C176.421,246.791,172.698,246.791,172.698,246.791z M169.957,293.807c0.138,0.138,3.861,0.138,3.861,0.138
			c0-0.276-3.724-0.276-3.724-0.276C170.019,293.669,169.957,293.731,169.957,293.807z M153.973,263.151
			c0,0.276,3.723,0.276,3.723,0.276C157.695,263.151,153.973,263.151,153.973,263.151z M146.582,255.869v-1.689
			c0-0.13-0.107-0.236-0.238-0.236h-0.26c-0.129,0-0.236,0.106-0.236,0.236v1.689c0,0.129,0.107,0.236,0.236,0.236h0.26
			C146.475,256.105,146.582,255.998,146.582,255.869z M141.126,277.162c0.137,0.138,3.861,0.138,3.861,0.138
			c0-0.276-3.724-0.276-3.724-0.276C141.188,277.023,141.126,277.086,141.126,277.162z M144.362,257.603
			c0,0.275,3.724,0.275,3.724,0.275C148.086,257.603,144.362,257.603,144.362,257.603z M142.173,275.059v-1.688
			c0-0.13-0.107-0.236-0.238-0.236h-0.26c-0.129,0-0.236,0.106-0.236,0.236v1.688c0,0.131,0.107,0.237,0.236,0.237h0.26
			C142.066,275.296,142.173,275.19,142.173,275.059z M136.42,279.879c0.138,0.138,3.861,0.138,3.861,0.138
			c0-0.276-3.723-0.276-3.723-0.276C136.482,279.741,136.42,279.803,136.42,279.879z M138.54,278.242
			c0.237-0.237,0.237-1.715,0.237-1.715c0-0.341-0.106-0.447-0.236-0.447h-0.26c-0.237,0.237-0.237,1.925-0.237,1.925
			c0,0.131,0.106,0.237,0.236,0.237H138.54z M146.682,261.36v-1.689c0-0.131-0.107-0.237-0.238-0.237h-0.26
			c-0.131,0-0.238,0.106-0.238,0.237v1.689c0,0.129,0.107,0.236,0.238,0.236h0.26C146.575,261.596,146.682,261.49,146.682,261.36z
			 M139.855,271.302c0,0.276,3.723,0.276,3.723,0.276C143.577,271.302,139.855,271.302,139.855,271.302z M143.346,281.017
			c0.131,0,0.237-0.106,0.237-0.237v-1.689c0-0.13-0.106-0.236-0.236-0.236h-0.26c-0.236,0.237-0.236,1.925-0.236,1.925
			c0,0.132,0.106,0.237,0.236,0.237H143.346z M146.979,277.833v-1.689c0-0.129-0.107-0.235-0.238-0.235h-0.259
			c-0.131,0-0.238,0.106-0.238,0.235v1.689c0,0.131,0.107,0.237,0.238,0.237h0.259C146.872,278.071,146.979,277.965,146.979,277.833
			z M144.66,274.077c0,0.276,3.723,0.276,3.723,0.276C148.383,274.077,144.66,274.077,144.66,274.077z M144.462,263.094
			c0,0.276,3.723,0.276,3.723,0.276C148.185,263.094,144.462,263.094,144.462,263.094z M146.78,266.851v-1.689
			c0-0.131-0.107-0.237-0.237-0.237h-0.26c-0.131,0-0.238,0.106-0.238,0.237v1.689c0,0.13,0.107,0.237,0.238,0.237h0.26
			C146.673,267.087,146.78,266.981,146.78,266.851z M146.879,272.342v-1.689c0-0.13-0.107-0.236-0.236-0.236h-0.26
			c-0.13,0-0.238,0.106-0.238,0.236v1.689c0,0.13,0.107,0.236,0.238,0.236h0.26C146.772,272.579,146.879,272.473,146.879,272.342z
			 M144.56,268.586c0,0.276,3.723,0.276,3.723,0.276C148.283,268.586,144.56,268.586,144.56,268.586z M141.225,282.653
			c0.138,0.137,3.861,0.137,3.861,0.137c0-0.276-3.723-0.276-3.723-0.276C141.286,282.515,141.225,282.577,141.225,282.653z
			 M137.269,266.794v-1.689c0-0.13-0.107-0.236-0.238-0.236h-0.26c-0.131,0-0.238,0.106-0.238,0.236v1.689
			c0,0.131,0.107,0.237,0.238,0.237h0.26C137.163,267.031,137.269,266.925,137.269,266.794z M133.972,275.232v-1.689
			c0-0.13-0.106-0.236-0.237-0.236h-0.26c-0.236,0.237-0.236,1.925-0.236,1.925c0,0.13,0.106,0.237,0.236,0.237h0.26
			C133.866,275.468,133.972,275.362,133.972,275.232z M134.95,263.037c0,0.276,3.723,0.276,3.723,0.276
			C138.673,263.037,134.95,263.037,134.95,263.037z M131.516,271.612c0.138,0.139,3.861,0.139,3.861,0.139
			c0-0.276-3.723-0.276-3.723-0.276C131.577,271.475,131.516,271.537,131.516,271.612z M132.564,269.51v-1.688
			c0-0.131-0.107-0.237-0.238-0.237h-0.259c-0.131,0-0.238,0.106-0.238,0.237v1.688c0,0.131,0.107,0.237,0.238,0.237h0.259
			C132.457,269.747,132.564,269.641,132.564,269.51z M131.615,277.104c0.137,0.138,3.86,0.138,3.86,0.138
			c0-0.276-3.723-0.276-3.723-0.276C131.677,276.967,131.615,277.029,131.615,277.104z M137.171,261.302v-1.688
			c0-0.131-0.107-0.237-0.238-0.237h-0.259c-0.131,0-0.238,0.106-0.238,0.237v1.688c0,0.131,0.107,0.237,0.238,0.237h0.259
			C137.064,261.539,137.171,261.433,137.171,261.302z M141.975,264.077v-1.689c0-0.13-0.107-0.236-0.238-0.236
			c-0.389,0-0.495,0.106-0.495,0.236v1.689c0,0.13,0.107,0.236,0.237,0.236C141.867,264.313,141.975,264.207,141.975,264.077z
			 M139.656,260.32c0,0.276,3.723,0.276,3.723,0.276C143.379,260.32,139.656,260.32,139.656,260.32z M142.075,269.567v-1.688
			c0-0.131-0.107-0.237-0.238-0.237h-0.26c-0.13,0-0.238,0.106-0.238,0.237v1.688c0,0.131,0.107,0.237,0.238,0.237h0.26
			C141.968,269.804,142.075,269.698,142.075,269.567z M139.756,265.812c0,0.276,3.723,0.276,3.723,0.276
			C143.479,265.812,139.756,265.812,139.756,265.812z M135.049,268.529c0,0.276,3.723,0.276,3.723,0.276
			C138.772,268.529,135.049,268.529,135.049,268.529z M137.367,272.285v-1.689c0-0.13-0.107-0.237-0.236-0.237h-0.259
			c-0.131,0-0.238,0.107-0.238,0.237v1.689c0,0.129,0.107,0.236,0.238,0.236h0.259C137.26,272.522,137.367,272.415,137.367,272.285z
			 M136.32,274.387c0.138,0.138,3.861,0.138,3.861,0.138c0-0.276-3.723-0.276-3.723-0.276
			C136.383,274.249,136.32,274.311,136.32,274.387z M141.876,258.585v-1.689c0-0.13-0.107-0.236-0.238-0.236h-0.26
			c-0.131,0-0.238,0.106-0.238,0.236v1.689c0,0.131,0.107,0.237,0.238,0.237h0.26C141.769,258.822,141.876,258.716,141.876,258.585z
			 M156.191,261.417v-1.689c0-0.13-0.107-0.236-0.236-0.236h-0.259c-0.132,0-0.238,0.106-0.238,0.236v1.689
			c0,0.13,0.106,0.237,0.238,0.237h0.259C156.084,261.654,156.191,261.547,156.191,261.417z M156.292,266.908v-1.689
			c0-0.13-0.107-0.236-0.238-0.236h-0.26c-0.13,0-0.237,0.106-0.237,0.236v1.689c0,0.13,0.107,0.236,0.237,0.236h0.26
			C156.185,267.144,156.292,267.038,156.292,266.908z M156.39,272.4v-1.689c0-0.13-0.107-0.237-0.238-0.237
			c-0.389,0-0.496,0.106-0.496,0.237v1.689c0,0.13,0.107,0.236,0.238,0.236C156.283,272.636,156.39,272.53,156.39,272.4z
			 M130.245,265.754c0,0.276,3.723,0.276,3.723,0.276C133.967,265.754,130.245,265.754,130.245,265.754z M154.072,268.643
			c0,0.276,3.723,0.276,3.723,0.276C157.794,268.643,154.072,268.643,154.072,268.643z M156.093,255.925v-1.688
			c0-0.131-0.107-0.237-0.238-0.237h-0.26c-0.129,0-0.236,0.106-0.236,0.237v1.688c0,0.131,0.107,0.237,0.236,0.237h0.26
			C155.987,256.162,156.093,256.056,156.093,255.925z M155.64,290.977c0.138,0.137,3.861,0.137,3.861,0.137
			c0-0.275-3.723-0.275-3.723-0.275C155.702,290.838,155.64,290.9,155.64,290.977z M153.873,257.66c0,0.275,3.724,0.275,3.724,0.275
			C157.597,257.66,153.873,257.66,153.873,257.66z M157.903,289.198c0.095-0.095,0.095-1.784,0.095-1.784
			c0-0.129-0.106-0.236-0.237-0.236h-0.26c-0.237,0.238-0.237,1.925-0.237,1.925c0,0.131,0.106,0.237,0.237,0.237h0.26
			C157.839,289.34,157.86,289.257,157.903,289.198z M156.589,283.382v-1.688c0-0.131-0.107-0.237-0.238-0.237h-0.26
			c-0.129,0-0.236,0.106-0.236,0.237v1.688c0,0.131,0.107,0.237,0.236,0.237h0.26C156.482,283.619,156.589,283.513,156.589,283.382z
			 M154.172,274.134c0,0.275,3.723,0.275,3.723,0.275C157.894,274.134,154.172,274.134,154.172,274.134z M153.774,252.169
			c0,0.276,3.723,0.276,3.723,0.276C157.497,252.169,153.774,252.169,153.774,252.169z M154.27,279.626
			c0,0.275,3.722,0.275,3.722,0.275C157.993,279.626,154.27,279.626,154.27,279.626z M150.835,288.202
			c0.137,0.138,3.861,0.138,3.861,0.138c0-0.276-3.724-0.276-3.724-0.276C150.897,288.063,150.835,288.125,150.835,288.202z
			 M174.762,296.582c0.139,0.137,3.861,0.137,3.861,0.137c0-0.276-3.723-0.276-3.723-0.276
			C174.824,296.443,174.762,296.505,174.762,296.582z M152.955,286.565c0.236-0.236,0.237-1.661,0.237-1.661v-0.264
			c0-0.131-0.106-0.237-0.236-0.237h-0.26c-0.236,0.237-0.236,1.926-0.236,1.926c0,0.13,0.106,0.236,0.236,0.236H152.955z
			 M150.736,282.71c0.138,0.137,3.861,0.137,3.861,0.137c0-0.276-3.723-0.276-3.723-0.276
			C150.798,282.572,150.736,282.634,150.736,282.71z M151.586,269.625v-1.689c0-0.129-0.107-0.236-0.238-0.236h-0.26
			c-0.13,0-0.238,0.106-0.238,0.236v1.689c0,0.13,0.107,0.237,0.238,0.237h0.26C151.479,269.862,151.586,269.756,151.586,269.625z
			 M155.995,250.433v-1.688c0-0.131-0.107-0.237-0.238-0.237h-0.259c-0.131,0-0.238,0.106-0.238,0.237v1.688
			c0,0.131,0.107,0.237,0.238,0.237h0.259C155.888,250.67,155.995,250.564,155.995,250.433z M149.266,265.868
			c0,0.276,3.724,0.276,3.724,0.276C152.99,265.868,149.266,265.868,149.266,265.868z M151.487,264.134v-1.688
			c0-0.13-0.107-0.236-0.238-0.236c-0.389,0-0.496,0.106-0.496,0.236v1.688c0,0.13,0.107,0.237,0.238,0.237
			C151.379,264.371,151.487,264.264,151.487,264.134z M151.388,258.642v-1.688c0-0.131-0.107-0.237-0.238-0.237h-0.259
			c-0.131,0-0.238,0.106-0.238,0.237v1.688c0,0.131,0.107,0.237,0.238,0.237h0.259C151.281,258.879,151.388,258.773,151.388,258.642
			z M151.288,253.152v-1.689c0-0.13-0.107-0.237-0.236-0.237h-0.26c-0.131,0-0.238,0.106-0.238,0.237v1.689
			c0,0.13,0.107,0.236,0.238,0.236h0.26C151.181,253.387,151.288,253.281,151.288,253.152z M149.069,254.886
			c0,0.276,3.723,0.276,3.723,0.276C152.791,254.886,149.069,254.886,149.069,254.886z M149.167,260.377
			c0,0.276,3.723,0.276,3.723,0.276C152.89,260.377,149.167,260.377,149.167,260.377z M149.464,276.851
			c0,0.276,3.723,0.276,3.723,0.276C153.187,276.851,149.464,276.851,149.464,276.851z M149.366,271.36
			c0,0.276,3.723,0.276,3.723,0.276C153.088,271.36,149.366,271.36,149.366,271.36z M145.931,279.935
			c0.138,0.139,3.861,0.139,3.861,0.139c0-0.276-3.723-0.276-3.723-0.276C145.993,279.798,145.931,279.86,145.931,279.935z
			 M151.783,280.608v-1.689c0-0.131-0.107-0.237-0.236-0.237h-0.259c-0.131,0-0.238,0.106-0.238,0.237v1.689
			c0,0.13,0.107,0.236,0.238,0.236h0.259C151.676,280.844,151.783,280.738,151.783,280.608z M151.685,275.116v-1.689
			c0-0.13-0.107-0.236-0.238-0.236h-0.259c-0.131,0-0.237,0.106-0.237,0.236v1.689c0,0.13,0.107,0.236,0.237,0.236h0.259
			C151.578,275.353,151.685,275.247,151.685,275.116z M148.387,283.555v-1.443c0-0.377-0.106-0.483-0.236-0.483h-0.26
			c-0.236,0.237-0.236,1.926-0.236,1.926c0,0.13,0.106,0.237,0.236,0.237h0.26C148.281,283.792,148.387,283.685,148.387,283.555z
			 M146.031,285.427c0.137,0.138,3.86,0.138,3.86,0.138c0-0.276-3.723-0.276-3.723-0.276
			C146.092,285.29,146.031,285.351,146.031,285.427z"/>
	</g>
	<g id="Axonometric_Cube_186_">
		<polygon id="Cube_face_-_left_597_" style="fill:#D88E00;" points="323.971,311.712 304.98,300.748 304.98,246.759 
			323.971,257.724 		"/>
		<polygon id="Cube_face_-_right_619_" style="fill:#F8B71D;" points="363.904,288.657 323.971,311.712 323.971,257.724 
			363.904,234.669 		"/>
		<polygon style="fill:#ACA8A8;" points="328.862,260.59 359.137,243.107 359.137,274.216 328.862,291.694 		"/>
		<polygon id="Cube_face_-_top_600_" style="fill:#FFD73B;" points="323.971,257.724 304.98,246.759 344.913,223.704 
			363.904,234.669 		"/>
	</g>
	<g>
		<g>
			<path style="fill:#483C3C;" d="M355.277,272.728l-13.376,7.723c-0.773,0.446-1.4,0.181-1.4-0.592v-20.655
				c0-0.773,0.627-1.762,1.4-2.209l13.376-7.722c0.773-0.447,1.4-0.182,1.4,0.591v20.656
				C356.677,271.293,356.051,272.282,355.277,272.728z"/>
			<g>
				<g>
					<g>
						<polygon style="fill:#EFE6E6;" points="352.855,257.307 344.678,262.027 344.678,259.298 352.855,254.577 						"/>
					</g>
				</g>
				<g>
					<path style="fill:#B32F2F;" d="M351.228,263.435c-0.514-0.307-1.229-0.269-2.021,0.188c-1.564,0.903-2.831,3.098-2.831,4.904
						c0,0.892,0.31,1.522,0.811,1.822l1.735,1.002l4.04-6.913L351.228,263.435z"/>
					<path id="Cylinder_face_66_" style="fill:#D93939;" d="M348.112,269.528c0,1.806,1.267,2.537,2.831,1.634
						c1.564-0.903,2.832-3.098,2.832-4.904c0-1.805-1.268-2.537-2.832-1.634C349.379,265.527,348.112,267.722,348.112,269.528z"/>
				</g>
			</g>
		</g>
		<g>
			<g>
				<g>
					<g>
						<polygon style="fill:#EFE6E6;" points="336.026,261.401 331.096,264.247 331.096,262.601 336.026,259.755 						"/>
					</g>
				</g>
			</g>
			<g>
				<polygon style="fill:#332C2C;" points="335.505,269.649 331.701,271.846 331.701,265.855 335.505,263.659 				"/>
				<g>
					<polygon style="fill:#D93939;" points="332.922,266.489 335.566,264.952 337.418,269.303 334.774,270.84 					"/>
					<polygon style="fill:#B32F2F;" points="332.243,266.097 334.887,264.561 335.566,264.952 332.922,266.489 					"/>
					<polygon style="fill:#A42323;" points="332.922,266.489 334.774,270.84 332.23,270.843 332.243,266.097 					"/>
				</g>
			</g>
			<g>
				<g>
					<g>
						<polygon style="fill:#EFE6E6;" points="336.026,274.736 331.096,277.582 331.096,275.936 336.026,273.09 						"/>
					</g>
				</g>
			</g>
			<g>
				<polygon style="fill:#332C2C;" points="335.505,282.984 331.701,285.18 331.701,279.19 335.505,276.994 				"/>
				<g>
					<polygon style="fill:#9DCA34;" points="332.922,279.823 335.566,278.287 337.418,282.637 334.774,284.173 					"/>
					<polygon style="fill:#7C9F2A;" points="332.243,279.432 334.887,277.895 335.566,278.287 332.922,279.823 					"/>
					<polygon style="fill:#6C8E1E;" points="332.922,279.823 334.774,284.173 332.23,284.178 332.243,279.432 					"/>
				</g>
			</g>
		</g>
	</g>
	<g>
		<g>
			<g>
				<path style="fill:#483C3C;" d="M271.944,363.288c-0.282,0.162-0.533,0.163-0.674,0c-0.141-0.161-0.141-0.452,0-0.777
					l4.316-9.967c0.141-0.324,0.393-0.615,0.674-0.777c0.281-0.163,0.426-0.101,0.567,0.061l4.316,4.983
					c0.14,0.162,0.247,0.391,0.107,0.716c-0.141,0.324-0.392,0.615-0.674,0.778L271.944,363.288z"/>
				<path style="fill:#FFD73B;" d="M272.057,361.993l3.899-9.006c0.163-0.377,0.572-0.613,0.735-0.424l3.9,4.503
					c0.163,0.188-0.041,0.66-0.367,0.848l-7.799,4.503C272.098,362.605,271.894,362.37,272.057,361.993z"/>
				<path style="fill:#483C3C;" d="M277.156,354.493l-0.345,3.083c-0.017,0.15-0.177,0.349-0.368,0.46
					c-0.19,0.11-0.352,0.096-0.369-0.034l-0.344-2.685c-0.046-0.357,0.28-0.885,0.713-1.135
					C276.876,353.931,277.202,354.083,277.156,354.493z M276.443,358.332c-0.278,0.16-0.503,0.516-0.503,0.794
					s0.225,0.373,0.503,0.213c0.278-0.16,0.504-0.516,0.504-0.794C276.947,358.266,276.721,358.171,276.443,358.332z"/>
			</g>
		</g>
		<g>
			<path style="fill:#483C3C;" d="M286.152,354.355v-7.727c0-0.356,0.289-0.811,0.644-1.016l15.159-8.752
				c0.355-0.205,0.644-0.083,0.644,0.273v7.726c0,0.356-0.289,0.811-0.644,1.016l-15.159,8.752
				C286.441,354.833,286.152,354.711,286.152,354.355z"/>
			<path style="fill:#FFD73B;" d="M301.4,345.64l-14.049,8.111c-0.356,0.205-0.644,0.084-0.644-0.272v-6.616
				c0-0.356,0.289-0.81,0.644-1.016l14.049-8.111c0.355-0.205,0.644-0.084,0.644,0.272v6.616
				C302.045,344.98,301.756,345.435,301.4,345.64z"/>
			<polygon style="fill:#483C3C;" points="299.922,340.803 288.669,347.3 288.669,346.287 299.922,339.79 			"/>
			<polygon style="fill:#483C3C;" points="299.922,342.972 288.669,349.469 288.669,348.456 299.922,341.959 			"/>
			<polygon style="fill:#483C3C;" points="299.922,345.141 288.669,351.638 288.669,350.624 299.922,344.128 			"/>
		</g>
	</g>
</g>
</svg>
