<?xml version='1.0' encoding='utf-8'?>
<svg xmlns:ns0="http://www.w3.org/2000/svg" xmlns="http://www.w3.org/2000/svg" viewBox="0 0 24 24"><g transform="translate(-46.029366670824245 -1.8666334059312826) scale(0.20723996661133867)"><polygon style="opacity:0.4;fill:#615A59;" points="325.379,87.565 324.024,85.697 308.928,85.697 283.943,71.294 297.136,71.294    295.841,69.426 280.745,69.426 255.89,55.079 269.089,55.079 267.756,53.211 252.66,53.212 250.914,52.203 227.897,65.492    288.636,100.56 290.96,99.218 305.196,99.218 303.84,97.35 294.195,97.35 311.143,87.565  " /><g><g><g id="Axonometric_Cube_14_"><polygon id="Cube_face_-_left_543_" style="fill:#BC7400;" points="248.903,66.732 247.227,65.765 247.227,52.525       248.903,53.493     " /><polygon id="Cube_face_-_right_543_" style="fill:#E69F00;" points="249.982,66.109 248.903,66.732 248.903,53.493       249.982,52.87     " /><linearGradient id="Cube_face_-_top_00000091727589462763302330000015805951152070721713_" gradientUnits="userSpaceOnUse" x1="248.1857" y1="51.9717" x2="249.0237" y2="53.4231"><stop offset="0" style="stop-color:#F0EBE6" /><stop offset="1" style="stop-color:#DBD7D6" /></linearGradient><polygon id="Cube_face_-_top_543_" style="fill:url(#Cube_face_-_top_00000091727589462763302330000015805951152070721713_);" points="      248.903,53.493 247.227,52.525 248.306,51.902 249.982,52.87     " /></g><g id="Axonometric_Cylinder_48_"><path id="Cylinder_face_145_" style="fill:#E69F00;" d="M276.064,72.913c0,0.171,0.12,0.24,0.268,0.155      c0.148-0.086,0.268-0.293,0.268-0.464s-0.12-0.24-0.268-0.155S276.064,72.742,276.064,72.913z" /><path id="Cylinder_body_137_" style="fill:#BC7400;" d="M276.524,72.431l-26.851-15.503c-0.049-0.029-0.116-0.026-0.191,0.018      c-0.148,0.086-0.268,0.293-0.268,0.464c0,0.084,0.029,0.144,0.077,0.173l26.851,15.503c-0.047-0.029-0.077-0.088-0.077-0.173      c0-0.171,0.12-0.379,0.268-0.464C276.407,72.405,276.475,72.402,276.524,72.431z" /></g><g id="Axonometric_Cube_16_"><polygon id="Cube_face_-_left_545_" style="fill:#BC7400;" points="277.046,82.98 275.37,82.012 275.37,68.773 277.046,69.74           " /><polygon id="Cube_face_-_right_545_" style="fill:#E69F00;" points="278.124,82.357 277.046,82.98 277.046,69.74       278.124,69.118     " /><linearGradient id="Cube_face_-_top_00000018943206254414040270000014033808241753395618_" gradientUnits="userSpaceOnUse" x1="276.3278" y1="68.2195" x2="277.1658" y2="69.671"><stop offset="0" style="stop-color:#F0EBE6" /><stop offset="1" style="stop-color:#DBD7D6" /></linearGradient><polygon id="Cube_face_-_top_545_" style="fill:url(#Cube_face_-_top_00000018943206254414040270000014033808241753395618_);" points="      277.046,69.74 275.37,68.773 276.448,68.15 278.124,69.118     " /></g><g id="Axonometric_Cylinder_50_"><path id="Cylinder_face_147_" style="fill:#E69F00;" d="M304.139,89.122c0,0.171,0.12,0.24,0.268,0.155s0.268-0.294,0.268-0.465      s-0.12-0.24-0.268-0.155S304.139,88.951,304.139,89.122z" /><path id="Cylinder_body_139_" style="fill:#BC7400;" d="M304.599,88.64l-26.851-15.503c-0.049-0.029-0.116-0.025-0.191,0.018      c-0.148,0.085-0.268,0.293-0.268,0.464c0,0.085,0.029,0.144,0.077,0.173l26.851,15.503c-0.047-0.028-0.077-0.088-0.077-0.173      c0-0.171,0.12-0.379,0.268-0.465C304.482,88.615,304.55,88.611,304.599,88.64z" /></g><g id="Axonometric_Cube_17_"><polygon id="Cube_face_-_left_546_" style="fill:#BC7400;" points="305.188,99.228 303.512,98.26 303.512,85.021       305.188,85.988     " /><polygon id="Cube_face_-_right_546_" style="fill:#E69F00;" points="306.266,98.605 305.188,99.228 305.188,85.988       306.266,85.366     " /><linearGradient id="Cube_face_-_top_00000129927655958989025830000007176495183190598319_" gradientUnits="userSpaceOnUse" x1="304.4699" y1="84.4674" x2="305.3079" y2="85.9188"><stop offset="0" style="stop-color:#F0EBE6" /><stop offset="1" style="stop-color:#DBD7D6" /></linearGradient><polygon id="Cube_face_-_top_546_" style="fill:url(#Cube_face_-_top_00000129927655958989025830000007176495183190598319_);" points="      305.188,85.988 303.512,85.021 304.59,84.398 306.266,85.366     " /></g></g><g><g id="Axonometric_Cube_20_"><polygon id="Cube_face_-_left_549_" style="fill:#BC7400;" points="269.097,55.073 267.421,54.106 267.421,40.866       269.097,41.834     " /><polygon id="Cube_face_-_right_549_" style="fill:#E69F00;" points="270.176,54.45 269.097,55.073 269.097,41.834       270.176,41.211     " /><linearGradient id="Cube_face_-_top_00000101075257029468850430000003462261472665768596_" gradientUnits="userSpaceOnUse" x1="268.3797" y1="40.3127" x2="269.2177" y2="41.7641"><stop offset="0" style="stop-color:#F0EBE6" /><stop offset="1" style="stop-color:#DBD7D6" /></linearGradient><polygon id="Cube_face_-_top_549_" style="fill:url(#Cube_face_-_top_00000101075257029468850430000003462261472665768596_);" points="      269.097,41.834 267.421,40.866 268.5,40.243 270.176,41.211     " /></g><g id="Axonometric_Cylinder_52_"><path id="Cylinder_face_149_" style="fill:#E69F00;" d="M296.258,61.254c0,0.171,0.12,0.24,0.268,0.155      c0.148-0.086,0.268-0.293,0.268-0.464s-0.12-0.24-0.268-0.155C296.378,60.875,296.258,61.083,296.258,61.254z" /><path id="Cylinder_body_141_" style="fill:#BC7400;" d="M296.718,60.772l-26.851-15.503c-0.049-0.029-0.116-0.026-0.191,0.018      c-0.148,0.086-0.268,0.293-0.268,0.464c0,0.084,0.029,0.144,0.077,0.173l26.852,15.503c-0.047-0.028-0.077-0.088-0.077-0.173      c0-0.171,0.12-0.379,0.268-0.464C296.601,60.746,296.669,60.743,296.718,60.772z" /></g><g id="Axonometric_Cube_19_"><polygon id="Cube_face_-_left_548_" style="fill:#BC7400;" points="297.239,71.321 295.564,70.353 295.564,57.114       297.239,58.081     " /><polygon id="Cube_face_-_right_548_" style="fill:#E69F00;" points="298.318,70.698 297.239,71.321 297.239,58.081       298.318,57.459     " /><linearGradient id="Cube_face_-_top_00000045602783775680731270000013928022442148404630_" gradientUnits="userSpaceOnUse" x1="296.5218" y1="56.5605" x2="297.3598" y2="58.012"><stop offset="0" style="stop-color:#F0EBE6" /><stop offset="1" style="stop-color:#DBD7D6" /></linearGradient><polygon id="Cube_face_-_top_548_" style="fill:url(#Cube_face_-_top_00000045602783775680731270000013928022442148404630_);" points="      297.239,58.081 295.564,57.114 296.642,56.491 298.318,57.459     " /></g><g id="Axonometric_Cylinder_51_"><path id="Cylinder_face_148_" style="fill:#E69F00;" d="M324.333,77.463c0,0.171,0.12,0.24,0.268,0.155      c0.148-0.085,0.268-0.293,0.268-0.464c0-0.171-0.12-0.24-0.268-0.155C324.453,77.084,324.333,77.292,324.333,77.463z" /><path id="Cylinder_body_140_" style="fill:#BC7400;" d="M324.793,76.981l-26.851-15.503c-0.049-0.029-0.116-0.025-0.191,0.018      c-0.148,0.085-0.268,0.293-0.268,0.464c0,0.084,0.029,0.144,0.077,0.173l26.851,15.503c-0.047-0.028-0.077-0.088-0.077-0.172      c0-0.171,0.12-0.379,0.268-0.465C324.676,76.955,324.744,76.952,324.793,76.981z" /></g><g id="Axonometric_Cube_18_"><polygon id="Cube_face_-_left_547_" style="fill:#BC7400;" points="325.382,87.569 323.706,86.601 323.706,73.362       325.382,74.329     " /><polygon id="Cube_face_-_right_547_" style="fill:#E69F00;" points="326.46,86.946 325.382,87.569 325.382,74.329       326.46,73.706     " /><linearGradient id="Cube_face_-_top_00000134948137692539789910000002916467602321115539_" gradientUnits="userSpaceOnUse" x1="324.6639" y1="72.8084" x2="325.5019" y2="74.2598"><stop offset="0" style="stop-color:#F0EBE6" /><stop offset="1" style="stop-color:#DBD7D6" /></linearGradient><polygon id="Cube_face_-_top_547_" style="fill:url(#Cube_face_-_top_00000134948137692539789910000002916467602321115539_);" points="      325.382,74.329 323.706,73.362 324.784,72.739 326.46,73.706     " /></g></g><g><g id="Axonometric_Cube_12_"><polygon id="Cube_face_-_left_493_" style="fill:#C0BCBB;" points="309.592,89.392 243.149,51.032 243.149,48.355       309.592,86.715     " /><polygon id="Cube_face_-_right_493_" style="fill:#DBD7D6;" points="311.398,88.349 309.592,89.392 309.592,86.715       311.398,85.672     " /><polygon id="Cube_face_-_top_493_" style="fill:#F0EBE6;" points="309.592,86.715 243.149,48.355 244.956,47.312       311.398,85.672     " /></g><g id="Axonometric_Cube_13_"><polygon id="Cube_face_-_left_494_" style="fill:#C0BCBB;" points="330.317,77.426 263.874,39.066 263.874,36.389       330.317,74.75     " /><polygon id="Cube_face_-_right_494_" style="fill:#DBD7D6;" points="332.124,76.383 330.317,77.426 330.317,74.75       332.124,73.706     " /><polygon id="Cube_face_-_top_494_" style="fill:#F0EBE6;" points="330.317,74.75 263.874,36.389 265.681,35.346 332.124,73.706           " /></g><g><g id="Axonometric_Cube_10_"><polygon id="Cube_face_-_left_490_" style="fill:#C0BCBB;" points="330.317,74.754 263.875,36.394 263.875,33.716        330.317,72.077      " /><polygon id="Cube_face_-_right_490_" style="fill:#DBD7D6;" points="331.105,74.299 330.317,74.754 330.317,72.077        331.105,71.622      " /><polygon id="Cube_face_-_top_490_" style="fill:#F0EBE6;" points="330.317,72.077 263.875,33.716 264.663,33.262        331.105,71.622      " /></g><g><g id="Axonometric_Cylinder_10_"><path id="Cylinder_face_81_" style="fill:#C0BCBB;" d="M246.174,47.214c0,0.267-0.187,0.375-0.419,0.242        c-0.231-0.133-0.419-0.458-0.419-0.725c0-0.267,0.188-0.375,0.419-0.242C245.986,46.623,246.174,46.947,246.174,47.214z" /><linearGradient id="Cylinder_body_00000142883172267294192250000016939325365566996612_" gradientUnits="userSpaceOnUse" x1="255.0501" y1="40.9224" x2="255.6421" y2="41.9479"><stop offset="0" style="stop-color:#F0EBE6" /><stop offset="1" style="stop-color:#DBD7D6" /></linearGradient><path id="Cylinder_body_75_" style="fill:url(#Cylinder_body_00000142883172267294192250000016939325365566996612_);" d="        M245.456,46.461l18.888-10.905c0.076-0.045,0.182-0.04,0.299,0.028c0.231,0.133,0.419,0.458,0.419,0.725        c0,0.132-0.046,0.225-0.12,0.27l-18.888,10.905c0.074-0.044,0.12-0.138,0.12-0.269c0-0.267-0.187-0.592-0.419-0.725        C245.638,46.422,245.533,46.416,245.456,46.461z" /></g><g id="Axonometric_Cylinder_12_"><path id="Cylinder_face_83_" style="fill:#C0BCBB;" d="M247.971,48.252c0,0.267-0.187,0.375-0.419,0.242        c-0.231-0.133-0.419-0.458-0.419-0.725s0.187-0.375,0.419-0.242C247.783,47.66,247.971,47.985,247.971,48.252z" /><linearGradient id="Cylinder_body_00000033360654366286653370000011416620698902499260_" gradientUnits="userSpaceOnUse" x1="256.8471" y1="41.9599" x2="257.4391" y2="42.9854"><stop offset="0" style="stop-color:#F0EBE6" /><stop offset="1" style="stop-color:#DBD7D6" /></linearGradient><path id="Cylinder_body_77_" style="fill:url(#Cylinder_body_00000033360654366286653370000011416620698902499260_);" d="        M247.253,47.499l18.888-10.905c0.076-0.046,0.182-0.04,0.299,0.028c0.231,0.133,0.419,0.458,0.419,0.725        c0,0.132-0.046,0.225-0.12,0.269l-18.888,10.905c0.074-0.044,0.12-0.138,0.12-0.27c0-0.267-0.187-0.592-0.419-0.725        C247.435,47.459,247.329,47.453,247.253,47.499z" /></g><g id="Axonometric_Cylinder_13_"><path id="Cylinder_face_84_" style="fill:#C0BCBB;" d="M249.768,49.289c0,0.267-0.188,0.375-0.419,0.242        s-0.419-0.458-0.419-0.725c0-0.267,0.187-0.375,0.419-0.242S249.768,49.022,249.768,49.289z" /><linearGradient id="Cylinder_body_00000140727715120386975630000008500305341054694787_" gradientUnits="userSpaceOnUse" x1="258.644" y1="42.9974" x2="259.2361" y2="44.0229"><stop offset="0" style="stop-color:#F0EBE6" /><stop offset="1" style="stop-color:#DBD7D6" /></linearGradient><path id="Cylinder_body_78_" style="fill:url(#Cylinder_body_00000140727715120386975630000008500305341054694787_);" d="        M249.05,48.536l18.888-10.905c0.076-0.045,0.182-0.04,0.299,0.028c0.231,0.134,0.419,0.458,0.419,0.725        c0,0.132-0.046,0.225-0.12,0.269l-18.888,10.905c0.074-0.044,0.12-0.138,0.12-0.27c0-0.267-0.188-0.592-0.419-0.725        C249.232,48.496,249.126,48.491,249.05,48.536z" /></g><g id="Axonometric_Cylinder_14_"><path id="Cylinder_face_85_" style="fill:#C0BCBB;" d="M251.565,50.327c0,0.267-0.187,0.375-0.419,0.242        c-0.231-0.133-0.419-0.458-0.419-0.725c0-0.267,0.187-0.375,0.419-0.242C251.377,49.735,251.565,50.06,251.565,50.327z" /><linearGradient id="Cylinder_body_00000111166240092910564220000006858616756040595379_" gradientUnits="userSpaceOnUse" x1="260.441" y1="44.0349" x2="261.0331" y2="45.0603"><stop offset="0" style="stop-color:#F0EBE6" /><stop offset="1" style="stop-color:#DBD7D6" /></linearGradient><path id="Cylinder_body_79_" style="fill:url(#Cylinder_body_00000111166240092910564220000006858616756040595379_);" d="        M250.847,49.574l18.888-10.905c0.076-0.045,0.182-0.04,0.299,0.028c0.231,0.133,0.419,0.458,0.419,0.725        c0,0.132-0.046,0.225-0.12,0.269l-18.889,10.905c0.074-0.044,0.12-0.138,0.12-0.269c0-0.267-0.187-0.592-0.419-0.725        C251.029,49.534,250.923,49.528,250.847,49.574z" /></g><g id="Axonometric_Cylinder_15_"><path id="Cylinder_face_86_" style="fill:#C0BCBB;" d="M253.362,51.364c0,0.267-0.187,0.375-0.419,0.242        c-0.231-0.133-0.419-0.458-0.419-0.725c0-0.267,0.188-0.375,0.419-0.242C253.174,50.772,253.362,51.097,253.362,51.364z" /><linearGradient id="Cylinder_body_00000048487492874541069400000015916441150384562867_" gradientUnits="userSpaceOnUse" x1="262.238" y1="45.0723" x2="262.83" y2="46.0978"><stop offset="0" style="stop-color:#F0EBE6" /><stop offset="1" style="stop-color:#DBD7D6" /></linearGradient><path id="Cylinder_body_80_" style="fill:url(#Cylinder_body_00000048487492874541069400000015916441150384562867_);" d="        M252.644,50.611l18.888-10.905c0.076-0.046,0.182-0.04,0.299,0.028c0.231,0.133,0.419,0.458,0.419,0.725        c0,0.132-0.046,0.225-0.12,0.269l-18.888,10.905c0.074-0.044,0.12-0.138,0.12-0.269c0-0.267-0.187-0.592-0.419-0.725        C252.826,50.571,252.72,50.566,252.644,50.611z" /></g><g id="Axonometric_Cylinder_16_"><path id="Cylinder_face_87_" style="fill:#C0BCBB;" d="M255.159,52.402c0,0.267-0.187,0.375-0.419,0.242        c-0.231-0.133-0.419-0.458-0.419-0.725c0-0.267,0.187-0.375,0.419-0.242C254.971,51.81,255.159,52.135,255.159,52.402z" /><linearGradient id="Cylinder_body_00000154410187839297983290000011543133705030721946_" gradientUnits="userSpaceOnUse" x1="264.035" y1="46.1098" x2="264.627" y2="47.1353"><stop offset="0" style="stop-color:#F0EBE6" /><stop offset="1" style="stop-color:#DBD7D6" /></linearGradient><path id="Cylinder_body_81_" style="fill:url(#Cylinder_body_00000154410187839297983290000011543133705030721946_);" d="        M254.441,51.649l18.888-10.905c0.076-0.045,0.182-0.04,0.299,0.028c0.231,0.134,0.419,0.458,0.419,0.725        c0,0.132-0.046,0.225-0.12,0.269l-18.888,10.905c0.074-0.044,0.12-0.138,0.12-0.269c0-0.267-0.187-0.592-0.419-0.725        C254.623,51.609,254.517,51.603,254.441,51.649z" /></g><g id="Axonometric_Cylinder_17_"><path id="Cylinder_face_88_" style="fill:#C0BCBB;" d="M256.956,53.439c0,0.267-0.188,0.375-0.419,0.242        c-0.231-0.134-0.419-0.458-0.419-0.725c0-0.267,0.187-0.375,0.419-0.242C256.768,52.847,256.956,53.172,256.956,53.439z" /><linearGradient id="Cylinder_body_00000145041239754081993740000001530041285972710586_" gradientUnits="userSpaceOnUse" x1="265.832" y1="47.1473" x2="266.424" y2="48.1728"><stop offset="0" style="stop-color:#F0EBE6" /><stop offset="1" style="stop-color:#DBD7D6" /></linearGradient><path id="Cylinder_body_82_" style="fill:url(#Cylinder_body_00000145041239754081993740000001530041285972710586_);" d="        M256.238,52.686l18.888-10.905c0.076-0.045,0.182-0.04,0.299,0.028c0.231,0.133,0.419,0.458,0.419,0.725        c0,0.132-0.046,0.225-0.12,0.27l-18.888,10.905c0.074-0.044,0.12-0.138,0.12-0.269c0-0.267-0.188-0.592-0.419-0.725        C256.42,52.646,256.314,52.641,256.238,52.686z" /></g><g id="Axonometric_Cylinder_18_"><path id="Cylinder_face_89_" style="fill:#C0BCBB;" d="M258.753,54.477c0,0.267-0.188,0.375-0.419,0.242        c-0.231-0.133-0.419-0.458-0.419-0.725c0-0.267,0.187-0.375,0.419-0.242S258.753,54.21,258.753,54.477z" /><linearGradient id="Cylinder_body_00000157281836195286437480000007586061448836847232_" gradientUnits="userSpaceOnUse" x1="267.629" y1="48.1848" x2="268.221" y2="49.2103"><stop offset="0" style="stop-color:#F0EBE6" /><stop offset="1" style="stop-color:#DBD7D6" /></linearGradient><path id="Cylinder_body_83_" style="fill:url(#Cylinder_body_00000157281836195286437480000007586061448836847232_);" d="        M258.035,53.724l18.888-10.905c0.076-0.046,0.182-0.04,0.299,0.028c0.231,0.133,0.419,0.458,0.419,0.725        c0,0.132-0.046,0.225-0.12,0.27l-18.889,10.905c0.074-0.044,0.12-0.138,0.12-0.269c0-0.267-0.188-0.592-0.419-0.725        C258.217,53.684,258.111,53.678,258.035,53.724z" /></g><g id="Axonometric_Cylinder_19_"><path id="Cylinder_face_90_" style="fill:#C0BCBB;" d="M260.55,55.514c0,0.267-0.187,0.375-0.419,0.242        c-0.231-0.133-0.419-0.458-0.419-0.725c0-0.267,0.188-0.375,0.419-0.242C260.362,54.922,260.55,55.247,260.55,55.514z" /><linearGradient id="Cylinder_body_00000004503603138791346820000006531678660073270943_" gradientUnits="userSpaceOnUse" x1="269.4259" y1="49.2223" x2="270.0179" y2="50.2478"><stop offset="0" style="stop-color:#F0EBE6" /><stop offset="1" style="stop-color:#DBD7D6" /></linearGradient><path id="Cylinder_body_84_" style="fill:url(#Cylinder_body_00000004503603138791346820000006531678660073270943_);" d="        M259.832,54.761l18.888-10.905c0.076-0.045,0.182-0.04,0.299,0.028c0.231,0.133,0.419,0.458,0.419,0.725        c0,0.132-0.046,0.225-0.12,0.269L260.43,55.784c0.074-0.044,0.12-0.138,0.12-0.27c0-0.267-0.187-0.592-0.419-0.725        C260.014,54.721,259.908,54.716,259.832,54.761z" /></g><g id="Axonometric_Cylinder_20_"><path id="Cylinder_face_91_" style="fill:#C0BCBB;" d="M262.347,56.551c0,0.267-0.187,0.375-0.419,0.242        c-0.231-0.134-0.419-0.458-0.419-0.725s0.187-0.375,0.419-0.242C262.159,55.96,262.347,56.285,262.347,56.551z" /><linearGradient id="Cylinder_body_00000145046480561486675750000013415374163667869864_" gradientUnits="userSpaceOnUse" x1="271.2228" y1="50.2598" x2="271.8149" y2="51.2853"><stop offset="0" style="stop-color:#F0EBE6" /><stop offset="1" style="stop-color:#DBD7D6" /></linearGradient><path id="Cylinder_body_85_" style="fill:url(#Cylinder_body_00000145046480561486675750000013415374163667869864_);" d="        M261.629,55.799l18.888-10.905c0.076-0.045,0.182-0.04,0.299,0.028c0.231,0.133,0.419,0.458,0.419,0.725        c0,0.132-0.046,0.225-0.12,0.269l-18.888,10.905c0.074-0.044,0.12-0.138,0.12-0.27c0-0.267-0.187-0.592-0.419-0.725        C261.811,55.759,261.705,55.753,261.629,55.799z" /></g><g id="Axonometric_Cylinder_21_"><path id="Cylinder_face_92_" style="fill:#C0BCBB;" d="M264.144,57.589c0,0.267-0.188,0.375-0.419,0.242        s-0.419-0.458-0.419-0.725c0-0.267,0.187-0.375,0.419-0.242S264.144,57.322,264.144,57.589z" /><linearGradient id="Cylinder_body_00000021086792840346220350000011703069098569963916_" gradientUnits="userSpaceOnUse" x1="273.0198" y1="51.2973" x2="273.6119" y2="52.3227"><stop offset="0" style="stop-color:#F0EBE6" /><stop offset="1" style="stop-color:#DBD7D6" /></linearGradient><path id="Cylinder_body_86_" style="fill:url(#Cylinder_body_00000021086792840346220350000011703069098569963916_);" d="        M263.426,56.836l18.888-10.905c0.076-0.046,0.182-0.04,0.299,0.028c0.231,0.133,0.419,0.458,0.419,0.725        c0,0.132-0.046,0.225-0.12,0.269l-18.888,10.905c0.074-0.044,0.12-0.137,0.12-0.269c0-0.267-0.188-0.592-0.419-0.725        C263.608,56.796,263.502,56.791,263.426,56.836z" /></g><g id="Axonometric_Cylinder_22_"><path id="Cylinder_face_93_" style="fill:#C0BCBB;" d="M265.941,58.626c0,0.267-0.188,0.375-0.419,0.242        c-0.231-0.133-0.419-0.458-0.419-0.725c0-0.267,0.187-0.375,0.419-0.242C265.753,58.035,265.941,58.36,265.941,58.626z" /><linearGradient id="Cylinder_body_00000005959841074832882010000006750759558436078506_" gradientUnits="userSpaceOnUse" x1="274.8168" y1="52.3347" x2="275.4089" y2="53.3602"><stop offset="0" style="stop-color:#F0EBE6" /><stop offset="1" style="stop-color:#DBD7D6" /></linearGradient><path id="Cylinder_body_87_" style="fill:url(#Cylinder_body_00000005959841074832882010000006750759558436078506_);" d="        M265.223,57.874l18.888-10.905c0.076-0.045,0.182-0.04,0.299,0.028c0.231,0.133,0.419,0.458,0.419,0.725        c0,0.132-0.046,0.225-0.12,0.269l-18.888,10.905c0.074-0.044,0.12-0.138,0.12-0.269c0-0.267-0.188-0.592-0.419-0.725        C265.405,57.834,265.299,57.828,265.223,57.874z" /></g><g id="Axonometric_Cylinder_23_"><path id="Cylinder_face_94_" style="fill:#C0BCBB;" d="M267.738,59.664c0,0.267-0.187,0.375-0.419,0.242        s-0.419-0.458-0.419-0.725c0-0.267,0.188-0.375,0.419-0.242C267.55,59.072,267.738,59.397,267.738,59.664z" /><linearGradient id="Cylinder_body_00000163044855017803728170000001889577338904274319_" gradientUnits="userSpaceOnUse" x1="276.6138" y1="53.3722" x2="277.2058" y2="54.3977"><stop offset="0" style="stop-color:#F0EBE6" /><stop offset="1" style="stop-color:#DBD7D6" /></linearGradient><path id="Cylinder_body_88_" style="fill:url(#Cylinder_body_00000163044855017803728170000001889577338904274319_);" d="        M267.02,58.911l18.888-10.905c0.076-0.046,0.182-0.04,0.299,0.028c0.231,0.133,0.419,0.458,0.419,0.725        c0,0.132-0.046,0.225-0.12,0.269l-18.888,10.905c0.074-0.044,0.12-0.138,0.12-0.269c0-0.267-0.187-0.592-0.419-0.725        C267.202,58.871,267.096,58.866,267.02,58.911z" /></g><g id="Axonometric_Cylinder_24_"><path id="Cylinder_face_95_" style="fill:#C0BCBB;" d="M269.535,60.701c0,0.267-0.187,0.375-0.419,0.242        c-0.231-0.133-0.419-0.458-0.419-0.725c0-0.267,0.187-0.375,0.419-0.242C269.347,60.11,269.535,60.435,269.535,60.701z" /><linearGradient id="Cylinder_body_00000079461422773604729460000009982519134258841744_" gradientUnits="userSpaceOnUse" x1="278.4108" y1="54.4097" x2="279.0028" y2="55.4352"><stop offset="0" style="stop-color:#F0EBE6" /><stop offset="1" style="stop-color:#DBD7D6" /></linearGradient><path id="Cylinder_body_89_" style="fill:url(#Cylinder_body_00000079461422773604729460000009982519134258841744_);" d="        M268.817,59.949l18.888-10.905c0.076-0.046,0.182-0.04,0.299,0.028c0.231,0.134,0.419,0.458,0.419,0.725        c0,0.132-0.046,0.225-0.12,0.27l-18.888,10.905c0.074-0.044,0.12-0.138,0.12-0.269c0-0.267-0.187-0.592-0.419-0.725        C268.999,59.909,268.893,59.903,268.817,59.949z" /></g><g id="Axonometric_Cylinder_25_"><path id="Cylinder_face_96_" style="fill:#C0BCBB;" d="M271.332,61.739c0,0.267-0.187,0.375-0.419,0.242        c-0.231-0.134-0.419-0.458-0.419-0.725c0-0.267,0.187-0.375,0.419-0.242C271.144,61.147,271.332,61.472,271.332,61.739z" /><linearGradient id="Cylinder_body_00000078040104207701421770000018166996028499103158_" gradientUnits="userSpaceOnUse" x1="280.2078" y1="55.4472" x2="280.7998" y2="56.4727"><stop offset="0" style="stop-color:#F0EBE6" /><stop offset="1" style="stop-color:#DBD7D6" /></linearGradient><path id="Cylinder_body_90_" style="fill:url(#Cylinder_body_00000078040104207701421770000018166996028499103158_);" d="        M270.614,60.986l18.888-10.905c0.076-0.045,0.182-0.04,0.299,0.028c0.231,0.133,0.419,0.458,0.419,0.725        c0,0.132-0.046,0.225-0.12,0.269l-18.888,10.905c0.074-0.044,0.12-0.138,0.12-0.27c0-0.267-0.187-0.592-0.419-0.725        C270.796,60.946,270.69,60.941,270.614,60.986z" /></g><g id="Axonometric_Cylinder_26_"><path id="Cylinder_face_97_" style="fill:#C0BCBB;" d="M273.129,62.776c0,0.267-0.188,0.375-0.419,0.242        s-0.419-0.458-0.419-0.725c0-0.267,0.187-0.375,0.419-0.242S273.129,62.509,273.129,62.776z" /><linearGradient id="Cylinder_body_00000166651132785200954800000010325692875754225574_" gradientUnits="userSpaceOnUse" x1="282.0048" y1="56.4847" x2="282.5968" y2="57.5102"><stop offset="0" style="stop-color:#F0EBE6" /><stop offset="1" style="stop-color:#DBD7D6" /></linearGradient><path id="Cylinder_body_91_" style="fill:url(#Cylinder_body_00000166651132785200954800000010325692875754225574_);" d="        M272.411,62.024L291.3,51.118c0.076-0.046,0.182-0.04,0.299,0.028c0.231,0.133,0.419,0.458,0.419,0.725        c0,0.132-0.046,0.225-0.12,0.269l-18.888,10.905c0.074-0.044,0.12-0.138,0.12-0.269c0-0.267-0.188-0.592-0.419-0.725        C272.593,61.984,272.487,61.978,272.411,62.024z" /></g><g id="Axonometric_Cylinder_27_"><path id="Cylinder_face_98_" style="fill:#C0BCBB;" d="M274.926,63.814c0,0.267-0.187,0.375-0.419,0.242        c-0.231-0.134-0.419-0.458-0.419-0.725c0-0.267,0.188-0.375,0.419-0.242C274.738,63.222,274.926,63.547,274.926,63.814z" /><linearGradient id="Cylinder_body_00000029023657819238403870000000756244230447402921_" gradientUnits="userSpaceOnUse" x1="283.8017" y1="57.5222" x2="284.3937" y2="58.5476"><stop offset="0" style="stop-color:#F0EBE6" /><stop offset="1" style="stop-color:#DBD7D6" /></linearGradient><path id="Cylinder_body_92_" style="fill:url(#Cylinder_body_00000029023657819238403870000000756244230447402921_);" d="        M274.208,63.061l18.888-10.905c0.076-0.045,0.182-0.04,0.299,0.028c0.231,0.133,0.419,0.458,0.419,0.725        c0,0.132-0.046,0.225-0.12,0.269l-18.888,10.905c0.074-0.044,0.12-0.137,0.12-0.269c0-0.267-0.187-0.592-0.419-0.725        C274.39,63.021,274.284,63.016,274.208,63.061z" /></g><g id="Axonometric_Cylinder_28_"><path id="Cylinder_face_99_" style="fill:#C0BCBB;" d="M276.723,64.851c0,0.267-0.187,0.375-0.419,0.242        s-0.419-0.458-0.419-0.725c0-0.267,0.188-0.375,0.419-0.242C276.535,64.26,276.723,64.584,276.723,64.851z" /><linearGradient id="Cylinder_body_00000160872243304615205950000012016423792938799779_" gradientUnits="userSpaceOnUse" x1="285.5987" y1="58.5597" x2="286.1907" y2="59.5851"><stop offset="0" style="stop-color:#F0EBE6" /><stop offset="1" style="stop-color:#DBD7D6" /></linearGradient><path id="Cylinder_body_93_" style="fill:url(#Cylinder_body_00000160872243304615205950000012016423792938799779_);" d="        M276.005,64.099l18.888-10.905c0.076-0.045,0.182-0.04,0.299,0.028c0.231,0.133,0.419,0.458,0.419,0.725        c0,0.132-0.046,0.225-0.12,0.269l-18.888,10.905c0.074-0.044,0.12-0.137,0.12-0.269c0-0.267-0.187-0.592-0.419-0.725        C276.187,64.059,276.081,64.053,276.005,64.099z" /></g><g id="Axonometric_Cylinder_29_"><path id="Cylinder_face_100_" style="fill:#C0BCBB;" d="M278.52,65.889c0,0.267-0.187,0.375-0.419,0.242        c-0.231-0.133-0.419-0.458-0.419-0.725c0-0.267,0.187-0.375,0.419-0.242C278.332,65.297,278.52,65.622,278.52,65.889z" /><linearGradient id="Cylinder_body_00000089563437426138511770000009344957791707720635_" gradientUnits="userSpaceOnUse" x1="287.3957" y1="59.5971" x2="287.9877" y2="60.6226"><stop offset="0" style="stop-color:#F0EBE6" /><stop offset="1" style="stop-color:#DBD7D6" /></linearGradient><path id="Cylinder_body_94_" style="fill:url(#Cylinder_body_00000089563437426138511770000009344957791707720635_);" d="        M277.802,65.136l18.888-10.905c0.076-0.046,0.182-0.04,0.299,0.028c0.231,0.133,0.419,0.458,0.419,0.725        c0,0.132-0.046,0.225-0.12,0.269L278.4,66.158c0.074-0.044,0.12-0.138,0.12-0.269c0-0.267-0.187-0.592-0.419-0.725        C277.984,65.096,277.878,65.091,277.802,65.136z" /></g><g id="Axonometric_Cylinder_30_"><path id="Cylinder_face_101_" style="fill:#C0BCBB;" d="M280.316,66.926c0,0.267-0.188,0.375-0.419,0.242        s-0.419-0.458-0.419-0.725c0-0.267,0.187-0.375,0.419-0.242C280.129,66.335,280.316,66.659,280.316,66.926z" /><linearGradient id="Cylinder_body_00000000924241548784781050000006689000197092656056_" gradientUnits="userSpaceOnUse" x1="289.1927" y1="60.6346" x2="289.7847" y2="61.6601"><stop offset="0" style="stop-color:#F0EBE6" /><stop offset="1" style="stop-color:#DBD7D6" /></linearGradient><path id="Cylinder_body_95_" style="fill:url(#Cylinder_body_00000000924241548784781050000006689000197092656056_);" d="        M279.599,66.174l18.888-10.905c0.076-0.045,0.182-0.04,0.299,0.028c0.231,0.133,0.419,0.458,0.419,0.725        c0,0.132-0.046,0.225-0.12,0.27l-18.888,10.905c0.074-0.044,0.12-0.138,0.12-0.269c0-0.267-0.188-0.592-0.419-0.725        C279.781,66.134,279.675,66.128,279.599,66.174z" /></g><g id="Axonometric_Cylinder_31_"><path id="Cylinder_face_102_" style="fill:#C0BCBB;" d="M282.113,67.964c0,0.267-0.187,0.375-0.419,0.242        c-0.231-0.133-0.419-0.458-0.419-0.725c0-0.267,0.188-0.375,0.419-0.242S282.113,67.697,282.113,67.964z" /><linearGradient id="Cylinder_body_00000068677884565452639190000015329994033372039096_" gradientUnits="userSpaceOnUse" x1="290.9897" y1="61.6721" x2="291.5817" y2="62.6976"><stop offset="0" style="stop-color:#F0EBE6" /><stop offset="1" style="stop-color:#DBD7D6" /></linearGradient><path id="Cylinder_body_96_" style="fill:url(#Cylinder_body_00000068677884565452639190000015329994033372039096_);" d="        M281.396,67.211l18.888-10.905c0.076-0.046,0.182-0.04,0.299,0.028c0.231,0.133,0.419,0.458,0.419,0.725        c0,0.132-0.046,0.225-0.12,0.269l-18.888,10.905c0.074-0.044,0.12-0.138,0.12-0.269c0-0.267-0.187-0.592-0.419-0.725        C281.578,67.171,281.472,67.165,281.396,67.211z" /></g><g id="Axonometric_Cylinder_32_"><path id="Cylinder_face_103_" style="fill:#C0BCBB;" d="M283.91,69.001c0,0.267-0.187,0.375-0.419,0.242        c-0.231-0.133-0.419-0.458-0.419-0.725s0.188-0.375,0.419-0.242S283.91,68.734,283.91,69.001z" /><linearGradient id="Cylinder_body_00000017484035479732305970000002988136032341302712_" gradientUnits="userSpaceOnUse" x1="292.7866" y1="62.7096" x2="293.3786" y2="63.7351"><stop offset="0" style="stop-color:#F0EBE6" /><stop offset="1" style="stop-color:#DBD7D6" /></linearGradient><path id="Cylinder_body_97_" style="fill:url(#Cylinder_body_00000017484035479732305970000002988136032341302712_);" d="        M283.193,68.248l18.888-10.905c0.076-0.046,0.182-0.04,0.299,0.028c0.231,0.134,0.419,0.458,0.419,0.725        c0,0.132-0.046,0.225-0.12,0.269L283.79,69.271c0.074-0.044,0.12-0.138,0.12-0.27c0-0.267-0.187-0.592-0.419-0.725        C283.375,68.209,283.269,68.203,283.193,68.248z" /></g><g id="Axonometric_Cylinder_33_"><path id="Cylinder_face_104_" style="fill:#C0BCBB;" d="M285.707,70.039c0,0.267-0.187,0.375-0.419,0.242        c-0.231-0.133-0.419-0.458-0.419-0.725c0-0.267,0.187-0.375,0.419-0.242C285.52,69.447,285.707,69.772,285.707,70.039z" /><linearGradient id="Cylinder_body_00000029032913159645211560000009757865099316071812_" gradientUnits="userSpaceOnUse" x1="294.5836" y1="63.7471" x2="295.1756" y2="64.7726"><stop offset="0" style="stop-color:#F0EBE6" /><stop offset="1" style="stop-color:#DBD7D6" /></linearGradient><path id="Cylinder_body_98_" style="fill:url(#Cylinder_body_00000029032913159645211560000009757865099316071812_);" d="        M284.99,69.286l18.888-10.905c0.076-0.045,0.182-0.04,0.299,0.028c0.231,0.133,0.419,0.458,0.419,0.725        c0,0.132-0.046,0.225-0.12,0.269l-18.888,10.905c0.074-0.044,0.12-0.138,0.12-0.269c0-0.267-0.187-0.592-0.419-0.725        C285.172,69.246,285.066,69.241,284.99,69.286z" /></g><g id="Axonometric_Cylinder_34_"><path id="Cylinder_face_105_" style="fill:#C0BCBB;" d="M287.504,71.076c0,0.267-0.188,0.375-0.419,0.242        s-0.419-0.458-0.419-0.725c0-0.267,0.187-0.375,0.419-0.242C287.317,70.485,287.504,70.809,287.504,71.076z" /><linearGradient id="Cylinder_body_00000163067406305351298520000007837693338197077926_" gradientUnits="userSpaceOnUse" x1="296.3806" y1="64.7846" x2="296.9726" y2="65.81"><stop offset="0" style="stop-color:#F0EBE6" /><stop offset="1" style="stop-color:#DBD7D6" /></linearGradient><path id="Cylinder_body_99_" style="fill:url(#Cylinder_body_00000163067406305351298520000007837693338197077926_);" d="        M286.787,70.324l18.888-10.905c0.076-0.045,0.182-0.04,0.299,0.028c0.231,0.133,0.419,0.458,0.419,0.725        c0,0.132-0.046,0.225-0.12,0.269l-18.888,10.905c0.074-0.044,0.12-0.138,0.12-0.269c0-0.267-0.188-0.592-0.419-0.725        C286.969,70.284,286.863,70.278,286.787,70.324z" /></g><g id="Axonometric_Cylinder_35_"><path id="Cylinder_face_106_" style="fill:#C0BCBB;" d="M289.301,72.114c0,0.267-0.188,0.375-0.419,0.242        s-0.419-0.458-0.419-0.725s0.187-0.375,0.419-0.242S289.301,71.847,289.301,72.114z" /><linearGradient id="Cylinder_body_00000137816326263035552520000005104610401206211509_" gradientUnits="userSpaceOnUse" x1="298.1776" y1="65.822" x2="298.7696" y2="66.8475"><stop offset="0" style="stop-color:#F0EBE6" /><stop offset="1" style="stop-color:#DBD7D6" /></linearGradient><path id="Cylinder_body_100_" style="fill:url(#Cylinder_body_00000137816326263035552520000005104610401206211509_);" d="        M288.584,71.361l18.888-10.905c0.076-0.046,0.182-0.04,0.299,0.028c0.231,0.134,0.419,0.458,0.419,0.725        c0,0.132-0.046,0.225-0.12,0.269l-18.888,10.905c0.074-0.044,0.12-0.138,0.12-0.269c0-0.267-0.188-0.592-0.419-0.725        C288.766,71.321,288.66,71.315,288.584,71.361z" /></g><g id="Axonometric_Cylinder_36_"><path id="Cylinder_face_109_" style="fill:#C0BCBB;" d="M291.098,73.151c0,0.267-0.187,0.375-0.419,0.242        s-0.419-0.458-0.419-0.725c0-0.267,0.188-0.375,0.419-0.242C290.911,72.56,291.098,72.884,291.098,73.151z" /><linearGradient id="Cylinder_body_00000003793444634246097170000005490288002611708555_" gradientUnits="userSpaceOnUse" x1="299.9745" y1="66.8595" x2="300.5665" y2="67.885"><stop offset="0" style="stop-color:#F0EBE6" /><stop offset="1" style="stop-color:#DBD7D6" /></linearGradient><path id="Cylinder_body_101_" style="fill:url(#Cylinder_body_00000003793444634246097170000005490288002611708555_);" d="        M290.381,72.398l18.888-10.905c0.076-0.045,0.182-0.04,0.299,0.028c0.231,0.133,0.419,0.458,0.419,0.725        c0,0.132-0.046,0.225-0.12,0.27l-18.888,10.905c0.074-0.044,0.12-0.137,0.12-0.269c0-0.267-0.187-0.592-0.419-0.725        C290.563,72.359,290.457,72.353,290.381,72.398z" /></g><g id="Axonometric_Cylinder_37_"><path id="Cylinder_face_110_" style="fill:#C0BCBB;" d="M292.895,74.189c0,0.267-0.187,0.375-0.419,0.242        c-0.231-0.133-0.419-0.458-0.419-0.725c0-0.267,0.187-0.375,0.419-0.242C292.708,73.597,292.895,73.922,292.895,74.189z" /><linearGradient id="Cylinder_body_00000059308597551818574610000012069461483433087932_" gradientUnits="userSpaceOnUse" x1="301.7715" y1="67.897" x2="302.3635" y2="68.9225"><stop offset="0" style="stop-color:#F0EBE6" /><stop offset="1" style="stop-color:#DBD7D6" /></linearGradient><path id="Cylinder_body_102_" style="fill:url(#Cylinder_body_00000059308597551818574610000012069461483433087932_);" d="        M292.178,73.436l18.888-10.905c0.076-0.046,0.182-0.04,0.299,0.028c0.231,0.133,0.419,0.458,0.419,0.725        c0,0.132-0.046,0.225-0.12,0.27l-18.888,10.905c0.074-0.044,0.12-0.137,0.12-0.269c0-0.267-0.187-0.592-0.419-0.725        C292.36,73.396,292.254,73.39,292.178,73.436z" /></g><g id="Axonometric_Cylinder_38_"><path id="Cylinder_face_111_" style="fill:#C0BCBB;" d="M294.692,75.226c0,0.267-0.188,0.375-0.419,0.242        c-0.231-0.133-0.419-0.458-0.419-0.725c0-0.267,0.187-0.375,0.419-0.242S294.692,74.959,294.692,75.226z" /><linearGradient id="Cylinder_body_00000114047222514533698960000007586727886683529358_" gradientUnits="userSpaceOnUse" x1="303.5685" y1="68.9345" x2="304.1605" y2="69.96"><stop offset="0" style="stop-color:#F0EBE6" /><stop offset="1" style="stop-color:#DBD7D6" /></linearGradient><path id="Cylinder_body_103_" style="fill:url(#Cylinder_body_00000114047222514533698960000007586727886683529358_);" d="        M293.975,74.473l18.888-10.905c0.076-0.045,0.182-0.04,0.299,0.028c0.231,0.133,0.419,0.458,0.419,0.725        c0,0.132-0.046,0.225-0.12,0.27l-18.888,10.905c0.074-0.044,0.12-0.138,0.12-0.27c0-0.267-0.188-0.592-0.419-0.725        C294.157,74.434,294.051,74.428,293.975,74.473z" /></g><g id="Axonometric_Cylinder_39_"><path id="Cylinder_face_112_" style="fill:#C0BCBB;" d="M296.489,76.264c0,0.267-0.188,0.375-0.419,0.242        s-0.419-0.458-0.419-0.725c0-0.267,0.187-0.375,0.419-0.242S296.489,75.997,296.489,76.264z" /><linearGradient id="Cylinder_body_00000141443062320533462940000004133234198360764081_" gradientUnits="userSpaceOnUse" x1="305.3654" y1="69.972" x2="305.9575" y2="70.9975"><stop offset="0" style="stop-color:#F0EBE6" /><stop offset="1" style="stop-color:#DBD7D6" /></linearGradient><path id="Cylinder_body_104_" style="fill:url(#Cylinder_body_00000141443062320533462940000004133234198360764081_);" d="        M295.772,75.511l18.888-10.905c0.076-0.045,0.182-0.04,0.299,0.028c0.231,0.133,0.419,0.458,0.419,0.725        c0,0.132-0.046,0.225-0.12,0.269l-18.888,10.905c0.074-0.044,0.12-0.138,0.12-0.27c0-0.267-0.188-0.592-0.419-0.725        C295.954,75.471,295.848,75.465,295.772,75.511z" /></g><g id="Axonometric_Cylinder_40_"><path id="Cylinder_face_113_" style="fill:#C0BCBB;" d="M298.286,77.301c0,0.267-0.187,0.375-0.419,0.242        s-0.419-0.458-0.419-0.725c0-0.267,0.188-0.375,0.419-0.242C298.099,76.71,298.286,77.034,298.286,77.301z" /><linearGradient id="Cylinder_body_00000174573510797818920300000008133848525541177992_" gradientUnits="userSpaceOnUse" x1="307.1624" y1="71.0095" x2="307.7544" y2="72.0349"><stop offset="0" style="stop-color:#F0EBE6" /><stop offset="1" style="stop-color:#DBD7D6" /></linearGradient><path id="Cylinder_body_105_" style="fill:url(#Cylinder_body_00000174573510797818920300000008133848525541177992_);" d="        M297.569,76.548l18.889-10.905c0.076-0.045,0.182-0.04,0.299,0.028c0.231,0.133,0.419,0.458,0.419,0.725        c0,0.132-0.046,0.225-0.12,0.269l-18.888,10.905c0.074-0.044,0.12-0.138,0.12-0.269c0-0.267-0.187-0.592-0.419-0.725        C297.751,76.508,297.645,76.503,297.569,76.548z" /></g><g id="Axonometric_Cylinder_41_"><path id="Cylinder_face_114_" style="fill:#C0BCBB;" d="M300.083,78.339c0,0.267-0.187,0.375-0.419,0.242        c-0.231-0.133-0.419-0.458-0.419-0.725s0.187-0.375,0.419-0.242C299.896,77.747,300.083,78.072,300.083,78.339z" /><linearGradient id="Cylinder_body_00000084526280004721789780000016555442463097229498_" gradientUnits="userSpaceOnUse" x1="308.9594" y1="72.047" x2="309.5514" y2="73.0724"><stop offset="0" style="stop-color:#F0EBE6" /><stop offset="1" style="stop-color:#DBD7D6" /></linearGradient><path id="Cylinder_body_106_" style="fill:url(#Cylinder_body_00000084526280004721789780000016555442463097229498_);" d="        M299.366,77.586l18.888-10.905c0.076-0.046,0.182-0.04,0.299,0.028c0.231,0.133,0.419,0.458,0.419,0.725        c0,0.132-0.046,0.225-0.12,0.269l-18.888,10.905c0.074-0.044,0.12-0.138,0.12-0.269c0-0.267-0.187-0.592-0.419-0.725        C299.548,77.546,299.442,77.54,299.366,77.586z" /></g><g id="Axonometric_Cylinder_42_"><path id="Cylinder_face_115_" style="fill:#C0BCBB;" d="M301.88,79.376c0,0.267-0.188,0.375-0.419,0.242        c-0.231-0.133-0.419-0.458-0.419-0.725s0.187-0.375,0.419-0.242S301.88,79.109,301.88,79.376z" /><linearGradient id="Cylinder_body_00000037670131603719093120000003948337826906005120_" gradientUnits="userSpaceOnUse" x1="310.7563" y1="73.0844" x2="311.3484" y2="74.1099"><stop offset="0" style="stop-color:#F0EBE6" /><stop offset="1" style="stop-color:#DBD7D6" /></linearGradient><path id="Cylinder_body_107_" style="fill:url(#Cylinder_body_00000037670131603719093120000003948337826906005120_);" d="        M301.163,78.623l18.888-10.905c0.076-0.046,0.182-0.04,0.299,0.028c0.231,0.134,0.419,0.458,0.419,0.725        c0,0.132-0.046,0.225-0.12,0.269L301.76,79.646c0.074-0.044,0.12-0.137,0.12-0.269c0-0.267-0.188-0.592-0.419-0.725        C301.344,78.584,301.239,78.578,301.163,78.623z" /></g><g id="Axonometric_Cylinder_43_"><path id="Cylinder_face_116_" style="fill:#C0BCBB;" d="M303.677,80.414c0,0.267-0.188,0.375-0.419,0.242        c-0.231-0.134-0.419-0.458-0.419-0.725c0-0.267,0.187-0.375,0.419-0.242C303.49,79.822,303.677,80.147,303.677,80.414z" /><linearGradient id="Cylinder_body_00000050638718180529548820000012929220962189737380_" gradientUnits="userSpaceOnUse" x1="312.5533" y1="74.1219" x2="313.1454" y2="75.1474"><stop offset="0" style="stop-color:#F0EBE6" /><stop offset="1" style="stop-color:#DBD7D6" /></linearGradient><path id="Cylinder_body_108_" style="fill:url(#Cylinder_body_00000050638718180529548820000012929220962189737380_);" d="        M302.96,79.661l18.888-10.905c0.076-0.046,0.182-0.04,0.299,0.028c0.231,0.133,0.419,0.458,0.419,0.725        c0,0.132-0.046,0.225-0.12,0.27l-18.888,10.905c0.074-0.044,0.12-0.137,0.12-0.269c0-0.267-0.188-0.592-0.419-0.725        C303.141,79.621,303.036,79.615,302.96,79.661z" /></g><g id="Axonometric_Cylinder_44_"><path id="Cylinder_face_117_" style="fill:#C0BCBB;" d="M305.474,81.451c0,0.267-0.187,0.375-0.419,0.242        s-0.419-0.458-0.419-0.725c0-0.267,0.188-0.375,0.419-0.242S305.474,81.184,305.474,81.451z" /><linearGradient id="Cylinder_body_00000119838920458873012440000000388695193809988031_" gradientUnits="userSpaceOnUse" x1="314.3503" y1="75.1594" x2="314.9424" y2="76.1849"><stop offset="0" style="stop-color:#F0EBE6" /><stop offset="1" style="stop-color:#DBD7D6" /></linearGradient><path id="Cylinder_body_109_" style="fill:url(#Cylinder_body_00000119838920458873012440000000388695193809988031_);" d="        M304.757,80.698l18.889-10.905c0.076-0.046,0.182-0.04,0.299,0.028c0.231,0.133,0.419,0.458,0.419,0.725        c0,0.132-0.046,0.225-0.12,0.27l-18.888,10.905c0.074-0.044,0.12-0.138,0.12-0.269c0-0.267-0.187-0.592-0.419-0.725        C304.939,80.659,304.833,80.653,304.757,80.698z" /></g><g id="Axonometric_Cylinder_45_"><path id="Cylinder_face_118_" style="fill:#C0BCBB;" d="M307.271,82.489c0,0.267-0.187,0.375-0.419,0.242        c-0.231-0.133-0.419-0.458-0.419-0.725c0-0.267,0.188-0.375,0.419-0.242C307.084,81.897,307.271,82.222,307.271,82.489z" /><linearGradient id="Cylinder_body_00000024686967713287529700000004067806791145512887_" gradientUnits="userSpaceOnUse" x1="316.1473" y1="76.1969" x2="316.7393" y2="77.2224"><stop offset="0" style="stop-color:#F0EBE6" /><stop offset="1" style="stop-color:#DBD7D6" /></linearGradient><path id="Cylinder_body_110_" style="fill:url(#Cylinder_body_00000024686967713287529700000004067806791145512887_);" d="        M306.554,81.736l18.888-10.905c0.076-0.045,0.182-0.04,0.299,0.028c0.231,0.133,0.419,0.458,0.419,0.725        c0,0.132-0.046,0.225-0.12,0.269l-18.888,10.905c0.074-0.044,0.12-0.138,0.12-0.27c0-0.267-0.187-0.592-0.419-0.725        C306.736,81.696,306.63,81.69,306.554,81.736z" /></g><g id="Axonometric_Cylinder_46_"><path id="Cylinder_face_119_" style="fill:#C0BCBB;" d="M309.068,83.526c0,0.267-0.187,0.375-0.419,0.242        c-0.231-0.133-0.419-0.458-0.419-0.725s0.187-0.375,0.419-0.242C308.881,82.935,309.068,83.259,309.068,83.526z" /><linearGradient id="Cylinder_body_00000149360352784186668470000009296847440842237861_" gradientUnits="userSpaceOnUse" x1="317.9442" y1="77.2344" x2="318.5363" y2="78.2599"><stop offset="0" style="stop-color:#F0EBE6" /><stop offset="1" style="stop-color:#DBD7D6" /></linearGradient><path id="Cylinder_body_111_" style="fill:url(#Cylinder_body_00000149360352784186668470000009296847440842237861_);" d="        M308.351,82.773l18.888-10.905c0.076-0.045,0.182-0.04,0.299,0.028c0.231,0.133,0.419,0.458,0.419,0.725        c0,0.132-0.046,0.225-0.12,0.269l-18.888,10.905c0.074-0.044,0.12-0.138,0.12-0.27c0-0.267-0.187-0.592-0.419-0.725        C308.532,82.733,308.427,82.728,308.351,82.773z" /></g><g id="Axonometric_Cylinder_47_"><path id="Cylinder_face_120_" style="fill:#C0BCBB;" d="M310.865,84.564c0,0.267-0.188,0.375-0.419,0.242        s-0.419-0.458-0.419-0.725s0.187-0.375,0.419-0.242S310.865,84.297,310.865,84.564z" /><linearGradient id="Cylinder_body_00000133501359730303319580000007041858893773672849_" gradientUnits="userSpaceOnUse" x1="319.7412" y1="78.2719" x2="320.3333" y2="79.2973"><stop offset="0" style="stop-color:#F0EBE6" /><stop offset="1" style="stop-color:#DBD7D6" /></linearGradient><path id="Cylinder_body_112_" style="fill:url(#Cylinder_body_00000133501359730303319580000007041858893773672849_);" d="        M310.148,83.811l18.888-10.905c0.076-0.045,0.182-0.04,0.299,0.028c0.231,0.134,0.419,0.458,0.419,0.725        c0,0.132-0.046,0.225-0.12,0.269l-18.888,10.905c0.074-0.044,0.12-0.137,0.12-0.269c0-0.267-0.188-0.592-0.419-0.725        C310.329,83.771,310.224,83.765,310.148,83.811z" /></g></g><g id="Axonometric_Cube_11_"><polygon id="Cube_face_-_left_492_" style="fill:#C0BCBB;" points="310.598,86.139 244.156,47.778 244.156,45.101        310.598,83.462      " /><polygon id="Cube_face_-_right_492_" style="fill:#DBD7D6;" points="311.386,85.684 310.598,86.139 310.598,83.462        311.386,83.007      " /><polygon id="Cube_face_-_top_492_" style="fill:#F0EBE6;" points="310.598,83.462 244.156,45.101 244.944,44.646        311.386,83.007      " /></g></g></g><g><g id="Axonometric_Cube_21_"><polygon id="Cube_face_-_left_582_" style="fill:#BC7400;" points="276.459,75.751 274.081,74.378 274.081,71.677       276.459,73.05     " /><polygon id="Cube_face_-_right_582_" style="fill:#E69F00;" points="277.744,75.009 276.459,75.751 276.459,73.05       277.744,72.308     " /><polygon id="Cube_face_-_top_582_" style="fill:#FFCB27;" points="276.459,73.05 274.081,71.677 275.365,70.935 277.744,72.308           " /></g><g><path style="fill:#2B2120;" d="M275.216,68.963c-0.036-0.062-0.116-0.084-0.178-0.048l-0.118,0.068      c-0.184,0.106-0.298,0.304-0.298,0.516v2.267c0,0.104,0.261,0.104,0.261,0V69.5c0-0.119,0.064-0.23,0.167-0.29l0.118-0.068      C275.231,69.106,275.252,69.026,275.216,68.963z" /><path style="fill:#2B2120;" d="M275.793,69.297c-0.036-0.062-0.116-0.084-0.178-0.048l-0.118,0.068      c-0.184,0.106-0.298,0.304-0.298,0.516V72.1c0,0.119,0.261,0.132,0.261,0v-2.267c0-0.119,0.064-0.23,0.168-0.29l0.118-0.068      C275.808,69.439,275.829,69.359,275.793,69.297z" /></g></g><g><g id="Axonometric_Cube_23_"><polygon id="Cube_face_-_left_584_" style="fill:#BC7400;" points="304.607,92.002 302.229,90.629 302.229,87.928       304.607,89.301     " /><polygon id="Cube_face_-_right_584_" style="fill:#E69F00;" points="305.891,91.26 304.607,92.002 304.607,89.301       305.891,88.559     " /><polygon id="Cube_face_-_top_584_" style="fill:#FFCB27;" points="304.607,89.301 302.229,87.928 303.513,87.186       305.891,88.559     " /></g><g><path style="fill:#2B2120;" d="M303.364,85.214c-0.036-0.062-0.116-0.084-0.178-0.048l-0.118,0.068      c-0.184,0.106-0.298,0.304-0.298,0.516v2.267c0,0.104,0.261,0.104,0.261,0v-2.267c0-0.119,0.064-0.23,0.168-0.29l0.118-0.068      C303.378,85.357,303.4,85.277,303.364,85.214z" /><path style="fill:#2B2120;" d="M303.941,85.548c-0.036-0.062-0.116-0.084-0.178-0.048l-0.118,0.068      c-0.184,0.106-0.298,0.304-0.298,0.516v2.267c0,0.119,0.261,0.132,0.261,0v-2.267c0-0.119,0.064-0.23,0.167-0.29l0.118-0.068      C303.955,85.69,303.977,85.61,303.941,85.548z" /></g></g><g><g id="Axonometric_Cube_24_"><polygon id="Cube_face_-_left_585_" style="fill:#BC7400;" points="248.32,59.504 245.942,58.131 245.942,55.431 248.32,56.804           " /><polygon id="Cube_face_-_right_585_" style="fill:#E69F00;" points="249.604,58.763 248.32,59.504 248.32,56.804       249.604,56.062     " /><polygon id="Cube_face_-_top_585_" style="fill:#FFCB27;" points="248.32,56.804 245.942,55.431 247.226,54.689 249.604,56.062           " /></g><g><path style="fill:#2B2120;" d="M247.077,52.717c-0.036-0.062-0.116-0.084-0.178-0.048l-0.118,0.069      c-0.184,0.106-0.298,0.304-0.298,0.516v2.267c0,0.104,0.261,0.104,0.261,0v-2.267c0-0.119,0.064-0.23,0.167-0.29l0.118-0.069      C247.091,52.859,247.113,52.779,247.077,52.717z" /><path style="fill:#2B2120;" d="M247.654,53.05c-0.036-0.062-0.116-0.084-0.178-0.048l-0.118,0.068      c-0.184,0.106-0.298,0.304-0.298,0.516v2.267c0,0.119,0.261,0.132,0.261,0v-2.267c0-0.119,0.064-0.23,0.167-0.29l0.118-0.068      C247.668,53.193,247.69,53.113,247.654,53.05z" /></g></g></g></g></svg>