<?xml version="1.0" encoding="UTF-8"?>
<svg version="1.1" xmlns="http://www.w3.org/2000/svg" width="343" height="651">
<path d="M0 0 C5.71950204 5.14205231 10.69483975 12.34072847 11.36134338 20.16607666 C11.41793294 22.52735577 11.41246732 24.88041958 11.3828125 27.2421875 C11.3799826 28.09934357 11.37715271 28.95649963 11.37423706 29.83963013 C11.36309999 32.55989932 11.3380076 35.27983141 11.3125 38 C11.30246182 39.85155772 11.29333744 41.70312064 11.28515625 43.5546875 C11.26318188 48.0782536 11.228697 52.60156977 11.1875 57.125 C12.11546387 57.42591553 13.04342773 57.72683105 13.99951172 58.03686523 C24.59806681 61.65439932 33.51302688 68.23528988 42.1875 75.125 C42.78175781 75.56457031 43.37601562 76.00414063 43.98828125 76.45703125 C55.79537258 85.4635187 62.68959455 99.17073936 64.79980469 113.54566956 C65.41240478 119.20139482 65.25805399 124.76463349 65.06640625 130.44140625 C65.01678699 132.94201663 64.96932578 135.44267061 64.92382812 137.94335938 C64.8434937 141.82373326 64.74951672 145.7017986 64.6184082 149.58081055 C63.35830402 166.39998587 63.35830402 166.39998587 69.4375 181.40234375 C70.9942222 183.00288276 72.57456313 184.58112702 74.1875 186.125 C75.89821611 188.6883542 77.28536392 191.35257673 78.625 194.125 C78.955 194.80377197 79.285 195.48254395 79.625 196.18188477 C86.72128161 211.42129318 85.96837499 232.26342089 81.29296875 248.16796875 C77.90053011 257.24244244 72.03805496 266.91002714 64.65505981 273.3256073 C61.71198991 276.66445581 61.49766752 278.1917047 61.30029297 282.57763672 C61.23015991 283.87783249 61.16002686 285.17802826 61.08776855 286.5176239 C61.03463611 287.94662885 60.98195666 289.37565071 60.9296875 290.8046875 C60.85740702 292.30676662 60.78301652 293.80874548 60.70666504 295.31062317 C60.50648571 299.36247771 60.3352822 303.415094 60.16924286 307.46847153 C59.99023171 311.71392476 59.78413819 315.95805871 59.58056641 320.20239258 C59.25068342 327.14655488 58.93583325 334.09123651 58.6328125 341.03662109 C58.22992322 350.26144986 57.79411962 359.48441191 57.34375 368.70703125 C56.83319112 379.19222767 56.33217074 389.67780807 55.84375 400.1640625 C55.27572241 412.33987869 54.67855592 424.51402771 54.0625 436.6875 C53.39793406 449.83163189 52.76048487 462.97650512 52.1875 476.125 C53.44626953 476.41697266 53.44626953 476.41697266 54.73046875 476.71484375 C59.26857853 478.56598232 62.07374701 481.24501716 65.5 484.6875 C66.15572998 485.34427734 66.81145996 486.00105469 67.48706055 486.67773438 C79.95611009 499.74127968 84.85514219 514.43914847 84.5 532.23046875 C84.23158719 538.1210116 82.88676889 542.88623202 80.1875 548.125 C79.76339844 549.02089844 79.33929688 549.91679688 78.90234375 550.83984375 C68.38891692 571.72027085 47.60166218 587.55933513 26.1875 596.125 C24.36605469 596.89070312 24.36605469 596.89070312 22.5078125 597.671875 C-1.66805271 607.74230917 -1.66805271 607.74230917 -11.8125 607.125 C-12.4725 606.465 -13.1325 605.805 -13.8125 605.125 C-13.54902527 600.03115529 -12.58473649 595.98606194 -10.43359375 591.375 C-9.48600188 587.94221438 -9.72735868 584.67872476 -9.8125 581.125 C-10.90582642 581.33648682 -10.90582642 581.33648682 -12.02124023 581.55224609 C-78.80230508 594.39617461 -78.80230508 594.39617461 -98.8125 583.125 C-99.1425 584.115 -99.4725 585.105 -99.8125 586.125 C-102.54497348 587.49123674 -104.79448902 587.253426 -107.8125 587.125 C-108.8125 586.125 -108.8125 586.125 -109.125 582.875 C-108.76368559 578.53922705 -107.6025439 577.3167662 -104.8125 574.125 C-105.95676266 572.311508 -107.10295392 570.49923275 -108.25 568.6875 C-108.88808594 567.67816406 -109.52617187 566.66882813 -110.18359375 565.62890625 C-111.58899542 563.27946165 -111.58899542 563.27946165 -112.8125 562.125 C-114.2975 564.6 -114.2975 564.6 -115.8125 567.125 C-123.07886569 566.62387133 -123.07886569 566.62387133 -126.9375 564 C-129.63330434 561.88158315 -129.63330434 561.88158315 -132.625 562.0625 C-135.53800561 563.03350187 -137.59254198 564.16097768 -140.1875 565.75 C-143.78778368 567.80558768 -146.46424149 568.86675681 -150.7109375 567.953125 C-158.97838358 564.69532097 -165.11825621 558.53243057 -169.8125 551.125 C-170.3075 549.64 -170.3075 549.64 -170.8125 548.125 C-172.1325 548.125 -173.4525 548.125 -174.8125 548.125 C-177.19863857 553.59323422 -179.24740634 559.11421123 -177.8125 565.125 C-175.14575411 568.15234123 -172.51437041 570.03008328 -168.93359375 571.8515625 C-167.55204102 572.563125 -167.55204102 572.563125 -166.14257812 573.2890625 C-165.18802734 573.77117188 -164.23347656 574.25328125 -163.25 574.75 C-161.35216078 575.71997835 -159.45499527 576.6912763 -157.55859375 577.6640625 C-156.71997803 578.08896973 -155.8813623 578.51387695 -155.01733398 578.95166016 C-152.8125 580.125 -152.8125 580.125 -149.8125 582.125 C-143.72140064 582.83562826 -141.19575395 582.05209601 -136.453125 578.32421875 C-133.79652221 576.38236861 -132.10244218 575.99340231 -128.8125 576.125 C-122.52213052 578.58951043 -116.1395717 582.91485244 -111.8125 588.125 C-110.25448155 593.11065905 -111.20661567 597.27224572 -112.8125 602.125 C-114.4375 605.1875 -114.4375 605.1875 -116.8125 607.125 C-127.96990245 608.69095122 -139.6060184 602.86661552 -149.75 598.875 C-150.93529297 598.42253906 -152.12058594 597.97007812 -153.34179688 597.50390625 C-165.64952153 592.68343702 -176.35593008 586.16620728 -186.8125 578.125 C-188.20662109 577.05765625 -188.20662109 577.05765625 -189.62890625 575.96875 C-202.15958877 566.06968509 -212.90082098 553.94274539 -215.59375 537.6015625 C-216.94060115 522.35328342 -215.23638445 506.85511598 -205.8125 494.125 C-192.11783485 477.77766742 -192.11783485 477.77766742 -184.8125 474.125 C-184.72224405 462.91618695 -184.95649786 451.7726771 -185.53100586 440.57788086 C-185.60855639 439.00531233 -185.68573907 437.43272563 -185.7625885 435.86012268 C-185.96961345 431.64511909 -186.18177075 427.43038876 -186.39500117 423.21569514 C-186.61900802 418.77110361 -186.83833143 414.32628069 -187.0582428 409.88148499 C-187.42789157 402.42337197 -187.80062026 394.96541833 -188.17553711 387.50756836 C-188.65448274 377.98017194 -189.12863567 368.45254357 -189.60115719 358.92482662 C-190.01039379 350.67326437 -190.42148624 342.42179473 -190.83305287 334.17034841 C-190.92065335 332.41356173 -191.00819385 330.65677206 -191.09567332 328.89997935 C-191.34530999 323.88684863 -191.59595277 318.87377031 -191.84818077 313.86076927 C-191.92389013 312.3533012 -191.99927778 310.84581692 -192.07429123 309.33831406 C-192.27661873 305.27509802 -192.48717717 301.21246026 -192.70681834 297.15013194 C-192.81854679 295.00912803 -192.91779507 292.86771334 -193.01724434 290.72610664 C-193.09124737 289.28784717 -193.16565113 287.84960824 -193.24049377 286.41139221 C-193.30245217 285.13254434 -193.36441057 283.85369646 -193.4282465 282.53609562 C-193.98933911 277.55516366 -195.13353653 274.38048501 -198.9375 271.125 C-211.31439299 259.23904848 -215.55575309 244.07869246 -216.015625 227.5390625 C-216.23288428 211.5219978 -214.96419809 198.81205289 -205.8125 185.125 C-204.85512939 184.23807716 -204.85512939 184.23807716 -203.87841797 183.33323669 C-199.31058632 179.02295562 -197.27840352 175.86539051 -196.86010742 169.52636719 C-196.83986193 166.99154393 -196.86137105 164.45614719 -196.91796875 161.921875 C-196.91806766 160.55340049 -196.91419041 159.18492058 -196.90657043 157.81646729 C-196.89519074 154.23034047 -196.92857593 150.64616256 -196.9744873 147.06036377 C-197.04128192 141.33887723 -197.04348529 135.61722196 -197.03780556 129.89542389 C-197.04281256 127.920965 -197.07086361 125.94660639 -197.09965515 123.97235107 C-197.18532915 106.47080557 -192.31859907 93.27431925 -180.265625 80.50390625 C-172.15419509 72.63788585 -155.9351696 57.125 -143.8125 57.125 C-143.82297363 56.10664062 -143.83344727 55.08828125 -143.84423828 54.0390625 C-143.88067446 50.22969127 -143.9034857 46.42033519 -143.92236328 42.61083984 C-143.93236737 40.96790977 -143.94597494 39.32499726 -143.96337891 37.68212891 C-143.98787515 35.30887495 -143.99903917 32.93585815 -144.0078125 30.5625 C-144.01813507 29.83820801 -144.02845764 29.11391602 -144.03909302 28.36767578 C-144.04145586 17.41669922 -140.04522128 8.32380288 -132.5 0.375 C-98.80181689 -30.77580425 -34.43739641 -27.26293882 0 0 Z " fill="#E8EEF8" transform="translate(237.8125,41.875)"/>
<path d="M0 0 C0.45890625 0.40992188 0.9178125 0.81984375 1.390625 1.2421875 C2.31101562 2.05042969 2.31101562 2.05042969 3.25 2.875 C3.85328125 3.40867187 4.4565625 3.94234375 5.078125 4.4921875 C6.97418746 5.9797487 8.81290005 7.00322436 11 8 C11 8.66 11 9.32 11 10 C12.98 10.66 14.96 11.32 17 12 C17 12.66 17 13.32 17 14 C17.59167969 14.18175781 18.18335938 14.36351562 18.79296875 14.55078125 C19.58316406 14.80214844 20.37335938 15.05351562 21.1875 15.3125 C21.96480469 15.55613281 22.74210937 15.79976563 23.54296875 16.05078125 C26.25188592 17.09731046 28.53322044 18.47331596 31 20 C58.77380661 34.69194118 92.25553819 39.41583913 123.32861328 39.26074219 C125.86645543 39.25003605 128.40358548 39.26070678 130.94140625 39.2734375 C147.01707489 39.28925036 162.74693432 37.93395525 178.4375 34.3125 C179.58001221 34.05267334 180.72252441 33.79284668 181.8996582 33.52514648 C192.23258114 31.09204266 202.13556208 27.90150888 212 24 C212.71188477 23.72575195 213.42376953 23.45150391 214.15722656 23.16894531 C225.47789173 18.76383293 235.14954294 12.69693083 244.95263672 5.58300781 C249.90606307 2 249.90606307 2 251 2 C251.26246534 27.84933657 250.64875452 53.54712713 249.2623291 79.35845947 C249.03370485 83.65202296 248.81611737 87.94614388 248.59765625 92.24023438 C248.24960448 99.05806361 247.89570854 105.87556326 247.53759766 112.69287109 C246.97748353 123.36865201 246.4395115 134.04550443 245.90625 144.72265625 C245.86467899 145.55266584 245.82310799 146.38267544 245.78027725 147.23783684 C245.15010505 159.82359868 244.54862997 172.41038601 244 185 C245.25876953 185.29197266 245.25876953 185.29197266 246.54296875 185.58984375 C251.08107853 187.44098232 253.88624701 190.12001716 257.3125 193.5625 C257.96822998 194.21927734 258.62395996 194.87605469 259.29956055 195.55273438 C271.76861009 208.61627968 276.66764219 223.31414847 276.3125 241.10546875 C276.04408719 246.9960116 274.69926889 251.76123202 272 257 C271.57589844 257.89589844 271.15179688 258.79179688 270.71484375 259.71484375 C260.20141692 280.59527085 239.41416218 296.43433513 218 305 C216.78570312 305.51046875 215.57140625 306.0209375 214.3203125 306.546875 C190.14444729 316.61730917 190.14444729 316.61730917 180 316 C179.34 315.34 178.68 314.68 178 314 C178.26347473 308.90615529 179.22776351 304.86106194 181.37890625 300.25 C182.32649812 296.81721438 182.08514132 293.55372476 182 290 C180.90667358 290.21148682 180.90667358 290.21148682 179.79125977 290.42724609 C113.01019492 303.27117461 113.01019492 303.27117461 93 292 C92.67 292.99 92.34 293.98 92 295 C89.26752652 296.36623674 87.01801098 296.128426 84 296 C83 295 83 295 82.6875 291.75 C83.04881441 287.41422705 84.2099561 286.1917662 87 283 C85.85573734 281.186508 84.70954608 279.37423275 83.5625 277.5625 C82.92441406 276.55316406 82.28632813 275.54382813 81.62890625 274.50390625 C80.22350458 272.15446165 80.22350458 272.15446165 79 271 C78.01 272.65 77.02 274.3 76 276 C68.73363431 275.49887133 68.73363431 275.49887133 64.875 272.875 C62.17919566 270.75658315 62.17919566 270.75658315 59.1875 270.9375 C56.27449439 271.90850187 54.21995802 273.03597768 51.625 274.625 C48.02471632 276.68058768 45.34825851 277.74175681 41.1015625 276.828125 C32.83411642 273.57032097 26.69424379 267.40743057 22 260 C21.505 258.515 21.505 258.515 21 257 C19.68 257 18.36 257 17 257 C14.61386143 262.46823422 12.56509366 267.98921123 14 274 C16.66674589 277.02734123 19.29812959 278.90508328 22.87890625 280.7265625 C24.26045898 281.438125 24.26045898 281.438125 25.66992188 282.1640625 C26.62447266 282.64617187 27.57902344 283.12828125 28.5625 283.625 C30.46033922 284.59497835 32.35750473 285.5662763 34.25390625 286.5390625 C35.09252197 286.96396973 35.9311377 287.38887695 36.79516602 287.82666016 C39 289 39 289 42 291 C48.09109936 291.71062826 50.61674605 290.92709601 55.359375 287.19921875 C58.01597779 285.25736861 59.71005782 284.86840231 63 285 C69.29036948 287.46451043 75.6729283 291.78985244 80 297 C81.55801845 301.98565905 80.60588433 306.14724572 79 311 C77.375 314.0625 77.375 314.0625 75 316 C63.84259755 317.56595122 52.2064816 311.74161552 42.0625 307.75 C40.28456055 307.07130859 40.28456055 307.07130859 38.47070312 306.37890625 C26.16297847 301.55843702 15.45656992 295.04120728 5 287 C3.60587891 285.93265625 3.60587891 285.93265625 2.18359375 284.84375 C-10.34708877 274.94468509 -21.08832098 262.81774539 -23.78125 246.4765625 C-25.12810115 231.22828342 -23.42388445 215.73011598 -14 203 C-0.30533485 186.65266742 -0.30533485 186.65266742 7 183 C7.29942804 168.40050643 6.48368681 153.8581221 5.70362854 139.28561783 C5.46303997 134.79085431 5.22994638 130.29571939 4.9979248 125.80050659 C4.37897205 113.83042242 3.75057297 101.86083785 3.11767817 89.89148319 C2.70095002 82.00944664 2.28841836 74.12721337 1.88323069 66.24457443 C1.69160893 62.52193656 1.49741406 58.79947728 1.29637146 55.07733536 C0.30498247 36.7016924 -0.22776346 18.40541532 0 0 Z " fill="#E5ECF8" transform="translate(46,333)"/>
<path d="M0 0 C5.71950204 5.14205231 10.69483975 12.34072847 11.36134338 20.16607666 C11.41793294 22.52735577 11.41246732 24.88041958 11.3828125 27.2421875 C11.3799826 28.09934357 11.37715271 28.95649963 11.37423706 29.83963013 C11.36309999 32.55989932 11.3380076 35.27983141 11.3125 38 C11.30246182 39.85155772 11.29333744 41.70312064 11.28515625 43.5546875 C11.26318188 48.0782536 11.228697 52.60156977 11.1875 57.125 C12.11546387 57.42591553 13.04342773 57.72683105 13.99951172 58.03686523 C24.59806681 61.65439932 33.51302688 68.23528988 42.1875 75.125 C42.78175781 75.56457031 43.37601563 76.00414063 43.98828125 76.45703125 C52.31976514 82.81231411 61.02726373 94.10208963 62.5546875 104.6640625 C62.5625 106.875 62.5625 106.875 62.1875 110.125 C62.5175 110.125 62.8475 110.125 63.1875 110.125 C64.0373815 128.18026024 61.02806736 138.94120303 49.1875 153.125 C48.66800781 153.75921875 48.14851562 154.3934375 47.61328125 155.046875 C24.46185867 180.56812823 -13.28200659 188.72911217 -45.8125 192.125 C-47.19816162 192.27074463 -47.19816162 192.27074463 -48.61181641 192.41943359 C-71.5531441 194.68068285 -94.45941762 192.67972755 -116.8125 187.125 C-118.04097656 186.82722656 -119.26945312 186.52945313 -120.53515625 186.22265625 C-136.16647516 182.26314617 -149.7304624 175.80428229 -163.8125 168.125 C-163.8125 167.465 -163.8125 166.805 -163.8125 166.125 C-164.59625 165.815625 -165.38 165.50625 -166.1875 165.1875 C-168.8125 164.125 -168.8125 164.125 -170.8125 163.125 C-170.8125 162.465 -170.8125 161.805 -170.8125 161.125 C-171.6478125 160.75375 -171.6478125 160.75375 -172.5 160.375 C-175.23660913 158.89575182 -177.48900869 157.19032561 -179.8125 155.125 C-179.8125 154.465 -179.8125 153.805 -179.8125 153.125 C-180.4725 153.125 -181.1325 153.125 -181.8125 153.125 C-183.38106382 151.22031536 -184.79368569 149.34032985 -186.1875 147.3125 C-186.59162109 146.72807129 -186.99574219 146.14364258 -187.41210938 145.54150391 C-190.86791786 140.3703934 -193.06525923 135.09473931 -194.8125 129.125 C-195.1425 128.135 -195.4725 127.145 -195.8125 126.125 C-197.35960016 109.42912182 -194.09843688 97.52063873 -183.8125 84.125 C-173.75664727 72.18972971 -159.82110222 63.68924031 -145.8125 57.125 C-145.1525 57.125 -144.4925 57.125 -143.8125 57.125 C-143.82821045 55.59746094 -143.82821045 55.59746094 -143.84423828 54.0390625 C-143.88067446 50.22969127 -143.9034857 46.42033519 -143.92236328 42.61083984 C-143.93236737 40.96790977 -143.94597494 39.32499726 -143.96337891 37.68212891 C-143.98787515 35.30887495 -143.99903917 32.93585815 -144.0078125 30.5625 C-144.01813507 29.83820801 -144.02845764 29.11391602 -144.03909302 28.36767578 C-144.04145586 17.41669922 -140.04522128 8.32380288 -132.5 0.375 C-98.80181689 -30.77580425 -34.43739641 -27.26293882 0 0 Z " fill="#E9EEF8" transform="translate(237.8125,41.875)"/>
<path d="M0 0 C0.00546844 1.14726311 0.00546844 1.14726311 0.01104736 2.31770325 C0.04911002 9.56961382 0.10616668 16.82102097 0.18390274 24.07260609 C0.2232038 27.79964116 0.25547631 31.52644612 0.27099609 35.25366211 C0.28627871 38.85904189 0.32092468 42.46378827 0.36830902 46.0688839 C0.38300457 47.4357416 0.39103413 48.8026898 0.39188385 50.16962624 C0.40565972 61.23129714 1.965495 71.15013887 9 80 C9.99 80.66 10.98 81.32 12 82 C12 82.66 12 83.32 12 84 C12.66 84 13.32 84 14 84 C14 84.66 14 85.32 14 86 C14.639375 86.226875 15.27875 86.45375 15.9375 86.6875 C18.45873832 87.76803071 20.64419926 88.93285979 23 90.3125 C36.03274203 97.6125532 52.00660339 102.47908139 67 103 C68.08023438 103.03996094 69.16046875 103.07992187 70.2734375 103.12109375 C91.96195676 103.51416926 117.4361017 101.12987092 135.1953125 87.2890625 C137 86 137 86 140 86 C140.27070313 85.40445313 140.54140625 84.80890625 140.8203125 84.1953125 C141.98216061 82.0331978 143.17634308 80.62646491 144.875 78.875 C152.19766626 70.38426055 152.60268625 61.04518041 152.609375 50.2421875 C152.62438744 48.84398514 152.64112092 47.4458003 152.65948486 46.04763794 C152.70282806 42.40139873 152.72308306 38.75539855 152.73822021 35.10894775 C152.75791187 31.37457332 152.79986743 27.64045262 152.83984375 23.90625 C152.91478693 16.60423545 152.96529412 9.30232858 153 2 C166.65827171 2 175.81517613 9.43909952 186 18 C186.83789062 18.64582031 187.67578125 19.29164062 188.5390625 19.95703125 C196.13812581 26.26546 203.92496014 36.56621371 205.3671875 46.5390625 C205.375 48.75 205.375 48.75 205 52 C205.33 52 205.66 52 206 52 C206.8498815 70.05526024 203.84056736 80.81620303 192 95 C191.48050781 95.63421875 190.96101562 96.2684375 190.42578125 96.921875 C167.27435867 122.44312823 129.53049341 130.60411217 97 134 C95.61433838 134.14574463 95.61433838 134.14574463 94.20068359 134.29443359 C71.2593559 136.55568285 48.35308238 134.55472755 26 129 C24.77152344 128.70222656 23.54304688 128.40445313 22.27734375 128.09765625 C6.64602484 124.13814617 -6.9179624 117.67928229 -21 110 C-21 109.34 -21 108.68 -21 108 C-22.175625 107.5359375 -22.175625 107.5359375 -23.375 107.0625 C-26 106 -26 106 -28 105 C-28 104.34 -28 103.68 -28 103 C-28.8353125 102.62875 -28.8353125 102.62875 -29.6875 102.25 C-32.42410913 100.77075182 -34.67650869 99.06532561 -37 97 C-37 96.34 -37 95.68 -37 95 C-37.66 95 -38.32 95 -39 95 C-40.56856382 93.09531536 -41.98118569 91.21532985 -43.375 89.1875 C-43.98118164 88.31085693 -43.98118164 88.31085693 -44.59960938 87.41650391 C-48.05541786 82.2453934 -50.25275923 76.96973931 -52 71 C-52.33 70.01 -52.66 69.02 -53 68 C-54.54710016 51.30412182 -51.28593688 39.39563873 -41 26 C-32.17469357 15.52526251 -14.38583927 0 0 0 Z " fill="#FDFDFD" transform="translate(95,100)"/>
<path d="M0 0 C0.33 0 0.66 0 1 0 C1.12806208 15.70238071 0.87193986 31.32065292 0 47 C0.83917969 47.19464844 1.67835938 47.38929688 2.54296875 47.58984375 C7.08107853 49.44098232 9.88624701 52.12001716 13.3125 55.5625 C14.29609497 56.54766602 14.29609497 56.54766602 15.29956055 57.55273438 C27.76861009 70.61627968 32.66764219 85.31414847 32.3125 103.10546875 C32.04408719 108.9960116 30.69926889 113.76123202 28 119 C27.57589844 119.89589844 27.15179688 120.79179688 26.71484375 121.71484375 C16.20141692 142.59527085 -4.58583782 158.43433513 -26 167 C-27.82144531 167.76570313 -27.82144531 167.76570313 -29.6796875 168.546875 C-53.85555271 178.61730917 -53.85555271 178.61730917 -64 178 C-64.66 177.34 -65.32 176.68 -66 176 C-65.77258589 171.60332729 -65.12108096 168.0566284 -63.4375 164 C-61.74349097 159.85543422 -61.7617672 156.44701224 -62 152 C-68.93 152.99 -68.93 152.99 -76 154 C-73.827374 151.827374 -72.88590351 151.53108599 -69.9921875 150.7734375 C-69.1779834 150.55042969 -68.3637793 150.32742188 -67.52490234 150.09765625 C-66.65043457 149.85917969 -65.7759668 149.62070312 -64.875 149.375 C-55.24237194 146.61836799 -46.7437147 142.84342848 -38 138 C-37.07960937 137.51917969 -36.15921875 137.03835938 -35.2109375 136.54296875 C-21.36528606 128.91687185 -10.74898513 117.10680773 -5.88769531 101.98754883 C-3.5682047 92.82058758 -3.79759047 82.95712643 -3.375 73.5625 C-3.25745966 71.21973951 -3.13854619 68.87704754 -3.01831055 66.53442383 C-2.71546852 60.53959635 -2.43399591 54.54400382 -2.16143799 48.54772949 C-2.00335291 45.07368281 -1.84181153 41.599814 -1.67919922 38.12597656 C-1.0862773 25.41867657 -0.52538918 12.71026782 0 0 Z " fill="#182C4F" transform="translate(290,471)"/>
<path d="M0 0 C0.33 0 0.66 0 1 0 C1.04567108 0.93721893 1.09134216 1.87443787 1.13839722 2.84005737 C1.57344994 11.75272839 2.014443 20.66508915 2.46098137 29.57719231 C2.69026508 34.15695606 2.91758768 38.73679818 3.14013672 43.31689453 C3.35572684 47.75218596 3.57684896 52.1871726 3.80151749 56.62201309 C3.88552642 58.29843882 3.96767329 59.97495913 4.0477562 61.651577 C4.46528868 70.36644137 5.00699783 79.05994727 5.87548828 87.74267578 C5.97376073 88.83448308 5.97376073 88.83448308 6.07401848 89.94834709 C6.82056052 96.84800163 9.49999412 102.03060221 13 108 C13.33 108.99 13.66 109.98 14 111 C12.68 111 11.36 111 10 111 C7.61386143 116.46823422 5.56509366 121.98921123 7 128 C9.66674589 131.02734123 12.29812959 132.90508328 15.87890625 134.7265625 C16.79994141 135.2009375 17.72097656 135.6753125 18.66992188 136.1640625 C19.62447266 136.64617187 20.57902344 137.12828125 21.5625 137.625 C23.46033922 138.59497835 25.35750473 139.5662763 27.25390625 140.5390625 C28.09252197 140.96396973 28.9311377 141.38887695 29.79516602 141.82666016 C32 143 32 143 35 145 C41.09109936 145.71062826 43.61674605 144.92709601 48.359375 141.19921875 C51.01597779 139.25736861 52.71005782 138.86840231 56 139 C62.29036948 141.46451043 68.6729283 145.78985244 73 151 C74.55801845 155.98565905 73.60588433 160.14724572 72 165 C70.375 168.0625 70.375 168.0625 68 170 C56.84259755 171.56595122 45.2064816 165.74161552 35.0625 161.75 C33.28456055 161.07130859 33.28456055 161.07130859 31.47070312 160.37890625 C19.16297847 155.55843702 8.45656992 149.04120728 -2 141 C-2.92941406 140.2884375 -3.85882813 139.576875 -4.81640625 138.84375 C-17.34708877 128.94468509 -28.08832098 116.81774539 -30.78125 100.4765625 C-32.12810115 85.22828342 -30.42388445 69.73011598 -21 57 C-7.30533485 40.65266742 -7.30533485 40.65266742 0 37 C0 24.79 0 12.58 0 0 Z " fill="#172C4F" transform="translate(53,479)"/>
<path d="M0 0 C0.66 0 1.32 0 2 0 C2.72703125 1.77890625 2.72703125 1.77890625 3.46875 3.59375 C13.13805803 27.04499303 24.60926135 49.74006748 40 70 C39.67 70.66 39.34 71.32 39 72 C38.67 71.67 38.34 71.34 38 71 C37.01 72.65 36.02 74.3 35 76 C27.73363431 75.49887133 27.73363431 75.49887133 23.875 72.875 C21.17919566 70.75658315 21.17919566 70.75658315 18.1875 70.9375 C15.27449439 71.90850187 13.21995802 73.03597768 10.625 74.625 C7.02471632 76.68058768 4.34825851 77.74175681 0.1015625 76.828125 C-7.99395042 73.63807158 -14.62760271 67.47071855 -19 60 C-19 59.01 -19 58.02 -19 57 C-18.31035156 57.72445312 -17.62070313 58.44890625 -16.91015625 59.1953125 C-10.85562042 65.45877474 -4.88133524 71.05933238 3 75 C2.80664062 74.22398437 2.61328125 73.44796875 2.4140625 72.6484375 C2.02347656 71.02808594 2.02347656 71.02808594 1.625 69.375 C1.36976562 68.33085938 1.11453125 67.28671875 0.8515625 66.2109375 C-1.49772964 55.20427791 -2.32602776 44.40057583 -2.26074219 33.18652344 C-2.25000821 31.00167107 -2.26071795 28.81764045 -2.2734375 26.6328125 C-2.28107925 17.57275901 -1.5559741 8.94596498 0 0 Z " fill="#C2D1EA" transform="translate(87,533)"/>
<path d="M0 0 C1.42965088 0.00737183 1.42965088 0.00737183 2.88818359 0.01489258 C21.98035109 0.32612587 40.15708239 5.00574723 54.4375 18.3125 C59.03178064 24.18296971 60.80029953 29.87510954 60.4375 37.3125 C58.4375 36.3125 58.4375 36.3125 56.75 32.6875 C51.35016889 21.84926755 41.38293581 17.36482716 30.4375 13.3125 C25.84877891 11.90033182 21.18154855 11.02469587 16.4375 10.3125 C15.27992188 10.13074219 14.12234375 9.94898438 12.9296875 9.76171875 C-7.05037824 7.19157607 -27.25649471 11.25339636 -44.2890625 22.0390625 C-49.44770891 26.11574562 -52.05556057 31.32236107 -54.5625 37.3125 C-54.8925 37.3125 -55.2225 37.3125 -55.5625 37.3125 C-55.99078553 30.60269337 -55.09807282 24.64461967 -50.93359375 19.171875 C-37.92411606 5.40022589 -18.50100616 -0.11440844 0 0 Z " fill="#C5D2E9" transform="translate(169.5625,32.6875)"/>
<path d="M0 0 C0.33 0 0.66 0 1 0 C1 12.87 1 25.74 1 39 C2.98 38.505 2.98 38.505 5 38 C10.35884429 46.22947741 10.67275243 53.59784317 10.48828125 63.1953125 C10.47893487 64.63832361 10.47182741 66.08135078 10.46684265 67.52438354 C10.44791556 71.28944092 10.39894346 75.0535061 10.34332275 78.81817627 C10.2918174 82.67291855 10.26926248 86.52782398 10.24414062 90.3828125 C10.19080629 97.92232325 10.10567318 105.46102166 10 113 C5.53059483 107.14907305 3.5617419 102.53527775 3.59375 95.1171875 C3.58291382 94.38049835 3.57207764 93.6438092 3.56091309 92.88479614 C3.51530351 89.75610363 3.50355609 86.62750053 3.48876953 83.49853516 C3.47306642 81.20445401 3.44007915 78.91106139 3.40625 76.6171875 C3.40927124 75.91294647 3.41229248 75.20870544 3.41540527 74.48312378 C3.3525483 70.37369231 2.8943058 67.99110212 0 65 C-0.33773437 65.5053125 -0.67546875 66.010625 -1.0234375 66.53125 C-1.69246094 67.50578125 -1.69246094 67.50578125 -2.375 68.5 C-3.03628906 69.47453125 -3.03628906 69.47453125 -3.7109375 70.46875 C-4.34902344 71.22671875 -4.34902344 71.22671875 -5 72 C-5.66 72 -6.32 72 -7 72 C-7 72.66 -7 73.32 -7 74 C-7.66 74 -8.32 74 -9 74 C-7.6853106 71.0346108 -6.31838273 69.30323697 -3.92529297 67.15405273 C0.70809354 61.83633471 -0.14694455 55.21883744 -0.1953125 48.53515625 C-0.18404963 47.13266223 -0.17016343 45.73018706 -0.15377808 44.32774353 C-0.11786916 40.65657622 -0.11734971 36.98624384 -0.12445068 33.31494141 C-0.12536625 29.56072223 -0.09246761 25.80681157 -0.0625 22.05273438 C-0.00875964 14.70171212 0.00755902 7.3512421 0 0 Z " fill="#C6D3EA" transform="translate(41,155)"/>
<path d="M0 0 C0.33 0 0.66 0 1 0 C2.63880558 8.95147893 3.25424632 17.50841652 3.125 26.59765625 C3.11742676 27.8349498 3.10985352 29.07224335 3.10205078 30.34703064 C3.07785642 34.2523374 3.04056566 38.15733121 3 42.0625 C2.94685925 47.2408767 2.90691904 52.41911035 2.875 57.59765625 C2.85840332 58.78303482 2.84180664 59.96841339 2.82470703 61.18971252 C2.81810059 62.28863327 2.81149414 63.38755402 2.8046875 64.51977539 C2.78897705 65.96653404 2.78897705 65.96653404 2.77294922 67.44252014 C3.00907386 70.10220714 3.64353104 71.72388716 5 74 C3.35 74 1.7 74 0 74 C-1.57663518 77.15327035 -1.15714572 80.54448901 -1.17578125 84.0078125 C-1.19899649 85.65105424 -1.2231145 87.29428342 -1.24804688 88.9375 C-1.28302613 91.52449736 -1.31242714 94.11103817 -1.32592773 96.69824219 C-1.34152017 99.19782986 -1.38181584 101.69608286 -1.42578125 104.1953125 C-1.42387283 104.95707794 -1.42196442 105.71884338 -1.41999817 106.50369263 C-1.54385649 112.01434788 -2.86654898 116.4104397 -6 121 C-6.99 121.495 -6.99 121.495 -8 122 C-8.11629831 113.81096403 -8.20491793 105.6222781 -8.25906086 97.43261814 C-8.28505846 93.6290152 -8.32027275 89.82598086 -8.37719727 86.02270508 C-8.43187361 82.34626181 -8.46149436 78.67036237 -8.47438622 74.99354362 C-8.48356288 73.59697862 -8.50148207 72.20044045 -8.52865028 70.80410957 C-8.68828695 62.25256629 -8.2071788 55.99232856 -3 49 C-2.67 49 -2.34 49 -2 49 C-2 56.59 -2 64.18 -2 72 C-1.01 72 -0.02 72 1 72 C0.89250218 63.57678141 0.77986951 55.1536539 0.66066074 46.73059368 C0.60547057 42.81952916 0.55205681 38.9084571 0.50268555 34.99731445 C0.45498438 31.22363082 0.40263949 27.45003769 0.34705925 23.67646217 C0.32666176 22.23597273 0.30794438 20.79545849 0.29092598 19.35492516 C0.26682457 17.33901658 0.2362232 15.32318886 0.20532227 13.30737305 C0.18200584 11.58528877 0.18200584 11.58528877 0.15821838 9.82841492 C0.11986724 6.92168722 0.11986724 6.92168722 -1 4 C-0.5625 1.8125 -0.5625 1.8125 0 0 Z " fill="#AEBED7" transform="translate(300,146)"/>
<path d="M0 0 C2.31 0 4.62 0 7 0 C7.02312684 8.32728947 7.04091683 16.65456563 7.05181217 24.98187923 C7.05704026 28.84820118 7.06413654 32.71450121 7.07543945 36.58081055 C7.086271 40.30903401 7.0922774 44.03723634 7.09487724 47.76547432 C7.09673101 49.19089656 7.10035071 50.61631759 7.10573006 52.04173088 C7.11294393 54.03163408 7.11340808 56.02155834 7.11352539 58.01147461 C7.115746 59.14620712 7.11796661 60.28093964 7.12025452 61.45005798 C7 64 7 64 6 65 C4.02 65 2.04 65 0 65 C0 43.55 0 22.1 0 0 Z " fill="#C8D5EC" transform="translate(193,250)"/>
<path d="M0 0 C0 21.45 0 42.9 0 65 C-2.97 65.99 -2.97 65.99 -6 67 C-6.06942772 58.55962582 -6.12277414 50.1193704 -6.15543652 41.67878151 C-6.17111071 37.75971028 -6.19238048 33.84083401 -6.22631836 29.921875 C-6.25885001 26.14175875 -6.2768398 22.36183033 -6.28463173 18.58158493 C-6.29018645 17.13742489 -6.30103321 15.69327544 -6.31719017 14.2491951 C-6.33887964 12.23084743 -6.34022467 10.21231183 -6.34057617 8.19384766 C-6.34723801 7.04357086 -6.35389984 5.89329407 -6.36076355 4.7081604 C-6.24171158 3.81446747 -6.12265961 2.92077454 -6 2 C-3 0 -3 0 0 0 Z " fill="#C7D4EB" transform="translate(274,224)"/>
<path d="M0 0 C2.49361571 1.20381448 4.68143083 2.45428722 7 4 C7.36076355 6.74612427 7.36076355 6.74612427 7.34057617 10.28564453 C7.34101425 10.92967224 7.34145233 11.57369995 7.34190369 12.23724365 C7.33981094 14.36940664 7.31645865 16.50078662 7.29296875 18.6328125 C7.28737448 20.10968598 7.28310359 21.58656502 7.28010559 23.06344604 C7.26864335 26.95326063 7.23916473 30.8427399 7.20599365 34.73242188 C7.17532222 38.70047469 7.16160655 42.6685816 7.14648438 46.63671875 C7.11429599 54.42463214 7.06308345 62.21226911 7 70 C4.11870413 68.45585244 2.81958295 67.64494719 1 65 C0.05609459 60.12545929 0.16090407 55.24007353 0.1953125 50.29296875 C0.1840572 48.84277646 0.17017429 47.39260238 0.15377808 45.94245911 C0.11777605 42.136464 0.11736162 38.33127274 0.12445068 34.52514648 C0.12536433 30.63706123 0.09249473 26.74927606 0.0625 22.86132812 C0.00867198 15.24077878 -0.00754838 7.62076199 0 0 Z " fill="#C7D3EB" transform="translate(57,213)"/>
<path d="M0 0 C1.98 0 3.96 0 6 0 C6 21.45 6 42.9 6 65 C4.02 65 2.04 65 0 65 C0 43.55 0 22.1 0 0 Z " fill="#C4D2E9" transform="translate(181,251)"/>
<path d="M0 0 C1.98 0 3.96 0 6 0 C6 21.45 6 42.9 6 65 C4.02 65 2.04 65 0 65 C0 43.55 0 22.1 0 0 Z " fill="#C5D3E9" transform="translate(169,252)"/>
<path d="M0 0 C2.97 0.495 2.97 0.495 6 1 C6 22.45 6 43.9 6 66 C1 65 1 65 0 64 C-0.09405142 62.0056827 -0.11743249 60.00800457 -0.11352539 58.01147461 C-0.11344986 56.73022202 -0.11337433 55.44896942 -0.11329651 54.12889099 C-0.10818909 52.72004152 -0.10297309 51.31119244 -0.09765625 49.90234375 C-0.09579202 48.46887766 -0.09436814 47.03541093 -0.09336853 45.60194397 C-0.08954372 41.82240043 -0.07971377 38.0428951 -0.06866455 34.2633667 C-0.05844963 30.40930702 -0.05387074 26.55524118 -0.04882812 22.70117188 C-0.03809146 15.13409713 -0.02101549 7.56705391 0 0 Z " fill="#C7D3EB" transform="translate(119,245)"/>
<path d="M0 0 C0.5775 0.20625 1.155 0.4125 1.75 0.625 C1.09 0.625 0.43 0.625 -0.25 0.625 C-0.24777939 1.42457626 -0.24555878 2.22415253 -0.24327087 3.04795837 C-0.22326908 10.56759639 -0.20802645 18.08722159 -0.19818783 25.60687923 C-0.19295974 29.47320118 -0.18586346 33.33950121 -0.17456055 37.20581055 C-0.163729 40.93403401 -0.1577226 44.66223634 -0.15512276 48.39047432 C-0.15326899 49.81589656 -0.14964929 51.24131759 -0.14426994 52.66673088 C-0.13705607 54.65663408 -0.13659192 56.64655834 -0.13647461 58.63647461 C-0.134254 59.77120712 -0.13203339 60.90593964 -0.12974548 62.07505798 C-0.25 64.625 -0.25 64.625 -1.25 65.625 C-2.9 65.625 -4.55 65.625 -6.25 65.625 C-6.25 44.505 -6.25 23.385 -6.25 1.625 C-2.25 -0.375 -2.25 -0.375 0 0 Z " fill="#C6D3EC" transform="translate(237.25,241.375)"/>
<path d="M0 0 C0.99 0 1.98 0 3 0 C3 21.45 3 42.9 3 65 C0.03 65.99 0.03 65.99 -3 67 C-3 45.55 -3 24.1 -3 2 C-2.01 2 -1.02 2 0 2 C0 1.34 0 0.68 0 0 Z " fill="#C4D3E9" transform="translate(246,237)"/>
<path d="M0 0 C0.06942772 8.44037418 0.12277414 16.8806296 0.15543652 25.32121849 C0.17111071 29.24028972 0.19238048 33.15916599 0.22631836 37.078125 C0.25885001 40.85824125 0.2768398 44.63816967 0.28463173 48.41841507 C0.29018645 49.86257511 0.30103321 51.30672456 0.31719017 52.7508049 C0.33887964 54.76915257 0.34022467 56.78768817 0.34057617 58.80615234 C0.34723801 59.95642914 0.35389984 61.10670593 0.36076355 62.2918396 C0.24171158 63.18553253 0.12265961 64.07922546 0 65 C-3 67 -3 67 -6 67 C-6 45.55 -6 24.1 -6 2 C-1 0 -1 0 0 0 Z " fill="#C6D2EA" transform="translate(261,231)"/>
<path d="M0 0 C2.87655621 1.54776641 4.18666918 2.35611234 6 5 C6.88027126 9.8112379 6.69792823 14.6170812 6.5859375 19.48828125 C6.57473862 20.91601272 6.56620169 22.34376733 6.56021118 23.77153015 C6.53736599 27.51877155 6.47848414 31.26460442 6.4119873 35.0112915 C6.35046917 38.83871406 6.3231761 42.66636556 6.29296875 46.49414062 C6.22873311 53.99673401 6.12641039 61.49816922 6 69 C3.13275314 68.42655063 2.1385485 68.1385485 0 66 C-0.24050903 63.25387573 -0.24050903 63.25387573 -0.22705078 59.71435547 C-0.22734283 59.07032776 -0.22763489 58.42630005 -0.22793579 57.76275635 C-0.22654074 55.63076373 -0.21097174 53.49911918 -0.1953125 51.3671875 C-0.19158298 49.89031159 -0.18873572 48.41343322 -0.18673706 46.93655396 C-0.17909574 43.04682602 -0.15944308 39.15724712 -0.1373291 35.26757812 C-0.11688135 31.29949968 -0.10773764 27.33139718 -0.09765625 23.36328125 C-0.07619756 15.57545284 -0.04205572 7.78774729 0 0 Z " fill="#C4D1EB" transform="translate(70,222)"/>
<path d="M0 0 C0.66 0 1.32 0 2 0 C2.1390481 8.40573632 2.24564303 16.81099193 2.31087303 25.21759415 C2.34218138 29.12122477 2.38464173 33.02406844 2.45263672 36.92724609 C2.51785217 40.69446281 2.55370979 44.46092295 2.56926346 48.22866058 C2.58034637 49.66567651 2.60199011 51.10265119 2.63438034 52.53934479 C2.6779531 54.55218585 2.68045106 56.56578906 2.68115234 58.57910156 C2.69447601 59.72493713 2.70779968 60.87077271 2.7215271 62.05133057 C2 65 2 65 -4 69 C-4 47.55 -4 26.1 -4 4 C-3.01 3.67 -2.02 3.34 -1 3 C-0.67 2.01 -0.34 1.02 0 0 Z " fill="#C4D3EA" transform="translate(284,213)"/>
<path d="M0 0 C1.98 0 3.96 0 6 0 C6 21.45 6 42.9 6 65 C4.35 65 2.7 65 1 65 C0 64 0 64 -0.12025452 61.45005798 C-0.11803391 60.31532547 -0.11581329 59.18059296 -0.11352539 58.01147461 C-0.11344986 56.73022202 -0.11337433 55.44896942 -0.11329651 54.12889099 C-0.10818909 52.72004152 -0.10297309 51.31119244 -0.09765625 49.90234375 C-0.09579202 48.46887766 -0.09436814 47.03541093 -0.09336853 45.60194397 C-0.08954372 41.82240043 -0.07971377 38.0428951 -0.06866455 34.2633667 C-0.05844963 30.40930702 -0.05387074 26.55524118 -0.04882812 22.70117188 C-0.03809146 15.13409713 -0.02101549 7.56705391 0 0 Z " fill="#C4D3EA" transform="translate(144,250)"/>
<path d="M0 0 C1.65 0 3.3 0 5 0 C6 1 6 1 6.12025452 3.54994202 C6.11803391 4.68467453 6.11581329 5.81940704 6.11352539 6.98852539 C6.11341209 8.91040428 6.11341209 8.91040428 6.11329651 10.87110901 C6.10818909 12.27995848 6.10297309 13.68880756 6.09765625 15.09765625 C6.09579202 16.53112234 6.09436814 17.96458907 6.09336853 19.39805603 C6.08954372 23.17759957 6.07971377 26.9571049 6.06866455 30.7366333 C6.05844963 34.59069298 6.05387074 38.44475882 6.04882812 42.29882812 C6.03809146 49.86590287 6.02101549 57.43294609 6 65 C4.02 65 2.04 65 0 65 C0 43.55 0 22.1 0 0 Z " fill="#C5D2EA" transform="translate(132,248)"/>
<path d="M0 0 C0.02312659 8.45767334 0.0409167 16.91533356 0.05181217 25.37303066 C0.05704031 29.29988658 0.06413669 33.22672094 0.07543945 37.15356445 C0.0862708 40.94014257 0.09227736 44.7266999 0.09487724 48.51329231 C0.09673105 49.96104319 0.10035081 51.40879288 0.10573006 52.85653496 C0.11294367 54.87757135 0.11340808 56.89862848 0.11352539 58.91967773 C0.115746 60.07217514 0.11796661 61.22467255 0.12025452 62.41209412 C0 65 0 65 -1 66 C-2.65 66 -4.3 66 -6 66 C-6 44.88 -6 23.76 -6 2 C-1 0 -1 0 0 0 Z " fill="#C5D2E9" transform="translate(224,245)"/>
<path d="M0 0 C2.97 0.495 2.97 0.495 6 1 C6 22.45 6 43.9 6 66 C1 65 1 65 0 64 C-0.09405142 62.0056827 -0.11743249 60.00800457 -0.11352539 58.01147461 C-0.11344986 56.73022202 -0.11337433 55.44896942 -0.11329651 54.12889099 C-0.10818909 52.72004152 -0.10297309 51.31119244 -0.09765625 49.90234375 C-0.09579202 48.46887766 -0.09436814 47.03541093 -0.09336853 45.60194397 C-0.08954372 41.82240043 -0.07971377 38.0428951 -0.06866455 34.2633667 C-0.05844963 30.40930702 -0.05387074 26.55524118 -0.04882812 22.70117188 C-0.03809146 15.13409713 -0.02101549 7.56705391 0 0 Z " fill="#C5D2E9" transform="translate(107,242)"/>
<path d="M0 0 C1.98 0.66 3.96 1.32 6 2 C6 23.45 6 44.9 6 67 C4.02 66.34 2.04 65.68 0 65 C0 43.55 0 22.1 0 0 Z " fill="#C5D3EB" transform="translate(82,231)"/>
<path d="M0 0 C2.97 0.495 2.97 0.495 6 1 C6 22.45 6 43.9 6 66 C4.02 65.34 2.04 64.68 0 64 C0 42.88 0 21.76 0 0 Z " fill="#C6D3EA" transform="translate(95,238)"/>
<path d="M0 0 C0 21.45 0 42.9 0 65 C-1.98 65 -3.96 65 -6 65 C-6 43.88 -6 22.76 -6 1 C-3 0 -3 0 0 0 Z " fill="#C4D3EB" transform="translate(212,248)"/>
<path d="M0 0 C1.65 0 3.3 0 5 0 C5 21.12 5 42.24 5 64 C3.35 64 1.7 64 0 64 C0 42.88 0 21.76 0 0 Z " fill="#C2D1E8" transform="translate(157,252)"/>
<path d="M0 0 C0.66 0.66 1.32 1.32 2 2 C2.66 1.34 3.32 0.68 4 0 C4.66 2.97 5.32 5.94 6 9 C6.66 9 7.32 9 8 9 C8.28875 9.804375 8.5775 10.60875 8.875 11.4375 C9.73262568 14.1326468 9.73262568 14.1326468 12 15 C12.625 17.5625 12.625 17.5625 13 20 C13.99 20.33 14.98 20.66 16 21 C17.38671875 22.62890625 17.38671875 22.62890625 18.6875 24.5625 C19.34298828 25.52349609 19.34298828 25.52349609 20.01171875 26.50390625 C20.33785156 26.99761719 20.66398437 27.49132812 21 28 C20.01 28.33 19.02 28.66 18 29 C18.33 31.31 18.66 33.62 19 36 C15.59938071 35.43929832 14.22935803 34.57224471 12.1875 31.8125 C5.54058309 22.40871933 0 11.70142129 0 0 Z " fill="#DDE5F1" transform="translate(22,276)"/>
<path d="M0 0 C2.45223749 1.11961845 3.47176396 2.66953206 5.00390625 4.86328125 C5.78507812 5.96349609 5.78507812 5.96349609 6.58203125 7.0859375 C6.96875 7.65183594 7.35546875 8.21773437 7.75390625 8.80078125 C7.42390625 9.46078125 7.09390625 10.12078125 6.75390625 10.80078125 C6.25890625 10.30578125 6.25890625 10.30578125 5.75390625 9.80078125 C4.76390625 11.45078125 3.77390625 13.10078125 2.75390625 14.80078125 C-4.51245944 14.29965258 -4.51245944 14.29965258 -8.37109375 11.67578125 C-11.09283529 9.52764736 -11.09283529 9.52764736 -14.24609375 9.80078125 C-17.41328293 10.71033464 -17.41328293 10.71033464 -20.43359375 12.92578125 C-21.36171875 13.54453125 -22.28984375 14.16328125 -23.24609375 14.80078125 C-24.23609375 14.47078125 -25.22609375 14.14078125 -26.24609375 13.80078125 C-22.34131283 11.42645702 -18.42054287 9.07992909 -14.49609375 6.73828125 C-13.38492188 6.06216797 -12.27375 5.38605469 -11.12890625 4.68945312 C-10.05898437 4.05458984 -8.9890625 3.41972656 -7.88671875 2.765625 C-6.90219727 2.17386475 -5.91767578 1.58210449 -4.90332031 0.97241211 C-2.24609375 -0.19921875 -2.24609375 -0.19921875 0 0 Z " fill="#1A2F50" transform="translate(119.24609375,594.19921875)"/>
<path d="M0 0 C0.33 0 0.66 0 1 0 C1 12.87 1 25.74 1 39 C2.98 38.505 2.98 38.505 5 38 C4.67 48.23 4.34 58.46 4 69 C2 68 2 68 0 65 C-0.33773437 65.5053125 -0.67546875 66.010625 -1.0234375 66.53125 C-1.69246094 67.50578125 -1.69246094 67.50578125 -2.375 68.5 C-3.03628906 69.47453125 -3.03628906 69.47453125 -3.7109375 70.46875 C-4.34902344 71.22671875 -4.34902344 71.22671875 -5 72 C-5.66 72 -6.32 72 -7 72 C-7 72.66 -7 73.32 -7 74 C-7.66 74 -8.32 74 -9 74 C-7.6853106 71.0346108 -6.31838273 69.30323697 -3.92529297 67.15405273 C0.70809354 61.83633471 -0.14694455 55.21883744 -0.1953125 48.53515625 C-0.18404963 47.13266223 -0.17016343 45.73018706 -0.15377808 44.32774353 C-0.11786916 40.65657622 -0.11734971 36.98624384 -0.12445068 33.31494141 C-0.12536625 29.56072223 -0.09246761 25.80681157 -0.0625 22.05273438 C-0.00875964 14.70171212 0.00755902 7.3512421 0 0 Z " fill="#93A3BA" transform="translate(41,155)"/>
<path d="M0 0 C3.53191322 3.43153914 6.7137505 6.97375062 9.8125 10.8125 C10.60269531 11.78832031 11.39289063 12.76414062 12.20703125 13.76953125 C13.09455078 14.87361328 13.09455078 14.87361328 14 16 C13.34 16.33 12.68 16.66 12 17 C11.01 16.67 10.02 16.34 9 16 C8.67 16.99 8.34 17.98 8 19 C5.26752652 20.36623674 3.01801098 20.128426 0 20 C-1 19 -1 19 -1.3125 15.75 C-0.95628972 11.47547661 0.06738563 10.02425856 3 7 C2.505 6.21625 2.01 5.4325 1.5 4.625 C0 2 0 2 0 0 Z " fill="#1B2D50" transform="translate(130,609)"/>
<path d="M0 0 C0.99 0.33 1.98 0.66 3 1 C3 14.2 3 27.4 3 41 C0.525 41.495 0.525 41.495 -2 42 C-1.84152588 41.35200439 -1.68305176 40.70400879 -1.51977539 40.03637695 C-0.85729303 36.16634731 -0.76710874 32.33335999 -0.68359375 28.41796875 C-0.66281265 27.60378983 -0.64203156 26.7896109 -0.62062073 25.95075989 C-0.55550537 23.36308821 -0.49641792 20.77531947 -0.4375 18.1875 C-0.39427858 16.42772455 -0.35066315 14.66795872 -0.30664062 12.90820312 C-0.1998632 8.60556691 -0.09848982 4.30283357 0 0 Z " fill="#E2EAF7" transform="translate(298,222)"/>
<path d="M0 0 C0.33 0 0.66 0 1 0 C1.103125 1.11375 1.20625 2.2275 1.3125 3.375 C1.539375 4.57125 1.76625 5.7675 2 7 C2.99 7.66 3.98 8.32 5 9 C5.1875 12.125 5.1875 12.125 5 15 C4.34 14.67 3.68 14.34 3 14 C3 28.85 3 43.7 3 59 C2.67 59 2.34 59 2 59 C1.7086573 53.65161436 1.42421819 48.30291625 1.14550781 42.95385742 C1.05028688 41.14354133 0.95334972 39.3333145 0.85449219 37.52319336 C0.17221538 25.00202158 -0.12922774 12.53957784 0 0 Z " fill="#7587A1" transform="translate(50,420)"/>
<path d="M0 0 C0.33 0 0.66 0 1 0 C1 18.48 1 36.96 1 56 C1.99 56.33 2.98 56.66 4 57 C3.34 58.32 2.68 59.64 2 61 C1.01 61 0.02 61 -1 61 C-0.67 40.87 -0.34 20.74 0 0 Z " fill="#DCE5F6" transform="translate(51,208)"/>
<path d="M0 0 C1.32 0 2.64 0 4 0 C4 7.92 4 15.84 4 24 C3.01 24 2.02 24 1 24 C0.67 16.08 0.34 8.16 0 0 Z " fill="#DFEAFB" transform="translate(297,194)"/>
<path d="M0 0 C4.96305978 4.20781156 9.79330205 8.53086563 14.5703125 12.94921875 C18.07737036 15.90935601 21.87918004 18.0159015 26 20 C18.38518677 19.85898494 13.67757115 16.97709159 8 12 C4.61952669 8.30107631 1.59549348 4.78648045 0 0 Z " fill="#223752" transform="translate(67,590)"/>
<path d="M0 0 C0.66 0.66 1.32 1.32 2 2 C2.66 1.34 3.32 0.68 4 0 C5.46619907 6.02232181 6.32528788 10.90367577 5 17 C5.66 17.33 6.32 17.66 7 18 C6.34 18.66 5.68 19.32 5 20 C2.29466594 13.26812223 0.47567125 7.25398658 0 0 Z " fill="#B3C1D7" transform="translate(22,276)"/>
<path d="M0 0 C2.625 0.375 2.625 0.375 5 1 C4.01 2.98 3.02 4.96 2 7 C0.4221875 6.87625 0.4221875 6.87625 -1.1875 6.75 C-5.53763669 7.03525487 -6.9315153 8.02449969 -10 11 C-10 10.34 -10 9.68 -10 9 C-10.66 8.67 -11.32 8.34 -12 8 C-11.30132812 7.59007812 -10.60265625 7.18015625 -9.8828125 6.7578125 C-8.97273437 6.21898437 -8.06265625 5.68015625 -7.125 5.125 C-6.22007812 4.59132813 -5.31515625 4.05765625 -4.3828125 3.5078125 C-1.93396718 2.08024648 -1.93396718 2.08024648 0 0 Z " fill="#1D304E" transform="translate(264,601)"/>
<path d="M0 0 C0.33 0.66 0.66 1.32 1 2 C0.28972656 2.55429687 -0.42054687 3.10859375 -1.15234375 3.6796875 C-2.07144531 4.40414062 -2.99054688 5.12859375 -3.9375 5.875 C-4.85402344 6.59429687 -5.77054688 7.31359375 -6.71484375 8.0546875 C-9.06009485 9.79420836 -9.06009485 9.79420836 -10 12 C-10.66 12 -11.32 12 -12 12 C-12 12.66 -12 13.32 -12 14 C-12.66 14 -13.32 14 -14 14 C-12.79209779 7.80950116 -9.03389889 4.44774584 -4 1 C-1.7421875 0.30078125 -1.7421875 0.30078125 0 0 Z " fill="#F3FCFD" transform="translate(116,36)"/>
<path d="M0 0 C0.99 0.99 1.98 1.98 3 3 C1.54601271 4.81598825 0.08667675 6.62769519 -1.375 8.4375 C-2.59316406 9.95150391 -2.59316406 9.95150391 -3.8359375 11.49609375 C-6 14 -6 14 -8 15 C-8.8125 12.8125 -8.8125 12.8125 -9 10 C-6.55487693 7.07943633 -4.16656091 5.11104061 -1 3 C-0.67 2.01 -0.34 1.02 0 0 Z " fill="#ABB9D0" transform="translate(309,301)"/>
<path d="M0 0 C-0.53851968 5.27749285 -1.77343836 9.25645564 -4 14 C-6 11 -6 11 -6 9 C-5.01 9 -4.02 9 -3 9 C-3.33 6.36 -3.66 3.72 -4 1 C-2 0 -2 0 0 0 Z " fill="#9AABC3" transform="translate(320,283)"/>
<path d="M0 0 C0.33 0 0.66 0 1 0 C2.40008964 3.88913788 3.1577403 6.29016867 2.25 10.375 C1 13 1 13 -1 14 C-1.027193 12.41676312 -1.04648306 10.83338938 -1.0625 9.25 C-1.07410156 8.36828125 -1.08570313 7.4865625 -1.09765625 6.578125 C-1.00826198 4.2181162 -0.66912821 2.25501476 0 0 Z " fill="#BECBD6" transform="translate(43,145)"/>
<path d="M0 0 C0.66 0.33 1.32 0.66 2 1 C1.67 2.65 1.34 4.3 1 6 C0.01 6.33 -0.98 6.66 -2 7 C-4.1875 5.5625 -4.1875 5.5625 -6 4 C-5.67 3.34 -5.34 2.68 -5 2 C-4.34 2 -3.68 2 -3 2 C-2.01 1.34 -1.02 0.68 0 0 Z " fill="#BCC6D3" transform="translate(133,603)"/>
<path d="M0 0 C0.66 0.66 1.32 1.32 2 2 C-2.95 4.475 -2.95 4.475 -8 7 C-8.99 6.34 -9.98 5.68 -11 5 C-7.37 3.35 -3.74 1.7 0 0 Z " fill="#293954" transform="translate(247,612)"/>
<path d="M0 0 C0.33 0 0.66 0 1 0 C1.08096803 1.45742463 1.13917774 2.91612807 1.1875 4.375 C1.22230469 5.18710937 1.25710938 5.99921875 1.29296875 6.8359375 C1.19628906 7.55007813 1.09960938 8.26421875 1 9 C0.01 9.66 -0.98 10.32 -2 11 C-2 11.66 -2 12.32 -2 13 C-2.66 13 -3.32 13 -4 13 C-3.67 11.02 -3.34 9.04 -3 7 C-2.34 7 -1.68 7 -1 7 C-0.67 4.69 -0.34 2.38 0 0 Z " fill="#E1EAF7" transform="translate(319,274)"/>
<path d="M0 0 C0.33 0.99 0.66 1.98 1 3 C0.2575 3.268125 -0.485 3.53625 -1.25 3.8125 C-3.86636554 4.94229421 -5.80187111 6.20893202 -8 8 C-8 7.34 -8 6.68 -8 6 C-8.66 5.67 -9.32 5.34 -10 5 C-8.71186658 4.16121545 -7.41936744 3.32913217 -6.125 2.5 C-5.40570313 2.0359375 -4.68640625 1.571875 -3.9453125 1.09375 C-2 0 -2 0 0 0 Z " fill="#263652" transform="translate(262,604)"/>
<path d="M0 0 C3.9881741 0.56973916 6.62446673 1.83619662 10 4 C11.32608822 4.68096422 12.65686601 5.35330586 14 6 C8.03790777 5.58882123 4.68411993 4.74729595 0 1 C0 0.67 0 0.34 0 0 Z " fill="#21314D" transform="translate(79,604)"/>
<path d="M0 0 C0.33 0 0.66 0 1 0 C1.797837 6.69613196 2.12910853 13.25766581 2 20 C1.67 20 1.34 20 1 20 C0.8046875 17.98177083 0.609375 15.96354167 0.4140625 13.9453125 C0.13625251 11.77331755 0.13625251 11.77331755 -2 10 C-1.7578125 7.6171875 -1.7578125 7.6171875 -1.125 4.875 C-0.92132813 3.96492188 -0.71765625 3.05484375 -0.5078125 2.1171875 C-0.34023438 1.41851562 -0.17265625 0.71984375 0 0 Z " fill="#384965" transform="translate(54,508)"/>
<path d="M0 0 C0.86625 0.4640625 0.86625 0.4640625 1.75 0.9375 C3.84294184 1.92583364 5.74535275 2.5168613 8 3 C8 3.66 8 4.32 8 5 C7.01 5.495 7.01 5.495 6 6 C5.34786708 8.02463255 5.34786708 8.02463255 5 10 C4.16121545 8.71186658 3.32913217 7.41936744 2.5 6.125 C2.0359375 5.40570313 1.571875 4.68640625 1.09375 3.9453125 C0 2 0 2 0 0 Z " fill="#97A7C2" transform="translate(28,296)"/>
<path d="M0 0 C0.66 0.33 1.32 0.66 2 1 C1.3503125 1.5878125 1.3503125 1.5878125 0.6875 2.1875 C-1.14560261 4.02238902 -1.14560261 4.02238902 -2.5625 6.6875 C-3.036875 7.450625 -3.51125 8.21375 -4 9 C-4.66 9 -5.32 9 -6 9 C-6 9.66 -6 10.32 -6 11 C-6.66 11 -7.32 11 -8 11 C-6.63629701 8.00779732 -5.05091917 5.70973471 -2.875 3.25 C-2.33617187 2.63640625 -1.79734375 2.0228125 -1.2421875 1.390625 C-0.62730469 0.70226562 -0.62730469 0.70226562 0 0 Z " fill="#A7B6C4" transform="translate(40,218)"/>
<path d="M0 0 C-1.29299694 2.88437779 -2.65941363 4.87219421 -5 7 C-5.99 6.34 -6.98 5.68 -8 5 C-2.25 0 -2.25 0 0 0 Z " fill="#B5C0CE" transform="translate(73,111)"/>
<path d="M0 0 C0.66 0.33 1.32 0.66 2 1 C0.3811004 2.03048037 -1.24532489 3.04914678 -2.875 4.0625 C-3.77992188 4.63097656 -4.68484375 5.19945312 -5.6171875 5.78515625 C-6.40351563 6.18605469 -7.18984375 6.58695313 -8 7 C-8.66 6.67 -9.32 6.34 -10 6 C-8.89932004 5.18278283 -7.79430269 4.37140549 -6.6875 3.5625 C-6.07261719 3.11003906 -5.45773437 2.65757812 -4.82421875 2.19140625 C-3 1 -3 1 0 0 Z " fill="#1E365D" transform="translate(281,627)"/>
<path d="M0 0 C0.33 0.66 0.66 1.32 1 2 C1.66 2 2.32 2 3 2 C4 5 4 5 3 8 C3.66 8.33 4.32 8.66 5 9 C4.34 9.66 3.68 10.32 3 11 C0 4.5 0 4.5 0 0 Z " fill="#7A90AD" transform="translate(24,285)"/>
<path d="M0 0 C0.8125 1.6875 0.8125 1.6875 1 4 C-1.4375 6.75 -1.4375 6.75 -4 9 C-4 5.00095031 -2.27413033 3.19799578 0 0 Z " fill="#A2AEBC" transform="translate(52,129)"/>
<path d="M0 0 C3.82097239 0.53069061 6.06171403 1.49701566 9 4 C8.01 4.33 7.02 4.66 6 5 C6 4.34 6 3.68 6 3 C3.69 3 1.38 3 -1 3 C-0.67 2.01 -0.34 1.02 0 0 Z " fill="#A5B2BF" transform="translate(214,29)"/>
<path d="M0 0 C0.66 0.33 1.32 0.66 2 1 C-0.13478166 4.20217249 -1.62795029 5.27285259 -5 7 C-5.99 7 -6.98 7 -8 7 C-5.36 4.69 -2.72 2.38 0 0 Z " fill="#8595A9" transform="translate(112,37)"/>
<path d="M0 0 C0.99 0.66 1.98 1.32 3 2 C-0.465 3.485 -0.465 3.485 -4 5 C-4.66 4.34 -5.32 3.68 -6 3 C-4 2 -2 1 0 0 Z " fill="#D7E1F1" transform="translate(248,609)"/>
<path d="M0 0 C1.12894876 0.93274109 2.25300876 1.87140122 3.375 2.8125 C4.00148438 3.33457031 4.62796875 3.85664062 5.2734375 4.39453125 C7 6 7 6 9 9 C6.66471585 8.82701599 5.30822418 8.29774631 3.62109375 6.66796875 C0 2.42788462 0 2.42788462 0 0 Z " fill="#36465E" transform="translate(67,590)"/>
<path d="M0 0 C0 0.66 0 1.32 0 2 C-1.2065625 2.37125 -1.2065625 2.37125 -2.4375 2.75 C-5.171081 3.72238859 -5.171081 3.72238859 -5.8125 6.125 C-5.874375 6.74375 -5.93625 7.3625 -6 8 C-6.33 6.35 -6.66 4.7 -7 3 C-2.25 0 -2.25 0 0 0 Z " fill="#A9B2BF" transform="translate(90,101)"/>
<path d="M0 0 C7.75 0.75 7.75 0.75 10 3 C7.03 3 4.06 3 1 3 C0.67 2.01 0.34 1.02 0 0 Z " fill="#8D9CAC" transform="translate(201,25)"/>
<path d="M0 0 C0.66 0.33 1.32 0.66 2 1 C-0.83430453 4.2542015 -2.68607774 5.5206753 -7 6 C-4.74259377 3.66475218 -2.7194239 1.81294927 0 0 Z " fill="#8F9EAF" transform="translate(80,105)"/>
<path d="M0 0 C2.29013653 3.4352048 2.17842973 4.985331 2 9 C1.34 8.67 0.68 8.34 0 8 C-0.6875 4.5 -0.6875 4.5 -1 1 C-0.67 0.67 -0.34 0.34 0 0 Z " fill="#D1D7E2" transform="translate(228,61)"/>
<path d="M0 0 C1.5 1.1875 1.5 1.1875 3 3 C3.1875 5.6875 3.1875 5.6875 3 8 C0.9375 6.25 0.9375 6.25 -1 4 C-0.75 1.75 -0.75 1.75 0 0 Z " fill="#D8E1F2" transform="translate(123,594)"/>
<path d="M0 0 C0.66 0.66 1.32 1.32 2 2 C1.75 4.0625 1.75 4.0625 1 6 C0.01 6.495 0.01 6.495 -1 7 C-1.625 4.625 -1.625 4.625 -2 2 C-1.34 1.34 -0.68 0.68 0 0 Z " fill="#B9C8DA" transform="translate(302,309)"/>
</svg>
