<?xml version="1.0" encoding="UTF-8"?>
<svg version="1.1" xmlns="http://www.w3.org/2000/svg" width="329" height="689">
<path d="M0 0 C6.05605803 6.2096537 11.01741907 14.26767179 11.78125 23.0234375 C11.86375 23.89613281 11.94625 24.76882812 12.03125 25.66796875 C12.14220629 27.92523576 11.99942929 29.97005442 11.78125 32.2109375 C11.67350169 37.05961137 14.58334489 40.10720693 17.40234375 43.8203125 C21.72608431 49.71369607 23.45543876 56.06050205 22.98071289 63.32983398 C19.92207116 89.53969356 19.92207116 89.53969356 26.28076172 113.86474609 C31.65011605 118.95669518 38.02279904 121.2157638 45.04248047 123.23193359 C49.69695644 124.69535281 53.60504654 127.07234872 57.71875 129.6484375 C58.40727051 130.05513672 59.09579102 130.46183594 59.80517578 130.88085938 C66.37247072 134.78157361 72.36732524 139.01312649 74.71484375 146.67578125 C77.67243041 163.66227457 72.75632158 179.19083296 63.15625 193.2109375 C55.48719677 204.02749799 45.70388636 214.88763438 32.25561523 217.84985352 C31.29341064 218.01155029 30.33120605 218.17324707 29.33984375 218.33984375 C28.3645874 218.50685791 27.38933105 218.67387207 26.38452148 218.84594727 C25.64919189 218.96639404 24.9138623 219.08684082 24.15625 219.2109375 C24.15478479 220.2073982 24.15478479 220.2073982 24.15328997 221.22398943 C24.09494363 260.64756977 24.02109083 300.07109403 23.92726372 339.49460658 C23.91599635 344.23444123 23.90485777 348.97427618 23.89379883 353.71411133 C23.89159514 354.65767693 23.88939146 355.60124254 23.887121 356.57340104 C23.85180516 371.82614359 23.82690883 387.0788861 23.80590298 402.3316543 C23.78409532 417.99713088 23.750998 433.66255467 23.70754844 449.3279863 C23.68111705 458.98453875 23.66335909 468.64102551 23.65690396 478.29761232 C23.65162392 484.9308631 23.63531986 491.56403141 23.61058434 498.1972379 C23.59665839 502.01701168 23.58736481 505.83663812 23.59124184 509.65643883 C23.61660922 541.36334703 20.02629095 569.98824579 -3.109375 593.50390625 C-4.01171875 594.39722656 -4.9140625 595.29054688 -5.84375 596.2109375 C-7.01164062 597.41169922 -7.01164062 597.41169922 -8.203125 598.63671875 C-25.99320406 615.91936266 -50.69327983 622.75883165 -74.95483398 622.63476562 C-101.43603991 621.91597269 -124.77764087 609.41281232 -142.9140625 590.515625 C-159.4681155 572.44978634 -166.02122681 548.92857004 -165.96159363 524.95306396 C-165.96186412 523.59780272 -165.96258942 522.2425415 -165.96372873 520.8872807 C-165.96524731 517.94752137 -165.96362271 515.00778631 -165.95958138 512.0680294 C-165.95303841 507.28404251 -165.95339226 502.50007006 -165.95465088 497.71607971 C-165.95577008 491.66965502 -165.95513047 485.6232349 -165.95245007 479.57681069 C-165.94731805 467.69305649 -165.95568686 455.8093446 -165.96907043 443.92559814 C-165.97111707 442.05334306 -165.9731594 440.18108798 -165.97519749 438.30883288 C-165.97935336 434.51862584 -165.98356847 430.72841887 -165.98780501 426.93821192 C-165.99860252 417.19985712 -166.00841084 407.46150168 -166.0168457 397.72314453 C-166.01769695 396.7460762 -166.0185482 395.76900786 -166.01942525 394.7623314 C-166.03264444 378.93043411 -166.02762716 363.0985872 -166.01677414 347.26669046 C-166.00613817 331.00209588 -166.01834292 314.73762666 -166.05085641 298.47306085 C-166.0701161 288.44664182 -166.07116427 278.42055799 -166.04870013 268.39414415 C-166.03493759 261.52033648 -166.04312086 254.64677294 -166.06842472 247.77299896 C-166.08234676 243.80995285 -166.08663421 239.8475236 -166.06459999 235.8845005 C-166.04460218 232.25080361 -166.05257894 228.61824288 -166.08207611 224.9846206 C-166.09062107 223.05944936 -166.06984322 221.13421543 -166.04775113 219.20915198 C-166.15627296 210.68431105 -168.33791792 205.35057417 -172.84375 198.2109375 C-177.57387295 188.85523823 -177.42804258 179.67495079 -177.31030273 169.41333008 C-177.28127267 166.65059472 -177.28974035 163.88977685 -177.30273438 161.12695312 C-177.28039201 139.93981649 -177.28039201 139.93981649 -170.15625 131.0234375 C-166.37303718 125.33646662 -165.94532062 120.41064131 -165.71875 113.69140625 C-167.43862836 108.37053258 -171.10315827 106.81906614 -175.84375 104.2109375 C-176.6584375 103.74840576 -177.473125 103.28587402 -178.3125 102.80932617 C-180.80841949 101.41450408 -183.32147165 100.0574461 -185.84375 98.7109375 C-206.55425549 87.6547138 -206.55425549 87.6547138 -209.84375 77.2109375 C-213.07574893 61.37200233 -207.6719901 45.71457343 -199.40625 32.2734375 C-191.69072586 20.88545865 -180.91099884 9.08894061 -166.84375 6.2109375 C-164.73046875 6.0078125 -164.73046875 6.0078125 -162.53125 5.9609375 C-161.81324219 5.93515625 -161.09523437 5.909375 -160.35546875 5.8828125 C-156.82882083 6.34352545 -154.06862238 7.71830473 -150.84375 9.2109375 C-149.87888672 8.05078125 -149.87888672 8.05078125 -148.89453125 6.8671875 C-132.33690759 -12.45470422 -107.77913637 -20.57904546 -82.96386719 -22.64404297 C-53.95905805 -24.62802001 -22.82115489 -19.24584062 0 0 Z " fill="#507EA1" transform="translate(231.84375,44.7890625)"/>
<path d="M0 0 C0.77603577 0.3114798 1.55207153 0.62295959 2.35162354 0.94387817 C40.77602355 16.2667932 88.2370007 21.08849632 127.36816406 4.50683594 C129.06361491 3.74329152 130.74166349 2.94142635 132.41796875 2.13671875 C135 1 135 1 138 1 C138.09155302 40.8655466 138.16203745 80.73107951 138.20426132 120.59671023 C138.20926415 125.30308043 138.21444144 130.00945042 138.21972656 134.71582031 C138.2207758 135.65277487 138.22182505 136.58972942 138.22290608 137.55507654 C138.24031189 152.7266418 138.27185056 167.89814644 138.30861118 183.06967574 C138.34601569 198.63676142 138.36823482 214.20381535 138.37635398 229.77094412 C138.38184277 239.37691634 138.39917939 248.98271722 138.43166587 258.5886367 C138.4528077 265.17554465 138.45920079 271.762364 138.45400551 278.34930342 C138.45144321 282.14981212 138.45537437 285.95002137 138.4768219 289.75047684 C138.49991656 293.87295011 138.49194807 297.99478628 138.48101807 302.11730957 C138.49266943 303.3157646 138.5043208 304.51421964 138.51632524 305.74899149 C138.44011099 316.36853024 135.01811052 322.82932243 127.71484375 330.546875 C108.45725001 347.94798129 81.46917004 348.74834296 57 348 C39.54416364 347.07910449 19.73462908 340.32809967 7.6171875 327.14453125 C2.37884719 320.19803649 -0.1265501 313.21150869 -0.12304783 304.54337597 C-0.12503888 303.4535681 -0.12702993 302.36376023 -0.12908131 301.24092788 C-0.12616847 300.04929811 -0.12325563 298.85766835 -0.12025452 297.62992859 C-0.12110894 296.35975523 -0.12196337 295.08958188 -0.12284368 293.78091842 C-0.12507958 290.25771588 -0.12107971 286.73454374 -0.11606562 283.21134508 C-0.11174835 279.4111248 -0.11320845 275.61090624 -0.1139679 271.8106842 C-0.11449232 265.22732321 -0.11135402 258.64397213 -0.10573006 252.06061363 C-0.09760403 242.5421752 -0.0949987 233.02374155 -0.09374207 223.50530002 C-0.09155328 208.06236852 -0.08489789 192.6194423 -0.07543945 177.17651367 C-0.06626085 162.17488634 -0.05918221 147.17326044 -0.05493164 132.17163086 C-0.05466892 131.24697585 -0.05440619 130.32232084 -0.05413551 129.36964598 C-0.05283047 124.73093707 -0.05156677 120.09222815 -0.05032361 115.45351923 C-0.0399564 76.96900912 -0.02234279 38.48450491 0 0 Z " fill="#E7F8FE" transform="translate(91,271)"/>
<path d="M0 0 C0.47923731 0.4147568 0.95847462 0.82951361 1.45223427 1.2568388 C2.39634446 2.07072174 2.39634446 2.07072174 3.35952759 2.90104675 C3.9831399 3.43955356 4.6067522 3.97806036 5.24926186 4.53288555 C7.13057116 6.10941832 9.0511553 7.4639116 11.1484375 8.73828125 C12.19064453 9.37926758 12.19064453 9.37926758 13.25390625 10.03320312 C13.95386719 10.45537109 14.65382813 10.87753906 15.375 11.3125 C22.91704805 15.91704805 22.91704805 15.91704805 24 17 C24.09947038 18.64306466 24.12847049 20.29042774 24.13028526 21.9364996 C24.13390961 23.01217628 24.13753396 24.08785297 24.14126813 25.19612592 C24.13966576 26.99081582 24.13966576 26.99081582 24.13803101 28.82176208 C24.14085229 30.08146208 24.14367357 31.34116208 24.14658034 32.63903481 C24.15436411 36.15196117 24.15595439 39.66486804 24.15663147 43.17780197 C24.15846586 46.9605665 24.16606993 50.74331948 24.17311096 54.52607727 C24.1846559 61.08765456 24.19289034 67.64922926 24.19923019 74.21081352 C24.20954331 84.58498205 24.23010495 94.95911839 24.25234985 105.33326721 C24.25983041 108.8809842 24.26724408 112.42870132 24.27463722 115.9764185 C24.27648779 116.86316799 24.27833835 117.74991748 24.280245 118.66353817 C24.3011884 128.76649301 24.3200072 138.86945142 24.33789062 148.97241211 C24.3403479 150.35826507 24.3403479 150.35826507 24.34285481 151.77211506 C24.36911356 166.72883281 24.38776993 181.68555302 24.40448253 196.64228403 C24.42191435 211.99474145 24.4507743 227.34715051 24.4893719 242.69956928 C24.51275472 252.16965461 24.52676493 261.63966107 24.52869953 271.10977549 C24.53081187 277.60559972 24.54376591 284.10134564 24.56517886 290.5971347 C24.57718559 294.34314415 24.5843742 298.08899815 24.57846642 301.83502579 C24.57216759 305.90196415 24.58903197 309.96848621 24.60800171 314.03538513 C24.60247201 315.21176857 24.59694232 316.38815201 24.59124506 317.60018343 C24.67825366 328.41883786 26.6185211 336.87684141 34 345 C34.45632812 345.51046875 34.91265625 346.0209375 35.3828125 346.546875 C50.35862139 361.13064701 73.49843795 364.1754842 93.3125 364.1875 C94.36373047 364.19974609 95.41496094 364.21199219 96.49804688 364.22460938 C116.60170934 364.26167821 138.06548328 359.08514016 153.0546875 345.08984375 C158.15049018 339.61543725 161.12604523 334.25583617 161.12304783 326.71138477 C161.12503888 325.60814202 161.12702993 324.50489927 161.12908131 323.36822492 C161.12471205 321.54285964 161.12471205 321.54285964 161.12025452 319.68061829 C161.12110894 318.39173602 161.12196337 317.10285375 161.12284368 315.77491444 C161.12508543 312.19018558 161.1210717 308.60548645 161.11606562 305.02076137 C161.11175675 301.15779232 161.11320786 297.29482502 161.1139679 293.43185425 C161.11449285 286.73659682 161.111349 280.04134911 161.10573006 273.34609413 C161.09761124 263.66581826 161.09499944 253.9855471 161.09374207 244.30526819 C161.09155215 228.6005635 161.08489369 212.89586399 161.07543945 197.19116211 C161.06626378 181.93334987 161.0591837 166.67553905 161.05493164 151.41772461 C161.05466892 150.47760917 161.05440619 149.53749374 161.05413551 148.56888995 C161.05283049 143.85271942 161.05156678 139.13654888 161.05032361 134.42037833 C161.03995287 95.28024859 161.02233618 56.14012463 161 17 C162.74681293 16.01515892 164.4975851 15.03733813 166.25 14.0625 C167.22453125 13.51722656 168.1990625 12.97195313 169.203125 12.41015625 C171.53610409 11.23389165 173.45350762 10.47898309 176 10 C176 9.34 176 8.68 176 8 C177.6875 6.25 177.6875 6.25 180 5 C182.625 5.75 182.625 5.75 185 7 C185.99 7.495 185.99 7.495 187 8 C187.09163961 49.40251759 187.16208139 90.80502345 187.20426132 132.20762244 C187.20926389 137.10024781 187.21444121 141.99287298 187.21972656 146.88549805 C187.2207758 147.85949442 187.22182505 148.83349079 187.22290608 149.83700221 C187.24029135 165.58905809 187.27181866 181.34105533 187.30861118 197.09307647 C187.34607294 213.26701274 187.36824691 229.44091837 187.37635398 245.61489624 C187.38183091 255.58782383 187.39910292 265.56058563 187.43166587 275.53346216 C187.45287843 282.38066004 187.45918485 289.22777274 187.45400551 296.07500107 C187.45145417 300.02016702 187.4552482 303.96504412 187.4768219 307.91015816 C187.49648366 311.53237272 187.49714517 315.15410796 187.48359558 318.77634596 C187.48114146 320.68598417 187.49821678 322.59561791 187.51632524 324.50517184 C187.35414948 348.30834544 176.15529115 369.07540927 160 386 C159.46117187 386.61359375 158.92234375 387.2271875 158.3671875 387.859375 C143.45604748 404.1941917 119.96380179 412.17635187 98.46484375 413.37890625 C71.70104708 414.25318872 48.04311445 405.34796597 28.09375 387.3828125 C12.12475075 372.41346144 0.32272673 351.09788007 -0.49219131 328.90684605 C-0.50870504 326.41805699 -0.50396495 323.92906093 -0.48101807 321.44032288 C-0.48276788 320.04144096 -0.48628026 318.64256035 -0.49137473 317.24368662 C-0.50021841 313.446475 -0.48445978 309.64972415 -0.46426249 305.85257113 C-0.4468466 301.74032337 -0.45284409 297.62809767 -0.45587158 293.51582336 C-0.45796009 286.40656026 -0.44550375 279.297445 -0.42292023 272.18821907 C-0.3902905 261.90973661 -0.37998204 251.631325 -0.37496826 241.35279637 C-0.36623275 224.67306405 -0.33966468 207.99341037 -0.30175781 191.3137207 C-0.26499246 175.11938874 -0.23670289 158.92507821 -0.21972656 142.73071289 C-0.21867567 141.73102323 -0.21762477 140.73133357 -0.21654204 139.70135028 C-0.21132155 134.68576199 -0.2062668 129.67017355 -0.20129442 124.654585 C-0.15988673 83.10300199 -0.08948602 41.55150552 0 0 Z " fill="#7396B2" transform="translate(67,254)"/>
<path d="M0 0 C8.10961563 6.83910918 13.72946041 16.68305241 14.66796875 27.29296875 C14.24409664 34.59736961 10.61400309 42.20450088 6.5 48.1875 C5.84 48.1875 5.18 48.1875 4.5 48.1875 C4.1596875 49.05375 4.1596875 49.05375 3.8125 49.9375 C2.15151778 52.78489809 0.18475439 54.30817193 -2.5 56.1875 C-3.16 56.1875 -3.82 56.1875 -4.5 56.1875 C-4.5 56.8475 -4.5 57.5075 -4.5 58.1875 C-15.1874623 64.2587193 -25.51046584 69.31931403 -37.5 72.1875 C-38.17546875 72.34976074 -38.8509375 72.51202148 -39.546875 72.67919922 C-69.21178799 79.43326423 -103.27243078 76.08773441 -129.625 60.5625 C-130.30175781 60.16587158 -130.97851562 59.76924316 -131.67578125 59.3605957 C-133.32125353 58.36207393 -134.91627833 57.28132377 -136.5 56.1875 C-136.5 55.5275 -136.5 54.8675 -136.5 54.1875 C-137.39912109 53.78144531 -137.39912109 53.78144531 -138.31640625 53.3671875 C-144.81610214 49.85572389 -148.01765951 43.01415012 -150.58203125 36.375 C-152.88701963 28.37129566 -152.24437852 21.35946545 -148.5703125 13.9296875 C-147.5 12.1875 -147.5 12.1875 -145.5 10.1875 C-145.21511719 9.41019531 -144.93023437 8.63289063 -144.63671875 7.83203125 C-140.20816933 -2.47081396 -126.48275865 -8.49464003 -116.61914062 -12.59423828 C-79.30643574 -27.13203873 -32.6641277 -24.0553591 0 0 Z " fill="#649CC6" transform="translate(229.5,42.8125)"/>
<path d="M0 0 C6.82150269 2.82842794 11.33923652 7.05348414 14.9375 13.4375 C19.05816129 26.88796043 15.31641813 41.09476842 9.390625 53.3203125 C1.59591763 67.30072801 -8.93643623 79.86299254 -24 86 C-29.445 86.99 -29.445 86.99 -35 88 C-35.495 244.915 -35.495 244.915 -36 405 C-36.33 405 -36.66 405 -37 405 C-37 299.73 -37 194.46 -37 86 C-43.27302467 83.47147274 -43.27302467 83.47147274 -46.4375 84.875 C-46.953125 85.24625 -47.46875 85.6175 -48 86 C-48 86.66 -48 87.32 -48 88 C-77.40324426 109.71497081 -120.48744689 113.60266901 -155.59619141 108.97387695 C-176.00978904 105.84460883 -195.14699531 99.43070313 -212.375 87.9375 C-213.33148438 87.30714844 -214.28796875 86.67679687 -215.2734375 86.02734375 C-218 84 -218 84 -223 79 C-223.33 187.24 -223.66 295.48 -224 407 C-224.33 407 -224.66 407 -225 407 C-224.99983765 406.30802291 -224.9996753 405.61604581 -224.99950802 404.90309972 C-224.99064276 363.87659564 -225.01299242 322.85021171 -225.07579029 281.8237517 C-225.0833062 276.89592919 -225.09056171 271.96810633 -225.09765625 267.0402832 C-225.099073 266.05925636 -225.10048975 265.07822951 -225.10194944 264.06747458 C-225.12425839 248.18986566 -225.12548069 232.31232175 -225.11888863 216.43470152 C-225.11259305 200.13868033 -225.12900805 183.8427957 -225.16643608 167.54681569 C-225.18881131 157.49400379 -225.1935439 147.4415032 -225.17559664 137.38868109 C-225.16498205 130.49190272 -225.17645862 123.59537972 -225.20516153 116.69865384 C-225.22106591 112.72148866 -225.22736923 108.74493128 -225.20739174 104.76777077 C-225.18928876 101.12082988 -225.19915228 97.47503494 -225.23053883 93.82819406 C-225.24009925 91.89574142 -225.22037394 89.96321096 -225.19933903 88.03084916 C-225.31207929 79.49705877 -227.47842786 74.143973 -232 67 C-237.27661553 56.68787311 -236.45569586 46.10151568 -236.25 34.8125 C-236.22990117 32.8873884 -236.21165639 30.96225651 -236.1953125 29.03710938 C-236.15159214 24.35756496 -236.08275238 19.67901027 -236 15 C-235.67 15 -235.34 15 -235 15 C-234.98582031 15.85980469 -234.97164062 16.71960938 -234.95703125 17.60546875 C-234.34461777 32.7833921 -229.41975092 44.11997509 -218.4375 54.5625 C-197.74810705 71.81697443 -167.84436971 80.36398396 -141.27783203 80.94433594 C-139.65855477 80.9839067 -138.03966622 81.04109741 -136.42138672 81.11035156 C-115.41648056 81.99188351 -94.18461772 79.51231268 -74.50244141 71.79248047 C-70.17298261 70.13111391 -67.44559312 69.58395448 -63 71 C-59.94070676 72.53073482 -57.03625999 74.26886778 -54.125 76.0625 C-53.34125 76.53494141 -52.5575 77.00738281 -51.75 77.49414062 C-49.82801567 78.65436287 -47.91177465 79.82305776 -46 81 C-46.98091684 77.88277485 -46.98091684 77.88277485 -48.5625 74.5625 C-53.24799003 61.99895566 -48.99195637 46.96269396 -43.6953125 35.3203125 C-36.78369133 21.78372726 -26.13723363 9.89654726 -12.4375 3.0625 C-8.17751126 1.74577621 -4.41790729 1.72951588 0 2 C0 1.34 0 0.68 0 0 Z " fill="#527FA1" transform="translate(291,176)"/>
<path d="M0 0 C8.97148977 4.1715808 17.49466467 9.26592557 26.02880859 14.25585938 C26.64119385 14.61156006 27.2535791 14.96726074 27.88452148 15.33374023 C29.63661989 16.35601331 31.37978925 17.39354329 33.12255859 18.43164062 C34.14027344 19.03532471 35.15798828 19.63900879 36.20654297 20.26098633 C38.52880859 21.94335938 38.52880859 21.94335938 39.52880859 24.94335938 C38.29130859 24.98460937 37.05380859 25.02585938 35.77880859 25.06835938 C23.2819902 26.5374211 13.28599032 35.01259829 5.49755859 44.38867188 C-4.89679342 58.56693273 -11.17921574 75.21136995 -9.47119141 92.94335938 C-8.22933761 97.17130706 -6.43596256 101.01381706 -4.47119141 104.94335938 C-7.60354145 103.84033339 -10.38230017 102.45574051 -13.21337891 100.74414062 C-13.88755859 100.34001953 -14.56173828 99.93589844 -15.25634766 99.51953125 C-16.64909689 98.67737354 -18.0346217 97.82315035 -19.41259766 96.95703125 C-22.96190741 94.85786805 -24.87653282 93.92860517 -29.09228516 94.03320312 C-32.37999642 94.91879471 -35.48174732 95.97056482 -38.65869141 97.19335938 C-57.33344562 103.76225832 -77.24389332 105.87674068 -96.92333984 105.04492188 C-99.1530407 104.9560415 -101.3729103 104.92096731 -103.60400391 104.91210938 C-123.63600039 104.41026395 -144.54262162 98.49667841 -162.15869141 89.06835938 C-163.34301758 88.45541016 -163.34301758 88.45541016 -164.55126953 87.83007812 C-178.11940617 80.64892089 -189.86380883 70.16518131 -194.81494141 55.20507812 C-195.65469949 51.0312805 -195.86394896 47.00595757 -195.90869141 42.75585938 C-195.91892334 42.00755859 -195.92915527 41.25925781 -195.93969727 40.48828125 C-195.81642618 32.67479115 -193.32238268 26.1589482 -188.47119141 19.94335938 C-187.48119141 19.61335938 -186.49119141 19.28335938 -185.47119141 18.94335938 C-184.40851702 22.13138252 -184.33086527 24.47604605 -184.29541016 27.82617188 C-184.2715625 28.9940625 -184.24771484 30.16195312 -184.22314453 31.36523438 C-184.18058668 33.81037621 -184.14911576 36.25573922 -184.12939453 38.70117188 C-183.81107467 52.20385622 -178.8954601 60.69205751 -169.29150391 70.07226562 C-143.04411465 92.65209039 -105.18853037 95.10658696 -72.25146484 92.70898438 C-55.27966168 91.54768274 -55.27966168 91.54768274 -40.47119141 84.94335938 C-41.14666016 84.56824219 -41.82212891 84.193125 -42.51806641 83.80664062 C-49.83949006 79.60634411 -54.46173926 75.98207353 -56.92431641 67.70507812 C-60.68427394 48.71729256 -52.81982645 32.57289026 -42.63525391 17.16601562 C-32.97209059 3.93522873 -16.33741121 -6.98582253 0 0 Z " fill="#659DC7" transform="translate(251.47119140625,153.056640625)"/>
<path d="M0 0 C2.71941769 1.57333864 4.17553159 2.51383304 6 5 C6.92664774 9.20087307 6.78986141 13.3664219 6.73257446 17.65309143 C6.7389623 18.95407255 6.74535014 20.25505366 6.75193155 21.59545845 C6.76892073 25.2058257 6.74860582 28.81517094 6.72230053 32.42544687 C6.70049882 36.32014354 6.7133783 40.21474056 6.72221375 44.10946655 C6.73294979 50.86150659 6.72218615 57.61323756 6.69731522 64.36523628 C6.66166247 74.14923925 6.66293315 83.93297319 6.67391305 93.71702241 C6.69112838 109.61957559 6.68451522 125.52201953 6.66015625 141.42456055 C6.65870461 142.37647417 6.65725298 143.3283878 6.65575735 144.30914729 C6.64984564 148.16478438 6.64389259 152.02042141 6.63788126 155.87605834 C6.62161883 166.45732621 6.61002671 177.03859704 6.60058594 187.61987305 C6.59973498 188.56607695 6.59888402 189.51228085 6.59800728 190.48715759 C6.58434977 206.31211669 6.58669702 222.1370436 6.59863508 237.96200317 C6.60509058 247.70878494 6.59637903 257.45533206 6.56755053 267.20207464 C6.54853372 273.89741657 6.54357271 280.59267524 6.54924347 287.28804142 C6.5519632 291.14070375 6.54829502 294.99306616 6.5265522 298.84567451 C6.3558389 330.60002255 9.97236549 356.6145385 32.58203125 380.6640625 C51.39507515 398.83886097 73.85632351 404.46808431 99.33203125 404.20703125 C121.27730661 403.71111001 141.64234604 393.51565452 157 378 C157.33 377.34 157.66 376.68 158 376 C158.66 376 159.32 376 160 376 C160.25265625 375.45988281 160.5053125 374.91976563 160.765625 374.36328125 C162.25443975 371.51286061 163.99913029 368.88506088 165.75 366.1875 C176.27915268 349.44933934 180.14254381 331.46940164 180.15821838 311.88952637 C180.16315636 310.57595421 180.16809434 309.26238206 180.17318195 307.90900469 C180.18669939 304.27857896 180.19416277 300.64816255 180.20060861 297.01771832 C180.20864081 293.0968842 180.22232881 289.17606927 180.23532104 285.25524902 C180.25704391 278.4673269 180.27520365 271.6794028 180.29092598 264.89146423 C180.31366285 255.07731032 180.34180033 245.26317771 180.37124526 235.4490419 C180.41887443 219.52528214 180.46215125 203.60151366 180.50268555 187.67773438 C180.54206428 172.21158164 180.58349619 156.74543665 180.62768555 141.27929688 C180.63177196 139.84869168 180.63177196 139.84869168 180.63594092 138.38918537 C180.64962079 133.60444755 180.66334098 128.81970984 180.67708123 124.03497219 C180.79097255 84.35666425 180.8977981 44.67833967 181 5 C182.98 5.99 184.96 6.98 187 8 C187.09163961 49.40251759 187.16208139 90.80502345 187.20426132 132.20762244 C187.20926389 137.10024781 187.21444121 141.99287298 187.21972656 146.88549805 C187.2207758 147.85949442 187.22182505 148.83349079 187.22290608 149.83700221 C187.24029135 165.58905809 187.27181866 181.34105533 187.30861118 197.09307647 C187.34607294 213.26701274 187.36824691 229.44091837 187.37635398 245.61489624 C187.38183091 255.58782383 187.39910292 265.56058563 187.43166587 275.53346216 C187.45287843 282.38066004 187.45918485 289.22777274 187.45400551 296.07500107 C187.45145417 300.02016702 187.4552482 303.96504412 187.4768219 307.91015816 C187.49648366 311.53237272 187.49714517 315.15410796 187.48359558 318.77634596 C187.48114146 320.68598417 187.49821678 322.59561791 187.51632524 324.50517184 C187.35414948 348.30834544 176.15529115 369.07540927 160 386 C159.46117187 386.61359375 158.92234375 387.2271875 158.3671875 387.859375 C143.45604748 404.1941917 119.96380179 412.17635187 98.46484375 413.37890625 C71.70104708 414.25318872 48.04311445 405.34796597 28.09375 387.3828125 C12.12475075 372.41346144 0.32272673 351.09788007 -0.49219131 328.90684605 C-0.50870504 326.41805699 -0.50396495 323.92906093 -0.48101807 321.44032288 C-0.48276788 320.04144096 -0.48628026 318.64256035 -0.49137473 317.24368662 C-0.50021841 313.446475 -0.48445978 309.64972415 -0.46426249 305.85257113 C-0.4468466 301.74032337 -0.45284409 297.62809767 -0.45587158 293.51582336 C-0.45796009 286.40656026 -0.44550375 279.297445 -0.42292023 272.18821907 C-0.3902905 261.90973661 -0.37998204 251.631325 -0.37496826 241.35279637 C-0.36623275 224.67306405 -0.33966468 207.99341037 -0.30175781 191.3137207 C-0.26499246 175.11938874 -0.23670289 158.92507821 -0.21972656 142.73071289 C-0.21867567 141.73102323 -0.21762477 140.73133357 -0.21654204 139.70135028 C-0.21132155 134.68576199 -0.2062668 129.67017355 -0.20129442 124.654585 C-0.15988673 83.10300199 -0.08948602 41.55150552 0 0 Z " fill="#A5BCDE" transform="translate(67,254)"/>
<path d="M0 0 C6.49137806 5.28733213 10.03591434 10.47112506 11.046875 18.84765625 C10.34281387 24.27898499 8.34612299 29.16097365 4.609375 33.22265625 C3.949375 33.22265625 3.289375 33.22265625 2.609375 33.22265625 C2.279375 34.21265625 1.949375 35.20265625 1.609375 36.22265625 C-6.25986996 42.90438939 -15.64367827 45.5930452 -25.390625 48.22265625 C-26.00462158 48.40223877 -26.61861816 48.58182129 -27.2512207 48.7668457 C-45.55044128 52.66558413 -66.5537236 49.37486561 -82.60546875 40.0859375 C-88.58870889 36.08312467 -93.48473665 31.247271 -96.078125 24.41015625 C-97.09601571 17.28492128 -96.68126333 12.10569644 -92.390625 6.22265625 C-70.55220443 -17.52861868 -25.43234953 -18.90803764 0 0 Z " fill="#507FA1" transform="translate(203.390625,51.77734375)"/>
<path d="M0 0 C6.82150269 2.82842794 11.33923652 7.05348414 14.9375 13.4375 C19.05816129 26.88796043 15.31641813 41.09476842 9.390625 53.3203125 C1.59591763 67.30072801 -8.93643623 79.86299254 -24 86 C-29.445 86.99 -29.445 86.99 -35 88 C-35.33 192.61 -35.66 297.22 -36 405 C-36.33 405 -36.66 405 -37 405 C-37 299.73 -37 194.46 -37 86 C-38.65 85.34 -40.3 84.68 -42 84 C-47.80296026 78.19703974 -50.1409901 72.46103628 -50.3125 64.25 C-49.6585818 43.37693107 -40.87036749 26.45797557 -26 12 C-17.75031314 5.27896874 -10.78523912 1.33967924 0 2 C0 1.34 0 0.68 0 0 Z " fill="#2A5D86" transform="translate(291,176)"/>
<path d="M0 0 C0.66 0 1.32 0 2 0 C2.01401855 1.10287354 2.01401855 1.10287354 2.02832031 2.22802734 C2.08253278 5.61099149 2.16607971 8.9926475 2.25 12.375 C2.26417969 13.53128906 2.27835938 14.68757813 2.29296875 15.87890625 C2.59629024 26.61648708 5.2196753 36.23484162 13 44 C37.32673494 63.65245347 68.60129482 69.9082653 99.33154297 66.76123047 C103.95580401 66.11876619 108.46039744 65.09120519 113 64 C114.32356555 63.7272792 115.64780232 63.45779779 116.97265625 63.19140625 C129.59226131 60.52031516 141.68037581 55.40847241 151.6171875 47.03125 C153 46 153 46 155 46 C155.3403125 45.195625 155.3403125 45.195625 155.6875 44.375 C157 42 157 42 159.4375 39.1875 C164.52874623 33.24020352 166.00424936 26.32476567 166.31640625 18.69921875 C166.35830078 17.72275391 166.40019531 16.74628906 166.44335938 15.74023438 C166.48267578 14.73283203 166.52199219 13.72542969 166.5625 12.6875 C166.62727539 11.14739258 166.62727539 11.14739258 166.69335938 9.57617188 C166.79906825 7.05090431 166.90116468 4.52554438 167 2 C168.32 2 169.64 2 171 2 C172.4140625 3.57421875 172.4140625 3.57421875 173.625 5.6875 C174.02976563 6.37199219 174.43453125 7.05648437 174.8515625 7.76171875 C179.23501315 16.30497462 179.55870434 26.32408061 177.01953125 35.5703125 C175.82898302 38.49356632 174.52274323 41.23699345 173 44 C172.401875 45.093125 171.80375 46.18625 171.1875 47.3125 C168.15148167 51.04246538 164.7488063 54.00227265 161 57 C160.00806641 57.83337891 160.00806641 57.83337891 158.99609375 58.68359375 C132.26035348 79.3930312 93.96148442 81.71159631 61.578125 78.57421875 C39.5436712 75.70598402 14.40301699 66.44610964 -0.34765625 49.265625 C-8.24427456 38.88966918 -10.04422205 31.12333115 -9 18 C-7.86549049 12.1959151 -5.51706947 7.76506187 -2 3 C-1.34 2.01 -0.68 1.02 0 0 Z " fill="#659DC6" transform="translate(76,83)"/>
<path d="M0 0 C6 5 6 5 6.74519098 7.70490199 C6.74291266 8.69027625 6.74063433 9.67565051 6.73828697 10.69088459 C6.75023326 11.83294339 6.76217955 12.9750022 6.77448785 14.15166885 C6.7570108 15.40166284 6.73953376 16.65165682 6.7215271 17.93952942 C6.72414395 19.28441224 6.72939818 20.62929208 6.7370621 21.9741556 C6.75048284 25.66876229 6.72647487 29.362326 6.69639373 33.05679977 C6.67049578 37.04107048 6.67925026 41.02528184 6.68380737 45.00961304 C6.68695433 51.91232566 6.66812099 58.81469815 6.63438034 65.71732521 C6.58562899 75.69731889 6.56999281 85.67714801 6.56245239 95.65724786 C6.54931886 111.84898441 6.5093845 128.04053964 6.45263672 144.23217773 C6.39756712 159.96133517 6.35509435 175.69044337 6.32958984 191.41967773 C6.3280135 192.38913768 6.32643716 193.35859763 6.32481305 194.35743514 C6.31698286 199.22090482 6.3094006 204.08437484 6.30194163 208.9478451 C6.23973583 249.29868953 6.13405212 289.6493344 6 330 C4.68 329.67 3.36 329.34 2 329 C2 328.34 2 327.68 2 327 C1.34 327 0.68 327 0 327 C0 219.09 0 111.18 0 0 Z " fill="#B3CAED" transform="translate(67,254)"/>
<path d="M0 0 C3.98769644 2.07692523 5.92892702 4.72818135 7.4921875 8.96875 C10.08977217 19.35908869 6.38873614 30.20807084 1.25 39.25 C-4.77865461 48.54228718 -11.32255532 55.44085177 -22 59 C-26.15286777 59.39177998 -28.48969587 59.25515206 -32.25 57.375 C-36.24355667 53.92601924 -37.76992934 51.39337398 -38.28125 46.07421875 C-38.67013961 32.28484121 -34.04032266 20.3673425 -25 10 C-17.46249286 2.46249286 -10.93416324 -1.46901735 0 0 Z " fill="#F78435" transform="translate(289,191)"/>
<path d="M0 0 C1.98 0.99 3.96 1.98 6 3 C6 107.28 6 211.56 6 319 C5.34 319.33 4.68 319.66 4 320 C2.68 319.34 1.36 318.68 0 318 C0 213.06 0 108.12 0 0 Z " fill="#B1CBED" transform="translate(248,259)"/>
<path d="M0 0 C5.30817755 4.32359623 8.83154297 8.5317614 10.609375 15.22265625 C10.92131951 19.09076815 10.83046311 21.55939192 9.609375 25.22265625 C8.949375 25.22265625 8.289375 25.22265625 7.609375 25.22265625 C6.72772641 24.04911049 5.90428073 22.83160875 5.109375 21.59765625 C1.44699809 16.56633263 -2.88538876 13.97527437 -8.390625 11.22265625 C-9.53144531 10.65224609 -9.53144531 10.65224609 -10.6953125 10.0703125 C-29.15903768 1.83312871 -51.81039824 1.99330678 -70.77734375 8.359375 C-80.72660988 12.31661134 -87.71329589 16.8133949 -94.390625 25.22265625 C-96.89575694 21.46495834 -96.98451559 18.5674348 -96.390625 14.22265625 C-94.0889892 5.87100636 -86.9729055 0.16319612 -79.9375 -4.3515625 C-56.65133541 -16.85848639 -21.36422126 -15.88353051 0 0 Z " fill="#295E87" transform="translate(203.390625,51.77734375)"/>
<path d="M0 0 C2.11759163 3.48779798 2.11759163 3.48779798 1.59375 5.76953125 C1.3978125 6.50558594 1.201875 7.24164063 1 8 C0.12185697 15.70814435 -0.0925228 23.37385992 0.0625 31.125 C0.00261281 33.87981061 -0.37025214 36.3235716 -1 39 C-0.29875 39.103125 0.4025 39.20625 1.125 39.3125 C4 40 4 40 6.75 41.5625 C12.33854586 44.03435682 17.55788733 43.7300077 23.25 41.625 C25.44263127 40.71755458 27.55360094 39.72963675 29.6875 38.6875 C32.74553339 37.77835494 34.22557788 38.57315434 37 40 C28.58791477 51.14032908 20.02885873 53.99381599 6 57 C5.67 161.61 5.34 266.22 5 374 C4.67 374 4.34 374 4 374 C4 268.73 4 163.46 4 55 C2.35 54.34 0.7 53.68 -1 53 C-6.80296026 47.19703974 -9.1409901 41.46103628 -9.3125 33.25 C-8.99769791 23.20151715 -7.65841291 7.65841291 0 0 Z " fill="#3E6A93" transform="translate(250,207)"/>
<path d="M0 0 C2.58455285 1.89533875 2.96275506 2.88826517 4 6 C4.83938168 14.26997357 3.80769677 21.95338099 -1.30859375 28.734375 C-2.625 30.125 -2.625 30.125 -5 32 C-5.66 32 -6.32 32 -7 32 C-7.226875 32.598125 -7.45375 33.19625 -7.6875 33.8125 C-9.46043098 36.76738497 -10.81574678 37.64499863 -14 39 C-17.01849924 39.23803601 -19.97946367 39.17767861 -23 39 C-27.2079186 33.51695456 -27.57874985 29.24285224 -26.80078125 22.421875 C-24.7551011 13.68033446 -19.55342988 5.90790492 -12 1 C-7.78312235 -1.42470465 -4.69061503 -1.12922214 0 0 Z " fill="#F06715" transform="translate(285,201)"/>
<path d="M0 0 C3.51899562 1.34984374 6.91763668 2.88603882 10.31665039 4.51318359 C22.4633571 10.32041072 32.85750439 13.03052114 46.375 13.5625 C47.39722656 13.60568359 48.41945312 13.64886719 49.47265625 13.69335938 C51.98165288 13.79887792 54.49073943 13.90099213 57 14 C57 14.33 57 14.66 57 15 C49.08 15.495 49.08 15.495 41 16 C41.66 17.32 42.32 18.64 43 20 C45.82517725 20.46588547 48.29079561 20.69615501 51.125 20.75 C52.25615234 20.79447266 52.25615234 20.79447266 53.41015625 20.83984375 C55.27285953 20.91057932 57.13643755 20.95754983 59 21 C59 21.33 59 21.66 59 22 C35.73437443 22.82599854 15.69453618 19.25821939 -4 6 C-5.37048902 4.70488788 -6.7175093 3.38230719 -8 2 C-7.05125 2.04125 -6.1025 2.0825 -5.125 2.125 C-1.89755144 2.34973818 -1.89755144 2.34973818 0 0 Z " fill="#9FB6D9" transform="translate(111,645)"/>
<path d="M0 0 C3.98812132 2.07714652 5.8951106 4.7200922 7.50390625 8.9375 C8.83195385 14.45883177 8.45676991 20.53711285 7 26 C6.67 26 6.34 26 6 26 C5.97421875 24.89140625 5.9484375 23.7828125 5.921875 22.640625 C5.86558344 21.17704453 5.80823633 19.71350438 5.75 18.25 C5.73582031 17.52039063 5.72164063 16.79078125 5.70703125 16.0390625 C5.54044848 12.37424151 5.30064035 10.36948928 2.953125 7.484375 C2.30859375 6.99453125 1.6640625 6.5046875 1 6 C1 6.99 1 7.98 1 9 C0.34 9 -0.32 9 -1 9 C-1 9.66 -1 10.32 -1 11 C-1.97839844 10.83951172 -1.97839844 10.83951172 -2.9765625 10.67578125 C-10.05790834 9.7044462 -13.57506631 10.5300959 -19.4375 14.7578125 C-26.21200732 20.6855064 -29.69003652 29.26691014 -31 38 C-31.33 38 -31.66 38 -32 38 C-31.67 33.71 -31.34 29.42 -31 25 C-31.99 25.33 -32.98 25.66 -34 26 C-31.88499584 14.95497828 -23.11789668 7.21455104 -14.1875 1.0625 C-9.42887117 -0.52370961 -4.96185049 -0.6666303 0 0 Z " fill="#EB863F" transform="translate(289,191)"/>
<path d="M0 0 C0.66 0 1.32 0 2 0 C4.84387292 5.30856278 6.98978938 10.03975735 8 16 C7.34 16.99 6.68 17.98 6 19 C6 19.99 6 20.98 6 22 C6.99 22 7.98 22 9 22 C10.43040196 24.86080392 10.27539503 26.81220819 10 30 C8.9019983 32.43271546 7.81228675 34.55311686 6.4375 36.8125 C6.07978516 37.41980957 5.72207031 38.02711914 5.35351562 38.65283203 C2.29366673 43.74583449 -1.15996046 48.46395329 -5 53 C-6.051875 52.773125 -7.10375 52.54625 -8.1875 52.3125 C-12.57034323 51.95325056 -13.47134862 52.61816032 -17 55 C-22.45564828 56.99340995 -27.27974992 57.23347959 -33 57 C-33 56.67 -33 56.34 -33 56 C-32.38253906 55.91363281 -31.76507813 55.82726562 -31.12890625 55.73828125 C-20.46355941 53.96884015 -13.39432663 49.7307152 -7 41 C-0.25457229 31.53045726 4.74697833 19.8272441 3 8 C2.19528589 5.18120142 1.19548811 2.68984825 0 0 Z " fill="#3C5872" transform="translate(293,194)"/>
<path d="M0 0 C1.90845703 0.04060547 1.90845703 0.04060547 3.85546875 0.08203125 C5.31919922 0.13423828 5.31919922 0.13423828 6.8125 0.1875 C7.4725 2.1675 8.1325 4.1475 8.8125 6.1875 C7.98105469 5.70796875 7.98105469 5.70796875 7.1328125 5.21875 C2.79304435 3.28996415 -1.550675 3.49874085 -6.1875 4.1875 C-13.47490961 7.06021799 -18.53706019 12.02847247 -23.1875 18.1875 C-23.909375 19.13625 -24.63125 20.085 -25.375 21.0625 C-31.1911232 31.09029862 -32.9859302 40.66107125 -32.1875 52.1875 C-30.57959652 57.01121045 -28.31862136 59.28454986 -24.1875 62.1875 C-28.9375 61.4375 -28.9375 61.4375 -31.1875 59.1875 C-33.75811311 58.53982207 -33.75811311 58.53982207 -36.1875 58.1875 C-36.0225 57.445 -35.8575 56.7025 -35.6875 55.9375 C-35.25962825 52.7284619 -35.15334392 49.8484798 -35.1875 46.625 C-35.32036648 31.42127838 -35.32036648 31.42127838 -33.65234375 25.1875 C-33.05769754 23.06022014 -33.05769754 23.06022014 -33.36328125 20.3046875 C-33.13683304 16.28900585 -31.77364794 14.50205348 -29.375 11.3125 C-28.66730469 10.34570312 -27.95960938 9.37890625 -27.23046875 8.3828125 C-26.55628906 7.65835938 -25.88210938 6.93390625 -25.1875 6.1875 C-24.1975 6.1875 -23.2075 6.1875 -22.1875 6.1875 C-21.8575 6.8475 -21.5275 7.5075 -21.1875 8.1875 C-19.8675 8.1875 -18.5475 8.1875 -17.1875 8.1875 C-16.8575 7.1975 -16.5275 6.2075 -16.1875 5.1875 C-14.19632592 4.49491771 -12.1953864 3.83002365 -10.1875 3.1875 C-9.77628906 2.67574219 -9.36507813 2.16398438 -8.94140625 1.63671875 C-6.15777899 -0.66333852 -3.52030464 -0.09688912 0 0 Z " fill="#2C5D84" transform="translate(284.1875,187.8125)"/>
<path d="M0 0 C-0.24278205 10.57205454 -3.85176245 17.35737868 -11.3515625 24.6875 C-13 26 -13 26 -16 27 C-16.14439014 17.67652228 -12.5940656 9.9786367 -6.2734375 3.12890625 C-2.67475212 0 -2.67475212 0 0 0 Z " fill="#2E302D" transform="translate(274,203)"/>
<path d="M0 0 C0 3 0 3 -2 5.1875 C-2.66 5.785625 -3.32 6.38375 -4 7 C-3.01 7.33 -2.02 7.66 -1 8 C-1.49628906 8.36609375 -1.99257813 8.7321875 -2.50390625 9.109375 C-11.21176344 16.04922323 -16.35174404 25.01162697 -18 36 C-18.33 36 -18.66 36 -19 36 C-18.67 31.71 -18.34 27.42 -18 23 C-18.99 23.33 -19.98 23.66 -21 24 C-19.08921462 14.02145413 -11.81631591 7.03743022 -4 1 C-2 0 -2 0 0 0 Z " fill="#E58845" transform="translate(276,193)"/>
<path d="M0 0 C3.875 1.75 3.875 1.75 5 4 C5.76573433 14.85836389 5.15563695 22.76654458 -1 32 C-1.66 32 -2.32 32 -3 32 C-3.33 32.66 -3.66 33.32 -4 34 C-5.22851757 29.42097997 -4.74971109 27.25771916 -2.7109375 23.05859375 C-0.65055584 17.09254356 -1.44517167 10.63894381 -4 5 C-3.34 5 -2.68 5 -2 5 C-2 4.34 -2 3.68 -2 3 C-1.34 3 -0.68 3 0 3 C0 2.01 0 1.02 0 0 Z " fill="#FB8330" transform="translate(290,197)"/>
<path d="M0 0 C16.335 0.99 16.335 0.99 33 2 C33 2.33 33 2.66 33 3 C25.08 3.495 25.08 3.495 17 4 C17.66 5.32 18.32 6.64 19 8 C21.82517725 8.46588547 24.29079561 8.69615501 27.125 8.75 C27.87910156 8.77964844 28.63320312 8.80929687 29.41015625 8.83984375 C31.27285953 8.91057932 33.13643755 8.95754983 35 9 C35 9.33 35 9.66 35 10 C21.3474273 10.48470672 9.19478389 9.60882978 -4 6 C-3.34 5.67 -2.68 5.34 -2 5 C-1.34 3.35 -0.68 1.7 0 0 Z " fill="#97AECF" transform="translate(135,657)"/>
<path d="M0 0 C1.8253125 0.0309375 1.8253125 0.0309375 3.6875 0.0625 C3.6875 1.0525 3.6875 2.0425 3.6875 3.0625 C-2.10059025 8.68521624 -8.02901333 8.2029383 -15.625 8.125 C-16.87893555 8.11823242 -16.87893555 8.11823242 -18.15820312 8.11132812 C-20.20966649 8.09960548 -22.26109273 8.08167203 -24.3125 8.0625 C-24.3125 7.0725 -24.3125 6.0825 -24.3125 5.0625 C-25.3025 4.4025 -26.2925 3.7425 -27.3125 3.0625 C-24.22198188 1.51724094 -20.89940833 1.7259622 -17.5 1.5625 C-11.62952642 1.27561713 -5.84403251 -0.0990514 0 0 Z " fill="#B2C9EA" transform="translate(177.3125,657.9375)"/>
<path d="M0 0 C1.01405257 1.32267727 2.01268258 2.65724831 3 4 C3.99 4.66 4.98 5.32 6 6 C-3.57211852 10.14682532 -12.74635762 12.38100384 -23 14 C-23 13.34 -23 12.68 -23 12 C-22.0925 11.7525 -21.185 11.505 -20.25 11.25 C-16.89648511 9.96018658 -15.32291764 8.68028958 -13 6 C-13.33 5.34 -13.66 4.68 -14 4 C-12.0429132 3.32968281 -10.08428887 2.66385317 -8.125 2 C-7.03445312 1.62875 -5.94390625 1.2575 -4.8203125 0.875 C-2 0 -2 0 0 0 Z " fill="#A3BADC" transform="translate(194,653)"/>
<path d="M0 0 C0.33 0 0.66 0 1 0 C2.40913826 5.63655304 1.73956036 8.44153116 -1.08984375 13.49609375 C-1.39019531 13.99238281 -1.69054687 14.48867187 -2 15 C-2.66 15 -3.32 15 -4 15 C-3.67 15.99 -3.34 16.98 -3 18 C-3.886875 17.773125 -4.77375 17.54625 -5.6875 17.3125 C-9.70979194 16.9330385 -10.69702271 17.82486861 -14 20 C-19.45564828 21.99340995 -24.27974992 22.23347959 -30 22 C-30 21.67 -30 21.34 -30 21 C-29.38253906 20.91363281 -28.76507813 20.82726562 -28.12890625 20.73828125 C-17.39864118 18.95806985 -10.52031866 14.68811292 -4 6 C-2.62535748 4.02369024 -1.31217732 2.01873434 0 0 Z " fill="#3A5A76" transform="translate(290,229)"/>
<path d="M0 0 C1.90845703 0.04060547 1.90845703 0.04060547 3.85546875 0.08203125 C5.31919922 0.13423828 5.31919922 0.13423828 6.8125 0.1875 C7.4725 2.1675 8.1325 4.1475 8.8125 6.1875 C7.98105469 5.70796875 7.98105469 5.70796875 7.1328125 5.21875 C2.79304435 3.28996415 -1.550675 3.49874085 -6.1875 4.1875 C-15.96284659 8.04096996 -23.66571023 16.70369675 -28.09375 26.11328125 C-28.8206065 27.79245438 -29.5079522 29.4886305 -30.1875 31.1875 C-30.5175 31.1875 -30.8475 31.1875 -31.1875 31.1875 C-31.1875 29.2075 -31.1875 27.2275 -31.1875 25.1875 C-30.5275 25.1875 -29.8675 25.1875 -29.1875 25.1875 C-28.94 24.48625 -28.6925 23.785 -28.4375 23.0625 C-27.1875 20.1875 -27.1875 20.1875 -25.125 17.125 C-23.08910253 14.44430202 -23.08910253 14.44430202 -22.75 11.9375 C-22.564375 11.36 -22.37875 10.7825 -22.1875 10.1875 C-20.53545544 9.48538106 -18.86826231 8.81778587 -17.1875 8.1875 C-16.8575 7.1975 -16.5275 6.2075 -16.1875 5.1875 C-14.19632592 4.49491771 -12.1953864 3.83002365 -10.1875 3.1875 C-9.77628906 2.67574219 -9.36507813 2.16398438 -8.94140625 1.63671875 C-6.15777899 -0.66333852 -3.52030464 -0.09688912 0 0 Z " fill="#4E5962" transform="translate(284.1875,187.8125)"/>
<path d="M0 0 C0.66 0 1.32 0 2 0 C1.96519531 1.2684375 1.96519531 1.2684375 1.9296875 2.5625 C1.73960248 10.12962442 1.73960248 10.12962442 3.1875 17.5 C4 21 4 21 2.625 24 C2.08875 24.66 1.5525 25.32 1 26 C-0.32 25.67 -1.64 25.34 -3 25 C-3.08156437 22.14524694 -3.14076372 19.29286435 -3.1875 16.4375 C-3.21263672 15.63763672 -3.23777344 14.83777344 -3.26367188 14.01367188 C-3.33054885 8.55205195 -2.4909519 4.87075897 0 0 Z " fill="#FC8431" transform="translate(256,216)"/>
<path d="M0 0 C0.66 0 1.32 0 2 0 C3.4278115 4.77357875 2.86332116 8.40245757 1 13 C-1.76762517 17.20699227 -4.80015607 21.10883177 -8 25 C-8.66 24.67 -9.32 24.34 -10 24 C-10 23.34 -10 22.68 -10 22 C-9.54625 21.608125 -9.0925 21.21625 -8.625 20.8125 C-5.67138104 17.51807885 -5.05893666 13.38501158 -4.875 9.0625 C-4.91625 8.381875 -4.9575 7.70125 -5 7 C-4.01 6.67 -3.02 6.34 -2 6 C-1.855625 5.195625 -1.71125 4.39125 -1.5625 3.5625 C-1 1 -1 1 0 0 Z " fill="#2B5C85" transform="translate(296,222)"/>
<path d="M0 0 C0 3 0 3 -1.1875 5.3125 C-2.35238199 8.13999512 -2.35238199 8.13999512 -0.625 11.3125 C-0.08875 12.199375 0.4475 13.08625 1 14 C-0.65 15.65 -2.3 17.3 -4 19 C-7 18 -7 18 -8.75 15.1875 C-10.06245558 11.84073828 -10.29771256 11.18306854 -9 8 C-7.1875 6.11328125 -7.1875 6.11328125 -5 4.3125 C-4.278125 3.71050781 -3.55625 3.10851562 -2.8125 2.48828125 C-2.214375 1.99714844 -1.61625 1.50601563 -1 1 C-0.67 0.67 -0.34 0.34 0 0 Z " fill="#EF691D" transform="translate(268,221)"/>
<path d="M0 0 C0.99 0.33 1.98 0.66 3 1 C1.02 3.31 -0.96 5.62 -3 8 C-2.34 8.33 -1.68 8.66 -1 9 C-1.99 9 -2.98 9 -4 9 C-4.33 9.66 -4.66 10.32 -5 11 C-7.31 10.34 -9.62 9.68 -12 9 C-12.33 9.99 -12.66 10.98 -13 12 C-13.66 12.66 -14.32 13.32 -15 14 C-14.67 14.99 -14.34 15.98 -14 17 C-15.65 17 -17.3 17 -19 17 C-19.33 15.35 -19.66 13.7 -20 12 C-19.50072998 11.70754395 -19.00145996 11.41508789 -18.48706055 11.11376953 C-16.2199984 9.78510193 -13.95374197 8.45506602 -11.6875 7.125 C-10.90181641 6.66480469 -10.11613281 6.20460938 -9.30664062 5.73046875 C-8.1706543 5.06337891 -8.1706543 5.06337891 -7.01171875 4.3828125 C-6.31522217 3.97434082 -5.61872559 3.56586914 -4.90112305 3.14501953 C-3.2382901 2.14351876 -1.61512455 1.0767497 0 0 Z " fill="#B0C9E8" transform="translate(214,641)"/>
<path d="M0 0 C0.33 0 0.66 0 1 0 C1.38863565 2.12254855 1.76053209 4.24816828 2.125 6.375 C2.33382812 7.55835938 2.54265625 8.74171875 2.7578125 9.9609375 C2.83773437 10.96382812 2.91765625 11.96671875 3 13 C0.85279101 15.14720899 -0.07790143 15.5434221 -3 16 C-3.66 15.67 -4.32 15.34 -5 15 C-6.41904116 10.45906828 -6.09226843 5.7056901 -6 1 C-3.525 1.99 -3.525 1.99 -1 3 C-0.67 2.01 -0.34 1.02 0 0 Z " fill="#A3BCE0" transform="translate(73,580)"/>
<path d="M0 0 C0.433125 0.639375 0.86625 1.27875 1.3125 1.9375 C2.91239177 4.26746003 2.91239177 4.26746003 6 5 C7.3125 6.8125 7.3125 6.8125 8 9 C7.125 11.25 7.125 11.25 6 13 C5.34 12.67 4.68 12.34 4 12 C3.67 12.66 3.34 13.32 3 14 C4.65 14.33 6.3 14.66 8 15 C7.34 16.32 6.68 17.64 6 19 C2.63052458 15.96086531 0.69577825 12.93142307 -1.3125 8.875 C-1.84488281 7.82054687 -2.37726563 6.76609375 -2.92578125 5.6796875 C-3.28027344 4.79539062 -3.63476562 3.91109375 -4 3 C-3 1 -3 1 0 0 Z " fill="#A9C1E3" transform="translate(77,607)"/>
<path d="M0 0 C0 0.66 0 1.32 0 2 C0.66 2.33 1.32 2.66 2 3 C-11.8630137 13 -11.8630137 13 -16 13 C-16.66 11.68 -17.32 10.36 -18 9 C-16.4375 6.9375 -16.4375 6.9375 -14 5 C-10.25 5.25 -10.25 5.25 -7 6 C-6.54625 5.195625 -6.0925 4.39125 -5.625 3.5625 C-3.8605417 0.780085 -3.27864988 0 0 0 Z " fill="#A0B7D8" transform="translate(216,645)"/>
<path d="M0 0 C1.58583248 0.76567866 3.16856494 1.53777965 4.75 2.3125 C6.07257813 2.95638672 6.07257813 2.95638672 7.421875 3.61328125 C9.83539501 4.91146247 11.93439588 6.19983566 14 8 C14 8.66 14 9.32 14 10 C13.12988281 10.07347656 13.12988281 10.07347656 12.2421875 10.1484375 C7.56076908 10.59649405 3.42514541 11.298021 -1 13 C-1.33 12.34 -1.66 11.68 -2 11 C-1.525625 10.62875 -1.05125 10.2575 -0.5625 9.875 C1.52205802 7.37353038 1.64621491 5.18406582 2 2 C1.34 2 0.68 2 0 2 C0 1.34 0 0.68 0 0 Z " fill="#5E90BC" transform="translate(277,168)"/>
<path d="M0 0 C3.67033927 3.27708863 5.69281189 6.71522208 8 11 C6.68 12.32 5.36 13.64 4 15 C3.67 14.34 3.34 13.68 3 13 C0.97536745 12.34786708 0.97536745 12.34786708 -1 12 C-0.67 10.02 -0.34 8.04 0 6 C-1.32 5.67 -2.64 5.34 -4 5 C-3.67 4.01 -3.34 3.02 -3 2 C-2.34 2 -1.68 2 -1 2 C-0.67 1.34 -0.34 0.68 0 0 Z " fill="#ABC2E2" transform="translate(84,616)"/>
<path d="M0 0 C1 3 1 3 0.03125 5.6015625 C-4.02697424 13.61448485 -8.5275568 20.72309889 -15 27 C-15.66 26.67 -16.32 26.34 -17 26 C-16.175 25.154375 -15.35 24.30875 -14.5 23.4375 C-12.15985411 20.67546865 -11.99996114 19.99951809 -11.6875 16.125 C-11.790625 15.09375 -11.89375 14.0625 -12 13 C-9.35261084 11.5393715 -8.10551666 11 -5 11 C-4.72285156 10.37351563 -4.44570313 9.74703125 -4.16015625 9.1015625 C-3.61681641 7.87566406 -3.61681641 7.87566406 -3.0625 6.625 C-2.70285156 5.81289062 -2.34320313 5.00078125 -1.97265625 4.1640625 C-1.3430097 2.76316215 -0.68687358 1.37374716 0 0 Z " fill="#E48948" transform="translate(294,217)"/>
<path d="M0 0 C0.99 0.33 1.98 0.66 3 1 C2.154375 1.5775 1.30875 2.155 0.4375 2.75 C-6.7904712 8.79333934 -10.6327669 17.88511266 -12 27 C-12.33 27 -12.66 27 -13 27 C-12.67 22.71 -12.34 18.42 -12 14 C-12.99 14.33 -13.98 14.66 -15 15 C-13.375 8.25 -13.375 8.25 -10 6 C-10.33 7.98 -10.66 9.96 -11 12 C-10.34 12.33 -9.68 12.66 -9 13 C-9 12.01 -9 11.02 -9 10 C-8.34 10 -7.68 10 -7 10 C-6.8453125 8.576875 -6.8453125 8.576875 -6.6875 7.125 C-6 4 -6 4 -3 2 C-2.01 2 -1.02 2 0 2 C0 1.34 0 0.68 0 0 Z " fill="#D38953" transform="translate(270,202)"/>
<path d="M0 0 C0.99 0.33 1.98 0.66 3 1 C2.32677864 4.81492106 1.50985369 8.42403074 0 12 C-2.0625 13.1875 -2.0625 13.1875 -4 14 C-4.33 14.99 -4.66 15.98 -5 17 C-5.66 17 -6.32 17 -7 17 C-6.67 14.36 -6.34 11.72 -6 9 C-5.34 9 -4.68 9 -4 9 C-3.896875 8.2575 -3.79375 7.515 -3.6875 6.75 C-2.95746496 3.82985982 -1.93210602 2.26812446 0 0 Z " fill="#09324A" transform="translate(268,208)"/>
<path d="M0 0 C1.125 3.75 1.125 3.75 0 6 C-0.15004973 7.3734635 -0.24838006 8.7528526 -0.31640625 10.1328125 C-0.35830078 10.93847656 -0.40019531 11.74414062 -0.44335938 12.57421875 C-0.50233398 13.83685547 -0.50233398 13.83685547 -0.5625 15.125 C-0.60568359 15.97449219 -0.64886719 16.82398438 -0.69335938 17.69921875 C-0.79954236 19.79928223 -0.90028497 21.89961948 -1 24 C-0.34 24 0.32 24 1 24 C3 27 3 27 3 30 C4.66666667 30.33333333 6.33333333 30.66666667 8 31 C9.66666667 31.33333333 11.33333333 31.66666667 13 32 C13 32.33 13 32.66 13 33 C8.90446218 33.32764303 6.46139337 33.23069669 2.75 31.375 C-1.24355667 27.92601924 -2.76992934 25.39337398 -3.28125 20.07421875 C-3.48431557 12.87385221 -2.55185594 6.72900109 0 0 Z " fill="#D18B5D" transform="translate(254,217)"/>
<path d="M0 0 C0.66 0 1.32 0 2 0 C1.835 1.051875 1.67 2.10375 1.5 3.1875 C-0.19301944 15.678919 -0.19301944 15.678919 4 27 C6.55139853 29.34325664 6.55139853 29.34325664 9 31 C4.25 30.25 4.25 30.25 2 28 C-0.57061311 27.35232207 -0.57061311 27.35232207 -3 27 C-2.835 26.2575 -2.67 25.515 -2.5 24.75 C-2.05985769 21.44893271 -1.99896784 18.50387855 -2.0625 15.1875 C-2.12310887 9.79331043 -1.38727038 5.20226391 0 0 Z " fill="#4C5862" transform="translate(251,219)"/>
<path d="M0 0 C0 0.66 0 1.32 0 2 C-0.99 2 -1.98 2 -3 2 C-3.33 4.64 -3.66 7.28 -4 10 C-4.33 9.01 -4.66 8.02 -5 7 C-5.66 7 -6.32 7 -7 7 C-7 8.32 -7 9.64 -7 11 C-7.66 11 -8.32 11 -9 11 C-9.0825 11.9075 -9.165 12.815 -9.25 13.75 C-10.09248732 17.40077839 -11.17881618 18.63384583 -14 21 C-12 15 -12 15 -10.875 12.0625 C-9.88352846 8.59234961 -9.85634904 5.591274 -10 2 C-6.49223216 0.39644899 -3.85645121 -0.22036864 0 0 Z " fill="#D66A29" transform="translate(283,200)"/>
<path d="M0 0 C1.32 0.33 2.64 0.66 4 1 C2.25 4.875 2.25 4.875 0 6 C0 7.32 0 8.64 0 10 C-0.99 10.495 -0.99 10.495 -2 11 C-2 11.99 -2 12.98 -2 14 C-4.31 13.67 -6.62 13.34 -9 13 C-7.5 10 -7.5 10 -6 7 C-5.34 7 -4.68 7 -4 7 C-3.71125 6.401875 -3.4225 5.80375 -3.125 5.1875 C-2 3 -2 3 0 0 Z " fill="#B2CAEA" transform="translate(231,623)"/>
<path d="M0 0 C0.33 0 0.66 0 1 0 C2.40913826 5.63655304 1.73956036 8.44153116 -1.08984375 13.49609375 C-1.39019531 13.99238281 -1.69054687 14.48867187 -2 15 C-3.32 14.34 -4.64 13.68 -6 13 C-4.7605743 7.83572624 -3.21011179 4.24563172 0 0 Z " fill="#2A5D82" transform="translate(290,229)"/>
<path d="M0 0 C1.01405257 1.32267727 2.01268258 2.65724831 3 4 C3.99 4.66 4.98 5.32 6 6 C4.5903653 6.70180531 3.17192359 7.38593958 1.75 8.0625 C0.96109375 8.44535156 0.1721875 8.82820312 -0.640625 9.22265625 C-3.25993522 10.08564091 -4.44855176 9.93045933 -7 9 C-6 6 -6 6 -3 4 C-3.33 3.01 -3.66 2.02 -4 1 C-2 0 -2 0 0 0 Z " fill="#A3B9DC" transform="translate(194,653)"/>
<path d="M0 0 C1.65 0 3.3 0 5 0 C6.32 3.63 7.64 7.26 9 11 C8.01 11.33 7.02 11.66 6 12 C5.34 10.68 4.68 9.36 4 8 C2.68 8 1.36 8 0 8 C0 5.36 0 2.72 0 0 Z " fill="#B1C9EB" transform="translate(73,600)"/>
<path d="M0 0 C7.40322581 6.03225806 7.40322581 6.03225806 9 10 C9 10.66 9 11.32 9 12 C8.01 12.33 7.02 12.66 6 13 C5.67 12.34 5.34 11.68 5 11 C3.68 10.67 2.36 10.34 1 10 C0.67 6.7 0.34 3.4 0 0 Z " fill="#7190A4" transform="translate(96,595)"/>
<path d="M0 0 C0.66 0.33 1.32 0.66 2 1 C1.33613281 1.556875 0.67226563 2.11375 -0.01171875 2.6875 C-7.74547814 9.37127454 -12.267478 15.57047074 -16 25 C-16.33 25 -16.66 25 -17 25 C-17 23.02 -17 21.04 -17 19 C-16.34 19 -15.68 19 -15 19 C-14.7525 18.29875 -14.505 17.5975 -14.25 16.875 C-13 14 -13 14 -10.9375 10.9375 C-8.88016612 8.27315845 -8.88016612 8.27315845 -8.6875 5.8125 C-8 4 -8 4 -4.5 2.3125 C-3.345 1.879375 -2.19 1.44625 -1 1 C-0.67 0.67 -0.34 0.34 0 0 Z " fill="#515760" transform="translate(270,194)"/>
<path d="M0 0 C3.3 0.99 6.6 1.98 10 3 C9.01 3.495 9.01 3.495 8 4 C7.27840576 5.64363134 6.60648579 7.31050386 6 9 C4.125 8.6875 4.125 8.6875 2 8 C0 5 0 5 0 0 Z " fill="#AFC7E7" transform="translate(127,653)"/>
<path d="M0 0 C3.40312738 1.05875074 6.01353231 2.00902154 9 4 C8.34 5.32 7.68 6.64 7 8 C4.03 7.505 4.03 7.505 1 7 C1 5.68 1 4.36 1 3 C0.01 2.67 -0.98 2.34 -2 2 C-1.34 2 -0.68 2 0 2 C0 1.34 0 0.68 0 0 Z " fill="#B2CBEB" transform="translate(102,640)"/>
<path d="M0 0 C0.12375 0.78375 0.2475 1.5675 0.375 2.375 C0.79117993 5.14057822 0.79117993 5.14057822 3 7 C3 7.66 3 8.32 3 9 C0.03 8.01 -2.94 7.02 -6 6 C-6 4.68 -6 3.36 -6 2 C-2.25 0 -2.25 0 0 0 Z " fill="#98B2D1" transform="translate(127,653)"/>
<path d="M0 0 C0.33 1.32 0.66 2.64 1 4 C0.34 4 -0.32 4 -1 4 C-1.33 6.64 -1.66 9.28 -2 12 C-1.01 12.33 -0.02 12.66 1 13 C-0.65 14.32 -2.3 15.64 -4 17 C-5.38318083 12.56394147 -4.48340828 9.30529414 -3 5 C-1.375 2 -1.375 2 0 0 Z " fill="#3C312A" transform="translate(263,213)"/>
<path d="M0 0 C0.66 0 1.32 0 2 0 C2 4.95 2 9.9 2 15 C1.34 14.67 0.68 14.34 0 14 C-0.625 11.4375 -0.625 11.4375 -1 9 C-1.33 10.98 -1.66 12.96 -2 15 C-2.33 15 -2.66 15 -3 15 C-3.3152595 9.01006953 -2.68219822 5.36439644 0 0 Z " fill="#F3883B" transform="translate(256,216)"/>
<path d="M0 0 C2 2 2 2 2 5 C1.34 5 0.68 5 0 5 C0 5.66 0 6.32 0 7 C-2.60582371 7.93065133 -3.64198224 8.14917407 -6.25 7.0625 C-6.8275 6.711875 -7.405 6.36125 -8 6 C-5.51047079 3.33264727 -3.36591866 1.44253657 0 0 Z " fill="#FA842E" transform="translate(278,194)"/>
<path d="M0 0 C1.2065625 0.0309375 1.2065625 0.0309375 2.4375 0.0625 C1.93227778 4.44109255 -0.74077222 6.87901224 -3.5625 10.0625 C-4.2225 8.7425 -4.8825 7.4225 -5.5625 6.0625 C-4.5725 6.0625 -3.5825 6.0625 -2.5625 6.0625 C-2.8409375 4.8559375 -2.8409375 4.8559375 -3.125 3.625 C-3.269375 2.779375 -3.41375 1.93375 -3.5625 1.0625 C-2.5625 0.0625 -2.5625 0.0625 0 0 Z " fill="#97AFD0" transform="translate(233.5625,626.9375)"/>
<path d="M0 0 C2.20192224 3.30288336 2.23959968 4.27462727 2.1953125 8.10546875 C2.18564453 9.57983398 2.18564453 9.57983398 2.17578125 11.08398438 C2.15902344 12.10814453 2.14226562 13.13230469 2.125 14.1875 C2.11597656 15.22326172 2.10695313 16.25902344 2.09765625 17.32617188 C2.0740786 19.88434685 2.0411703 22.44205748 2 25 C1.67 25 1.34 25 1 25 C0.67 18.07 0.34 11.14 0 4 C-0.99 4.33 -1.98 4.66 -3 5 C-2.625 3.0625 -2.625 3.0625 -2 1 C-1.34 0.67 -0.68 0.34 0 0 Z " fill="#5B8EB6" transform="translate(65,172)"/>
<path d="M0 0 C0.66 0.33 1.32 0.66 2 1 C0.28865126 4.02002718 -0.85468088 4.94187235 -4.125 6.25 C-8.50477408 7.09769821 -12.559857 7.18123033 -17 7 C-17 6.67 -17 6.34 -17 6 C-16.03900391 5.85304687 -16.03900391 5.85304687 -15.05859375 5.703125 C-10.63312783 4.93806681 -6.86325538 4.17292453 -3 1.8125 C-2.01 1.214375 -1.02 0.61625 0 0 Z " fill="#515760" transform="translate(277,244)"/>
<path d="M0 0 C3.98448707 0.05228986 5.41507234 0.204065 8.875 2.375 C9.7721875 3.365 9.7721875 3.365 10.6875 4.375 C10.3575 5.035 10.0275 5.695 9.6875 6.375 C8.3675 5.715 7.0475 5.055 5.6875 4.375 C5.6875 3.715 5.6875 3.055 5.6875 2.375 C1.3975 2.375 -2.8925 2.375 -7.3125 2.375 C-4.73850489 -0.19899511 -3.57680716 0.04840064 0 0 Z " fill="#CA8C60" transform="translate(283.3125,190.625)"/>
<path d="M0 0 C0 0.66 0 1.32 0 2 C0.66 2.33 1.32 2.66 2 3 C-0.31 4.65 -2.62 6.3 -5 8 C-6 5 -6 5 -5.1875 2.875 C-3.68508471 0.50276534 -2.80531948 0 0 0 Z " fill="#8DA0C6" transform="translate(216,645)"/>
<path d="M0 0 C0.33 0 0.66 0 1 0 C1.32712342 6.13053511 1.39366878 10.62669111 -2 16 C-2.33 16 -2.66 16 -3 16 C-2.855625 15.01 -2.71125 14.02 -2.5625 13 C-2.15860169 10.21253281 -1.8182336 7.42343513 -1.5 4.625 C-1 1 -1 1 0 0 Z " fill="#F1883D" transform="translate(294,207)"/>
<path d="M0 0 C2.12999997 3.79039366 2.16702456 6.65736138 2 11 C2.99 11.33 3.98 11.66 5 12 C5.625 14.375 5.625 14.375 6 17 C5.34 17.66 4.68 18.32 4 19 C0.75428718 12.79081025 0.33055741 6.94170563 0 0 Z " fill="#325E83" transform="translate(21,110)"/>
<path d="M0 0 C5.75 1.75 5.75 1.75 8 4 C5.69 4.66 3.38 5.32 1 6 C1 5.01 1 4.02 1 3 C0.01 2.67 -0.98 2.34 -2 2 C-1.34 1.34 -0.68 0.68 0 0 Z " fill="#ADC7E6" transform="translate(118,649)"/>
<path d="M0 0 C-0.5625 1.9375 -0.5625 1.9375 -2 4 C-5.625 4.75 -5.625 4.75 -9 5 C-9 4.01 -9 3.02 -9 2 C-3.375 -1.125 -3.375 -1.125 0 0 Z " fill="#708FA1" transform="translate(209,610)"/>
<path d="M0 0 C10.55808656 0.59453303 10.55808656 0.59453303 15 4 C11.21180727 5.43410153 8.93478721 4.51009497 5.25 3.0625 C3.77273437 2.49208984 3.77273437 2.49208984 2.265625 1.91015625 C1.51796875 1.60980469 0.7703125 1.30945313 0 1 C0 0.67 0 0.34 0 0 Z " fill="#63839A" transform="translate(99,274)"/>
<path d="M0 0 C1.3921875 0.0928125 1.3921875 0.0928125 2.8125 0.1875 C2.8125 0.5175 2.8125 0.8475 2.8125 1.1875 C1.1625 1.1875 -0.4875 1.1875 -2.1875 1.1875 C-2.1875 2.1775 -2.1875 3.1675 -2.1875 4.1875 C-5.4875 5.5075 -8.7875 6.8275 -12.1875 8.1875 C-12.1875 7.1975 -12.1875 6.2075 -12.1875 5.1875 C-11.259375 4.919375 -10.33125 4.65125 -9.375 4.375 C-6.22664106 3.47539995 -6.22664106 3.47539995 -4.6875 1.5625 C-3.1875 0.1875 -3.1875 0.1875 0 0 Z " fill="#3E5971" transform="translate(280.1875,187.8125)"/>
<path d="M0 0 C0.66 0.33 1.32 0.66 2 1 C0.37152555 4.25694891 -2.7782467 5.57863825 -6 7 C-7.65740715 7.37668344 -9.32345271 7.72057545 -11 8 C-7.71644638 4.32241995 -4.37221763 2.18610882 0 0 Z " fill="#4B7CA7" transform="translate(105,34)"/>
<path d="M0 0 C0.99 0 1.98 0 3 0 C3 0.66 3 1.32 3 2 C4.32 2 5.64 2 7 2 C6.67 3.65 6.34 5.3 6 7 C5.01 6.34 4.02 5.68 3 5 C0.88719655 4.36707617 0.88719655 4.36707617 -1 4 C-0.67 2.68 -0.34 1.36 0 0 Z " fill="#9BB8DA" transform="translate(244,597)"/>
<path d="M0 0 C1.32 1.32 2.64 2.64 4 4 C3.67 4.66 3.34 5.32 3 6 C0.69 5.67 -1.62 5.34 -4 5 C-3.67 4.01 -3.34 3.02 -3 2 C-2.34 2 -1.68 2 -1 2 C-0.67 1.34 -0.34 0.68 0 0 Z " fill="#B1C9EA" transform="translate(84,616)"/>
<path d="M0 0 C0 3.6952982 -0.72136847 5.11373339 -3 8 C-6.1875 8.8125 -6.1875 8.8125 -9 9 C-6 6 -3 3 0 0 Z " fill="#C66D38" transform="translate(268,221)"/>
<path d="M0 0 C1 3 1 3 -0.25 5.5625 C-2 8 -2 8 -5 10 C-4.49701212 5.59885603 -2.91227269 3.28804981 0 0 Z " fill="#456F95" transform="translate(38,70)"/>
<path d="M0 0 C2 3.75 2 3.75 2 6 C0.35 6 -1.3 6 -3 6 C-3.33 4.35 -3.66 2.7 -4 1 C-2.68 0.67 -1.36 0.34 0 0 Z " fill="#B3CAEC" transform="translate(198,652)"/>
<path d="M0 0 C0.33 0.66 0.66 1.32 1 2 C1.61875 1.79375 2.2375 1.5875 2.875 1.375 C3.57625 1.25125 4.2775 1.1275 5 1 C5.66 1.66 6.32 2.32 7 3 C4.69 4.32 2.38 5.64 0 7 C-0.93423645 3.98968256 -1.04449911 3.13349732 0 0 Z " fill="#D7F0F7" transform="translate(209,601)"/>
<path d="M0 0 C2.5 1.25 2.5 1.25 4.5 4.25 C1.53 4.25 -1.44 4.25 -4.5 4.25 C-3.84 3.59 -3.18 2.93 -2.5 2.25 C-3.16 1.59 -3.82 0.93 -4.5 0.25 C-2.5 -0.75 -2.5 -0.75 0 0 Z " fill="#6A90AD" transform="translate(149.5,281.75)"/>
<path d="M0 0 C0.66 0 1.32 0 2 0 C2.33 1.98 2.66 3.96 3 6 C1.68 6.33 0.36 6.66 -1 7 C-0.67 4.69 -0.34 2.38 0 0 Z " fill="#F2670E" transform="translate(262,231)"/>
<path d="M0 0 C2.31 0 4.62 0 7 0 C7 0.99 7 1.98 7 3 C4.69 3.33 2.38 3.66 0 4 C0 2.68 0 1.36 0 0 Z " fill="#B1C9EC" transform="translate(242,601)"/>
<path d="M0 0 C0.66 0.33 1.32 0.66 2 1 C-0.64 3.97 -3.28 6.94 -6 10 C-6.66 9.67 -7.32 9.34 -8 9 C-6.85459775 7.68712379 -5.70866567 6.37470979 -4.5625 5.0625 C-3.92441406 4.33160156 -3.28632813 3.60070312 -2.62890625 2.84765625 C-1.77458541 1.87860647 -0.91348825 0.91348825 0 0 Z " fill="#CA8A60" transform="translate(285,234)"/>
<path d="M0 0 C0.33 0 0.66 0 1 0 C1 3.63 1 7.26 1 11 C0.34 10.67 -0.32 10.34 -1 10 C-1.75 6.625 -1.75 6.625 -2 3 C-1.34 2.01 -0.68 1.02 0 0 Z " fill="#305A7B" transform="translate(248,228)"/>
<path d="M0 0 C0.66 0.33 1.32 0.66 2 1 C0.515 4.465 0.515 4.465 -1 8 C-3 5 -3 5 -2.75 2.875 C-2 1 -2 1 0 0 Z " fill="#8FA9D1" transform="translate(72,594)"/>
<path d="M0 0 C-3.35327639 2.23551759 -3.90743657 2.17283528 -7.6875 1.625 C-8.49574219 1.51414062 -9.30398437 1.40328125 -10.13671875 1.2890625 C-10.75160156 1.19367188 -11.36648437 1.09828125 -12 1 C-12 0.67 -12 0.34 -12 0 C-7.66726186 -0.92844389 -4.33273814 -0.92844389 0 0 Z " fill="#6084A0" transform="translate(175,284)"/>
<path d="M0 0 C1.32 0 2.64 0 4 0 C4 0.66 4 1.32 4 2 C0.46588679 4.12046792 -2.94393835 4.53199289 -7 5 C-7 4.34 -7 3.68 -7 3 C-5.5459375 2.5359375 -5.5459375 2.5359375 -4.0625 2.0625 C-1.15934208 1.30476658 -1.15934208 1.30476658 0 0 Z " fill="#8AA2C5" transform="translate(178,662)"/>
<path d="M0 0 C-3.18762365 2.12508244 -5.26512223 2.5020163 -9 3 C-8.67 2.01 -8.34 1.02 -8 0 C-5.13822943 -1.43088528 -3.06624227 -0.59991697 0 0 Z " fill="#7688B1" transform="translate(196,660)"/>
<path d="M0 0 C0.66 0 1.32 0 2 0 C2 0.66 2 1.32 2 2 C3.65 2.33 5.3 2.66 7 3 C6.34 4.32 5.68 5.64 5 7 C2.47411298 4.63707344 1.11179163 3.33537489 0 0 Z " fill="#849CBE" transform="translate(78,619)"/>
<path d="M0 0 C1.98 0.99 3.96 1.98 6 3 C5 5 5 5 3 5.6875 C2.34 5.790625 1.68 5.89375 1 6 C0 5 0 5 -0.0625 2.4375 C-0.041875 1.633125 -0.02125 0.82875 0 0 Z " fill="#B3CAF0" transform="translate(69,590)"/>
<path d="M0 0 C0.78375 0.04125 1.5675 0.0825 2.375 0.125 C2.375 1.115 2.375 2.105 2.375 3.125 C1.385 3.785 0.395 4.445 -0.625 5.125 C-0.625 4.465 -0.625 3.805 -0.625 3.125 C-1.945 2.795 -3.265 2.465 -4.625 2.125 C-2.625 0.125 -2.625 0.125 0 0 Z " fill="#718EA2" transform="translate(179.625,617.875)"/>
<path d="M0 0 C0.8125 1.6875 0.8125 1.6875 1 4 C-1.4375 6.75 -1.4375 6.75 -4 9 C-4 5.00095031 -2.27413033 3.19799578 0 0 Z " fill="#595A60" transform="translate(290,229)"/>
<path d="M0 0 C0.66 0 1.32 0 2 0 C2 0.66 2 1.32 2 2 C2.804375 2.12375 3.60875 2.2475 4.4375 2.375 C5.7059375 2.684375 5.7059375 2.684375 7 3 C7.33 3.66 7.66 4.32 8 5 C4.7 4.01 1.4 3.02 -2 2 C-1.34 1.34 -0.68 0.68 0 0 Z " fill="#D0EAF3" transform="translate(121,610)"/>
<path d="M0 0 C0.66 0.99 1.32 1.98 2 3 C1.01 3.33 0.02 3.66 -1 4 C-1.33 4.99 -1.66 5.98 -2 7 C-2.66 5.02 -3.32 3.04 -4 1 C-2.68 0.67 -1.36 0.34 0 0 Z " fill="#90A4C6" transform="translate(77,607)"/>
<path d="M0 0 C0.66 0.99 1.32 1.98 2 3 C1.2575 3.680625 1.2575 3.680625 0.5 4.375 C-1.22609337 5.87635519 -1.22609337 5.87635519 -1 8 C-2.32 7.34 -3.64 6.68 -5 6 C-3.35 4.02 -1.7 2.04 0 0 Z " fill="#7A98AA" transform="translate(224,594)"/>
<path d="M0 0 C4.455 0.99 4.455 0.99 9 2 C9 2.33 9 2.66 9 3 C6.03 3 3.06 3 0 3 C0 2.01 0 1.02 0 0 Z " fill="#567B99" transform="translate(141,282)"/>
<path d="M0 0 C2.01136276 2.55991624 3.62845496 5.04590299 5 8 C2.08482708 6.92598892 0.22189824 6.22189824 -2 4 C-1.34 4 -0.68 4 0 4 C0 2.68 0 1.36 0 0 Z " fill="#5F97C3" transform="translate(242,250)"/>
<path d="M0 0 C5.94 1.485 5.94 1.485 12 3 C12 3.33 12 3.66 12 4 C7.01137151 4.29344873 4.03770942 4.05887078 0 1 C0 0.67 0 0.34 0 0 Z " fill="#C3855C" transform="translate(255,246)"/>
<path d="M0 0 C1.4370809 -0.05422947 2.87475462 -0.09289723 4.3125 -0.125 C5.11300781 -0.14820313 5.91351563 -0.17140625 6.73828125 -0.1953125 C9 0 9 0 12 2 C9.69 2.33 7.38 2.66 5 3 C5 2.67 5 2.34 5 2 C3.35 1.67 1.7 1.34 0 1 C0 0.67 0 0.34 0 0 Z " fill="#396089" transform="translate(65,51)"/>
<path d="M0 0 C1.32 0.66 2.64 1.32 4 2 C2.35 3.32 0.7 4.64 -1 6 C-1.625 4.125 -1.625 4.125 -2 2 C-1.34 1.34 -0.68 0.68 0 0 Z " fill="#DCF4FC" transform="translate(219,595)"/>
<path d="M0 0 C1.3902439 4.17073171 1.3902439 4.17073171 0 7.125 C-0.33 7.74375 -0.66 8.3625 -1 9 C-2.1875 7.3125 -2.1875 7.3125 -3 5 C-1.625 2.25 -1.625 2.25 0 0 Z " fill="#2F658E" transform="translate(254,200)"/>
</svg>
