<?xml version="1.0" encoding="UTF-8"?>
<svg version="1.1" xmlns="http://www.w3.org/2000/svg" width="374" height="597">
<path d="M0 0 C7.77955851 6.68789225 13.60584554 13.69568849 14.66796875 24.23046875 C14.80715409 36.63188226 12.03609482 42.68109028 3.453125 51.5390625 C-0.66376343 56.11843747 -2.04349458 59.30276566 -2.0287323 65.4980011 C-2.03129557 66.1474745 -2.03385885 66.79694789 -2.0364998 67.4661023 C-2.04142669 69.63431399 -2.02496387 71.80182357 -2.00854492 73.9699707 C-2.00769841 75.5273385 -2.00817427 77.08470749 -2.00987244 78.64207458 C-2.01073287 82.86488942 -1.99309936 87.0874484 -1.97215056 91.31020379 C-1.95339179 95.72511513 -1.95163395 100.14003238 -1.94807434 104.55497742 C-1.93875153 112.91303573 -1.91413454 121.27097626 -1.88402587 129.62898272 C-1.85048923 139.14522506 -1.8339977 148.66147304 -1.81893957 158.17775977 C-1.7875852 177.75138474 -1.73482009 197.3249037 -1.66796875 216.8984375 C-0.28520752 217.34521851 -0.28520752 217.34521851 1.12548828 217.80102539 C36.26184561 229.8261454 64.70190153 261.88826056 81.33203125 293.8984375 C81.94820313 295.06503906 82.564375 296.23164063 83.19921875 297.43359375 C99.41042428 329.96407951 103.54293005 370.48447397 95.33203125 405.8984375 C95.07679688 407.1153125 94.8215625 408.3321875 94.55859375 409.5859375 C89.05221067 433.02595355 77.60347743 454.43850854 62.33203125 472.8984375 C61.85475586 473.48254395 61.37748047 474.06665039 60.88574219 474.66845703 C33.82897598 507.65655994 -5.51954315 529.20928627 -48.03417969 533.69995117 C-92.58772378 537.05757365 -136.0444817 525.77433374 -170.66796875 496.8984375 C-175.86252016 492.42357016 -180.88236497 487.80997823 -185.66796875 482.8984375 C-186.22484375 482.38667969 -186.78171875 481.87492187 -187.35546875 481.34765625 C-215.21285664 455.11902692 -230.42015707 412.8532106 -231.62670898 375.35864258 C-231.67070494 372.87084948 -231.68055024 370.38655239 -231.66796875 367.8984375 C-231.66522949 367.14046875 -231.66249023 366.3825 -231.65966797 365.6015625 C-231.13258876 321.74857193 -212.33770944 280.71629467 -181.6484375 249.80859375 C-170.32599223 238.78131316 -147.14191926 216.8984375 -130.66796875 216.8984375 C-130.58826061 196.06196249 -130.56005275 175.2259809 -130.59281063 154.3893671 C-130.60682655 144.7140433 -130.60412023 135.03926849 -130.56176758 125.36401367 C-130.5248866 116.92897536 -130.51966628 108.49460659 -130.55213934 100.05953974 C-130.56823064 95.59475798 -130.56868843 91.13123167 -130.53120232 86.66655159 C-130.49637863 82.45930457 -130.50406292 78.25422387 -130.54359818 74.04703903 C-130.55071 72.50759436 -130.54262137 70.96798818 -130.51774406 69.4287281 C-130.28511503 60.81563014 -130.28511503 60.81563014 -133.64041328 53.09371758 C-135.97493148 50.70553538 -135.97493148 50.70553538 -138.44539738 48.7816534 C-143.71651079 44.31536507 -146.23848113 37.81275507 -146.9765625 31.0859375 C-147.4070733 20.44057956 -144.07576778 12.80934723 -137.41796875 4.5859375 C-125.66334649 -7.75514097 -108.9431272 -13.53071737 -92.66796875 -17.1015625 C-91.20810547 -17.43994141 -91.20810547 -17.43994141 -89.71875 -17.78515625 C-60.43907322 -23.45345149 -23.83090369 -18.77163424 0 0 Z " fill="#5080AD" transform="translate(253.66796875,41.1015625)"/>
<path d="M0 0 C1.68391846 0.43227905 1.68391846 0.43227905 3.40185547 0.87329102 C4.44744629 1.16131592 5.49303711 1.44934082 6.5703125 1.74609375 C7.9627417 2.12592407 7.9627417 2.12592407 9.38330078 2.51342773 C14.61972973 4.7181049 17.30841305 9.41772147 20.25 14.0625 C20.6428418 14.6805249 21.03568359 15.2985498 21.44042969 15.93530273 C32.05999528 32.89747129 39.15713166 51.44107274 39.875 71.5625 C39.90754883 72.39152832 39.94009766 73.22055664 39.97363281 74.07470703 C40.9575446 102.61311808 35.65338222 130.87537216 18.875 154.5625 C18.215 154.5625 17.555 154.5625 16.875 154.5625 C16.63910156 155.11808594 16.40320313 155.67367187 16.16015625 156.24609375 C4.99231251 176.37536833 -24.25754994 187.07103057 -44.625 194.125 C-45.603479 194.47199951 -46.58195801 194.81899902 -47.59008789 195.17651367 C-57.45226078 198.43936978 -66.54323408 197.96242993 -76.6875 196.375 C-77.53812012 196.24407959 -78.38874023 196.11315918 -79.26513672 195.97827148 C-90.75847792 194.09818132 -105.02328438 191.62830559 -115.125 185.5625 C-115.455 184.5725 -115.785 183.5825 -116.125 182.5625 C-118.12194907 181.88674941 -120.12272864 181.22231348 -122.125 180.5625 C-138.91017775 171.25349201 -153.65299085 156.52757854 -164.125 140.5625 C-165.09930289 139.22560845 -166.07791041 137.89183385 -167.0625 136.5625 C-169.125 133.5625 -169.125 133.5625 -170.125 130.5625 C-170.58003906 130.15773438 -171.03507812 129.75296875 -171.50390625 129.3359375 C-173.92337357 126.68909855 -174.8760489 123.51182372 -176.0625 120.1875 C-176.32192383 119.47650146 -176.58134766 118.76550293 -176.84863281 118.03295898 C-184.75786251 96.10126289 -191.49182327 70.63674632 -182.05859375 48.00390625 C-171.66761219 28.21645952 -153.76907612 16.68053373 -134.125 7.5625 C-133.16464844 7.10101563 -132.20429688 6.63953125 -131.21484375 6.1640625 C-91.65145212 -11.71062091 -41.289777 -10.64364985 0 0 Z " fill="#8CD4FD" transform="translate(244.125,344.4375)"/>
<path d="M0 0 C7.77955851 6.68789225 13.60584554 13.69568849 14.66796875 24.23046875 C14.80715409 36.63188226 12.03609482 42.68109028 3.453125 51.5390625 C-0.66376343 56.11843747 -2.04349458 59.30276566 -2.0287323 65.4980011 C-2.03129557 66.1474745 -2.03385885 66.79694789 -2.0364998 67.4661023 C-2.04142669 69.63431399 -2.02496387 71.80182357 -2.00854492 73.9699707 C-2.00769841 75.5273385 -2.00817427 77.08470749 -2.00987244 78.64207458 C-2.01073287 82.86488942 -1.99309936 87.0874484 -1.97215056 91.31020379 C-1.95339179 95.72511513 -1.95163395 100.14003238 -1.94807434 104.55497742 C-1.93875153 112.91303573 -1.91413454 121.27097626 -1.88402587 129.62898272 C-1.85048923 139.14522506 -1.8339977 148.66147304 -1.81893957 158.17775977 C-1.7875852 177.75138474 -1.73482009 197.3249037 -1.66796875 216.8984375 C-0.28520752 217.34521851 -0.28520752 217.34521851 1.12548828 217.80102539 C36.26184561 229.8261454 64.70190153 261.88826056 81.33203125 293.8984375 C81.94820313 295.06503906 82.564375 296.23164063 83.19921875 297.43359375 C99.41042428 329.96407951 103.54293005 370.48447397 95.33203125 405.8984375 C95.07679688 407.1153125 94.8215625 408.3321875 94.55859375 409.5859375 C89.05221067 433.02595355 77.60347743 454.43850854 62.33203125 472.8984375 C61.85475586 473.48254395 61.37748047 474.06665039 60.88574219 474.66845703 C33.82897598 507.65655994 -5.51954315 529.20928627 -48.03417969 533.69995117 C-92.58772378 537.05757365 -136.0444817 525.77433374 -170.66796875 496.8984375 C-175.86252016 492.42357016 -180.88236497 487.80997823 -185.66796875 482.8984375 C-186.22484375 482.38667969 -186.78171875 481.87492187 -187.35546875 481.34765625 C-215.21285664 455.11902692 -230.42015707 412.8532106 -231.62670898 375.35864258 C-231.67070494 372.87084948 -231.68055024 370.38655239 -231.66796875 367.8984375 C-231.66522949 367.14046875 -231.66249023 366.3825 -231.65966797 365.6015625 C-231.13258876 321.74857193 -212.33770944 280.71629467 -181.6484375 249.80859375 C-170.32599223 238.78131316 -147.14191926 216.8984375 -130.66796875 216.8984375 C-130.58826061 196.06196249 -130.56005275 175.2259809 -130.59281063 154.3893671 C-130.60682655 144.7140433 -130.60412023 135.03926849 -130.56176758 125.36401367 C-130.5248866 116.92897536 -130.51966628 108.49460659 -130.55213934 100.05953974 C-130.56823064 95.59475798 -130.56868843 91.13123167 -130.53120232 86.66655159 C-130.49637863 82.45930457 -130.50406292 78.25422387 -130.54359818 74.04703903 C-130.55071 72.50759436 -130.54262137 70.96798818 -130.51774406 69.4287281 C-130.28511503 60.81563014 -130.28511503 60.81563014 -133.64041328 53.09371758 C-135.97493148 50.70553538 -135.97493148 50.70553538 -138.44539738 48.7816534 C-143.71651079 44.31536507 -146.23848113 37.81275507 -146.9765625 31.0859375 C-147.4070733 20.44057956 -144.07576778 12.80934723 -137.41796875 4.5859375 C-125.66334649 -7.75514097 -108.9431272 -13.53071737 -92.66796875 -17.1015625 C-91.20810547 -17.43994141 -91.20810547 -17.43994141 -89.71875 -17.78515625 C-60.43907322 -23.45345149 -23.83090369 -18.77163424 0 0 Z M-105.66796875 67.8984375 C-105.66796875 120.0384375 -105.66796875 172.1784375 -105.66796875 225.8984375 C-109.29796875 226.8884375 -112.92796875 227.8784375 -116.66796875 228.8984375 C-128.5995187 233.24612512 -139.3276595 238.54139596 -149.66796875 245.8984375 C-150.68117187 246.60742188 -151.694375 247.31640625 -152.73828125 248.046875 C-184.40596376 270.95013363 -206.84497485 305.1302549 -213.66796875 343.8984375 C-214.89766679 351.99695473 -214.88667309 360.18188495 -214.90820312 368.35522461 C-214.91787568 370.56467845 -214.94898204 372.77318617 -214.98046875 374.98242188 C-215.05203558 384.68087702 -213.92693271 393.45963504 -211.66796875 402.8984375 C-211.24862061 404.75879639 -211.24862061 404.75879639 -210.82080078 406.65673828 C-202.33157521 443.40074976 -177.24059212 476.09387193 -145.65917969 496.17578125 C-111.76879859 516.9040456 -71.91110438 524.20780645 -33.04199219 515.29638672 C-7.47725986 509.03879272 14.71910793 497.41098987 34.33203125 479.8984375 C35.20601562 479.20878906 36.08 478.51914062 36.98046875 477.80859375 C40.57027181 474.89262416 43.37564988 471.43871956 46.33203125 467.8984375 C46.96238281 467.1559375 47.59273438 466.4134375 48.2421875 465.6484375 C70.01566315 439.32980291 82.52125206 406.60168213 82.51733398 372.41259766 C82.51950438 370.29959463 82.53765649 368.18712866 82.55664062 366.07421875 C82.69960777 332.13680241 69.87535917 299.88211019 48.33203125 273.8984375 C47.56117188 272.96773437 46.7903125 272.03703125 45.99609375 271.078125 C27.04228945 249.25045867 2.67764355 234.74805813 -24.66796875 225.8984375 C-25.32796875 225.8984375 -25.98796875 225.8984375 -26.66796875 225.8984375 C-26.66796875 174.0884375 -26.66796875 122.2784375 -26.66796875 68.8984375 C-32.96115266 69.67274527 -32.96115266 69.67274527 -39.19921875 70.65234375 C-58.25293822 73.81738788 -76.80556473 74.31994726 -95.66796875 69.8984375 C-98.96796875 69.2384375 -102.26796875 68.5784375 -105.66796875 67.8984375 Z " fill="#ADC4E8" transform="translate(253.66796875,41.1015625)"/>
<path d="M0 0 C7.77955851 6.68789225 13.60584554 13.69568849 14.66796875 24.23046875 C14.80421874 36.37034259 12.08999136 42.83162232 3.73828125 51.6171875 C-16.71798657 71.01079206 -47.13236439 74.78294182 -74.05859375 74.1875 C-81.50186941 73.88926774 -88.43708909 72.68489012 -95.66796875 70.8984375 C-96.90417969 70.63160156 -98.14039063 70.36476563 -99.4140625 70.08984375 C-109.31379793 67.77200767 -117.76748631 63.71709553 -126.66796875 58.8984375 C-126.66796875 58.2384375 -126.66796875 57.5784375 -126.66796875 56.8984375 C-127.49296875 56.7334375 -128.31796875 56.5684375 -129.16796875 56.3984375 C-137.14891188 52.9780333 -142.25648322 45.6877521 -145.66796875 37.8984375 C-148.14442791 30.11528014 -147.60009196 21.9004813 -144.10546875 14.5859375 C-134.54235755 -2.35570471 -118.12193272 -10.35394342 -99.98046875 -15.4140625 C-97.54878447 -16.00119456 -95.11141032 -16.5654601 -92.66796875 -17.1015625 C-91.69472656 -17.32714844 -90.72148437 -17.55273438 -89.71875 -17.78515625 C-60.43907322 -23.45345149 -23.83090369 -18.77163424 0 0 Z " fill="#D7E3F6" transform="translate(253.66796875,41.1015625)"/>
<path d="M0 0 C0.99 0.33 1.98 0.66 3 1 C-0.33622764 10.42898379 -3.79893254 19.40501564 -9 28 C-9.39445313 28.66128906 -9.78890625 29.32257813 -10.1953125 30.00390625 C-11.25 31.6875 -11.25 31.6875 -13 34 C-13.66 34 -14.32 34 -15 34 C-15.23589844 34.55558594 -15.47179687 35.11117187 -15.71484375 35.68359375 C-26.88268749 55.81286833 -56.13254994 66.50853057 -76.5 73.5625 C-77.478479 73.90949951 -78.45695801 74.25649902 -79.46508789 74.61401367 C-86.12299206 76.81675171 -92.0048503 77.42226818 -99 77 C-99 76.67 -99 76.34 -99 76 C-97.35 75.67 -95.7 75.34 -94 75 C-100.93 72.69 -107.86 70.38 -115 68 C-115 67.34 -115 66.68 -115 66 C-115.72058594 65.87496094 -116.44117188 65.74992188 -117.18359375 65.62109375 C-119.97316275 65.00591834 -122.42221276 64.14391595 -125.0625 63.0625 C-125.89910156 62.72347656 -126.73570312 62.38445313 -127.59765625 62.03515625 C-129.77683537 61.09616037 -131.89101521 60.08615152 -134 59 C-134 58.34 -134 57.68 -134 57 C-134.56976563 56.89171875 -135.13953125 56.7834375 -135.7265625 56.671875 C-142.18039743 54.76455609 -148.05813911 49.4476748 -153 45 C-153.33 44.34 -153.66 43.68 -154 43 C-154.92039062 42.566875 -154.92039062 42.566875 -155.859375 42.125 C-158.41803067 40.78030505 -159.55703709 39.32568642 -161.25 37 C-161.77078125 36.29875 -162.2915625 35.5975 -162.828125 34.875 C-164 33 -164 33 -164 31 C-164.66 31 -165.32 31 -166 31 C-172.1990347 22.63882958 -179 11.58911136 -179 1 C-178.26910156 1.29261719 -177.53820312 1.58523438 -176.78515625 1.88671875 C-175.10620289 2.55782914 -173.42668652 3.22753689 -171.74609375 3.89453125 C-170.98425781 4.19746094 -170.22242188 4.50039063 -169.4375 4.8125 C-168.12845703 5.33263672 -168.12845703 5.33263672 -166.79296875 5.86328125 C-164.91099934 6.62922964 -163.0385312 7.41889719 -161.17578125 8.23046875 C-116.5686825 27.58601894 -58.86415259 25.7267991 -14.01147461 8.11889648 C-5.89897858 5.39043163 -5.89897858 5.39043163 0 0 Z " fill="#4FBDFD" transform="translate(276,465)"/>
<path d="M0 0 C5.94 0.66 11.88 1.32 18 2 C18 61.73 18 121.46 18 183 C14.04 184.98 14.04 184.98 10 187 C6.26349838 189.22664995 2.63855801 191.61718195 -1 194 C-1.88042969 194.56589844 -2.76085937 195.13179687 -3.66796875 195.71484375 C-4.47878906 196.24207031 -5.28960937 196.76929688 -6.125 197.3125 C-6.84945312 197.78300781 -7.57390625 198.25351562 -8.3203125 198.73828125 C-10.14139297 199.91066242 -10.14139297 199.91066242 -11 202 C-12.66590457 203.00126907 -14.33270407 204.00104952 -16 205 C-17.63731121 206.37822608 -19.24068034 207.7975269 -20.8125 209.25 C-23.85088324 212.0411775 -26.9067078 214.78032296 -30.0625 217.4375 C-38.41829566 224.52610008 -38.41829566 224.52610008 -43.9140625 233.66796875 C-45 236 -45 236 -47.40625 237.23046875 C-48.4271875 237.54628906 -49.448125 237.86210937 -50.5 238.1875 C-64.03116627 242.97291246 -76.43626428 250.27843385 -87 260 C-87.65097656 260.57105469 -88.30195312 261.14210938 -88.97265625 261.73046875 C-98.98674457 270.99625157 -103.96523929 282.7620862 -106 296 C-106.33 296 -106.66 296 -107 296 C-108.1288449 272.29425702 -99.05523628 244.74286055 -83 227 C-82.34 227 -81.68 227 -81 227 C-80.76796875 226.44441406 -80.5359375 225.88882813 -80.296875 225.31640625 C-70.12944635 207.15590869 -45.38359724 194.95242342 -27.5 186.25 C-26.58742432 185.80205078 -25.67484863 185.35410156 -24.73461914 184.89257812 C-16.89729492 181.16796398 -9.40555558 178.80185186 -1 176 C-0.67 117.92 -0.34 59.84 0 0 Z " fill="#7299BF" transform="translate(165,113)"/>
<path d="M0 0 C4.03700433 3.11404609 6.6189385 5.9253561 7.53515625 11.04296875 C7.82147824 16.76940849 6.98568999 21.30066701 3.1015625 25.62109375 C-7.04764902 35.05033832 -21.42408374 37.29765138 -34.72875977 37.07861328 C-47.61932856 36.5752613 -59.83194638 33.23924968 -68.8984375 23.62109375 C-71.80589367 19.21301504 -72.54286124 15.8685442 -71.8984375 10.62109375 C-68.31781567 2.45727599 -62.46728446 -2.03033489 -54.40234375 -5.51953125 C-36.67468042 -11.60390868 -15.83811538 -10.34378545 0 0 Z " fill="#81A0CB" transform="translate(219.8984375,39.37890625)"/>
<path d="M0 0 C5.78723243 0.51255682 10.16155246 2.85668053 15.1875 5.5625 C16.03103027 6.01286621 16.87456055 6.46323242 17.74365234 6.92724609 C24.26826534 10.47347667 30.23327592 14.30011987 36 19 C36.7734375 19.59941406 37.546875 20.19882812 38.34375 20.81640625 C50.65932643 30.91770952 57.41256136 44.37779898 59.76171875 59.984375 C60.13654676 64.72809996 59.68418792 69.30314239 59 74 C58.34 74 57.68 74 57 74 C56.938125 74.804375 56.87625 75.60875 56.8125 76.4375 C55.48287924 82.26737563 52.29193378 87.06209932 49 92 C48.34 92 47.68 92 47 92 C46.77570313 92.72316406 46.55140625 93.44632812 46.3203125 94.19140625 C42.83743948 101.60023969 33.13520324 108.92059056 26 113 C24.33879418 113.35956098 22.67221618 113.6957272 21 114 C21.12117188 113.39865234 21.24234375 112.79730469 21.3671875 112.17773438 C24.42358931 96.62535131 25.60369329 81.83052719 25 66 C24.96777344 64.79730469 24.93554688 63.59460938 24.90234375 62.35546875 C23.88021265 42.777727 15.41967987 24.22328832 5 8 C3.97758779 6.35514702 2.956401 4.7095303 1.9375 3.0625 C1.298125 2.051875 0.65875 1.04125 0 0 Z " fill="#6195B2" transform="translate(258,350)"/>
<path d="M0 0 C-0.58003269 3.16629612 -1.43520093 4.72996629 -3.6875 7 C-7.92471693 11.74406106 -10.3362588 17.27548301 -13 23 C-13.66708984 24.33224609 -13.66708984 24.33224609 -14.34765625 25.69140625 C-24.6161863 46.7623043 -25.16973191 70.2849237 -23.125 93.1875 C-23.04668945 94.08500977 -22.96837891 94.98251953 -22.88769531 95.90722656 C-22.45238113 100.30206515 -21.84490212 103.94121533 -20 108 C-19.875 110.8125 -19.875 110.8125 -20 113 C-23.16451962 112.36567062 -25.51687779 111.26817072 -28.25 109.5625 C-28.95640625 109.13066406 -29.6628125 108.69882812 -30.390625 108.25390625 C-31.18726563 107.63322266 -31.18726563 107.63322266 -32 107 C-32 106.34 -32 105.68 -32 105 C-33.32 104.67 -34.64 104.34 -36 104 C-36 103.34 -36 102.68 -36 102 C-36.59039062 101.74347656 -37.18078125 101.48695313 -37.7890625 101.22265625 C-46.67602599 96.30813404 -53.06771206 84.39885671 -56 75 C-56.391875 73.88625 -56.78375 72.7725 -57.1875 71.625 C-59.74961454 60.19402744 -57.62574399 47.04690822 -51.44140625 37.078125 C-39.48444877 19.83936788 -24.67630302 9.83125547 -6 1 C-4 0 -4 0 0 0 Z " fill="#A3DCFD" transform="translate(116,351)"/>
<path d="M0 0 C1.86265786 2.7939868 2.45738047 4.39710277 3.25 7.5625 C6.18110225 17.73952509 12.3677312 26.0586084 20.51171875 32.66796875 C22 34 22 34 23 36 C24.485 36.495 24.485 36.495 26 37 C26.53625 37.5775 27.0725 38.155 27.625 38.75 C29.96634016 40.96811173 31.67550611 41.80549874 34.5625 43.125 C37.3185779 44.59310685 38.70567045 45.40926817 40.109375 48.2265625 C40.58575577 49.93624014 41.01690226 51.65905214 41.40625 53.390625 C43.03718106 60.55813781 46.93994715 66.78372828 50.828125 72.93359375 C52 75 52 75 52 77 C52.66 77 53.32 77 54 77 C55.38442 78.96498322 56.71203834 80.97048465 58 83 C59.96887128 85.99575057 59.96887128 85.99575057 62.875 87.9375 C65.82416096 89.41208048 67.669222 91.669222 70 94 C74.39672303 97.6229726 78.78105072 100.65147283 84 103 C84 103.66 84 104.32 84 105 C84.5465625 105.1134375 85.093125 105.226875 85.65625 105.34375 C89.41372982 106.39584435 92.82365172 108.18040686 96.34375 109.84375 C98.58260045 110.81830843 100.61865391 111.50575836 103 112 C103 112.66 103 113.32 103 114 C104.19625 114.226875 105.3925 114.45375 106.625 114.6875 C113.2887476 116.14819347 119.62042213 118.62240483 126 121 C126 121.33 126 121.66 126 122 C108.8784065 122.72231723 86.07696866 119.81165058 71 111 C70.67 110.01 70.34 109.02 70 108 C68.00305093 107.32424941 66.00227136 106.65981348 64 106 C47.21482225 96.69099201 32.47200915 81.96507854 22 66 C21.02569711 64.66310845 20.04708959 63.32933385 19.0625 62 C17 59 17 59 16 56 C15.54496094 55.59523438 15.08992188 55.19046875 14.62109375 54.7734375 C12.20162643 52.12659855 11.2489511 48.94932372 10.0625 45.625 C9.80307617 44.91400146 9.54365234 44.20300293 9.27636719 43.47045898 C6.95998974 37.04731941 4.85123795 30.57323621 3 24 C2.78472656 23.24847656 2.56945313 22.49695313 2.34765625 21.72265625 C0.53620461 14.6222947 0.36492682 7.28893298 0 0 Z " fill="#72C9FB" transform="translate(58,419)"/>
<path d="M0 0 C4.96356467 1.73550371 9.49614664 4.31685332 14 7 C14 7.66 14 8.32 14 9 C14.55945313 9.25265625 15.11890625 9.5053125 15.6953125 9.765625 C23.5664068 13.98132974 30.13961652 20.9441508 36.4375 27.1875 C37.02837402 27.76918945 37.61924805 28.35087891 38.22802734 28.95019531 C41.65224912 32.39892483 44.41788445 35.85459946 47 40 C47.7372659 41.12391944 48.47694326 42.24625991 49.21875 43.3671875 C49.97971914 44.53609886 50.74013141 45.70537292 51.5 46.875 C51.87769531 47.44863281 52.25539063 48.02226562 52.64453125 48.61328125 C57.16895604 55.59426657 60.54167083 62.80495508 63.1875 70.6875 C63.44869629 71.46335449 63.70989258 72.23920898 63.97900391 73.03857422 C66.11468515 79.70931622 66.97517001 85.97311359 67 93 C65.1260758 90.1891137 64.32238144 88.1133715 63.3125 84.9375 C61.14303349 78.83234702 57.96303669 74.08283513 54 69 C53.55011719 68.38511719 53.10023438 67.77023437 52.63671875 67.13671875 C43.1312807 54.93947524 23.46418091 43.1844947 8.625 39.0625 C4.95204616 37.57582821 4.00386743 35.36132601 2 32 C-1.12468711 27.94635186 -4.37445778 24.70801673 -8.30078125 21.4375 C-18.48108649 12.8251958 -18.48108649 12.8251958 -19.5625 6.9375 C-19 4 -19 4 -16.8671875 1.859375 C-11.60113743 -1.55566565 -6.03258402 -0.9435424 0 0 Z " fill="#375A7A" transform="translate(250,311)"/>
<path d="M0 0 C0.495 1.485 0.495 1.485 1 3 C-13.98022469 11.22125129 -29.94599825 13.63605885 -46.75 9.75 C-51.47602478 8.34696139 -55.69957758 6.3983125 -60 4 C-60 2.68 -60 1.36 -60 0 C-41.75684106 -10.41877926 -18.18755559 -11.50641272 0 0 Z " fill="#5381AE" transform="translate(218,65)"/>
<path d="M0 0 C2 2 2 2 2.4375 5.9375 C2.39453125 8.12890625 2.39453125 8.12890625 2 10 C0.824375 10.680625 0.824375 10.680625 -0.375 11.375 C-3.20349383 12.69974189 -3.20349383 12.69974189 -3.53125 15.21875 C-3.70140625 16.53359375 -3.70140625 16.53359375 -3.875 17.875 C-4.57150025 22.5934478 -4.57150025 22.5934478 -6.6015625 24.51953125 C-7.85779496 25.29239855 -9.12481687 26.04802062 -10.40234375 26.78515625 C-13.03659352 28.78821659 -13.1413612 31.90890032 -14 35 C-17.0625 36.8125 -17.0625 36.8125 -20 38 C-21.09432535 40.04034726 -21.09432535 40.04034726 -21.75 42.5625 C-22.1625 43.366875 -22.575 44.17125 -23 45 C-25.625 45.8125 -25.625 45.8125 -28 46 C-27.67 46.99 -27.34 47.98 -27 49 C-26.67 49.99 -26.34 50.98 -26 52 C-25.34 52 -24.68 52 -24 52 C-23.731875 51.360625 -23.46375 50.72125 -23.1875 50.0625 C-22 48 -22 48 -19 47 C-18.21625 47.05542969 -17.4325 47.11085938 -16.625 47.16796875 C-7.59229291 46.58998303 4.071985 31.60566513 10 25 C13.19310166 21.13947454 16.13471445 17.10913044 19 13 C19.495 13.99 19.495 13.99 20 15 C12.02464461 26.60882675 2.94233932 37.06939661 -8 46 C-8.77085937 46.64324219 -9.54171875 47.28648437 -10.3359375 47.94921875 C-23.1593307 57.99092204 -38.71338011 63.68959774 -54.13793945 68.41992188 C-55.86199993 68.95700955 -57.57245495 69.53725544 -59.28125 70.12109375 C-68.66287868 73.15394785 -79.24323082 72 -89 72 C-86.71235365 69.71235365 -85.28865964 69.3090664 -82.22265625 68.37109375 C-80.7540918 67.90932739 -80.7540918 67.90932739 -79.25585938 67.43823242 C-78.20205078 67.10799072 -77.14824219 66.77774902 -76.0625 66.4375 C-53.57139419 59.12319658 -32.81793655 49.04581494 -17 31 C-16.67 30.34 -16.34 29.68 -16 29 C-15.34 29 -14.68 29 -14 29 C-13.72671875 28.26652344 -13.4534375 27.53304688 -13.171875 26.77734375 C-12.06269085 24.1485773 -10.79252484 21.95507213 -9.25 19.5625 C-5.42891876 13.34147857 -2.74286214 6.75016428 0 0 Z " fill="#3389BB" transform="translate(277,470)"/>
<path d="M0 0 C-2 1 -4 2 -6 3 C-6 2.34 -6 1.68 -6 1 C-7.32 0.67 -8.64 0.34 -10 0 C-10 0.99 -10 1.98 -10 3 C-11.98 2.67 -13.96 2.34 -16 2 C-16.33 3.65 -16.66 5.3 -17 7 C-17.65846924 6.85780029 -18.31693848 6.71560059 -18.99536133 6.5690918 C-25.97152499 5.16747412 -32.584142 4.72270372 -39.6875 4.8125 C-41.15799805 4.8134668 -41.15799805 4.8134668 -42.65820312 4.81445312 C-48.19641242 4.84783818 -53.52186529 5.19066147 -59 6 C-59.763125 6.10441406 -60.52625 6.20882812 -61.3125 6.31640625 C-61.869375 6.39761719 -62.42625 6.47882812 -63 6.5625 C-64.485 6.7790625 -64.485 6.7790625 -66 7 C-67.125 3.25 -67.125 3.25 -66 1 C-65.34 1 -64.68 1 -64 1 C-63.67 0.34 -63.34 -0.32 -63 -1 C-63.99 -1.33 -64.98 -1.66 -66 -2 C-66 -2.33 -66 -2.66 -66 -3 C-44.34801053 -7.82111893 -21.26653836 -5.37939419 0 0 Z " fill="#D1DEF5" transform="translate(227,27)"/>
<path d="M0 0 C0.495 0.99 0.495 0.99 1 2 C-6.97535539 13.60882675 -16.05766068 24.06939661 -27 33 C-27.77085937 33.64324219 -28.54171875 34.28648437 -29.3359375 34.94921875 C-42.1593307 44.99092204 -57.71338011 50.68959774 -73.13793945 55.41992188 C-74.86199993 55.95700955 -76.57245495 56.53725544 -78.28125 57.12109375 C-85.37770208 59.41520541 -91.77266128 58.9478477 -99 58 C-95.63218353 55.75478902 -93.06260032 55.29168539 -89.15625 54.5625 C-86.72755954 54.05433009 -86.72755954 54.05433009 -84 52 C-82 52 -80 52 -78 52 C-77.01 51.34 -76.02 50.68 -75 50 C-71.8125 49.875 -71.8125 49.875 -69 50 C-69.33 49.01 -69.66 48.02 -70 47 C-68.375 45 -68.375 45 -66 43 C-62.75 42.75 -62.75 42.75 -60 43 C-59.67 43.99 -59.34 44.98 -59 46 C-49.96713459 44.34476288 -43.40079404 41.38239567 -36 36 C-34.98164063 35.278125 -33.96328125 34.55625 -32.9140625 33.8125 C-20.00065054 24.42826819 -9.07702088 13.11125238 0 0 Z " fill="#3A83AE" transform="translate(296,483)"/>
<path d="M0 0 C18.35529724 -0.28322714 35.11774482 0.47666395 53 5 C51 6 49 7 47 8 C47 7.34 47 6.68 47 6 C45.68 5.67 44.36 5.34 43 5 C43 5.99 43 6.98 43 8 C41.02 7.67 39.04 7.34 37 7 C36.67 8.65 36.34 10.3 36 12 C34.24871182 11.71617054 32.49899997 11.42260471 30.75 11.125 C29.77546875 10.96257813 28.8009375 10.80015625 27.796875 10.6328125 C24.19735599 9.81839619 21.74835232 9.1403464 19.6875 6 C19.3471875 5.01 19.3471875 5.01 19 4 C19.33 3.34 19.66 2.68 20 2 C13.4 1.67 6.8 1.34 0 1 C0 0.67 0 0.34 0 0 Z " fill="#BECDE5" transform="translate(174,22)"/>
<path d="M0 0 C2.125 0.9375 2.125 0.9375 4 2 C2.41906946 3.12837409 0.83515284 4.25256518 -0.75 5.375 C-2.07257813 6.31472656 -2.07257813 6.31472656 -3.421875 7.2734375 C-8.0427673 10.36803507 -11.44882333 11.30610292 -17 12 C-18.33917261 12.30903983 -19.67653254 12.62942911 -21 13 C-21 11.68 -21 10.36 -21 9 C-21.99 8.67 -22.98 8.34 -24 8 C-19.22130406 3.9412115 -15.55267157 1 -9 1 C-8.01 1.66 -7.02 2.32 -6 3 C-6 3.66 -6 4.32 -6 5 C-5.34 5 -4.68 5 -4 5 C-3.71125 4.360625 -3.4225 3.72125 -3.125 3.0625 C-2 1 -2 1 0 0 Z " fill="#3684B0" transform="translate(257,517)"/>
<path d="M0 0 C0.495 0.99 0.495 0.99 1 2 C-6.97535539 13.60882675 -16.05766068 24.06939661 -27 33 C-27.77085937 33.64324219 -28.54171875 34.28648437 -29.3359375 34.94921875 C-39.82962185 43.1665808 -54.87441554 51.15813034 -68 54 C-69.34201559 53.70354926 -70.67765382 53.37455235 -72 53 C-71.43716309 52.79955078 -70.87432617 52.59910156 -70.29443359 52.39257812 C-41.13384539 41.90974185 -17.77517469 25.67525234 0 0 Z " fill="#2C6289" transform="translate(296,483)"/>
<path d="M0 0 C1.67542976 0.28604898 3.34385343 0.61781233 5 1 C3.36464558 4.94186586 0.67380484 7.84611878 -2.1875 10.9375 C-2.67710205 11.47020508 -3.1667041 12.00291016 -3.67114258 12.55175781 C-7.15115871 16.26575826 -10.66223754 19.3009478 -15 22 C-14.67 20.35 -14.34 18.7 -14 17 C-13.34 17 -12.68 17 -12 17 C-12.33 15.02 -12.66 13.04 -13 11 C-10.64561267 9.57055055 -9.51967567 8.91338739 -6.75 9.375 C-6.1725 9.58125 -5.595 9.7875 -5 10 C-4.9175 9.38125 -4.835 8.7625 -4.75 8.125 C-4 6 -4 6 -1.9375 4.75 C-1.298125 4.5025 -0.65875 4.255 0 4 C-0.33 3.01 -0.66 2.02 -1 1 C-0.67 0.67 -0.34 0.34 0 0 Z " fill="#9EB4D6" transform="translate(309,514)"/>
<path d="M0 0 C1.85867553 2.78801329 2.49456367 4.46365099 3.3125 7.625 C4.8148937 12.89112224 7.15467017 17.34400573 10 22 C9.34 22.99 8.68 23.98 8 25 C7.34 25 6.68 25 6 25 C6 26.98 6 28.96 6 31 C-0.47313145 24.52686855 0.35612909 8.76814383 0 0 Z " fill="#76C7F7" transform="translate(58,419)"/>
<path d="M0 0 C0.66 0.33 1.32 0.66 2 1 C1.70703125 2.98567708 1.4140625 4.97135417 1.12109375 6.95703125 C0.86095201 9.2025342 0.86095201 9.2025342 2 12 C1.67 12.66 1.34 13.32 1 14 C0.34 14 -0.32 14 -1 14 C-1.54269531 15.09699219 -2.08539063 16.19398438 -2.64453125 17.32421875 C-3.3670797 18.77869939 -4.08974196 20.2331235 -4.8125 21.6875 C-5.16892578 22.40873047 -5.52535156 23.12996094 -5.89257812 23.87304688 C-7.78806219 27.68140477 -9.74207126 31.38873857 -12 35 C-12.33 34.34 -12.66 33.68 -13 33 C-11.40628824 29.60535627 -9.67886991 26.32454299 -7.89257812 23.02929688 C-5.87915702 19.19065805 -4.48091071 16.44819596 -5 12 C-5 9 -5 9 -4 7 C-3.01 6.34 -2.02 5.68 -1 5 C-0.27034634 2.43717258 -0.27034634 2.43717258 0 0 Z " fill="#36749E" transform="translate(310,448)"/>
<path d="M0 0 C1.65 0.33 3.3 0.66 5 1 C5.33 1.99 5.66 2.98 6 4 C1.71 8.29 -2.58 12.58 -7 17 C-7.99 16.67 -8.98 16.34 -10 16 C-9.67 15.01 -9.34 14.02 -9 13 C-8.34 13 -7.68 13 -7 13 C-7 12.34 -7 11.68 -7 11 C-6.21625 10.443125 -5.4325 9.88625 -4.625 9.3125 C-1.3782515 6.45226918 -0.88078679 4.16371937 0 0 Z " fill="#3D81AA" transform="translate(281,492)"/>
<path d="M0 0 C2.73391685 2.63840884 5.0892176 5.34452831 7.375 8.375 C12.55359471 14.94369008 18.52391394 20.702005 24.5012207 26.53295898 C26.01163764 28.0113912 27.50800894 29.50299572 29 31 C17.84565136 29.34750391 7.46683098 13.09108954 0.99609375 4.69140625 C0 3 0 3 0 0 Z " fill="#629EC8" transform="translate(80,485)"/>
<path d="M0 0 C6.2054142 0.48320848 11.99945246 1.33318124 18 3 C15 4.5 15 4.5 12 6 C12 5.34 12 4.68 12 4 C10.68 3.67 9.36 3.34 8 3 C8 3.99 8 4.98 8 6 C5.03 5.505 5.03 5.505 2 5 C2 5.99 2 6.98 2 8 C1.34 8 0.68 8 0 8 C-0.79953138 4.71303767 -1.09658936 3.28976808 0 0 Z " fill="#B5C4DF" transform="translate(209,24)"/>
<path d="M0 0 C3.96 0 7.92 0 12 0 C3.65027177 5.56648549 -5.47200389 5.24957326 -15 4 C-11.12766576 1.41844384 -9.46463981 0.87865846 -4.875 0.9375 C-3.96492187 0.94652344 -3.05484375 0.95554687 -2.1171875 0.96484375 C-1.41851562 0.97644531 -0.71984375 0.98804688 0 1 C0 0.67 0 0.34 0 0 Z " fill="#3E7FA9" transform="translate(212,537)"/>
<path d="M0 0 C-1.44098089 4.12678821 -3.47299494 7.30186428 -6.0625 10.8125 C-6.77535156 11.78832031 -7.48820312 12.76414062 -8.22265625 13.76953125 C-9.10244141 14.87361328 -9.10244141 14.87361328 -10 16 C-10.33 16 -10.66 16 -11 16 C-11.42316559 11.34517848 -9.93697604 8.18386825 -8 4 C-7.67 3.01 -7.34 2.02 -7 1 C-2.25 0 -2.25 0 0 0 Z " fill="#3B81AA" transform="translate(298,479)"/>
<path d="M0 0 C0.99 0.33 1.98 0.66 3 1 C-9.57534247 11 -9.57534247 11 -13 11 C-12 8 -12 8 -10 6 C-10.33 5.01 -10.66 4.02 -11 3 C-9.9275 2.87625 -8.855 2.7525 -7.75 2.625 C-4.15316971 2.2144376 -4.15316971 2.2144376 -1.75 0.875 C-0.88375 0.441875 -0.88375 0.441875 0 0 Z " fill="#547CA4" transform="translate(275,528)"/>
<path d="M0 0 C0.66 0.33 1.32 0.66 2 1 C-1.27977486 6.39575864 -4.15113774 9.07092395 -9.81640625 11.859375 C-12.07878344 13.04115342 -13.99938863 14.42128626 -16 16 C-16.66 15.67 -17.32 15.34 -18 15 C-17.52578613 14.61666504 -17.05157227 14.23333008 -16.56298828 13.83837891 C-14.41603177 12.10176939 -12.27050169 10.36340649 -10.125 8.625 C-9.00544922 7.72007812 -9.00544922 7.72007812 -7.86328125 6.796875 C-7.14785156 6.21679688 -6.43242187 5.63671875 -5.6953125 5.0390625 C-5.03547363 4.50490723 -4.37563477 3.97075195 -3.69580078 3.42041016 C-1.89931358 1.95800055 -1.89931358 1.95800055 0 0 Z M-21 16 C-20.01 16.33 -19.02 16.66 -18 17 C-19.65 17.66 -21.3 18.32 -23 19 C-23 18.34 -23 17.68 -23 17 C-22.34 16.67 -21.68 16.34 -21 16 Z " fill="#4085AD" transform="translate(302,447)"/>
<path d="M0 0 C-0.33 0.66 -0.66 1.32 -1 2 C-8.45772946 4.167824 -17.17096733 6.32300528 -25 6 C-25.99 5.34 -26.98 4.68 -28 4 C-24.27206058 3.32634616 -20.54247005 2.66231022 -16.8125 2 C-15.75740234 1.80921875 -14.70230469 1.6184375 -13.61523438 1.421875 C-12.59365234 1.24140625 -11.57207031 1.0609375 -10.51953125 0.875 C-9.11344604 0.62363281 -9.11344604 0.62363281 -7.67895508 0.3671875 C-5.08032281 0.01100934 -2.61893788 -0.06645996 0 0 Z " fill="#5DBEF4" transform="translate(241,481)"/>
<path d="M0 0 C0.66 0.33 1.32 0.66 2 1 C0.40956621 6.08938811 -2.7446951 9.87456643 -6 14 C-7.26706235 10.19881294 -6.57172296 8.6149628 -5 5 C-4.01 4.67 -3.02 4.34 -2 4 C-2 3.34 -2 2.68 -2 2 C-1.34 2 -0.68 2 0 2 C0 1.34 0 0.68 0 0 Z " fill="#557CA2" transform="translate(312,487)"/>
<path d="M0 0 C8.02114786 0.84433135 16.00861581 1.91553021 24 3 C24 3.66 24 4.32 24 5 C22.7625 4.855625 21.525 4.71125 20.25 4.5625 C15.37541825 4.01314237 10.49382262 3.63521197 5.6015625 3.28125 C3 3 3 3 0 2 C0 1.34 0 0.68 0 0 Z " fill="#5BBCF2" transform="translate(139,482)"/>
<path d="M0 0 C2.125 0.9375 2.125 0.9375 4 2 C2.42210402 3.15330947 0.8374518 4.29737927 -0.75 5.4375 C-1.63171875 6.07558594 -2.5134375 6.71367188 -3.421875 7.37109375 C-5.72699125 8.8275081 -7.34349572 9.55931821 -10 10 C-9.67 9.01 -9.34 8.02 -9 7 C-8.195625 6.690625 -7.39125 6.38125 -6.5625 6.0625 C-3.52314752 4.80228068 -3.22944819 3.93176107 -2 1 C-1.34 0.67 -0.68 0.34 0 0 Z " fill="#3D80AA" transform="translate(257,517)"/>
<path d="M0 0 C0.66 0.99 1.32 1.98 2 3 C1.32488086 4.62028593 0.6356381 6.23634794 -0.12890625 7.81640625 C-1.8059578 12.02031574 -2.31523487 16.54499863 -3 21 C-3.33 21 -3.66 21 -4 21 C-4.24397009 14.5076847 -4.16463662 8.19994686 -2 2 C-1.34 1.34 -0.68 0.68 0 0 Z " fill="#72A0C7" transform="translate(62,388)"/>
<path d="M0 0 C0 3 0 3 -1.375 4.6875 C-3 6 -3 6 -5 6 C-5.185625 7.4540625 -5.185625 7.4540625 -5.375 8.9375 C-5.58125 9.948125 -5.7875 10.95875 -6 12 C-8 13 -8 13 -11 14 C-9.49665796 8.65478385 -5.82879909 4.86491984 -2 1 C-1.34 0.67 -0.68 0.34 0 0 Z " fill="#8095B5" transform="translate(122,41)"/>
<path d="M0 0 C1.95273962 2.92910944 2.75396363 5.08132291 3.6875 8.4375 C3.95949219 9.38496094 4.23148438 10.33242188 4.51171875 11.30859375 C4.99803744 13.98918237 4.89369149 15.46287583 4 18 C3.34 18 2.68 18 2 18 C1.66191314 15.93827387 1.32972639 13.8755797 1 11.8125 C0.814375 10.66394531 0.62875 9.51539063 0.4375 8.33203125 C0.06510523 5.49584607 -0.08596021 2.85280436 0 0 Z " fill="#7CC2ED" transform="translate(58,419)"/>
<path d="M0 0 C0.33 1.32 0.66 2.64 1 4 C1.66 4 2.32 4 3 4 C3.22786458 5.98567708 3.45572917 7.97135417 3.68359375 9.95703125 C3.97170735 12.19396393 3.97170735 12.19396393 5 15 C4.01 16.485 4.01 16.485 3 18 C2.49309416 15.93918639 1.99475381 13.87626474 1.5 11.8125 C1.2215625 10.66394531 0.943125 9.51539063 0.65625 8.33203125 C0.08504615 5.43181171 -0.13283779 2.93903615 0 0 Z " fill="#869DC9" transform="translate(25,437)"/>
<path d="M0 0 C1.32 0 2.64 0 4 0 C2.68775452 3.93673644 1.08089673 6.22719294 -2 9 C-2 7.68 -2 6.36 -2 5 C-2.99 4.67 -3.98 4.34 -5 4 C-4.67 3.34 -4.34 2.68 -4 2 C-3.34 2 -2.68 2 -2 2 C-1.34 1.34 -0.68 0.68 0 0 Z " fill="#A8B9D1" transform="translate(262,80)"/>
<path d="M0 0 C0.66 0.33 1.32 0.66 2 1 C0.68 1.33 -0.64 1.66 -2 2 C-2 2.99 -2 3.98 -2 5 C-5.75 7 -5.75 7 -8 7 C-8.99 7.495 -8.99 7.495 -10 8 C-10.66 7.34 -11.32 6.68 -12 6 C-10.04669132 4.96958487 -8.08718472 3.9509107 -6.125 2.9375 C-5.03445312 2.36902344 -3.94390625 1.80054687 -2.8203125 1.21484375 C-1.42425781 0.61349609 -1.42425781 0.61349609 0 0 Z " fill="#9AAECB" transform="translate(141,30)"/>
<path d="M0 0 C0.99 0.33 1.98 0.66 3 1 C2.67 1.66 2.34 2.32 2 3 C1.34 3 0.68 3 0 3 C-0.25523437 3.59296875 -0.51046875 4.1859375 -0.7734375 4.796875 C-2.11816498 7.21224538 -3.49214367 8.51211706 -5.625 10.25 C-6.25664062 10.77078125 -6.88828125 11.2915625 -7.5390625 11.828125 C-8.02117187 12.21484375 -8.50328125 12.6015625 -9 13 C-9.33 12.34 -9.66 11.68 -10 11 C-9 9 -9 9 -7.25 8.3125 C-3.85490441 6.33202757 -2.11829187 3.24689 0 0 Z " fill="#54B7F1" transform="translate(261,496)"/>
<path d="M0 0 C0.33 1.32 0.66 2.64 1 4 C-1.64 5.98 -4.28 7.96 -7 10 C-6.67 8.35 -6.34 6.7 -6 5 C-5.34 5 -4.68 5 -4 5 C-4 4.01 -4 3.02 -4 2 C-2.68 1.34 -1.36 0.68 0 0 Z " fill="#98AED0" transform="translate(301,526)"/>
<path d="M0 0 C1 2 1 2 0.3125 4.4375 C-1.13008173 7.25396909 -2.23297381 8.49071299 -5 10 C-5.99 9.67 -6.98 9.34 -8 9 C-5.36 6.03 -2.72 3.06 0 0 Z " fill="#5E86B2" transform="translate(78,309)"/>
<path d="M0 0 C0.66 0.33 1.32 0.66 2 1 C-0.55512866 5.35318215 -2.13031734 7.5390952 -7 9 C-8.34050052 9.65213539 -9.67661368 10.31379969 -11 11 C-7.81316569 6.66590534 -4.13621084 3.3810038 0 0 Z " fill="#7A97BD" transform="translate(82,282)"/>
<path d="M0 0 C-2.92910944 1.95273962 -5.08132291 2.75396363 -8.4375 3.6875 C-9.38496094 3.95949219 -10.33242187 4.23148437 -11.30859375 4.51171875 C-13.98918237 4.99803744 -15.46287583 4.89369149 -18 4 C-11.94744221 1.21582342 -6.74086941 -0.19826086 0 0 Z " fill="#6387AA" transform="translate(212,71)"/>
<path d="M0 0 C3.42946293 1.61674681 6.56263052 3.57597677 9.75 5.625 C11.22726563 6.57246094 11.22726563 6.57246094 12.734375 7.5390625 C13.48203125 8.02117188 14.2296875 8.50328125 15 9 C14.01 9.33 13.02 9.66 12 10 C9.08203125 8.41796875 9.08203125 8.41796875 5.8125 6.1875 C4.72582031 5.45917969 3.63914062 4.73085938 2.51953125 3.98046875 C1.68808594 3.32691406 0.85664062 2.67335938 0 2 C0 1.34 0 0.68 0 0 Z " fill="#619AC4" transform="translate(109,516)"/>
<path d="M0 0 C0.99 0.33 1.98 0.66 3 1 C2.34 2.98 1.68 4.96 1 7 C0.67 6.34 0.34 5.68 0 5 C-2.31 5.33 -4.62 5.66 -7 6 C-5.6100869 3.22017379 -3.81341647 3.12536659 -1 2 C-0.67 1.34 -0.34 0.68 0 0 Z " fill="#60BCEE" transform="translate(276,465)"/>
<path d="M0 0 C0 0.66 0 1.32 0 2 C-7.425 1.01 -7.425 1.01 -15 0 C-15 -0.33 -15 -0.66 -15 -1 C-9.2717759 -2.01086308 -5.45798603 -1.81932868 0 0 Z " fill="#77C2EE" transform="translate(172,539)"/>
<path d="M0 0 C3.39417765 3.12621626 5.6062718 5.56541027 7 10 C4.0625 8.8125 4.0625 8.8125 1 7 C0.14476234 4.49537541 0 2.61906238 0 0 Z " fill="#5C85B0" transform="translate(298,311)"/>
<path d="M0 0 C4.17882671 2.56428003 7.12505529 5.01930733 10 9 C8.02 8.34 6.04 7.68 4 7 C4 6.01 4 5.02 4 4 C2.35 3.67 0.7 3.34 -1 3 C-0.67 2.01 -0.34 1.02 0 0 Z " fill="#8EA1BC" transform="translate(250,39)"/>
<path d="M0 0 C0.99 0.495 0.99 0.495 2 1 C1.01 1.495 1.01 1.495 0 2 C0 1.34 0 0.68 0 0 Z M-1 2 C1.5654594 4.5654594 1.54046087 6.47686668 2 10 C-0.31 8.02 -2.62 6.04 -5 4 C-3.68 3.34 -2.36 2.68 -1 2 Z " fill="#9FB4D6" transform="translate(67,514)"/>
<path d="M0 0 C1.32 0.66 2.64 1.32 4 2 C4 2.66 4 3.32 4 4 C2.02 4.99 0.04 5.98 -2 7 C-2.33 5.35 -2.66 3.7 -3 2 C-2.34 2 -1.68 2 -1 2 C-0.67 1.34 -0.34 0.68 0 0 Z " fill="#5F85AF" transform="translate(215,64)"/>
<path d="M0 0 C0.99 0.495 0.99 0.495 2 1 C1.01 1.495 1.01 1.495 0 2 C0 1.34 0 0.68 0 0 Z M0 2 C0 2.66 0 3.32 0 4 C0.66 4.33 1.32 4.66 2 5 C-1.81489674 6.46726798 -4.29011622 5.43336419 -8 4 C-4.77208445 1.8480563 -3.71599191 1.79913557 0 2 Z " fill="#9BB1D2" transform="translate(137,561)"/>
<path d="M0 0 C2.25 -0.25 2.25 -0.25 5 0 C7.3125 2 7.3125 2 9 4 C8.67 4.99 8.34 5.98 8 7 C6.66382648 6.02471263 5.3311249 5.04466681 4 4.0625 C3.2575 3.51722656 2.515 2.97195313 1.75 2.41015625 C1.1725 1.94480469 0.595 1.47945312 0 1 C0 0.67 0 0.34 0 0 Z " fill="#9DB3D6" transform="translate(80,535)"/>
<path d="M0 0 C-5.445 2.475 -5.445 2.475 -11 5 C-11.66 4.34 -12.32 3.68 -13 3 C-11.5903653 2.29819469 -10.17192359 1.61406042 -8.75 0.9375 C-7.96109375 0.55464844 -7.1721875 0.17179688 -6.359375 -0.22265625 C-4 -1 -4 -1 0 0 Z " fill="#54B8F1" transform="translate(222,529)"/>
<path d="M0 0 C-3.64116773 3.33773709 -7.28607242 3.97864902 -12 5 C-12.33 4.34 -12.66 3.68 -13 3 C-11.40084119 2.30093058 -9.79544955 1.61610532 -8.1875 0.9375 C-7.29417969 0.55464844 -6.40085937 0.17179687 -5.48046875 -0.22265625 C-3 -1 -3 -1 0 0 Z " fill="#59BCF4" transform="translate(267,473)"/>
<path d="M0 0 C0.66 0.33 1.32 0.66 2 1 C1.01 2.98 0.02 4.96 -1 7 C-2.32 6.67 -3.64 6.34 -5 6 C-5 5.01 -5 4.02 -5 3 C-2.625 1.25 -2.625 1.25 0 0 Z " fill="#8CA6CC" transform="translate(102,268)"/>
<path d="M0 0 C0.99 0.66 1.98 1.32 3 2 C3 2.66 3 3.32 3 4 C1 5.625 1 5.625 -1 7 C-1.66 6.67 -2.32 6.34 -3 6 C-3 3 -3 3 -1.5 1.3125 C-0.7575 0.6628125 -0.7575 0.6628125 0 0 Z " fill="#B5CCEE" transform="translate(306,514)"/>
<path d="M0 0 C3.00617269 3.00617269 2.59585316 5.82381598 3 10 C1.35 9.67 -0.3 9.34 -2 9 C-1.34 6.03 -0.68 3.06 0 0 Z " fill="#4E89B9" transform="translate(59,435)"/>
<path d="M0 0 C0.99 0.33 1.98 0.66 3 1 C3 1.66 3 2.32 3 3 C3.598125 3.226875 4.19625 3.45375 4.8125 3.6875 C7.56351888 5.33811133 8.52484637 7.1972081 10 10 C5.86360664 8.40907948 2.76786752 5.39525082 0 2 C0 1.34 0 0.68 0 0 Z " fill="#8CA2C2" transform="translate(113,86)"/>
<path d="M0 0 C1.98567708 0.09765625 3.97135417 0.1953125 5.95703125 0.29296875 C5.95703125 0.95296875 5.95703125 1.61296875 5.95703125 2.29296875 C2.32703125 2.62296875 -1.30296875 2.95296875 -5.04296875 3.29296875 C-2.04296875 0.29296875 -2.04296875 0.29296875 0 0 Z " fill="#557CA2" transform="translate(205.04296875,555.70703125)"/>
<path d="M0 0 C2.8203125 -0.29296875 2.8203125 -0.29296875 6.125 -0.1875 C7.76855469 -0.14689453 7.76855469 -0.14689453 9.4453125 -0.10546875 C10.28835937 -0.07066406 11.13140625 -0.03585937 12 0 C8.10730337 2.59513109 4.86227989 4.24290607 0.125 3.625 C-0.57625 3.41875 -1.2775 3.2125 -2 3 C-1.34 2.01 -0.68 1.02 0 0 Z " fill="#3A759D" transform="translate(212,537)"/>
<path d="M0 0 C1.32 0 2.64 0 4 0 C3.60196439 2.88575819 3.20990931 3.82189513 0.9375 5.75 C0.298125 6.1625 -0.34125 6.575 -1 7 C-0.67 4.69 -0.34 2.38 0 0 Z " fill="#B4C4E0" transform="translate(253,90)"/>
<path d="M0 0 C2 2 2 2 2.1953125 4.1640625 C2.16050781 5.38222656 2.16050781 5.38222656 2.125 6.625 C2.10695312 7.44226562 2.08890625 8.25953125 2.0703125 9.1015625 C2.04710937 9.72804688 2.02390625 10.35453125 2 11 C1.01 10.67 0.02 10.34 -1 10 C-1.125 3.375 -1.125 3.375 0 0 Z " fill="#8BA5C5" transform="translate(149,47)"/>
<path d="M0 0 C3.24208567 0.35049575 4.61527704 0.56221181 6.8125 3.0625 C7.204375 3.701875 7.59625 4.34125 8 5 C7.401875 4.814375 6.80375 4.62875 6.1875 4.4375 C3.83591238 3.77906313 3.83591238 3.77906313 1 5 C0.67 3.35 0.34 1.7 0 0 Z " fill="#4E7BA2" transform="translate(112,521)"/>
<path d="M0 0 C-4.455 2.97 -4.455 2.97 -9 6 C-7 1 -7 1 -5.0625 -0.375 C-3 -1 -3 -1 0 0 Z " fill="#3E80A6" transform="translate(271,512)"/>
<path d="M0 0 C4.95 0.33 9.9 0.66 15 1 C15 1.33 15 1.66 15 2 C11.37 2.33 7.74 2.66 4 3 C4 2.34 4 1.68 4 1 C2.68 0.67 1.36 0.34 0 0 Z " fill="#7B98B6" transform="translate(167,114)"/>
<path d="M0 0 C2.64 1.65 5.28 3.3 8 5 C7.67 6.32 7.34 7.64 7 9 C5.82737096 7.88121617 4.66204862 6.75476949 3.5 5.625 C2.8503125 4.99851562 2.200625 4.37203125 1.53125 3.7265625 C0 2 0 2 0 0 Z " fill="#7CC5F1" transform="translate(88,494)"/>
<path d="M0 0 C-1.423125 0.680625 -1.423125 0.680625 -2.875 1.375 C-6.00313679 2.80238254 -6.00313679 2.80238254 -8 5 C-8.66 4.01 -9.32 3.02 -10 2 C-3.375 -1.125 -3.375 -1.125 0 0 Z " fill="#8BA4C7" transform="translate(171,34)"/>
<path d="M0 0 C2.1875 0.3125 2.1875 0.3125 4 1 C4 1.66 4 2.32 4 3 C3.01 3 2.02 3 1 3 C1 3.66 1 4.32 1 5 C-0.32 4.34 -1.64 3.68 -3 3 C-1.75 1.4375 -1.75 1.4375 0 0 Z " fill="#B6CAED" transform="translate(259,553)"/>
<path d="M0 0 C2.475 0.99 2.475 0.99 5 2 C2.6875 4.0625 2.6875 4.0625 0 6 C-0.99 5.67 -1.98 5.34 -3 5 C-1.68 4.01 -0.36 3.02 1 2 C0.67 1.34 0.34 0.68 0 0 Z " fill="#96B2D2" transform="translate(271,547)"/>
<path d="M0 0 C0.66 0 1.32 0 2 0 C1.625 2.9375 1.625 2.9375 1 6 C0.01 6.495 0.01 6.495 -1 7 C-1 6.34 -1 5.68 -1 5 C-1.66 5 -2.32 5 -3 5 C-2 2 -2 2 0 0 Z " fill="#5179A3" transform="translate(317,477)"/>
<path d="M0 0 C2.125 0.375 2.125 0.375 4 1 C4 1.66 4 2.32 4 3 C3.34 3 2.68 3 2 3 C2 3.99 2 4.98 2 6 C1.01 5.67 0.02 5.34 -1 5 C-1.33 4.01 -1.66 3.02 -2 2 C-1.34 1.34 -0.68 0.68 0 0 Z " fill="#B5CCF1" transform="translate(96,273)"/>
<path d="M0 0 C0.66 0.33 1.32 0.66 2 1 C1.67 1.99 1.34 2.98 1 4 C-0.65 4.33 -2.3 4.66 -4 5 C-3.6875 3.0625 -3.6875 3.0625 -3 1 C-2.01 0.67 -1.02 0.34 0 0 Z " fill="#CCE4FB" transform="translate(224,106)"/>
<path d="M0 0 C2.4375 0.6875 2.4375 0.6875 5 2 C5.8125 4.625 5.8125 4.625 6 7 C5.01 7.495 5.01 7.495 4 8 C3.67 7.01 3.34 6.02 3 5 C2.484375 4.484375 1.96875 3.96875 1.4375 3.4375 C0.963125 2.963125 0.48875 2.48875 0 2 C0 1.34 0 0.68 0 0 Z " fill="#75BCEA" transform="translate(71,470)"/>
<path d="M0 0 C1.2077558 3.62326739 0.54311128 4.64146369 -1 8 C-3 5 -3 5 -2.75 2.875 C-2 1 -2 1 0 0 Z " fill="#809BC3" transform="translate(345,456)"/>
<path d="M0 0 C0.99 0 1.98 0 3 0 C2.25 1.9375 2.25 1.9375 1 4 C-1.125 4.75 -1.125 4.75 -3 5 C-1.125 1.125 -1.125 1.125 0 0 Z " fill="#B3CCF2" transform="translate(68,297)"/>
<path d="M0 0 C-0.33 1.65 -0.66 3.3 -1 5 C-2.32 4.67 -3.64 4.34 -5 4 C-5 3.01 -5 2.02 -5 1 C-3 0 -3 0 0 0 Z " fill="#B2CDF4" transform="translate(293,297)"/>
<path d="M0 0 C1.98 0.99 3.96 1.98 6 3 C6 3.66 6 4.32 6 5 C4.35 4.67 2.7 4.34 1 4 C0.67 2.68 0.34 1.36 0 0 Z " fill="#537BA3" transform="translate(110,535)"/>
<path d="M0 0 C0 3.10551666 -0.5393715 4.35261084 -2 7 C-2.66 7 -3.32 7 -4 7 C-4.33 7.66 -4.66 8.32 -5 9 C-5 4.61031544 -2.87194899 3.23094261 0 0 Z " fill="#4B78A0" transform="translate(289,495)"/>
<path d="M0 0 C0.99 0 1.98 0 3 0 C2.6875 1.875 2.6875 1.875 2 4 C1.01 4.66 0.02 5.32 -1 6 C-1.042721 4.33388095 -1.04063832 2.66617115 -1 1 C-0.67 0.67 -0.34 0.34 0 0 Z " fill="#3787B3" transform="translate(281,492)"/>
<path d="M0 0 C0.99 0 1.98 0 3 0 C4.06775224 1.96466413 5.06553465 3.96855359 6 6 C5.67 6.66 5.34 7.32 5 8 C0 2.25 0 2.25 0 0 Z " fill="#7BC3F1" transform="translate(81,485)"/>
<path d="M0 0 C0.99 1.32 1.98 2.64 3 4 C2.01 5.32 1.02 6.64 0 8 C-1.125 2.25 -1.125 2.25 0 0 Z " fill="#98B0D8" transform="translate(36,469)"/>
<path d="M0 0 C0.66 0.33 1.32 0.66 2 1 C1 4 1 4 -2.0625 5.6875 C-3.031875 6.120625 -4.00125 6.55375 -5 7 C-3.70700306 4.11562221 -2.34058637 2.12780579 0 0 Z " fill="#7288BB" transform="translate(70,293)"/>
<path d="M0 0 C3.26460973 1.80412643 4.88929795 2.83394693 7 6 C5.68 6 4.36 6 3 6 C2.67 4.68 2.34 3.36 2 2 C1.34 2 0.68 2 0 2 C0 1.34 0 0.68 0 0 Z " fill="#869FC8" transform="translate(290,281)"/>
<path d="M0 0 C2.475 0.99 2.475 0.99 5 2 C5 2.99 5 3.98 5 5 C4.67 4.34 4.34 3.68 4 3 C2.02 3.99 2.02 3.99 0 5 C-0.33 4.01 -0.66 3.02 -1 2 C-0.67 1.34 -0.34 0.68 0 0 Z " fill="#8BA7CA" transform="translate(276,271)"/>
<path d="M0 0 C0.99 0.33 1.98 0.66 3 1 C0.9927092 4.0109362 0.16115776 4.63016497 -3 6 C-1.125 1.125 -1.125 1.125 0 0 Z " fill="#A0B6D3" transform="translate(114,49)"/>
<path d="M0 0 C-0.33 1.32 -0.66 2.64 -1 4 C-3.31 3.34 -5.62 2.68 -8 2 C-4.77208445 -0.1519437 -3.71599191 -0.20086443 0 0 Z " fill="#9FB8D3" transform="translate(161,25)"/>
</svg>
