<?xml version='1.0' encoding='utf-8'?>
<svg xmlns:ns0="http://www.w3.org/2000/svg" xmlns="http://www.w3.org/2000/svg" viewBox="0 0 24 24"><g transform="translate(-62.20005871990605 -33.01506165590135) scale(0.26423957721667646)"><polygon style="opacity:0.4;fill:#615A59;" points="277.52,192.512 259.99,202.633 274.879,211.229 283.57,211.229    286.517,203.412  " /><g><g><path style="fill:#615A59;" d="M269.388,199.958l-0.281,0.163l-0.002,0.96c-0.002,0.555,0.388,1.229,0.868,1.506     c0.243,0.14,0.47,0.15,0.628,0.056c-0.002,0.001,0.275-0.159,0.275-0.159c0.157-0.091,0.254-0.285,0.254-0.56l0.002-0.96     L269.388,199.958z" /><path style="fill:#232120;" d="M270.769,203.044c-0.357,0.618-1.179,0.811-1.836,0.431c-0.658-0.38-0.901-1.188-0.545-1.806     c0.357-0.618,1.179-0.811,1.836-0.432C270.882,201.618,271.126,202.427,270.769,203.044z" /><path style="fill:#615A59;" d="M268.163,200.665l-0.281,0.164l-0.002,0.96c-0.002,0.554,0.388,1.228,0.868,1.506     c0.243,0.14,0.47,0.15,0.628,0.056c-0.002,0.002,0.275-0.158,0.275-0.158c0.157-0.091,0.254-0.285,0.254-0.56l0.002-0.96     L268.163,200.665z" /></g><g><path style="fill:#615A59;" d="M283.307,207.995l-0.281,0.164l-0.002,0.96c-0.002,0.554,0.387,1.228,0.868,1.506     c0.243,0.14,0.47,0.15,0.628,0.056c-0.002,0.001,0.275-0.159,0.275-0.159c0.157-0.091,0.254-0.285,0.254-0.56l0.002-0.96     L283.307,207.995z" /><path style="fill:#232120;" d="M284.689,211.081c-0.357,0.618-1.179,0.811-1.836,0.432c-0.658-0.38-0.901-1.188-0.545-1.806     c0.357-0.618,1.179-0.811,1.837-0.431C284.802,209.654,285.045,210.463,284.689,211.081z" /><path style="fill:#615A59;" d="M282.083,208.702l-0.281,0.163l-0.002,0.96c-0.002,0.554,0.388,1.229,0.868,1.506     c0.243,0.14,0.47,0.15,0.628,0.056c-0.002,0.001,0.275-0.159,0.275-0.159c0.157-0.091,0.254-0.285,0.255-0.56l0.002-0.96     L282.083,208.702z" /></g><g><path style="fill:#615A59;" d="M298.748,199.08l-0.281,0.164l-0.002,0.96c-0.002,0.554,0.388,1.228,0.868,1.506     c0.243,0.14,0.47,0.149,0.628,0.056c-0.002,0.002,0.275-0.158,0.275-0.158c0.157-0.091,0.254-0.285,0.254-0.56l0.002-0.96     L298.748,199.08z" /><path style="fill:#232120;" d="M300.129,202.166c-0.357,0.618-1.179,0.811-1.836,0.432c-0.658-0.38-0.901-1.188-0.545-1.806     c0.357-0.618,1.179-0.811,1.836-0.431C300.242,200.74,300.486,201.548,300.129,202.166z" /><path style="fill:#615A59;" d="M297.524,199.787l-0.281,0.163l-0.002,0.96c-0.002,0.554,0.388,1.229,0.868,1.506     c0.243,0.14,0.47,0.15,0.628,0.056c-0.002,0.001,0.275-0.159,0.275-0.159c0.157-0.091,0.254-0.285,0.254-0.56l0.002-0.96     L297.524,199.787z" /></g><g><g><polygon style="fill:#8D8381;" points="300.79,196.623 300.799,200.152 298.327,202.106 298.319,198.578     " /><polygon style="fill:#807775;" points="298.319,198.578 298.327,202.106 286.525,208.938 286.517,205.41     " /><polygon style="fill:#726B69;" points="286.517,205.41 286.525,208.938 283.158,210.376 283.15,206.848     " /><polygon style="fill:#615A59;" points="283.15,206.848 283.158,210.376 267.317,201.23 267.309,197.702     " /></g><polygon style="fill:#A49896;" points="284.949,187.477 267.309,197.702 283.15,206.848 286.517,205.41 298.319,198.578      300.79,196.623    " /></g></g><polygon style="opacity:0.8;fill:#615A59;" points="281.799,202.357 287.662,202.812 278.101,191.715 277.098,192.028    270.516,195.843  " /><g id="Axonometric_Cube_30_"><polygon id="Cube_face_-_left_717_" style="fill:#615A59;" points="285.199,197.213 273.051,190.199 273.051,194.376     287.662,202.812   " /><polygon id="Cube_face_-_right_716_" style="fill:#B0A3A1;" points="294.56,198.83 287.662,202.812 285.199,197.213     292.096,193.231   " /><polygon id="Cube_face_-_top_715_" style="fill:#A49896;" points="285.199,197.213 273.051,190.199 279.948,186.217     292.096,193.231   " /></g><path style="fill:#464140;" d="M276.775,193.393l-3.137-1.811v-0.312l3.137,1.811V193.393z M276.775,193.687l-3.137-1.811v0.312   l3.137,1.811V193.687z M276.775,194.292l-3.137-1.811v0.312l3.137,1.811V194.292z M276.775,194.897l-3.137-1.811v0.312l3.137,1.811   V194.897z M276.775,195.503l-3.137-1.811v0.312l3.137,1.811V195.503z" /><g id="Axonometric_Cube_32_"><polygon id="Cube_face_-_left_761_" style="fill:#615A59;" points="279.325,159.259 274.879,160.008 274.879,189.15     276.453,190.059   " /><polygon id="Cube_face_-_right_760_" style="fill:#807775;" points="279.925,188.055 276.453,190.059 276.453,160.917     279.925,158.912   " /><polygon id="Cube_face_-_top_759_" style="fill:#A49896;" points="276.453,160.917 274.879,160.008 278.351,158.004     279.925,158.912   " /></g><g id="Axonometric_Cube_34_"><polygon id="Cube_face_-_left_816_" style="fill:#615A59;" points="286.524,172.018 268.7,161.728 268.7,160.508 286.524,170.798       " /><polygon id="Cube_face_-_right_815_" style="fill:#807775;" points="301.622,163.302 286.524,172.018 286.524,170.798     301.622,162.081   " /><polygon id="Cube_face_-_top_814_" style="fill:#A49896;" points="286.524,170.798 268.7,160.508 283.798,151.791     301.622,162.081   " /></g><polygon style="opacity:0.8;fill:#615A59;" points="273.289,157.859 276.444,157.859 276.776,155.846  " /><g id="Axonometric_Cube_38_"><polygon id="Cube_face_-_left_820_" style="fill:#615A59;" points="279.316,143.54 274.87,144.29 274.87,156.95 276.444,157.859       " /><polygon id="Cube_face_-_right_819_" style="fill:#807775;" points="279.916,155.854 276.444,157.859 276.444,145.198     279.916,143.194   " /><polygon id="Cube_face_-_top_816_" style="fill:#A49896;" points="276.444,145.198 274.87,144.29 278.342,142.285     279.916,143.194   " /></g><g id="Axonometric_Cube_40_"><polygon id="Cube_face_-_left_881_" style="fill:#615A59;" points="279.547,146.99 276.328,145.131 276.328,146.921     279.547,148.78   " /><polygon id="Cube_face_-_top_878_" style="fill:#A49896;" points="279.547,146.99 276.328,145.131 279.8,143.127 283.019,144.985       " /></g><g><polygon style="opacity:0.8;fill:#615A59;" points="282.508,156.782 271.753,162.991 284.036,170.082 287.761,170.082   " /><g id="Axonometric_Cube_36_"><polygon id="Cube_face_-_left_818_" style="fill:#615A59;" points="287.761,170.082 274.938,162.679 274.938,160.101      287.761,167.505    " /><polygon id="Cube_face_-_right_817_" style="fill:#807775;" points="300.361,163.208 287.761,170.482 287.761,167.505      300.361,160.23    " /></g></g><g id="Axonometric_Cube_37_"><polygon id="Cube_face_-_left_819_" style="fill:#C0BCBB;" points="287.767,168.921 274.236,161.109 274.236,159.882     287.767,167.695   " /><polygon id="Cube_face_-_right_818_" style="fill:#DBD7D6;" points="301.064,161.244 287.767,168.921 287.767,167.695     301.064,160.018   " /><polygon id="Cube_face_-_top_817_" style="fill:#F0EBE6;" points="287.767,167.695 274.236,159.882 287.532,152.206     301.064,160.018   " /></g><g><g><polygon style="fill:#A49896;" points="276.453,142.06 284.168,137.573 284.452,137.677 279.79,143.122    " /><path style="fill:#615A59;" d="M279.79,143.122l1.239,8.927c0.135,0.973-0.791,1.753-1.727,1.455l-1.321-0.421l-1.527-11.024     L279.79,143.122z" /></g><g><polygon style="fill:#807775;" points="277.151,136.964 289.72,129.654 292.213,147.616 279.644,154.926    " /><polygon style="fill:#1B1514;" points="277.909,137.333 289.17,130.783 291.455,147.247 280.194,153.797    " /><polygon style="fill:#A49896;" points="276.689,136.794 289.258,129.485 289.72,129.654 277.151,136.964    " /><polygon style="fill:#615A59;" points="277.151,136.964 279.644,154.926 279.178,154.754 276.689,136.794    " /></g></g><polygon style="opacity:0.8;fill:#C0BCBB;" points="284.846,156.361 278.215,160.189 283.371,163.166 288.064,163.166  " /><g><g id="Axonometric_Cube_41_"><polygon id="Cube_face_-_top_929_" style="fill:#FECA85;" points="288.064,157.368 282.579,154.201 288.064,151.034      293.549,154.201    " /><polygon id="Cube_face_-_left_932_" style="fill:#B78351;" points="288.064,163.166 282.579,160 282.579,154.201      288.064,157.368    " /><polygon id="Cube_face_-_right_930_" style="fill:#E2B06D;" points="293.549,160 288.064,163.166 288.064,157.368      293.549,154.201    " /></g><g><polygon id="Cube_face_-_top_930_" style="fill:#B6703B;" points="290.382,156.03 284.897,152.863 286.013,152.218      291.498,155.385    " /><polygon id="Cube_face_-_right_931_" style="fill:#91592F;" points="291.498,157.785 290.382,158.43 290.382,156.03      291.498,155.385    " /></g></g></g></svg>