<?xml version="1.0" encoding="UTF-8"?>
<svg version="1.1" xmlns="http://www.w3.org/2000/svg" width="305" height="457">
<path d="M0 0 C12.46838367 11.81962224 18.95612965 26.6071545 19.45865726 43.65885925 C19.54782357 49.55173549 19.53780883 55.44258065 19.51757812 61.3359375 C19.52300514 63.99507543 19.52998781 66.65416882 19.53881836 69.31329346 C19.55651358 75.75845768 19.55280408 82.20343455 19.5411678 88.64860582 C19.53209804 93.89130204 19.5309247 99.13394612 19.53526306 104.37664795 C19.53587599 105.12560723 19.53648893 105.8745665 19.53712043 106.64622152 C19.53839946 108.16818382 19.53969632 109.6901461 19.5410108 111.21210837 C19.55239023 125.45075207 19.53934444 139.68929241 19.51780933 153.92791915 C19.49994073 166.11931552 19.50304559 178.3105595 19.52148438 190.50195312 C19.54293786 204.69305488 19.55129184 218.88406626 19.53903532 233.07518196 C19.53776126 234.59123864 19.53650377 236.10729534 19.53526306 237.62335205 C19.53433741 238.74195934 19.53433741 238.74195934 19.53339306 239.88316476 C19.52995355 245.11359938 19.53573812 250.3439762 19.54518127 255.57440186 C19.5564526 261.95712372 19.55325428 268.33964906 19.5320583 274.72234869 C19.52161619 277.97283575 19.51949661 281.22293241 19.53065491 284.47342682 C19.60036328 306.85153082 17.21929986 322.71694584 1.37890625 339.65625 C-16.9425483 357.70694414 -41.75171128 367.87969941 -66.5625 373.25 C-67.25649902 373.40114258 -67.95049805 373.55228516 -68.66552734 373.70800781 C-82.58197435 376.50709341 -96.52780824 377.38177164 -110.6875 377.3125 C-111.46892365 377.31067719 -112.25034729 377.30885437 -113.05545044 377.30697632 C-125.89662647 377.25680462 -138.38165038 376.54483587 -151 374 C-151.88671387 373.82307617 -152.77342773 373.64615234 -153.68701172 373.46386719 C-183.17822854 367.39260868 -215.5930761 354.76045086 -233.01293945 328.80444336 C-240.26340589 317.57616492 -242.31033194 306.91995152 -242.26069641 293.6726532 C-242.26452196 292.57480572 -242.26834751 291.47695824 -242.27228898 290.34584266 C-242.28255696 286.68974071 -242.2786386 283.03379763 -242.2746582 279.37768555 C-242.27900812 276.74708919 -242.2841922 274.1164941 -242.29014587 271.48590088 C-242.30285855 265.09538475 -242.30469084 258.70491071 -242.30234561 252.31438407 C-242.30055832 247.11640747 -242.30232088 241.9184436 -242.30657005 236.72046852 C-242.30716524 235.97900464 -242.30776043 235.23754077 -242.30837366 234.47360829 C-242.30958548 232.96702513 -242.31079962 231.46044198 -242.31201603 229.95385883 C-242.3228785 215.84262611 -242.3207353 201.73141732 -242.31463119 187.62018327 C-242.30946406 174.73208415 -242.32071438 161.84406067 -242.33972941 148.95597651 C-242.35913703 135.69941453 -242.36735863 122.44288828 -242.36360615 109.18631202 C-242.36169843 101.75302981 -242.36413965 94.31981194 -242.37832069 86.88654137 C-242.39027287 80.55789747 -242.39159666 74.22935752 -242.37953053 67.9007121 C-242.37366838 64.67675505 -242.37411575 61.45302559 -242.38453293 58.22907448 C-242.45345675 35.23252899 -240.66948038 19.15722765 -224 2 C-223.38511719 1.31164063 -222.77023438 0.62328125 -222.13671875 -0.0859375 C-203.14176025 -20.66719875 -171.67896194 -29.73158869 -145 -34 C-143.9495752 -34.17571533 -143.9495752 -34.17571533 -142.87792969 -34.35498047 C-94.5858156 -42.12652346 -37.36325447 -33.37651175 0 0 Z " fill="#4E7FA9" transform="translate(264,58)"/>
<path d="M0 0 C12.46838367 11.81962224 18.95612965 26.6071545 19.45865726 43.65885925 C19.54782357 49.55173549 19.53780883 55.44258065 19.51757812 61.3359375 C19.52300514 63.99507543 19.52998781 66.65416882 19.53881836 69.31329346 C19.55651358 75.75845768 19.55280408 82.20343455 19.5411678 88.64860582 C19.53209804 93.89130204 19.5309247 99.13394612 19.53526306 104.37664795 C19.53587599 105.12560723 19.53648893 105.8745665 19.53712043 106.64622152 C19.53839946 108.16818382 19.53969632 109.6901461 19.5410108 111.21210837 C19.55239023 125.45075207 19.53934444 139.68929241 19.51780933 153.92791915 C19.49994073 166.11931552 19.50304559 178.3105595 19.52148438 190.50195312 C19.54293786 204.69305488 19.55129184 218.88406626 19.53903532 233.07518196 C19.53776126 234.59123864 19.53650377 236.10729534 19.53526306 237.62335205 C19.53433741 238.74195934 19.53433741 238.74195934 19.53339306 239.88316476 C19.52995355 245.11359938 19.53573812 250.3439762 19.54518127 255.57440186 C19.5564526 261.95712372 19.55325428 268.33964906 19.5320583 274.72234869 C19.52161619 277.97283575 19.51949661 281.22293241 19.53065491 284.47342682 C19.60036328 306.85153082 17.21929986 322.71694584 1.37890625 339.65625 C-16.9425483 357.70694414 -41.75171128 367.87969941 -66.5625 373.25 C-67.25649902 373.40114258 -67.95049805 373.55228516 -68.66552734 373.70800781 C-82.58197435 376.50709341 -96.52780824 377.38177164 -110.6875 377.3125 C-111.46892365 377.31067719 -112.25034729 377.30885437 -113.05545044 377.30697632 C-125.89662647 377.25680462 -138.38165038 376.54483587 -151 374 C-151.88671387 373.82307617 -152.77342773 373.64615234 -153.68701172 373.46386719 C-183.17822854 367.39260868 -215.5930761 354.76045086 -233.01293945 328.80444336 C-240.26340589 317.57616492 -242.31033194 306.91995152 -242.26069641 293.6726532 C-242.26452196 292.57480572 -242.26834751 291.47695824 -242.27228898 290.34584266 C-242.28255696 286.68974071 -242.2786386 283.03379763 -242.2746582 279.37768555 C-242.27900812 276.74708919 -242.2841922 274.1164941 -242.29014587 271.48590088 C-242.30285855 265.09538475 -242.30469084 258.70491071 -242.30234561 252.31438407 C-242.30055832 247.11640747 -242.30232088 241.9184436 -242.30657005 236.72046852 C-242.30716524 235.97900464 -242.30776043 235.23754077 -242.30837366 234.47360829 C-242.30958548 232.96702513 -242.31079962 231.46044198 -242.31201603 229.95385883 C-242.3228785 215.84262611 -242.3207353 201.73141732 -242.31463119 187.62018327 C-242.30946406 174.73208415 -242.32071438 161.84406067 -242.33972941 148.95597651 C-242.35913703 135.69941453 -242.36735863 122.44288828 -242.36360615 109.18631202 C-242.36169843 101.75302981 -242.36413965 94.31981194 -242.37832069 86.88654137 C-242.39027287 80.55789747 -242.39159666 74.22935752 -242.37953053 67.9007121 C-242.37366838 64.67675505 -242.37411575 61.45302559 -242.38453293 58.22907448 C-242.45345675 35.23252899 -240.66948038 19.15722765 -224 2 C-223.38511719 1.31164063 -222.77023438 0.62328125 -222.13671875 -0.0859375 C-203.14176025 -20.66719875 -171.67896194 -29.73158869 -145 -34 C-143.9495752 -34.17571533 -143.9495752 -34.17571533 -142.87792969 -34.35498047 C-94.5858156 -42.12652346 -37.36325447 -33.37651175 0 0 Z M-228 78 C-228.11420176 106.84153955 -228.20261981 135.6830523 -228.25532665 164.52477367 C-228.26157976 167.93415938 -228.26805141 171.34354465 -228.2746582 174.75292969 C-228.27596976 175.43164213 -228.27728131 176.11035457 -228.2786326 176.80963406 C-228.30035575 187.78175911 -228.33976006 198.75375242 -228.38576398 209.72579947 C-228.43261497 220.99432882 -228.45993963 232.26279267 -228.47044247 243.53142428 C-228.47695116 249.85660382 -228.49220945 256.18148511 -228.52865028 262.50656891 C-228.56270226 268.46554943 -228.57303418 274.42411013 -228.56553841 280.38317871 C-228.56690882 282.56478917 -228.5767859 284.74641433 -228.59602737 286.92794037 C-228.78000451 303.1058369 -228.78000451 303.1058369 -223 318 C-222.36578125 319.08796875 -221.7315625 320.1759375 -221.078125 321.296875 C-202.06530475 346.80980474 -169.91289406 357.17350323 -139.62890625 362.09375 C-131.76153626 363.17941136 -123.99592328 363.30306377 -116.06958008 363.26074219 C-113.70042053 363.25005827 -111.33202684 363.26068571 -108.96289062 363.2734375 C-94.74084627 363.28781465 -80.81113178 362.01625234 -66.9375 358.75 C-66.00977783 358.53311523 -65.08205566 358.31623047 -64.1262207 358.09277344 C-45.79488996 353.6447881 -26.19479234 345.7845106 -12 333 C-12 332.34 -12 331.68 -12 331 C-11.401875 330.74605469 -10.80375 330.49210938 -10.1875 330.23046875 C-3.01369347 326.19520258 2.6515238 314.5617797 5 307 C5.40597148 303.81551121 5.3929503 300.6713258 5.36076355 297.4644928 C5.36332682 296.52337833 5.3658901 295.58226387 5.36853105 294.61263078 C5.37345947 291.4695237 5.35699131 288.32690048 5.34057617 285.18383789 C5.3397297 282.92667655 5.34020544 280.66951438 5.34190369 278.41235352 C5.34276426 272.29098996 5.32512814 266.16980284 5.30418181 260.04848027 C5.2854256 253.64898273 5.2836654 247.24948112 5.28010559 240.84996033 C5.27184129 230.11079275 5.2531038 219.37170227 5.22631836 208.63256836 C5.19876326 197.57332685 5.17753679 186.51410291 5.16479492 175.45483398 C5.16400675 174.77265106 5.16321858 174.09046814 5.16240653 173.38761301 C5.15849129 169.96515524 5.1547002 166.54269735 5.15097082 163.12023938 C5.11989236 134.74678175 5.06684817 106.37339435 5 78 C3.87335857 78.9619912 2.74723735 79.92459168 1.62133789 80.88745117 C0.68059166 81.69142586 0.68059166 81.69142586 -0.27915955 82.51164246 C-2.08135358 84.07036283 -3.82004225 85.68760567 -5.5625 87.3125 C-20.02834333 99.84956422 -38.56888777 108.27096462 -57 113 C-57.9590625 113.26167969 -58.918125 113.52335937 -59.90625 113.79296875 C-63.25561346 114.64325818 -66.60754568 115.34133977 -70 116 C-70.68416992 116.13825195 -71.36833984 116.27650391 -72.07324219 116.41894531 C-85.45344312 119.01300615 -98.79384406 119.29454398 -112.375 119.3125 C-113.65088486 119.31774185 -113.65088486 119.31774185 -114.95254517 119.3230896 C-147.48699434 119.39717139 -183.05260859 112.86119427 -209.84375 93.23046875 C-212.62808167 90.8076268 -212.62808167 90.8076268 -215 91 C-215 90.34 -215 89.68 -215 89 C-216.48426233 87.41808182 -216.48426233 87.41808182 -218.375 85.875 C-219.00148438 85.33617187 -219.62796875 84.79734375 -220.2734375 84.2421875 C-221.91608428 82.80532853 -221.91608428 82.80532853 -224 83 C-224.28875 82.360625 -224.5775 81.72125 -224.875 81.0625 C-225.82823451 78.84793921 -225.82823451 78.84793921 -228 78 Z " fill="#5181AE" transform="translate(264,58)"/>
<path d="M0 0 C0.33 0 0.66 0 1 0 C1.07016488 20.81906115 1.1230248 41.63810272 1.15543652 62.45725822 C1.17088765 72.12454055 1.19194358 81.79174929 1.22631836 91.45898438 C1.25627447 99.88759319 1.27558775 108.3161487 1.28226548 116.74480927 C1.28616723 121.20532529 1.29530018 125.66568883 1.31719017 130.12615585 C1.33765357 134.33025725 1.34381401 138.53414432 1.33932304 142.73829079 C1.34014386 144.27570704 1.3460506 145.81313096 1.35761642 147.35050392 C1.48700859 165.44766002 -3.31126713 177.07389287 -16 190 C-16.59296875 190.61746094 -17.1859375 191.23492187 -17.796875 191.87109375 C-32.38981942 205.85061794 -53.58710608 212.52254475 -73 216 C-74.22976562 216.226875 -75.45953125 216.45375 -76.7265625 216.6875 C-99.97362225 220.15290021 -127.62120282 220.45959906 -150 213 C-150 159.21 -150 105.42 -150 50 C-146.94320396 50.50946601 -143.88347798 51.02738277 -140.86669922 51.73632812 C-129.94114743 54.26322091 -119.30753206 54.55340203 -108.125 54.5 C-107.17934174 54.49890228 -106.23368347 54.49780457 -105.2593689 54.49667358 C-89.97021817 54.44580825 -75.77124296 53.20779704 -61 49 C-60.22253418 48.79181641 -59.44506836 48.58363281 -58.64404297 48.36914062 C-50.19357255 46.09408477 -42.32180458 43.00093848 -34.4765625 39.13671875 C-32 38 -32 38 -30 38 C-30 37.34 -30 36.68 -30 36 C-28.31550252 34.82881699 -26.57504001 33.73757338 -24.8125 32.6875 C-19.35867292 29.31566089 -15.57657326 26.36485989 -12 21 C-11.34 21 -10.68 21 -10 21 C-9.67 19.68 -9.34 18.36 -9 17 C-8.34 17 -7.68 17 -7 17 C-6.72414062 16.30519531 -6.44828125 15.61039063 -6.1640625 14.89453125 C-4.92556397 11.81490906 -3.65405114 8.75049088 -2.375 5.6875 C-1.70597656 4.08455078 -1.70597656 4.08455078 -1.0234375 2.44921875 C-0.68570313 1.64097656 -0.34796875 0.83273438 0 0 Z " fill="#00527C" transform="translate(258,193)"/>
<path d="M0 0 C12.46838367 11.81962224 18.95612965 26.6071545 19.45865726 43.65885925 C19.54782357 49.55173549 19.53780883 55.44258065 19.51757812 61.3359375 C19.52300514 63.99507543 19.52998781 66.65416882 19.53881836 69.31329346 C19.55651358 75.75845768 19.55280408 82.20343455 19.5411678 88.64860582 C19.53209804 93.89130204 19.5309247 99.13394612 19.53526306 104.37664795 C19.53587599 105.12560723 19.53648893 105.8745665 19.53712043 106.64622152 C19.53839946 108.16818382 19.53969632 109.6901461 19.5410108 111.21210837 C19.55239023 125.45075207 19.53934444 139.68929241 19.51780933 153.92791915 C19.49994073 166.11931552 19.50304559 178.3105595 19.52148438 190.50195312 C19.54293786 204.69305488 19.55129184 218.88406626 19.53903532 233.07518196 C19.53776126 234.59123864 19.53650377 236.10729534 19.53526306 237.62335205 C19.53433741 238.74195934 19.53433741 238.74195934 19.53339306 239.88316476 C19.52995355 245.11359938 19.53573812 250.3439762 19.54518127 255.57440186 C19.5564526 261.95712372 19.55325428 268.33964906 19.5320583 274.72234869 C19.52161619 277.97283575 19.51949661 281.22293241 19.53065491 284.47342682 C19.60036328 306.85153082 17.21929986 322.71694584 1.37890625 339.65625 C-16.9425483 357.70694414 -41.75171128 367.87969941 -66.5625 373.25 C-67.25649902 373.40114258 -67.95049805 373.55228516 -68.66552734 373.70800781 C-82.58197435 376.50709341 -96.52780824 377.38177164 -110.6875 377.3125 C-111.46892365 377.31067719 -112.25034729 377.30885437 -113.05545044 377.30697632 C-125.89662647 377.25680462 -138.38165038 376.54483587 -151 374 C-151.88671387 373.82307617 -152.77342773 373.64615234 -153.68701172 373.46386719 C-183.17822854 367.39260868 -215.5930761 354.76045086 -233.01293945 328.80444336 C-240.26340589 317.57616492 -242.31033194 306.91995152 -242.26069641 293.6726532 C-242.26452196 292.57480572 -242.26834751 291.47695824 -242.27228898 290.34584266 C-242.28255696 286.68974071 -242.2786386 283.03379763 -242.2746582 279.37768555 C-242.27900812 276.74708919 -242.2841922 274.1164941 -242.29014587 271.48590088 C-242.30285855 265.09538475 -242.30469084 258.70491071 -242.30234561 252.31438407 C-242.30055832 247.11640747 -242.30232088 241.9184436 -242.30657005 236.72046852 C-242.30716524 235.97900464 -242.30776043 235.23754077 -242.30837366 234.47360829 C-242.30958548 232.96702513 -242.31079962 231.46044198 -242.31201603 229.95385883 C-242.3228785 215.84262611 -242.3207353 201.73141732 -242.31463119 187.62018327 C-242.30946406 174.73208415 -242.32071438 161.84406067 -242.33972941 148.95597651 C-242.35913703 135.69941453 -242.36735863 122.44288828 -242.36360615 109.18631202 C-242.36169843 101.75302981 -242.36413965 94.31981194 -242.37832069 86.88654137 C-242.39027287 80.55789747 -242.39159666 74.22935752 -242.37953053 67.9007121 C-242.37366838 64.67675505 -242.37411575 61.45302559 -242.38453293 58.22907448 C-242.45345675 35.23252899 -240.66948038 19.15722765 -224 2 C-223.38511719 1.31164063 -222.77023438 0.62328125 -222.13671875 -0.0859375 C-203.14176025 -20.66719875 -171.67896194 -29.73158869 -145 -34 C-143.9495752 -34.17571533 -143.9495752 -34.17571533 -142.87792969 -34.35498047 C-94.5858156 -42.12652346 -37.36325447 -33.37651175 0 0 Z M-156.3125 -17.625 C-157.15659424 -17.40368408 -158.00068848 -17.18236816 -158.87036133 -16.9543457 C-161.25218473 -16.32042726 -163.62703991 -15.66623376 -166 -15 C-167.10085937 -14.69191406 -168.20171875 -14.38382813 -169.3359375 -14.06640625 C-186.03296356 -8.9200626 -204.04332992 -0.04035619 -216 13 C-216 13.66 -216 14.32 -216 15 C-216.66 15 -217.32 15 -218 15 C-219.29855607 17.20452542 -220.58888195 19.41323296 -221.875 21.625 C-222.42220703 22.55119141 -222.42220703 22.55119141 -222.98046875 23.49609375 C-228.0158752 32.19361398 -228.97564271 39.97200224 -228 50 C-223.92634715 65.05328372 -212.26035864 77.43456883 -199.08984375 85.28515625 C-198.07019531 85.85105469 -197.05054688 86.41695313 -196 87 C-195.42008301 87.32210449 -194.84016602 87.64420898 -194.24267578 87.97607422 C-183.89613584 93.63861599 -173.28657126 97.6366185 -162 101 C-160.51693359 101.46019531 -160.51693359 101.46019531 -159.00390625 101.9296875 C-116.6406431 113.85780514 -65.41197707 108.27970998 -26.86914062 87.08691406 C-21.87394523 84.18218445 -17.39613912 80.73327888 -13 77 C-11.65615234 75.86111328 -11.65615234 75.86111328 -10.28515625 74.69921875 C-2.67761545 67.70943314 4.45367586 57.38881011 5.23828125 46.77734375 C5.48047846 34.24682472 2.41830807 26.06631305 -5 16 C-5.7425 14.989375 -6.485 13.97875 -7.25 12.9375 C-18.5163255 0.08188093 -35.26041719 -7.26528653 -51 -13 C-51.92296875 -13.36738281 -52.8459375 -13.73476563 -53.796875 -14.11328125 C-70.92380018 -20.52350325 -90.48210134 -22.18722102 -108.62329102 -22.18530273 C-110.90075068 -22.18746511 -113.17770536 -22.20559629 -115.45507812 -22.22460938 C-129.28065896 -22.27925113 -142.9138201 -21.24248832 -156.3125 -17.625 Z M-228 78 C-228.11420176 106.84153955 -228.20261981 135.6830523 -228.25532665 164.52477367 C-228.26157976 167.93415938 -228.26805141 171.34354465 -228.2746582 174.75292969 C-228.27596976 175.43164213 -228.27728131 176.11035457 -228.2786326 176.80963406 C-228.30035575 187.78175911 -228.33976006 198.75375242 -228.38576398 209.72579947 C-228.43261497 220.99432882 -228.45993963 232.26279267 -228.47044247 243.53142428 C-228.47695116 249.85660382 -228.49220945 256.18148511 -228.52865028 262.50656891 C-228.56270226 268.46554943 -228.57303418 274.42411013 -228.56553841 280.38317871 C-228.56690882 282.56478917 -228.5767859 284.74641433 -228.59602737 286.92794037 C-228.78000451 303.1058369 -228.78000451 303.1058369 -223 318 C-222.36578125 319.08796875 -221.7315625 320.1759375 -221.078125 321.296875 C-202.06530475 346.80980474 -169.91289406 357.17350323 -139.62890625 362.09375 C-131.76153626 363.17941136 -123.99592328 363.30306377 -116.06958008 363.26074219 C-113.70042053 363.25005827 -111.33202684 363.26068571 -108.96289062 363.2734375 C-94.74084627 363.28781465 -80.81113178 362.01625234 -66.9375 358.75 C-66.00977783 358.53311523 -65.08205566 358.31623047 -64.1262207 358.09277344 C-45.79488996 353.6447881 -26.19479234 345.7845106 -12 333 C-12 332.34 -12 331.68 -12 331 C-11.401875 330.74605469 -10.80375 330.49210938 -10.1875 330.23046875 C-3.01369347 326.19520258 2.6515238 314.5617797 5 307 C5.40597148 303.81551121 5.3929503 300.6713258 5.36076355 297.4644928 C5.36332682 296.52337833 5.3658901 295.58226387 5.36853105 294.61263078 C5.37345947 291.4695237 5.35699131 288.32690048 5.34057617 285.18383789 C5.3397297 282.92667655 5.34020544 280.66951438 5.34190369 278.41235352 C5.34276426 272.29098996 5.32512814 266.16980284 5.30418181 260.04848027 C5.2854256 253.64898273 5.2836654 247.24948112 5.28010559 240.84996033 C5.27184129 230.11079275 5.2531038 219.37170227 5.22631836 208.63256836 C5.19876326 197.57332685 5.17753679 186.51410291 5.16479492 175.45483398 C5.16400675 174.77265106 5.16321858 174.09046814 5.16240653 173.38761301 C5.15849129 169.96515524 5.1547002 166.54269735 5.15097082 163.12023938 C5.11989236 134.74678175 5.06684817 106.37339435 5 78 C3.87335857 78.9619912 2.74723735 79.92459168 1.62133789 80.88745117 C0.68059166 81.69142586 0.68059166 81.69142586 -0.27915955 82.51164246 C-2.08135358 84.07036283 -3.82004225 85.68760567 -5.5625 87.3125 C-20.02834333 99.84956422 -38.56888777 108.27096462 -57 113 C-57.9590625 113.26167969 -58.918125 113.52335937 -59.90625 113.79296875 C-63.25561346 114.64325818 -66.60754568 115.34133977 -70 116 C-70.68416992 116.13825195 -71.36833984 116.27650391 -72.07324219 116.41894531 C-85.45344312 119.01300615 -98.79384406 119.29454398 -112.375 119.3125 C-113.65088486 119.31774185 -113.65088486 119.31774185 -114.95254517 119.3230896 C-147.48699434 119.39717139 -183.05260859 112.86119427 -209.84375 93.23046875 C-212.62808167 90.8076268 -212.62808167 90.8076268 -215 91 C-215 90.34 -215 89.68 -215 89 C-216.48426233 87.41808182 -216.48426233 87.41808182 -218.375 85.875 C-219.00148438 85.33617187 -219.62796875 84.79734375 -220.2734375 84.2421875 C-221.91608428 82.80532853 -221.91608428 82.80532853 -224 83 C-224.28875 82.360625 -224.5775 81.72125 -224.875 81.0625 C-225.82823451 78.84793921 -225.82823451 78.84793921 -228 78 Z " fill="#ABBFD7" transform="translate(264,58)"/>
<path d="M0 0 C0.33 0 0.66 0 1 0 C1.07016488 20.81906115 1.1230248 41.63810272 1.15543652 62.45725822 C1.17088765 72.12454055 1.19194358 81.79174929 1.22631836 91.45898438 C1.25627447 99.88759319 1.27558775 108.3161487 1.28226548 116.74480927 C1.28616723 121.20532529 1.29530018 125.66568883 1.31719017 130.12615585 C1.33765357 134.33025725 1.34381401 138.53414432 1.33932304 142.73829079 C1.34014386 144.27570704 1.3460506 145.81313096 1.35761642 147.35050392 C1.48700859 165.44766002 -3.31126713 177.07389287 -16 190 C-16.59296875 190.61746094 -17.1859375 191.23492187 -17.796875 191.87109375 C-28.04123171 201.68482485 -45.57598571 211.13981741 -59.72485352 212.56835938 C-60.92912743 212.69277405 -60.92912743 212.69277405 -62.1577301 212.81970215 C-62.76567917 212.87920044 -63.37362823 212.93869873 -64 213 C-64.15393082 192.48575444 -64.30196328 171.97147388 -64.4429636 151.4571352 C-64.50856935 141.93209427 -64.57610911 132.40707437 -64.64819336 122.88208008 C-64.71101307 114.58062759 -64.77021267 106.27915855 -64.82505554 97.97764939 C-64.8542241 93.58161012 -64.88521193 89.18560058 -64.92053413 84.78960609 C-64.95372233 80.65208102 -64.98207047 76.51455104 -65.00670624 72.37696648 C-65.01660119 70.85841224 -65.02826467 69.33986835 -65.04183006 67.82134247 C-65.06009215 65.74741483 -65.07197899 63.67354382 -65.08229065 61.5995636 C-65.09058679 60.43902623 -65.09888292 59.27848886 -65.10743046 58.0827837 C-65.00913532 55.26214359 -64.64959126 52.74026623 -64 50 C-62.77925781 49.63648438 -61.55851563 49.27296875 -60.30078125 48.8984375 C-51.3218257 46.17322168 -42.79005567 43.28423148 -34.37109375 39.1015625 C-32 38 -32 38 -30 38 C-30 37.34 -30 36.68 -30 36 C-28.31550252 34.82881699 -26.57504001 33.73757338 -24.8125 32.6875 C-19.35867292 29.31566089 -15.57657326 26.36485989 -12 21 C-11.34 21 -10.68 21 -10 21 C-9.67 19.68 -9.34 18.36 -9 17 C-8.34 17 -7.68 17 -7 17 C-6.72414062 16.30519531 -6.44828125 15.61039063 -6.1640625 14.89453125 C-4.92556397 11.81490906 -3.65405114 8.75049088 -2.375 5.6875 C-1.70597656 4.08455078 -1.70597656 4.08455078 -1.0234375 2.44921875 C-0.68570313 1.64097656 -0.34796875 0.83273438 0 0 Z " fill="#024567" transform="translate(258,193)"/>
<path d="M0 0 C2.08346338 3.12519508 3.25274522 6.07053323 4.625 9.5625 C12.20468796 27.66551205 28.70779987 37.24697928 46 45 C50.01797304 46.57016049 54.09052227 47.87612438 58.21875 49.125 C61 50 61 50 62 51 C62.09687035 53.10093825 62.12186861 55.20519517 62.12025452 57.30836487 C62.12110894 57.97483833 62.12196337 58.64131179 62.12284368 59.32798141 C62.12450035 61.57748634 62.11897411 63.82691788 62.11352539 66.07641602 C62.11324353 67.68245441 62.11340122 69.28849293 62.1139679 70.89453125 C62.11425593 75.26831067 62.10835832 79.64206292 62.10139394 84.015836 C62.09516131 88.58159578 62.09455667 93.14735613 62.09336853 97.71311951 C62.09025495 106.36521305 62.08204119 115.01729403 62.07201904 123.66938204 C62.06085874 133.51685823 62.05534766 143.36433501 62.05032361 153.21181595 C62.0398586 173.474551 62.02225864 193.73727471 62 214 C60.26649092 213.54312548 58.53412868 213.08189841 56.80224609 212.61889648 C55.83741302 212.36252914 54.87257996 212.1061618 53.87850952 211.84202576 C49.62706455 210.59838694 45.65086302 208.89402347 41.625 207.0625 C40.85800781 206.72798828 40.09101562 206.39347656 39.30078125 206.04882812 C35.0315173 204.13540154 31.55916575 202.09693643 28 199 C27.236875 198.54625 26.47375 198.0925 25.6875 197.625 C12.90653907 189.89697711 4.19361112 178.41731745 0 164 C-0.77874577 158.42766502 -0.76488632 152.97155054 -0.68115234 147.35595703 C-0.67945535 145.73814966 -0.68041876 144.12033768 -0.68380737 142.50253296 C-0.68551288 138.15597698 -0.65050098 133.81043598 -0.60836363 129.46411371 C-0.57058521 124.90515593 -0.56731007 120.34616902 -0.56021118 115.78707886 C-0.54164135 107.17416001 -0.49251207 98.5617039 -0.43211424 89.94898784 C-0.36480278 80.13513078 -0.33199845 70.32125038 -0.30194163 60.50721955 C-0.23940504 40.33788915 -0.13402472 20.16897385 0 0 Z " fill="#327496" transform="translate(46,192)"/>
<path d="M0 0 C0.58612481 2.76315984 1.04172982 5.43399008 1.3125 8.25 C2.03098806 12.16902576 3.29653638 15.1529865 5.0625 18.69140625 C8.6783709 27.59548833 8.29154467 38.80672782 4.6875 47.5625 C3.01662211 51.1802266 1.23042581 54.6932293 -1 58 C-1.66 58 -2.32 58 -3 58 C-3.33 59.32 -3.66 60.64 -4 62 C-4.66 62 -5.32 62 -6 62 C-6.37125 62.928125 -6.37125 62.928125 -6.75 63.875 C-8.22770762 66.38710296 -9.43955177 66.76107344 -12 68 C-12.33 68.99 -12.66 69.98 -13 71 C-14.99609375 72.60546875 -14.99609375 72.60546875 -17.4375 74.1875 C-18.24058594 74.71730469 -19.04367188 75.24710937 -19.87109375 75.79296875 C-22 77 -22 77 -24 77 C-24 77.66 -24 78.32 -24 79 C-33.31863586 83.48295791 -42.60853246 87.45683073 -52.5625 90.3125 C-53.74428833 90.65692139 -53.74428833 90.65692139 -54.94995117 91.00830078 C-69.58882709 95.03108566 -83.68962137 96.49470588 -98.83007812 96.39111328 C-101.62939853 96.37497464 -104.42728436 96.39109026 -107.2265625 96.41015625 C-120.1980127 96.42531148 -131.62625085 95.12458305 -144 91 C-144 68.23 -144 45.46 -144 22 C-136 23 -136 23 -132.40869141 23.52416992 C-121.70549028 25.03221278 -111.17478984 25.35801102 -100.375 25.3125 C-99.06005051 25.31026428 -99.06005051 25.31026428 -97.71853638 25.3079834 C-78.8401325 25.25035452 -61.11768494 23.52271537 -43 18 C-41.70882279 17.63627881 -40.4171406 17.27434624 -39.125 16.9140625 C-27.90336104 13.69963076 -10.37759549 0 0 0 Z " fill="#1077AC" transform="translate(252,152)"/>
<path d="M0 0 C1.02351562 0.28617187 2.04703125 0.57234375 3.1015625 0.8671875 C14.74747564 4.41432546 25.88927714 10.2595181 36 17 C32.84985085 20.5889759 29.44920662 22.51666774 25.125 24.375 C24.44171631 24.67172607 23.75843262 24.96845215 23.05444336 25.27416992 C-20.91379141 43.54927314 -74.34828979 43.124629 -118.28515625 25.2265625 C-129.39684015 20.2063197 -129.39684015 20.2063197 -131 17 C-129.00266373 15.74557539 -127.00229752 14.49646336 -125 13.25 C-123.329375 12.20585937 -123.329375 12.20585937 -121.625 11.140625 C-115.23321376 7.28765696 -108.71239961 4.32606002 -101.625 2 C-100.46641479 1.61871948 -100.46641479 1.61871948 -99.28442383 1.22973633 C-93.80514636 -0.5246302 -88.29537371 -2.02890118 -82.6875 -3.3125 C-82.0083252 -3.47169922 -81.32915039 -3.63089844 -80.62939453 -3.79492188 C-54.72506476 -9.38321635 -25.36899152 -7.30237496 0 0 Z " fill="#1177AC" transform="translate(200,127)"/>
<path d="M0 0 C2.08346338 3.12519508 3.25274522 6.07053323 4.625 9.5625 C7.57167033 16.64274482 11.25542309 24.60201777 18.39325523 28.20958805 C21.47059345 29.87136882 23.64311921 31.40166339 26 34 C27.47318871 39.23110418 27.26746975 44.378377 27.13525391 49.75756836 C27.13243081 51.36448998 27.13402113 52.97142449 27.13967896 54.57833862 C27.14254231 58.92809692 27.08385857 63.27508418 27.01393938 67.62419963 C26.95132123 72.17376606 26.94554405 76.72339982 26.9336853 81.27333069 C26.90263389 89.88333042 26.8206159 98.49205672 26.72019041 107.10149628 C26.6083205 116.90540297 26.55341037 126.70937128 26.50323606 136.51375759 C26.39877851 156.6765485 26.22294724 176.83819396 26 197 C12.99307951 190.62350536 5.40053263 179.4459156 0.5843482 166.01032591 C-1.16845048 159.98019424 -0.77382494 153.57101686 -0.68115234 147.35595703 C-0.67945535 145.73814966 -0.68041876 144.12033768 -0.68380737 142.50253296 C-0.68551288 138.15597698 -0.65050098 133.81043598 -0.60836363 129.46411371 C-0.57058521 124.90515593 -0.56731007 120.34616902 -0.56021118 115.78707886 C-0.54164135 107.17416001 -0.49251207 98.5617039 -0.43211424 89.94898784 C-0.36480278 80.13513078 -0.33199845 70.32125038 -0.30194163 60.50721955 C-0.23940504 40.33788915 -0.13402472 20.16897385 0 0 Z " fill="#01527C" transform="translate(46,192)"/>
<path d="M0 0 C0.58612481 2.76315984 1.04172982 5.43399008 1.3125 8.25 C2.03098806 12.16902576 3.29653638 15.1529865 5.0625 18.69140625 C8.6783709 27.59548833 8.29154467 38.80672782 4.6875 47.5625 C3.01662211 51.1802266 1.23042581 54.6932293 -1 58 C-1.66 58 -2.32 58 -3 58 C-3.33 59.32 -3.66 60.64 -4 62 C-4.66 62 -5.32 62 -6 62 C-6.2475 62.61875 -6.495 63.2375 -6.75 63.875 C-8.22770762 66.38710296 -9.43955177 66.76107344 -12 68 C-12.495 69.485 -12.495 69.485 -13 71 C-14.99609375 72.60546875 -14.99609375 72.60546875 -17.4375 74.1875 C-18.24058594 74.71730469 -19.04367188 75.24710937 -19.87109375 75.79296875 C-22 77 -22 77 -24 77 C-24 77.66 -24 78.32 -24 79 C-49.95145631 91 -49.95145631 91 -58 91 C-58 68.23 -58 45.46 -58 22 C-53.05 20.68 -48.1 19.36 -43 18 C-30.9291789 14.67458596 -11.08296488 0 0 0 Z " fill="#0F628C" transform="translate(252,152)"/>
<path d="M0 0 C0.11417763 28.9859544 0.20260741 57.97188676 0.25532665 86.95802127 C0.26157983 90.38371703 0.26805148 93.80941233 0.2746582 97.23510742 C0.27596976 97.91707279 0.27728131 98.59903816 0.2786326 99.30166914 C0.30036155 110.32943482 0.3397691 121.35706956 0.38576398 132.38475768 C0.43259879 143.70866299 0.45993616 155.03247151 0.47044247 166.35647982 C0.47695394 172.71348479 0.49223 179.07019322 0.52865028 185.42710304 C0.56267622 191.41480708 0.5730394 197.4020934 0.56553841 203.38988495 C0.56690998 205.58320323 0.57680264 207.77653598 0.59602737 209.96977043 C0.7728633 231.19112904 0.7728633 231.19112904 -5 240 C-5.54660798 240.89564525 -5.54660798 240.89564525 -6.10425854 241.80938435 C-7.0442482 243.27232076 -8.08067904 244.67211974 -9.125 246.0625 C-9.78757812 246.96097656 -10.45015625 247.85945312 -11.1328125 248.78515625 C-13 251 -13 251 -16 253 C-16.27820021 250.00027599 -16.523055 247.00368388 -16.75 244 C-16.87181641 242.74123047 -16.87181641 242.74123047 -16.99609375 241.45703125 C-17.36564056 236.1601937 -16.91818144 232.71385739 -14.07910156 228.1796875 C-11.28345616 222.53273678 -10.74971794 216.66870253 -10.74603271 210.45484924 C-10.74291273 209.73974227 -10.73979275 209.0246353 -10.73657823 208.28785843 C-10.72866374 205.91520796 -10.73489602 203.54281794 -10.74121094 201.17016602 C-10.73849814 199.45947114 -10.73493558 197.74877744 -10.73059082 196.03808594 C-10.72149828 191.40790845 -10.72499831 186.77782041 -10.73134899 182.14764142 C-10.73642605 177.29251194 -10.73171272 172.43738992 -10.72857666 167.58226013 C-10.72494164 159.42909374 -10.72972358 151.27596362 -10.73925781 143.12280273 C-10.75013781 133.71040836 -10.74661821 124.29810066 -10.735605 114.88570839 C-10.72651455 106.79119838 -10.72525556 98.69671439 -10.73048234 90.60220093 C-10.73359284 85.77356448 -10.73403679 80.94496871 -10.72740936 76.11633492 C-10.72161107 71.57480713 -10.72567811 67.03339053 -10.73719788 62.49187469 C-10.73983136 60.82987846 -10.7391019 59.16787278 -10.73467255 57.50588036 C-10.39825722 43.16613798 -10.39825722 43.16613798 -15.125 29.875 C-17.14460393 26.13388866 -17.24642271 23.27132702 -17 19 C-17.29738664 17.65819149 -17.62357062 16.32181308 -18 15 C-17.443125 14.5875 -16.88625 14.175 -16.3125 13.75 C-11.33092138 9.98015672 -6.84965706 6.01938347 -2.53125 1.50390625 C-1 0 -1 0 0 0 Z " fill="#4F7FAA" transform="translate(269,136)"/>
<path d="M0 0 C0.74572266 0.26216309 1.49144531 0.52432617 2.25976562 0.79443359 C5.67189565 1.99164433 9.08592005 3.18336182 12.5 4.375 C13.67304687 4.7875 14.84609375 5.2 16.0546875 5.625 C22.00147831 7.6963541 27.87244735 9.5556483 34 11 C34.66 11.33 35.32 11.66 36 12 C36 34.77 36 57.54 36 81 C17.56771604 75.23991126 17.56771604 75.23991126 9.5625 70.75 C8.73685547 70.30398437 7.91121094 69.85796875 7.06054688 69.3984375 C1.22123644 66.22123644 1.22123644 66.22123644 0 65 C-0.09409479 62.97505769 -0.11743122 60.9468013 -0.11352539 58.91967773 C-0.11344986 57.61840439 -0.11337433 56.31713104 -0.11329651 54.97642517 C-0.10818909 53.54548098 -0.10297308 52.11453718 -0.09765625 50.68359375 C-0.09579203 49.2277074 -0.09436815 47.77182043 -0.09336853 46.31593323 C-0.08954365 42.47720621 -0.07971364 38.63851681 -0.06866455 34.79980469 C-0.05844978 30.88542184 -0.05387077 26.97103294 -0.04882812 23.05664062 C-0.03809134 15.37107657 -0.02101529 7.68554355 0 0 Z " fill="#3F92BD" transform="translate(72,162)"/>
<path d="M0 0 C2.11862065 3.47998332 2.35810219 6.39755283 2.4375 10.4375 C2.47746094 11.54996094 2.51742187 12.66242188 2.55859375 13.80859375 C1.63468765 19.08713419 -1.80478661 21.11939966 -5.953125 24.17578125 C-34.56410157 42.7186772 -65.89661282 49.19271512 -99.6875 49.3125 C-100.49738373 49.31644775 -101.30726746 49.32039551 -102.14169312 49.32446289 C-116.12514482 49.3561976 -129.31308279 48.03251182 -143 45 C-143 41.37 -143 37.74 -143 34 C-141.51757812 34.28875 -140.03515625 34.5775 -138.5078125 34.875 C-98.81051695 42.07550235 -53.74532525 40.60002582 -18.9375 18.10546875 C-11.70594241 12.92221138 -5.58185891 6.90387812 0 0 Z " fill="#4D7BA3" transform="translate(251,372)"/>
<path d="M0 0 C8.57678987 2.2496498 8.57678987 2.2496498 11.8125 6 C12.96170071 10.80461465 12.74412019 15.5828535 12.59375 20.48828125 C12.57881831 21.91599859 12.56743565 23.34375708 12.55944824 24.77153015 C12.52898386 28.51928012 12.45048068 32.26452691 12.36181641 36.0112915 C12.27979546 39.83856337 12.24340276 43.66624215 12.203125 47.49414062 C12.1174718 54.99723179 11.98104505 62.49826444 11.8125 70 C-0.68519679 62.95487789 -8.33977153 53.39483409 -13.12109375 39.84375 C-16.33302821 28.26666755 -14.22743691 17.47289504 -8.6875 7.0625 C-4.68840744 0 -4.68840744 0 0 0 Z " fill="#1077AB" transform="translate(60.1875,156)"/>
<path d="M0 0 C0.33 0 0.66 0 1 0 C1.07016488 20.81906115 1.1230248 41.63810272 1.15543652 62.45725822 C1.17088765 72.12454055 1.19194358 81.79174929 1.22631836 91.45898438 C1.25627447 99.88759319 1.27558775 108.3161487 1.28226548 116.74480927 C1.28616723 121.20532529 1.29530018 125.66568883 1.31719017 130.12615585 C1.33765357 134.33025725 1.34381401 138.53414432 1.33932304 142.73829079 C1.34014386 144.27570704 1.3460506 145.81313096 1.35761642 147.35050392 C1.43574285 158.27748687 0.35445395 167.3109881 -5 177 C-5.33 177 -5.66 177 -6 177 C-6.33 124.86 -6.66 72.72 -7 19 C-7.99 19.66 -8.98 20.32 -10 21 C-9.67 19.68 -9.34 18.36 -9 17 C-8.34 17 -7.68 17 -7 17 C-6.72414062 16.30519531 -6.44828125 15.61039063 -6.1640625 14.89453125 C-4.92556397 11.81490906 -3.65405114 8.75049088 -2.375 5.6875 C-1.92898438 4.61886719 -1.48296875 3.55023438 -1.0234375 2.44921875 C-0.68570312 1.64097656 -0.34796875 0.83273438 0 0 Z " fill="#03517A" transform="translate(258,193)"/>
<path d="M0 0 C2.11862065 3.47998332 2.35810219 6.39755283 2.4375 10.4375 C2.49744141 12.10619141 2.49744141 12.10619141 2.55859375 13.80859375 C1.63468765 19.08713419 -1.80478661 21.11939966 -5.953125 24.17578125 C-20.19337195 33.40494604 -39.51209984 45 -57 45 C-57 41.7 -57 38.4 -57 35 C-55.70578125 34.58105469 -54.4115625 34.16210938 -53.078125 33.73046875 C-32.26519368 26.77790823 -14.02882333 17.35143939 0 0 Z " fill="#416687" transform="translate(251,372)"/>
<path d="M0 0 C4.14009736 1.03502434 7.50764676 2.72584095 11.25 4.6875 C19.27268105 8.81088914 27.49784777 12.01520188 36 15 C36 18.3 36 21.6 36 25 C22.75676592 23.16066193 10.76028093 18.24764924 -1 12 C-0.67 8.04 -0.34 4.08 0 0 Z " fill="#7096B6" transform="translate(72,391)"/>
<path d="M0 0 C1.01835938 0.50789062 2.03671875 1.01578125 3.0859375 1.5390625 C13.48046703 6.63018463 23.91949538 10.67087978 35 14 C35.98742187 14.30679688 36.97484375 14.61359375 37.9921875 14.9296875 C77.2585166 25.96978583 128.0220201 22.77590279 164.109375 2.8203125 C164.73328125 2.54960937 165.3571875 2.27890625 166 2 C166.99 2.495 166.99 2.495 168 3 C167.67 3.66 167.34 4.32 167 5 C164.6859378 5.73075648 162.35171131 6.40138258 160 7 C160 7.66 160 8.32 160 9 C158.68 9 157.36 9 156 9 C156 9.66 156 10.32 156 11 C153.98177083 11.45572917 151.96354167 11.91145833 149.9453125 12.3671875 C147.79280036 12.90474428 147.79280036 12.90474428 146 15 C143.5133041 15.56075433 141.07418036 16.02866192 138.5625 16.4375 C133.7703766 17.26207718 129.14931747 18.1698701 124.5 19.625 C110.77475966 23.51438236 95.13952329 22.12672649 81 22.0625 C79.04948033 22.05746954 77.09895939 22.0529094 75.1484375 22.04882812 C70.43225948 22.03795747 65.71614434 22.02078019 61 22 C61 21.34 61 20.68 61 20 C60.40574219 20.02320313 59.81148437 20.04640625 59.19921875 20.0703125 C44.98945222 20.37970088 31.52901686 15.88525613 18 12 C18 11.34 18 10.68 18 10 C16.35 10 14.7 10 13 10 C13 9.34 13 8.68 13 8 C12.39671875 7.81824219 11.7934375 7.63648438 11.171875 7.44921875 C2.82352941 4.82352941 2.82352941 4.82352941 0 2 C0 1.34 0 0.68 0 0 Z " fill="#98C3E3" transform="translate(67,144)"/>
<path d="M0 0 C6.99657059 9.32876078 8.10668964 19.60831422 7 31 C5.7500328 35.23029944 4.20980693 39.17636436 2 43 C1.01 43.495 1.01 43.495 0 44 C0 29.48 0 14.96 0 0 Z " fill="#1575A6" transform="translate(252,162)"/>
<path d="M0 0 C4.54898512 0.26758736 6.89833331 2.16296389 9.890625 5.37890625 C11 7 11 7 11.125 9.6875 C9.75239356 12.5089688 8.79663601 13.56388962 6 15 C2.75 15.1875 2.75 15.1875 0 15 C-1.1815224 11.4554328 -0.64290553 9.64313132 0 6 C0.03703069 4.00034285 0.04760556 1.99943335 0 0 Z " fill="#B2C4DB" transform="translate(258,56)"/>
<path d="M0 0 C2.98959344 0.44348936 5.84329094 0.42625465 8.85913086 0.38769531 C12.33705266 0.47057068 15.67104257 1.13055333 19.07421875 1.8125 C20.08935547 2.00199219 20.08935547 2.00199219 21.125 2.1953125 C25.19179379 2.98192639 29.05117376 4.04100413 32.94921875 5.4375 C32.28921875 6.0975 31.62921875 6.7575 30.94921875 7.4375 C28.96899414 7.31323242 28.96899414 7.31323242 26.546875 6.79296875 C25.20979492 6.51936523 25.20979492 6.51936523 23.84570312 6.24023438 C22.91048828 6.03720703 21.97527344 5.83417969 21.01171875 5.625 C8.58276757 2.98262455 -3.54787471 2.26147768 -16.23828125 1.875 C-17.58529593 1.83167354 -18.93230126 1.78805552 -20.27929688 1.74414062 C-23.53637852 1.63907348 -26.79352322 1.53692166 -30.05078125 1.4375 C-30.05078125 1.1075 -30.05078125 0.7775 -30.05078125 0.4375 C-20.06088071 -2.69658644 -10.16831395 -2.08878347 0 0 Z " fill="#4184B4" transform="translate(167.05078125,119.5625)"/>
<path d="M0 0 C0 4.95 0 9.9 0 15 C-0.33 15 -0.66 15 -1 15 C-1 10.71 -1 6.42 -1 2 C-2.2375 2.309375 -3.475 2.61875 -4.75 2.9375 C-19.46502158 5.86390063 -35.06549075 5.15204817 -50 5 C-50.33 4.34 -50.66 3.68 -51 3 C-49.792229 2.970271 -49.792229 2.970271 -48.56005859 2.93994141 C-45.49945722 2.86065575 -42.43917018 2.773946 -39.37890625 2.68261719 C-37.43244228 2.62665161 -35.48574957 2.57882687 -33.5390625 2.53125 C-25.91665695 2.29791105 -18.52802644 1.6453668 -10.99804688 0.42773438 C-7.27024505 -0.10411488 -3.75635258 -0.1502541 0 0 Z " fill="#2779A5" transform="translate(194,175)"/>
<path d="M0 0 C-2.44171168 2.44171168 -3.46777962 2.37907683 -6.83984375 2.74609375 C-8.31227539 2.91915039 -8.31227539 2.91915039 -9.81445312 3.09570312 C-11.86132179 3.31971939 -13.90819657 3.54367975 -15.95507812 3.76757812 C-27.87488344 4.70554765 -27.87488344 4.70554765 -38 10 C-39.95586624 10.6388225 -41.94067464 11.19131915 -43.9375 11.6875 C-44.99839844 11.95949219 -46.05929688 12.23148438 -47.15234375 12.51171875 C-50 13 -50 13 -53 12 C-36.35216932 4.86815155 -18.37702866 -1.56031375 0 0 Z " fill="#1F74A7" transform="translate(139,122)"/>
<path d="M0 0 C5.74025222 -0.57402522 9.12790098 1.36489586 14 4 C18.76751718 6.25829761 22.79022621 7.31191667 28 8 C28.57234375 8.30808594 29.1446875 8.61617187 29.734375 8.93359375 C33.47264152 10.69315713 37.55550643 11.14978636 41.59960938 11.85546875 C44.99574605 12.48275914 47.08045944 13.05363963 50 15 C42.4181293 14.54270985 35.4233464 13.331438 28.125 11.25 C27.17189941 10.98340576 26.21879883 10.71681152 25.23681641 10.44213867 C6.12435327 4.9886164 6.12435327 4.9886164 0 0 Z " fill="#2C79A3" transform="translate(75,148)"/>
<path d="M0 0 C26.23973744 -0.37977799 26.23973744 -0.37977799 37.4375 0.875 C38.15663574 0.95347168 38.87577148 1.03194336 39.61669922 1.11279297 C43.10025398 1.55492014 45.98268624 2.16337424 49 4 C47.20841511 4.02696365 45.41671527 4.04637917 43.625 4.0625 C42.62726563 4.07410156 41.62953125 4.08570312 40.6015625 4.09765625 C38 4 38 4 36 3 C32.76206347 2.63603344 29.50386692 2.53170181 26.25 2.375 C25.35539062 2.3234375 24.46078125 2.271875 23.5390625 2.21875 C18.83898064 1.98305268 14.64220962 2.07447312 10 3 C7.9375 2.5625 7.9375 2.5625 6 2 C4.33376361 1.96213099 2.66602403 1.95372155 1 2 C0.67 1.34 0.34 0.68 0 0 Z " fill="#1D73A6" transform="translate(139,121)"/>
<path d="M0 0 C0.66 0 1.32 0 2 0 C2.04935509 5.37514905 2.08569802 10.75016685 2.10986328 16.12548828 C2.11993484 17.95493873 2.13359276 19.78437303 2.15087891 21.61376953 C2.17507677 24.23994934 2.18647132 26.86591675 2.1953125 29.4921875 C2.20563507 30.31306854 2.21595764 31.13394958 2.22659302 31.97970581 C2.22699184 33.98789142 2.1224954 35.99555382 2 38 C1.34 38.66 0.68 39.32 0 40 C-0.16742247 34.62501726 -0.32800169 29.24989076 -0.48217773 23.87451172 C-0.53562295 22.04502834 -0.59095425 20.21559907 -0.64819336 18.38623047 C-0.73003411 15.76020984 -0.80514096 13.13407081 -0.87890625 10.5078125 C-0.90594131 9.68693146 -0.93297638 8.86605042 -0.96083069 8.02029419 C-1.11387171 2.22774341 -1.11387171 2.22774341 0 0 Z " fill="#537A9D" transform="translate(267,313)"/>
<path d="M0 0 C0.99 0.66 1.98 1.32 3 2 C-1.9411103 8.92082668 -7.53236704 14.49535464 -14 20 C-14.33 19.01 -14.66 18.02 -15 17 C-14 15.66666667 -13 14.33333333 -12 13 C-12.33 12.01 -12.66 11.02 -13 10 C-11.68 10.66 -10.36 11.32 -9 12 C-8.67 11.34 -8.34 10.68 -8 10 C-7.01 10 -6.02 10 -5 10 C-5 9.34 -5 8.68 -5 8 C-5.66 8 -6.32 8 -7 8 C-5.50902342 4.2047869 -3.24299151 2.38957269 0 0 Z " fill="#899EB8" transform="translate(271,385)"/>
<path d="M0 0 C-2.81168096 0.79467142 -5.62428502 1.58579233 -8.4375 2.375 C-9.6121582 2.70757812 -9.6121582 2.70757812 -10.81054688 3.046875 C-26.04038125 7.30872166 -26.04038125 7.30872166 -32.5625 7.125 C-33.40941406 7.10695312 -34.25632813 7.08890625 -35.12890625 7.0703125 C-35.74636719 7.04710937 -36.36382812 7.02390625 -37 7 C-36.67 6.34 -36.34 5.68 -36 5 C-33.70109826 4.59954615 -31.38328648 4.30593914 -29.0625 4.0625 C-23.5432063 3.42953546 -18.42880078 2.39592816 -13.1484375 0.66796875 C-8.52565103 -0.76929759 -4.63937272 -1.32553506 0 0 Z " fill="#2476A1" transform="translate(212,156)"/>
<path d="M0 0 C0.33 0.66 0.66 1.32 1 2 C1.66 2 2.32 2 3 2 C3.33 1.34 3.66 0.68 4 0 C7.71069698 3.99613521 9.59791618 6.37082652 10 12 C6.52224821 10.48446596 4.0442016 8.4226544 1.25 5.875 C0.45078125 5.15054687 -0.3484375 4.42609375 -1.171875 3.6796875 C-1.77515625 3.12539063 -2.3784375 2.57109375 -3 2 C-2.01 1.34 -1.02 0.68 0 0 Z " fill="#9AACC6" transform="translate(40,393)"/>
<path d="M0 0 C4.67692308 1.47692308 4.67692308 1.47692308 6.3125 4.125 C6.539375 4.74375 6.76625 5.3625 7 6 C6.01 7.485 6.01 7.485 5 9 C3 8 3 8 2 7 C2 7.99 2 8.98 2 10 C2.66 10.33 3.32 10.66 4 11 C3.67 11.99 3.34 12.98 3 14 C3.99 14.99 4.98 15.98 6 17 C3.83125748 16.49396008 2.00032373 16.00016187 0 15 C-0.85056945 11.44307323 -1.16909807 9.50729422 0 6 C-0.33 5.34 -0.66 4.68 -1 4 C-0.67 3.67 -0.34 3.34 0 3 C0 2.01 0 1.02 0 0 Z " fill="#B0C4DD" transform="translate(234,40)"/>
<path d="M0 0 C1.0415625 0.13277344 2.083125 0.26554688 3.15625 0.40234375 C9.26570372 1.16602546 15.38326081 1.86008325 21.5 2.5625 C23.30597656 2.77036133 23.30597656 2.77036133 25.1484375 2.98242188 C28.09891863 3.32196137 31.04944024 3.66114466 34 4 C34 4.33 34 4.66 34 5 C33.03578125 5.06058594 32.0715625 5.12117187 31.078125 5.18359375 C29.81484375 5.26738281 28.5515625 5.35117188 27.25 5.4375 C25.99703125 5.51871094 24.7440625 5.59992188 23.453125 5.68359375 C20.15437489 5.87914067 20.15437489 5.87914067 17.671875 6.66015625 C17.12015625 6.77230469 16.5684375 6.88445312 16 7 C15.34 6.34 14.68 5.68 14 5 C9.37339673 3.45779891 4.83461589 2.59199378 0 2 C0 1.34 0 0.68 0 0 Z " fill="#2576A2" transform="translate(108,174)"/>
<path d="M0 0 C0.33 0.66 0.66 1.32 1 2 C-3.0804554 2.86832448 -7.1647197 3.71719228 -11.25 4.5625 C-12.40886719 4.80935547 -13.56773438 5.05621094 -14.76171875 5.31054688 C-15.87675781 5.53935547 -16.99179688 5.76816406 -18.140625 6.00390625 C-19.16704102 6.21861572 -20.19345703 6.4333252 -21.25097656 6.65454102 C-23.8930768 6.98656338 -25.50892539 6.85728404 -28 6 C-27.34 6 -26.68 6 -26 6 C-26 5.34 -26 4.68 -26 4 C-8.14350797 0.74031891 -8.14350797 0.74031891 0 0 Z " fill="#4484B4" transform="translate(132,120)"/>
<path d="M0 0 C5.78922561 0.11578451 10.69722759 2.13309285 15 6 C15 6.99 15 7.98 15 9 C12.525 8.505 12.525 8.505 10 8 C10 7.34 10 6.68 10 6 C9.34 6 8.68 6 8 6 C8 5.34 8 4.68 8 4 C6.081875 3.690625 6.081875 3.690625 4.125 3.375 C3.04605469 3.20097656 3.04605469 3.20097656 1.9453125 3.0234375 C1.30335937 3.01570312 0.66140625 3.00796875 0 3 C-0.66 3.66 -1.32 4.32 -2 5 C-2 2 -2 2 0 0 Z " fill="#2275A4" transform="translate(57,156)"/>
<path d="M0 0 C0.66 0.33 1.32 0.66 2 1 C1.0925 1.5775 0.185 2.155 -0.75 2.75 C-5.81136914 6.13879928 -5.81136914 6.13879928 -8.75 11.25 C-8.8325 11.8275 -8.915 12.405 -9 13 C-13.875 11.25 -13.875 11.25 -15 9 C-12.87562549 7.68647829 -10.75053408 6.37414287 -8.625 5.0625 C-8.02171875 4.68931641 -7.4184375 4.31613281 -6.796875 3.93164062 C-2.2265625 1.11328125 -2.2265625 1.11328125 0 0 Z " fill="#2376A7" transform="translate(84,135)"/>
<path d="M0 0 C0.66 0 1.32 0 2 0 C1.03703817 3.62962537 0.05317004 6.88258283 -1.5 10.3125 C-3.32607531 14.8016018 -4.18581832 19.23943181 -5 24 C-5.33 24 -5.66 24 -6 24 C-6.48897329 15.19848081 -4.26499426 7.71760867 0 0 Z " fill="#1D74A7" transform="translate(52,162)"/>
<path d="M0 0 C1.65 0.66 3.3 1.32 5 2 C1.56847902 6.02131365 -2.25621835 7.81248624 -7 9.875 C-8.06734375 10.37386719 -8.06734375 10.37386719 -9.15625 10.8828125 C-14.40196438 13.19249271 -14.40196438 13.19249271 -17.5 12.1953125 C-17.995 11.80085937 -18.49 11.40640625 -19 11 C-17.56445975 10.49440092 -16.1264798 9.9957251 -14.6875 9.5 C-13.88699219 9.2215625 -13.08648437 8.943125 -12.26171875 8.65625 C-10 8 -10 8 -7 8 C-7 7.34 -7 6.68 -7 6 C-4.69 5.34 -2.38 4.68 0 4 C0 2.68 0 1.36 0 0 Z " fill="#2876A2" transform="translate(231,142)"/>
<path d="M0 0 C-8.8212824 3.82810368 -8.8212824 3.82810368 -13 4.4375 C-16.16735776 4.82856035 -16.16735776 4.82856035 -19 7 C-19.99 7 -20.98 7 -22 7 C-22.33 7.66 -22.66 8.32 -23 9 C-24.32 8.34 -25.64 7.68 -27 7 C-5.09456773 -1.68663694 -5.09456773 -1.68663694 0 0 Z M-12 4 C-10 5 -10 5 -10 5 Z " fill="#7992B1" transform="translate(103,29)"/>
<path d="M0 0 C1.98 0.66 3.96 1.32 6 2 C6 2.66 6 3.32 6 4 C6.70125 4.0825 7.4025 4.165 8.125 4.25 C11.6903452 5.18009005 14.09015572 6.76686369 17 9 C17 9.66 17 10.32 17 11 C12.46152802 9.65072455 8.68067754 7.80840652 4.625 5.375 C3.56539062 4.74335938 2.50578125 4.11171875 1.4140625 3.4609375 C0.61742187 2.97882813 -0.17921875 2.49671875 -1 2 C-0.67 1.34 -0.34 0.68 0 0 Z " fill="#9AC3E2" transform="translate(58,152)"/>
<path d="M0 0 C0 3.61537605 -0.89229241 5.11165997 -3 8 C-3.99 8 -4.98 8 -6 8 C-6.33 9.65 -6.66 11.3 -7 13 C-7.99 13.33 -8.98 13.66 -10 14 C-10 14.99 -10 15.98 -10 17 C-10.66 17 -11.32 17 -12 17 C-9.91435882 10.32594822 -5.07434458 4.68401038 0 0 Z " fill="#869DBF" transform="translate(40,60)"/>
<path d="M0 0 C3.81936528 1.55603771 6.26044438 3.95604931 9 7 C9 7.66 9 8.32 9 9 C6.69 8.67 4.38 8.34 2 8 C0 1.125 0 1.125 0 0 Z " fill="#8598B8" transform="translate(260,56)"/>
<path d="M0 0 C7.89957062 -0.27990605 15.2472493 0.48462814 23 2 C21 4 21 4 18.75 4.046875 C12.41301504 3.36276867 6.22179299 2.39011861 0 1 C0 0.67 0 0.34 0 0 Z " fill="#93BFE0" transform="translate(106,173)"/>
<path d="M0 0 C7.58954531 0.44644384 14.01639737 3.11500562 21 6 C17.80042565 7.05711427 16.03354912 6.95184778 12.890625 5.78515625 C12.13652344 5.51123047 11.38242188 5.23730469 10.60546875 4.95507812 C9.82816406 4.66052734 9.05085938 4.36597656 8.25 4.0625 C7.45722656 3.77181641 6.66445312 3.48113281 5.84765625 3.18164062 C3.89487371 2.46405186 1.94694059 1.73329094 0 1 C0 0.67 0 0.34 0 0 Z " fill="#9EC5E3" transform="translate(75,163)"/>
<path d="M0 0 C7.92 2.64 15.84 5.28 24 8 C24 8.33 24 8.66 24 9 C21.36 9 18.72 9 16 9 C16 8.34 16 7.68 16 7 C15.43152344 6.89042969 14.86304687 6.78085938 14.27734375 6.66796875 C9.17683242 5.62061834 4.715558 4.20728247 0 2 C0 1.34 0 0.68 0 0 Z " fill="#5693B6" transform="translate(72,162)"/>
<path d="M0 0 C-0.57344937 2.86724686 -0.8614515 3.8614515 -3 6 C-5.72869407 5.96712417 -8.2966618 5.43602229 -11 5 C-4.63636364 0 -4.63636364 0 0 0 Z " fill="#23668A" transform="translate(236,161)"/>
<path d="M0 0 C0.80967438 2.91482778 1.21845993 4.46113217 0.0625 7.3125 C-0.288125 7.869375 -0.63875 8.42625 -1 9 C-2.65 7.35 -4.3 5.7 -6 4 C-6.33 4.66 -6.66 5.32 -7 6 C-7.66 5.34 -8.32 4.68 -9 4 C-2.25 0 -2.25 0 0 0 Z " fill="#3C6C91" transform="translate(252,152)"/>
<path d="M0 0 C2.475 0.99 2.475 0.99 5 2 C5.33 4.64 5.66 7.28 6 10 C6.66 10 7.32 10 8 10 C7.67 10.99 7.34 11.98 7 13 C6.01364163 11.58833114 5.03618745 10.17043816 4.0625 8.75 C3.51722656 7.96109375 2.97195312 7.1721875 2.41015625 6.359375 C1.10377559 4.17363007 0.45019489 2.4846199 0 0 Z " fill="#557B9F" transform="translate(39,370)"/>
<path d="M0 0 C0.99 0 1.98 0 3 0 C3.6708712 1.6232687 4.33657029 3.24867578 5 4.875 C5.556875 6.23238281 5.556875 6.23238281 6.125 7.6171875 C7 10 7 10 7 12 C6.34 12 5.68 12 5 12 C1.24039194 8.24039194 0.41105855 5.24099655 0 0 Z " fill="#97ACCD" transform="translate(274,75)"/>
<path d="M0 0 C1.65 0.33 3.3 0.66 5 1 C5 1.66 5 2.32 5 3 C7.97 3.33 10.94 3.66 14 4 C14 4.33 14 4.66 14 5 C7.4294834 5.24794402 1.43028541 4.32388229 -5 3 C-5 2.67 -5 2.34 -5 2 C-3.35 2 -1.7 2 0 2 C0 1.34 0 0.68 0 0 Z " fill="#0F6D9E" transform="translate(123,243)"/>
<path d="M0 0 C0.33 0 0.66 0 1 0 C1.37952295 6.19887485 0.8352113 10.4477112 -2 16 C-2.66 16 -3.32 16 -4 16 C-3.2571856 11.91452078 -2.1594004 7.98543888 -1 4 C-0.65864073 2.66869885 -0.32074044 1.33641852 0 0 Z " fill="#5A7FA2" transform="translate(268,356)"/>
<path d="M0 0 C0.66 0.66 1.32 1.32 2 2 C-4.435 4.97 -4.435 4.97 -11 8 C-11.33 7.34 -11.66 6.68 -12 6 C-8.86405821 3.34651079 -5.91063817 2.19019423 -2 1 C-1.34 0.67 -0.68 0.34 0 0 Z " fill="#9CC3E0" transform="translate(233,159)"/>
<path d="M0 0 C0.66 0.33 1.32 0.66 2 1 C-0.70615034 10.59453303 -0.70615034 10.59453303 -5 14 C-3.45730076 9.27934033 -1.92205381 4.58335908 0 0 Z " fill="#A4C0DD" transform="translate(269,106)"/>
<path d="M0 0 C2.6486859 3.19668988 4.93992341 6.39486597 7 10 C5.35 10 3.7 10 2 10 C0 3.375 0 3.375 0 0 Z " fill="#A2BEDB" transform="translate(40,374)"/>
<path d="M0 0 C-3.19801825 2.82901615 -5.73715752 3.73357234 -10 4 C-12.1875 3.01171875 -12.1875 3.01171875 -14 2 C-4.58997722 -0.29612756 -4.58997722 -0.29612756 0 0 Z M-5 3 C-4.34 3.66 -3.68 4.32 -3 5 C-3.66 5 -4.32 5 -5 5 C-5 4.34 -5 3.68 -5 3 Z " fill="#798DAC" transform="translate(117,25)"/>
<path d="M0 0 C5.06998019 0.65419099 9.41990777 2.8546409 14 5 C10.59605919 5.95397067 8.43045321 6.05552406 5 5 C3.3125 3.5625 3.3125 3.5625 2 2 C1.34 1.34 0.68 0.68 0 0 Z " fill="#5B82A7" transform="translate(216,47)"/>
<path d="M0 0 C0.66 0.33 1.32 0.66 2 1 C0.68 1.99 -0.64 2.98 -2 4 C-1.34 2.68 -0.68 1.36 0 0 Z M-4 5 C-3.67 5.99 -3.34 6.98 -3 8 C-3.99 8.99 -4.98 9.98 -6 11 C-6.66 10.67 -7.32 10.34 -8 10 C-8 9.34 -8 8.68 -8 8 C-6 6.375 -6 6.375 -4 5 Z " fill="#A3C0DC" transform="translate(260,381)"/>
<path d="M0 0 C0 0.33 0 0.66 0 1 C-2.12472576 1.05386629 -4.24983652 1.09273071 -6.375 1.125 C-8.15003906 1.15980469 -8.15003906 1.15980469 -9.9609375 1.1953125 C-13 1 -13 1 -15 -1 C-10.85071099 -3.0746445 -4.43943353 -0.97112608 0 0 Z " fill="#ACC7E6" transform="translate(117,172)"/>
<path d="M0 0 C0.99 0 1.98 0 3 0 C3.33 1.65 3.66 3.3 4 5 C4.66 5 5.32 5 6 5 C6.33 6.32 6.66 7.64 7 9 C4.60510457 8.25675659 3.29222384 7.52942646 2.06640625 5.30859375 C1.32780077 3.55926499 0.65950315 1.78065851 0 0 Z " fill="#5A82A6" transform="translate(39,115)"/>
<path d="M0 0 C4.27786748 0.49360009 7.09567131 1.04783565 11 3 C7.37 3 3.74 3 0 3 C0 2.01 0 1.02 0 0 Z " fill="#A9C4E2" transform="translate(170,34)"/>
<path d="M0 0 C5.53846154 0.49230769 5.53846154 0.49230769 7.875 3.0625 C8.431875 4.0215625 8.431875 4.0215625 9 5 C8.01 5.495 8.01 5.495 7 6 C1.125 2.25 1.125 2.25 0 0 Z " fill="#5A7FA1" transform="translate(62,396)"/>
<path d="M0 0 C1.32 0 2.64 0 4 0 C2.47291037 3.43595166 0.40072955 6.11912454 -2 9 C-1.34 6.03 -0.68 3.06 0 0 Z " fill="#4584B4" transform="translate(53,155)"/>
<path d="M0 0 C2 1.375 2 1.375 4 3 C4 3.66 4 4.32 4 5 C4.66 5.33 5.32 5.66 6 6 C4.02 6.33 2.04 6.66 0 7 C0 4.69 0 2.38 0 0 Z " fill="#5E83A5" transform="translate(36,136)"/>
<path d="M0 0 C-1.14018002 3.42054006 -1.92458518 4.2426201 -5 6 C-7.13671875 5.578125 -7.13671875 5.578125 -9 5 C-7.87926138 4.16094435 -6.75325453 3.32892169 -5.625 2.5 C-4.99851562 2.0359375 -4.37203125 1.571875 -3.7265625 1.09375 C-2 0 -2 0 0 0 Z " fill="#839EBC" transform="translate(62,44)"/>
<path d="M0 0 C0.33 0.66 0.66 1.32 1 2 C1.66 2 2.32 2 3 2 C3.33 1.34 3.66 0.68 4 0 C3.67 1.65 3.34 3.3 3 5 C2.01 5 1.02 5 0 5 C-1.6875 3 -1.6875 3 -3 1 C-2.01 0.67 -1.02 0.34 0 0 Z " fill="#8293B4" transform="translate(40,393)"/>
<path d="M0 0 C3.45925163 1.2491742 6.14693203 2.67527795 9 5 C7.3125 5.8125 7.3125 5.8125 5 6 C2.25 3.625 2.25 3.625 0 1 C0 0.67 0 0.34 0 0 Z " fill="#8295B8" transform="translate(238,41)"/>
<path d="M0 0 C1.32 0 2.64 0 4 0 C4 0.66 4 1.32 4 2 C5.32 1.67 6.64 1.34 8 1 C8.33 2.32 8.66 3.64 9 5 C5.22454612 3.90931332 2.52956528 3.0916909 0 0 Z " fill="#8093AC" transform="translate(60,412)"/>
<path d="M0 0 C2.31 1.65 4.62 3.3 7 5 C5.68 5.33 4.36 5.66 3 6 C0.75 4.5625 0.75 4.5625 -1 3 C-0.67 2.01 -0.34 1.02 0 0 Z " fill="#5F86AC" transform="translate(42,142)"/>
<path d="M0 0 C1 3 1 3 0.25 5.125 C-1 7 -1 7 -4 8 C-3.40138258 5.64828869 -2.73075648 3.3140622 -2 1 C-1.34 0.67 -0.68 0.34 0 0 Z " fill="#A2BEDA" transform="translate(269,366)"/>
<path d="M0 0 C-1.0625 1.5625 -1.0625 1.5625 -3 3 C-6.6875 2.6875 -6.6875 2.6875 -10 2 C-10 1.67 -10 1.34 -10 1 C-8.71073008 0.63720544 -7.41846728 0.28503302 -6.125 -0.0625 C-5.40570313 -0.25972656 -4.68640625 -0.45695313 -3.9453125 -0.66015625 C-2 -1 -2 -1 0 0 Z " fill="#2C6E90" transform="translate(211,171)"/>
<path d="M0 0 C1.32 0.33 2.64 0.66 4 1 C3.67 3.31 3.34 5.62 3 8 C0.4345406 5.4345406 0.45953913 3.52313332 0 0 Z " fill="#7F95B0" transform="translate(24,370)"/>
<path d="M0 0 C-3.4352048 2.29013653 -4.985331 2.17842973 -9 2 C-9 1.34 -9 0.68 -9 0 C-5.62182575 -0.84454356 -3.32534757 -1.10844919 0 0 Z " fill="#1E6185" transform="translate(203,174)"/>
<path d="M0 0 C-3.96 1.98 -3.96 1.98 -8 4 C-8 2.68 -8 1.36 -8 0 C-4.71303767 -0.79953138 -3.28976808 -1.09658936 0 0 Z " fill="#98BCDA" transform="translate(247,155)"/>
<path d="M0 0 C3.465 1.98 3.465 1.98 7 4 C7 4.33 7 4.66 7 5 C3.28400809 5.20086443 2.22791555 5.1519437 -1 3 C-0.67 2.01 -0.34 1.02 0 0 Z " fill="#5E84A9" transform="translate(50,149)"/>
</svg>
