<?xml version='1.0' encoding='utf-8'?>
<svg xmlns:ns0="http://www.w3.org/2000/svg" xmlns="http://www.w3.org/2000/svg" viewBox="0 0 24 24"><g transform="translate(-4.029911894273129 -33.1577973568282) scale(0.2643171806167401)"><polygon style="opacity:0.4;fill:#615A59;" points="54.393,200.833 46.93,205.142 58.301,211.707 68.532,211.707 65.911,200.833     " /><g id="_x35_"><polygon id="Cube_face_-_left_655_" style="fill:#C0BCBB;" points="70.745,163.582 60.31,157.557 60.31,156.639 70.745,162.664       " /><g><polygon style="fill:#DBD7D6;" points="77.511,158.674 70.745,162.581 70.745,163.499 77.511,159.592 81.349,157.376      81.349,156.458    " /><polygon style="fill:#F0EBE6;" points="81.349,156.458 70.914,150.433 67.13,152.618 60.31,156.556 70.745,162.581      77.565,158.643    " /></g><path style="fill:#A49896;" d="M71.446,151.279l-0.405,0.234c-0.047,0.027-0.121,0.029-0.164,0.004l-0.447-0.26    c-0.043-0.025-0.04-0.068,0.007-0.095l0.405-0.234c0.048-0.028,0.121-0.029,0.164-0.004l0.447,0.26    C71.496,151.209,71.494,151.251,71.446,151.279z M72.175,151.604l-0.447-0.26c-0.044-0.026-0.116-0.024-0.164,0.004l-0.405,0.234    c-0.047,0.027-0.051,0.069-0.007,0.095l0.447,0.26c0.043,0.025,0.117,0.023,0.164-0.004l0.405-0.234    C72.216,151.671,72.218,151.629,72.175,151.604z M70.742,151.594l-0.446-0.26c-0.043-0.025-0.117-0.023-0.164,0.003l-0.406,0.235    c-0.047,0.027-0.049,0.069-0.006,0.094l0.447,0.26c0.043,0.025,0.116,0.024,0.163-0.003l0.406-0.234    C70.783,151.662,70.785,151.619,70.742,151.594z M70.442,152.086l0.447,0.26c0.043,0.025,0.116,0.024,0.163-0.003l0.406-0.234    c0.047-0.027,0.049-0.069,0.006-0.094l-0.446-0.26c-0.044-0.026-0.117-0.023-0.164,0.003l-0.406,0.234    C70.401,152.019,70.398,152.06,70.442,152.086z M69.742,151.828l-0.148-0.089c-0.043-0.025-0.116-0.024-0.163,0.003l-0.406,0.234    c-0.047,0.027-0.05,0.07-0.007,0.095l0.148,0.089c0.043,0.025,0.117,0.023,0.164-0.004l0.406-0.234    C69.784,151.896,69.786,151.854,69.742,151.828z M72.896,152.023l-0.447-0.26c-0.043-0.025-0.116-0.024-0.164,0.003L71.88,152    c-0.047,0.027-0.05,0.07-0.007,0.095l0.447,0.26c0.043,0.025,0.117,0.023,0.164-0.004l0.405-0.234    C72.937,152.09,72.94,152.048,72.896,152.023z M71.576,152.176l-0.406,0.234c-0.047,0.027-0.049,0.069-0.006,0.094l0.447,0.26    c0.043,0.025,0.116,0.024,0.163-0.003l0.406-0.234c0.047-0.027,0.049-0.069,0.006-0.094l-0.446-0.26    C71.696,152.148,71.622,152.149,71.576,152.176z M71.073,153.167l0.406-0.234c0.047-0.027,0.049-0.069,0.006-0.094l-0.608-0.354    c-0.043-0.025-0.116-0.024-0.163,0.003l-0.406,0.234c-0.047,0.027-0.05,0.07-0.007,0.095l0.608,0.354    C70.952,153.195,71.026,153.193,71.073,153.167z M70.199,152.662l0.406-0.234c0.047-0.027,0.049-0.069,0.006-0.094l-0.608-0.354    c-0.043-0.025-0.116-0.024-0.163,0.003l-0.406,0.234c-0.047,0.027-0.05,0.07-0.007,0.095l0.608,0.354    C70.078,152.691,70.152,152.689,70.199,152.662z M69.611,152.581l-0.763-0.446c-0.037-0.021-0.098-0.019-0.137,0.003l-0.396,0.229    c-0.059,0.034-0.061,0.087-0.008,0.118l0.729,0.427c0.053,0.031,0.143,0.029,0.202-0.005l0.363-0.209    C69.661,152.665,69.664,152.613,69.611,152.581z M67.586,152.899l0.447,0.26c0.043,0.025,0.117,0.023,0.164-0.003l0.406-0.234    c0.047-0.027,0.049-0.069,0.006-0.094l-0.447-0.26c-0.043-0.025-0.116-0.024-0.163,0.003l-0.406,0.234    C67.546,152.831,67.542,152.873,67.586,152.899z M68.72,152.99l-0.068,0.039c-0.047,0.027-0.051,0.069-0.007,0.095l0.447,0.26    c0.043,0.025,0.117,0.023,0.164-0.003l0.068-0.039c0.048-0.028,0.05-0.07,0.007-0.095l-0.447-0.26    C68.839,152.96,68.767,152.962,68.72,152.99z M68.308,153.318l0.447,0.26c0.043,0.025,0.117,0.023,0.164-0.003l0.069-0.04    c0.047-0.027,0.049-0.069,0.006-0.094l-0.447-0.26c-0.044-0.026-0.116-0.024-0.163,0.003l-0.069,0.04    C68.268,153.25,68.263,153.293,68.308,153.318z M69.029,153.738l0.447,0.26c0.043,0.025,0.117,0.023,0.164-0.003l0.405-0.234    c0.048-0.028,0.05-0.07,0.007-0.095l-0.447-0.26c-0.043-0.025-0.116-0.024-0.164,0.004l-0.405,0.234    C68.989,153.67,68.986,153.712,69.029,153.738z M73.85,152.572l-0.68-0.395c-0.043-0.025-0.116-0.024-0.164,0.004l-0.405,0.234    c-0.047,0.027-0.05,0.07-0.007,0.095l0.68,0.395c0.043,0.025,0.117,0.023,0.164-0.003l0.405-0.234    C73.891,152.639,73.893,152.597,73.85,152.572z M72.281,152.587l-0.405,0.234c-0.047,0.027-0.05,0.07-0.007,0.095l0.447,0.26    c0.043,0.025,0.117,0.023,0.164-0.004l0.405-0.234c0.047-0.027,0.05-0.07,0.007-0.095l-0.447-0.26    C72.401,152.559,72.327,152.56,72.281,152.587z M74.571,152.991l-0.447-0.26c-0.043-0.025-0.116-0.024-0.164,0.004l-0.405,0.234    c-0.047,0.027-0.05,0.07-0.007,0.095l0.447,0.26c0.043,0.025,0.117,0.023,0.164-0.003l0.405-0.234    C74.612,153.059,74.615,153.016,74.571,152.991z M73.003,153.007l-0.405,0.234c-0.047,0.027-0.05,0.07-0.007,0.095l0.447,0.26    c0.043,0.025,0.117,0.023,0.164-0.004l0.405-0.234c0.047-0.027,0.05-0.07,0.007-0.095l-0.447-0.26    C73.124,152.978,73.05,152.98,73.003,153.007z M72.022,153.718l0.406-0.235c0.047-0.027,0.049-0.069,0.006-0.094l-0.68-0.395    c-0.043-0.025-0.116-0.024-0.163,0.003l-0.406,0.234c-0.047,0.027-0.05,0.07-0.007,0.095l0.68,0.395    C71.902,153.747,71.976,153.745,72.022,153.718z M71.064,153.99l0.405-0.234c0.048-0.028,0.05-0.07,0.007-0.095l-0.662-0.385    c-0.043-0.025-0.116-0.024-0.164,0.003l-0.405,0.234c-0.047,0.027-0.05,0.07-0.007,0.095l0.662,0.385    C70.944,154.018,71.018,154.017,71.064,153.99z M70.138,153.455l0.405-0.234c0.048-0.028,0.05-0.07,0.007-0.095l-0.662-0.385    c-0.043-0.025-0.116-0.024-0.164,0.004l-0.405,0.234c-0.047,0.027-0.05,0.07-0.007,0.095l0.662,0.385    C70.017,153.483,70.091,153.482,70.138,153.455z M75.293,153.411l-0.448-0.26c-0.043-0.025-0.115-0.023-0.163,0.004l-0.405,0.234    c-0.047,0.027-0.051,0.069-0.008,0.094l0.448,0.26c0.043,0.025,0.117,0.023,0.164-0.003l0.405-0.234    C75.335,153.479,75.337,153.436,75.293,153.411z M73.725,153.426l-0.405,0.234c-0.047,0.027-0.05,0.07-0.007,0.095l0.447,0.26    c0.043,0.025,0.117,0.024,0.164-0.003l0.405-0.234c0.047-0.027,0.05-0.07,0.007-0.095l-0.447-0.26    C73.845,153.398,73.771,153.399,73.725,153.426z M72.744,154.137l0.406-0.235c0.047-0.027,0.049-0.069,0.006-0.094l-0.447-0.26    c-0.043-0.025-0.116-0.024-0.163,0.003l-0.406,0.234c-0.047,0.027-0.05,0.07-0.007,0.095l0.447,0.26    C72.623,154.166,72.697,154.164,72.744,154.137z M71.787,154.41l0.405-0.234c0.048-0.028,0.05-0.07,0.007-0.095l-0.447-0.26    c-0.043-0.025-0.116-0.024-0.164,0.003l-0.405,0.234c-0.047,0.027-0.05,0.07-0.007,0.095l0.447,0.26    C71.666,154.438,71.74,154.436,71.787,154.41z M76.015,153.83l-0.447-0.26c-0.043-0.025-0.116-0.024-0.164,0.004l-0.405,0.234    c-0.047,0.027-0.05,0.07-0.007,0.095l0.447,0.26c0.043,0.025,0.117,0.023,0.164-0.004l0.405-0.234    C76.056,153.898,76.058,153.855,76.015,153.83z M74.447,153.846l-0.405,0.234c-0.047,0.027-0.05,0.07-0.007,0.095l0.447,0.26    c0.043,0.025,0.117,0.024,0.164-0.003l0.405-0.234c0.047-0.027,0.05-0.07,0.007-0.095l-0.447-0.26    C74.567,153.817,74.494,153.819,74.447,153.846z M73.466,154.557l0.406-0.235c0.047-0.027,0.049-0.069,0.006-0.094l-0.448-0.26    c-0.043-0.025-0.115-0.023-0.162,0.004l-0.406,0.234c-0.047,0.027-0.051,0.069-0.008,0.094l0.448,0.26    C73.345,154.586,73.419,154.584,73.466,154.557z M72.508,154.829l0.405-0.234c0.048-0.028,0.05-0.07,0.007-0.095l-0.447-0.26    c-0.043-0.025-0.116-0.024-0.164,0.004l-0.405,0.234c-0.047,0.027-0.05,0.07-0.007,0.095l0.447,0.26    C72.387,154.857,72.461,154.856,72.508,154.829z M76.737,154.25l-0.448-0.26c-0.043-0.025-0.116-0.024-0.164,0.004l-0.405,0.234    c-0.047,0.027-0.05,0.07-0.007,0.095l0.448,0.26c0.043,0.025,0.117,0.023,0.164-0.004l0.405-0.234    C76.778,154.318,76.781,154.275,76.737,154.25z M75.168,154.265l-0.405,0.234c-0.047,0.027-0.05,0.07-0.007,0.095l0.447,0.26    c0.043,0.025,0.117,0.023,0.164-0.003l0.405-0.234c0.047-0.027,0.05-0.07,0.007-0.095l-0.447-0.26    C75.289,154.237,75.215,154.238,75.168,154.265z M74.187,154.977l0.406-0.235c0.047-0.027,0.049-0.069,0.006-0.094l-0.447-0.26    c-0.043-0.025-0.116-0.024-0.163,0.003l-0.406,0.235c-0.047,0.027-0.05,0.07-0.007,0.095l0.447,0.26    C74.067,155.005,74.141,155.003,74.187,154.977z M73.23,155.249l0.405-0.234c0.048-0.028,0.05-0.07,0.007-0.095l-0.447-0.26    c-0.043-0.025-0.116-0.024-0.164,0.004l-0.405,0.234c-0.047,0.027-0.05,0.07-0.007,0.095l0.447,0.26    C73.11,155.277,73.184,155.275,73.23,155.249z M77.459,154.669l-0.447-0.26c-0.043-0.025-0.116-0.024-0.164,0.003l-0.405,0.234    c-0.047,0.027-0.05,0.07-0.007,0.095l0.447,0.26c0.043,0.025,0.117,0.023,0.164-0.003l0.405-0.234    C77.5,154.737,77.502,154.695,77.459,154.669z M75.891,154.685l-0.405,0.234c-0.047,0.027-0.05,0.07-0.007,0.095l0.447,0.26    c0.043,0.025,0.117,0.023,0.164-0.003l0.405-0.234c0.047-0.027,0.05-0.07,0.007-0.095l-0.447-0.26    C76.011,154.656,75.937,154.658,75.891,154.685z M74.91,155.396l0.406-0.234c0.047-0.027,0.049-0.069,0.006-0.094l-0.448-0.26    c-0.043-0.025-0.116-0.024-0.163,0.003l-0.406,0.235c-0.047,0.027-0.05,0.07-0.007,0.095l0.448,0.26    C74.789,155.425,74.863,155.423,74.91,155.396z M73.952,155.668l0.405-0.234c0.048-0.028,0.05-0.07,0.007-0.095l-0.447-0.26    c-0.043-0.025-0.116-0.024-0.164,0.003l-0.405,0.234c-0.047,0.027-0.05,0.07-0.007,0.095l0.447,0.26    C73.831,155.696,73.905,155.695,73.952,155.668z M78.181,155.089l-0.448-0.26c-0.043-0.025-0.116-0.024-0.164,0.003l-0.405,0.234    c-0.047,0.027-0.05,0.07-0.007,0.095l0.448,0.26c0.043,0.025,0.117,0.023,0.164-0.004l0.405-0.234    C78.222,155.156,78.224,155.114,78.181,155.089z M76.612,155.104l-0.405,0.234c-0.047,0.027-0.05,0.07-0.007,0.095l0.447,0.26    c0.043,0.025,0.117,0.023,0.164-0.003l0.405-0.234c0.047-0.027,0.05-0.07,0.007-0.095l-0.447-0.26    C76.732,155.076,76.659,155.077,76.612,155.104z M75.631,155.815l0.406-0.234c0.047-0.027,0.049-0.069,0.006-0.094l-0.447-0.26    c-0.043-0.025-0.116-0.024-0.163,0.003l-0.406,0.235c-0.047,0.027-0.05,0.07-0.007,0.095l0.447,0.26    C75.51,155.844,75.584,155.842,75.631,155.815z M74.674,156.087l0.405-0.234c0.048-0.027,0.05-0.07,0.007-0.095l-0.447-0.26    c-0.043-0.025-0.116-0.024-0.164,0.004l-0.405,0.234c-0.047,0.027-0.05,0.07-0.007,0.095l0.447,0.26    C74.553,156.116,74.627,156.114,74.674,156.087z M69.77,154.145l0.68,0.395c0.043,0.025,0.117,0.023,0.164-0.004l0.406-0.234    c0.047-0.027,0.049-0.069,0.006-0.094l-0.68-0.395c-0.043-0.025-0.116-0.024-0.163,0.003l-0.406,0.234    C69.73,154.077,69.727,154.119,69.77,154.145z M70.709,154.697l3.341,1.943c0.043,0.025,0.117,0.023,0.164-0.004l0.406-0.234    c0.047-0.027,0.049-0.069,0.006-0.094l-3.342-1.942c-0.043-0.025-0.116-0.024-0.163,0.003l-0.406,0.234    C70.668,154.63,70.666,154.672,70.709,154.697z M78.902,155.508l-0.447-0.26c-0.043-0.025-0.116-0.024-0.164,0.003l-0.405,0.234    c-0.047,0.027-0.05,0.07-0.007,0.095l0.447,0.26c0.043,0.025,0.117,0.023,0.164-0.004l0.405-0.234    C78.943,155.576,78.946,155.533,78.902,155.508z M77.334,155.524l-0.405,0.234c-0.047,0.027-0.05,0.07-0.007,0.095l0.447,0.26    c0.043,0.025,0.117,0.023,0.164-0.003l0.405-0.234c0.047-0.027,0.05-0.07,0.007-0.095l-0.447-0.26    C77.455,155.495,77.381,155.497,77.334,155.524z M76.354,156.235l0.406-0.234c0.047-0.027,0.049-0.069,0.006-0.094l-0.448-0.26    c-0.043-0.025-0.116-0.024-0.163,0.003l-0.406,0.235c-0.047,0.027-0.05,0.07-0.007,0.095l0.448,0.26    C76.233,156.264,76.307,156.262,76.354,156.235z M75.396,156.507l0.405-0.234c0.048-0.028,0.05-0.07,0.007-0.095l-0.447-0.26    c-0.043-0.025-0.116-0.024-0.164,0.004l-0.405,0.234c-0.047,0.027-0.05,0.07-0.007,0.095l0.447,0.26    C75.275,156.535,75.349,156.534,75.396,156.507z M79.624,155.928l-0.448-0.26c-0.043-0.025-0.116-0.024-0.164,0.004l-0.405,0.234    c-0.047,0.027-0.05,0.07-0.007,0.095l0.448,0.26c0.043,0.025,0.116,0.023,0.163-0.004l0.405-0.234    C79.665,155.995,79.668,155.953,79.624,155.928z M78.056,155.943l-0.405,0.234c-0.047,0.027-0.05,0.07-0.007,0.095l0.447,0.26    c0.043,0.025,0.117,0.023,0.164-0.004l0.405-0.234c0.047-0.027,0.05-0.07,0.007-0.095l-0.447-0.26    C78.176,155.915,78.102,155.916,78.056,155.943z M76.47,156.303c-0.047,0.027-0.05,0.07-0.007,0.095l0.447,0.26    c0.043,0.025,0.117,0.023,0.164-0.003l0.406-0.234c0.047-0.027,0.049-0.069,0.006-0.094l-0.447-0.26    c-0.043-0.025-0.116-0.024-0.163,0.003L76.47,156.303z M76.118,156.926l0.405-0.234c0.048-0.028,0.05-0.07,0.007-0.095    l-0.447-0.26c-0.043-0.025-0.116-0.024-0.164,0.003l-0.405,0.234c-0.047,0.027-0.05,0.07-0.007,0.095l0.447,0.26    C75.997,156.955,76.071,156.953,76.118,156.926z M74.329,156.794l0.448,0.26c0.043,0.025,0.117,0.023,0.164-0.004l0.405-0.234    c0.048-0.027,0.05-0.07,0.007-0.095l-0.448-0.26c-0.043-0.025-0.116-0.024-0.164,0.003l-0.405,0.234    C74.289,156.726,74.286,156.769,74.329,156.794z M79.323,156.42l0.447,0.26c0.043,0.025,0.117,0.023,0.164-0.003l0.405-0.234    c0.048-0.027,0.05-0.07,0.007-0.095l-0.447-0.26c-0.043-0.025-0.116-0.024-0.164,0.004l-0.405,0.234    C79.283,156.352,79.28,156.395,79.323,156.42z M78.366,156.692l0.679,0.395c0.043,0.025,0.117,0.023,0.164-0.004l0.405-0.234    c0.047-0.027,0.05-0.07,0.007-0.095l-0.679-0.395c-0.043-0.025-0.117-0.023-0.164,0.004l-0.405,0.234    C78.326,156.624,78.323,156.667,78.366,156.692z M78.209,156.745l-0.448-0.26c-0.043-0.025-0.116-0.024-0.163,0.003l-0.406,0.234    c-0.047,0.027-0.05,0.07-0.007,0.095l0.448,0.26c0.043,0.025,0.117,0.023,0.164-0.003l0.404-0.234    C78.249,156.812,78.252,156.77,78.209,156.745z M77.251,157.017l-0.447-0.26c-0.043-0.025-0.116-0.024-0.164,0.003l-0.405,0.234    c-0.047,0.027-0.05,0.07-0.007,0.095l0.447,0.26c0.043,0.025,0.117,0.023,0.164-0.003l0.405-0.234    C77.292,157.084,77.294,157.042,77.251,157.017z M75.051,157.214l0.447,0.26c0.043,0.025,0.117,0.023,0.164-0.004l0.405-0.234    c0.048-0.027,0.05-0.07,0.007-0.095l-0.447-0.26c-0.043-0.025-0.116-0.024-0.164,0.003l-0.405,0.234    C75.011,157.146,75.008,157.189,75.051,157.214z M77.908,157.237l0.447,0.26c0.043,0.025,0.117,0.023,0.164-0.004l0.405-0.234    c0.048-0.028,0.05-0.07,0.007-0.095l-0.447-0.26c-0.043-0.025-0.116-0.024-0.164,0.003l-0.405,0.234    C77.868,157.169,77.864,157.212,77.908,157.237z M76.951,157.509l0.679,0.395c0.043,0.025,0.117,0.024,0.164-0.003l0.405-0.234    c0.048-0.028,0.05-0.07,0.007-0.095l-0.679-0.395c-0.043-0.025-0.116-0.024-0.164,0.003l-0.405,0.234    C76.91,157.441,76.907,157.484,76.951,157.509z M75.773,157.633l0.448,0.26c0.043,0.025,0.117,0.023,0.164-0.004l0.405-0.234    c0.048-0.028,0.05-0.07,0.007-0.095l-0.448-0.26c-0.043-0.025-0.116-0.024-0.164,0.003l-0.405,0.234    C75.733,157.565,75.729,157.608,75.773,157.633z M76.495,158.053l0.447,0.26c0.043,0.025,0.117,0.024,0.164-0.003l0.405-0.234    c0.048-0.028,0.05-0.07,0.007-0.095l-0.447-0.26c-0.043-0.025-0.116-0.024-0.164,0.003l-0.405,0.234    C76.455,157.985,76.452,158.027,76.495,158.053z" /><polygon id="Cube_face_-_left_656_" style="fill:#615A59;" points="68.532,211.707 58.097,205.682 58.097,166.098 68.532,172.123       " /><polygon id="Cube_face_-_right_655_" style="fill:#807775;" points="75.352,207.769 68.532,211.707 68.532,172.123     75.352,168.186   " /><g id="Axonometric_Cube_25_"><polygon id="Cube_face_-_left_616_" style="fill:#C0BCBB;" points="68.532,172.252 58.097,166.227 58.097,154.065      68.532,160.089    " /><polygon id="Cube_face_-_right_616_" style="fill:#DBD7D6;" points="75.352,168.315 68.532,172.252 68.532,160.089      75.352,156.152    " /><polygon id="Cube_face_-_top_616_" style="fill:#F0EBE6;" points="68.532,160.089 58.097,154.065 64.917,150.127 75.352,156.152         " /></g><g><g id="Axonometric_Cube_27_"><polygon id="Cube_face_-_right_653_" style="fill:#DBD7D6;" points="64.123,161.893 51.772,169.025 51.772,167.11       64.123,159.979     " /><polygon id="Cube_face_-_top_653_" style="fill:#F0EBE6;" points="51.772,167.11 49.608,165.861 61.96,158.73 64.123,159.979           " /></g><g><polygon style="fill:#F7F2EC;" points="52.203,167.769 43.342,162.62 47.547,162.527 56.408,167.676     " /><polygon style="fill:#C0BCBB;" points="53.788,175.757 44.927,170.608 39.944,164.582 48.805,169.731     " /><polygon style="fill:#1B1514;" points="45.007,170.472 40.624,165.159 48.726,169.867 53.108,175.18     " /><polygon style="fill:#F0EBE6;" points="48.805,169.731 39.944,164.582 43.342,162.62 52.203,167.769     " /><polygon style="fill:#DBD7D6;" points="52.203,167.769 56.408,167.676 56.426,174.234 53.788,175.757 48.805,169.731     " /></g><path style="fill:#E20000;" d="M47.238,170.081c-0.339-0.336-0.772-0.56-0.968-0.5c-0.196,0.06-0.08,0.381,0.258,0.718     c0.339,0.336,0.772,0.56,0.968,0.5C47.692,170.739,47.576,170.418,47.238,170.081z" /><defs><filter id="Adobe_OpacityMaskFilter" filterUnits="userSpaceOnUse" x="21.658" y="169.572" width="29.032" height="31.512"><feFlood style="flood-color:white;flood-opacity:1" result="back" /><feBlend in="SourceGraphic" in2="back" mode="normal" /></filter></defs><mask maskUnits="userSpaceOnUse" x="21.658" y="169.572" width="29.032" height="31.512" id="SVGID_00000008836933502125941460000001601096283870042510_"><g style="filter:url(#Adobe_OpacityMaskFilter);"><defs><filter id="Adobe_OpacityMaskFilter_00000130638679406743873170000012195512937512009387_" filterUnits="userSpaceOnUse" x="21.658" y="169.572" width="29.032" height="31.512"><feFlood style="flood-color:white;flood-opacity:1" result="back" /><feBlend in="SourceGraphic" in2="back" mode="normal" /></filter></defs><mask maskUnits="userSpaceOnUse" x="21.658" y="169.572" width="29.032" height="31.512" id="SVGID_00000008836933502125941460000001601096283870042510_"><g style="filter:url(#Adobe_OpacityMaskFilter_00000130638679406743873170000012195512937512009387_);" /></mask><linearGradient id="SVGID_00000156587830349767006620000013087033089218187664_" gradientUnits="userSpaceOnUse" x1="48.7749" y1="170.8784" x2="36.1742" y2="192.7034"><stop offset="0" style="stop-color:#FFFFFF" /><stop offset="0.0565" style="stop-color:#F4F4F4" /><stop offset="0.5178" style="stop-color:#9E9E9E" /><stop offset="0.8427" style="stop-color:#686868" /><stop offset="1" style="stop-color:#535353" /></linearGradient><path style="mask:url(#SVGID_00000008836933502125941460000001601096283870042510_);fill:url(#SVGID_00000156587830349767006620000013087033089218187664_);" d="       M47.592,170.654c-0.007-0.138-0.133-0.353-0.354-0.572c-0.339-0.336-0.772-0.56-0.968-0.5l-0.026,0.011l-24.585,14.731       l29.032,16.761L47.592,170.654z" /></g></mask><linearGradient id="SVGID_00000076585809628859744000000008814667675526587783_" gradientUnits="userSpaceOnUse" x1="48.7749" y1="170.8784" x2="36.1742" y2="192.7034"><stop offset="0" style="stop-color:#E20000" /><stop offset="1" style="stop-color:#E20000" /></linearGradient><path style="opacity:0.8;fill:url(#SVGID_00000076585809628859744000000008814667675526587783_);" d="M47.592,170.654     c-0.007-0.138-0.133-0.353-0.354-0.572c-0.339-0.336-0.772-0.56-0.968-0.5c-0.026,0.011-24.612,14.741-24.612,14.741     l29.032,16.761L47.592,170.654z" /></g><g><g><polygon style="fill:#C0BCBB;" points="76.829,154.383 61.251,145.33 58.689,130.193 74.268,139.246     " /><polygon style="fill:#F0EBE6;" points="74.268,139.246 58.689,130.193 58.954,129.987 74.533,139.04     " /><polygon style="fill:#DBD7D6;" points="74.533,139.04 77.094,154.172 76.829,154.383 74.268,139.246     " /><polygon style="fill:#C0BCBB;" points="73.576,153.57 61.969,146.825 60.656,139.086 72.262,145.831     " /><polygon style="fill:#DBD7D6;" points="72.262,145.831 60.656,139.086 61.455,138.461 73.062,145.206     " /><polygon style="fill:#CCC6C5;" points="73.062,145.206 74.371,152.948 73.576,153.57 72.262,145.831     " /></g><g><polygon style="fill:#C0BCBB;" points="65.957,157.378 62.536,155.39 62.532,149.173 65.953,151.161     " /><polygon style="fill:#CCC6C5;" points="65.953,151.161 62.532,149.173 64.209,146.274 67.629,148.262     " /><polygon style="fill:#E8E3E2;" points="67.629,148.262 64.209,146.274 65.838,145.333 69.258,147.321     " /><polygon style="fill:#DBD7D6;" points="69.258,147.321 69.439,148.394 67.717,149.388 67.723,156.358 65.957,157.378       65.953,151.161 67.629,148.262     " /></g></g><polygon style="fill:#DBD7D6;" points="74.268,160.994 74.268,168.124 80.148,159.521 80.148,157.641   " /><polygon style="fill:#DBD7D6;" points="58.59,164.907 64.123,164.982 64.123,161.126   " /></g><polygon style="opacity:0.4;fill:#C0BCBB;" points="75.852,161.127 79.648,158.936 79.648,159.367 75.852,164.919  " /><polygon style="fill:#C0BCBB;" points="79.444,159.054 79.444,159.249 75.852,164.503 75.852,164.919 79.648,159.367    79.648,158.936  " /></g></svg>