<?xml version='1.0' encoding='utf-8'?>
<svg xmlns:ns0="http://www.w3.org/2000/svg" xmlns="http://www.w3.org/2000/svg" viewBox="0 0 24 24"><g transform="translate(-2.759208092113136 -43.92155289050061) scale(0.1988053272464542)"><polygon style="opacity:0.4;fill:#615A59;" points="42.458,264.533 21.291,276.778 19.915,280.621 47.942,296.802 67.079,296.837     " /><path style="fill:#231C1C;" d="M52.751,275.026c-1.431-1.464-3.071-2.175-4.636-1.444l0.246-0.142   c-0.002,0.001-0.825,0.476-0.827,0.478l-3.762,2.172c-2.536,7.547,2.75,14.08,8.504,14.549c0,0,3.782-2.191,3.786-2.197   c1.018-0.646,1.647-1.95,1.647-3.79C57.709,281.248,55.563,277.201,52.751,275.026z" /><g><polygon style="fill:#E69F00;" points="91.259,258.334 67.068,272.356 67.079,294.841 91.271,280.819   " /><polygon style="fill:#BC7400;" points="67.068,272.356 67.079,294.841 39.053,278.659 39.042,256.174   " /></g><polygon style="fill:#FFCB27;" points="63.233,242.153 56.602,242.963 52.245,245.478 52.242,246.325 45.656,250.798    44.358,250.049 40.418,252.331 39.042,256.174 67.068,272.356 91.259,258.334  " /><g id="Axonometric_Cube_75_"><polygon id="Cube_face_-_left_1239_" style="fill:#BC7400;" points="67.251,260.016 68.774,260.896 68.774,271.371     67.251,270.491   " /><polygon id="Cube_face_-_right_1259_" style="fill:#E69F00;" points="72.28,269.347 68.774,271.371 68.774,260.896 72.28,258.872       " /><polygon id="Cube_face_-_top_1258_" style="fill:#FFCB27;" points="68.774,260.896 67.251,260.016 70.757,257.992 72.28,258.872       " /></g><g id="Axonometric_Cube_77_"><polygon id="Cube_face_-_left_1241_" style="fill:#BC7400;" points="84.756,249.909 86.28,250.789 86.28,261.264 84.756,260.384       " /><polygon id="Cube_face_-_right_1261_" style="fill:#E69F00;" points="89.786,259.24 86.28,261.264 86.28,250.789 89.786,248.765       " /><polygon id="Cube_face_-_top_1260_" style="fill:#FFCB27;" points="86.28,250.789 84.756,249.909 88.262,247.885 89.786,248.765       " /></g><g><polygon style="fill:#807775;" points="91.259,275.105 67.068,289.126 67.079,296.856 91.271,282.834   " /><polygon style="fill:#615A59;" points="67.068,289.126 67.079,296.856 39.053,280.675 39.042,272.945   " /></g><polygon style="fill:#BC7400;" points="52.245,245.478 52.245,247.378 53.889,246.428  " /><path style="fill:#16191C;" d="M51.419,246.52l-6.588,3.804l1.155,0.673l7.903-4.569c0,0-0.512-0.185-1.122-0.228   C52.297,246.167,51.828,246.284,51.419,246.52z" /><g><path id="Cylinder_face_192_" style="fill:#231C1C;" d="M53.982,286.803c0,3.8-2.668,5.34-5.958,3.44    c-3.291-1.9-5.958-6.52-5.958-10.32c0-3.8,2.668-5.34,5.958-3.44C51.315,278.383,53.982,283.004,53.982,286.803z" /><g><path style="fill:#BC7400;" d="M47.997,287.205c-1.762-0.975-3.216-3.435-3.247-5.494c-0.031-2.059,1.373-2.938,3.135-1.963     c1.762,0.975,3.216,3.435,3.247,5.494C51.163,287.301,49.76,288.18,47.997,287.205z" /></g></g><g><polygon style="fill:#AD6E00;" points="81.278,262.241 82.913,263.184 82.913,267.825   " /><path style="fill:#16191C;" d="M81.278,262.241l-7.903,4.563l1.636,0.95v4.634l7.903-4.563v-2.75    C82.914,263.905,82.291,262.825,81.278,262.241z" /><linearGradient id="SVGID_00000170995577887024527860000000142371160798713519_" gradientUnits="userSpaceOnUse" x1="81.2782" y1="265.0326" x2="82.9143" y2="265.0326"><stop offset="0" style="stop-color:#7E85B0" /><stop offset="1" style="stop-color:#6D7499" /></linearGradient><path style="opacity:0.1;fill:url(#SVGID_00000170995577887024527860000000142371160798713519_);" d="M81.278,262.241l0,4.64    l1.636,0.945v-2.75C82.914,263.905,82.291,262.825,81.278,262.241z" /><g style="opacity:0.5;"><radialGradient id="SVGID_00000157995328097869567520000001672082478238863022_" cx="211.099" cy="321.8839" r="1.3174" gradientTransform="matrix(0.5 -0.866 0.866 0.5 -306.5675 288.2854)" gradientUnits="userSpaceOnUse"><stop offset="0" style="stop-color:#212635" /><stop offset="0.3294" style="stop-color:#000000" /><stop offset="0.4439" style="stop-color:#000000" /><stop offset="0.6252" style="stop-color:#000000" /><stop offset="1" style="stop-color:#000000" /></radialGradient><path style="fill:url(#SVGID_00000157995328097869567520000001672082478238863022_);" d="M78.164,265.775     c-0.447,0.258-0.809,0.885-0.809,1.401c0,0.516,0.362,0.725,0.809,0.467s0.809-0.885,0.809-1.401     C78.973,265.726,78.611,265.517,78.164,265.775z" /><linearGradient id="SVGID_00000013158192801859493310000012374152400681362858_" gradientUnits="userSpaceOnUse" x1="211.6426" y1="321.4382" x2="210.5647" y2="323.1689" gradientTransform="matrix(0.5 -0.866 0.866 0.5 -306.5675 288.2854)"><stop offset="0" style="stop-color:#7E85B0" /><stop offset="1" style="stop-color:#6D7499" /></linearGradient><path style="opacity:0.4;fill:url(#SVGID_00000013158192801859493310000012374152400681362858_);" d="M78.134,265.379     c0.625-0.361,1.133-0.068,1.133,0.654c0,0.722-0.507,1.601-1.133,1.962c-0.626,0.361-1.133,0.068-1.133-0.654     C77.001,266.618,77.508,265.74,78.134,265.379z" /><linearGradient id="SVGID_00000134233561234179645760000003952853374394793866_" gradientUnits="userSpaceOnUse" x1="211.5671" y1="321.3913" x2="210.4893" y2="323.1219" gradientTransform="matrix(0.5 -0.866 0.866 0.5 -306.5675 288.2854)"><stop offset="0" style="stop-color:#7E85B0" /><stop offset="1" style="stop-color:#6D7499" /></linearGradient><path style="opacity:0.4;fill:url(#SVGID_00000134233561234179645760000003952853374394793866_);" d="M77.072,266.875l1.43,0.826     c0.265-0.262,0.485-0.606,0.619-0.966l-1.521-0.878C77.354,266.152,77.167,266.515,77.072,266.875z" /><linearGradient id="SVGID_00000085212730388087415890000014291036866056574908_" gradientUnits="userSpaceOnUse" x1="210.79" y1="322.0072" x2="211.3301" y2="322.0072" gradientTransform="matrix(0.5 -0.866 0.866 0.5 -306.5675 288.2854)"><stop offset="0" style="stop-color:#666D88" /><stop offset="1" style="stop-color:#4D5364" /></linearGradient><path style="opacity:0.7;fill:url(#SVGID_00000085212730388087415890000014291036866056574908_);" d="M77.821,266.29     c-0.105,0.061-0.191,0.209-0.191,0.331c0,0.122,0.086,0.171,0.191,0.11c0.105-0.061,0.191-0.209,0.191-0.331     C78.012,266.279,77.926,266.23,77.821,266.29z" /></g></g><g><path style="fill:#C1591F;" d="M89.568,263.793c0.109,0.126,0.35,0.051,0.539-0.167s0.253-0.496,0.144-0.622    c-0.109-0.126-0.35-0.051-0.539,0.167C89.524,263.389,89.46,263.667,89.568,263.793z" /><path style="fill:#EEF7FF;" d="M89.483,262.408c0.136,0.157,0.438,0.064,0.673-0.208c0.236-0.272,0.316-0.62,0.18-0.777    s-0.438-0.064-0.673,0.208C89.428,261.903,89.347,262.251,89.483,262.408z" /><path style="fill:#EEF7FF;" d="M89.483,260.925c0.136,0.157,0.438,0.064,0.673-0.208c0.236-0.272,0.316-0.62,0.18-0.777    s-0.438-0.064-0.673,0.208C89.428,260.419,89.347,260.768,89.483,260.925z" /></g><g><path style="fill:#C1591F;" d="M68.273,276.088c0.109,0.126,0.35,0.051,0.539-0.167c0.189-0.218,0.253-0.496,0.144-0.622    c-0.109-0.126-0.35-0.051-0.539,0.167C68.229,275.684,68.164,275.962,68.273,276.088z" /><path style="fill:#EEF7FF;" d="M68.188,274.703c0.136,0.157,0.438,0.064,0.673-0.208c0.236-0.272,0.317-0.62,0.181-0.777    c-0.136-0.157-0.438-0.064-0.673,0.208C68.132,274.198,68.052,274.546,68.188,274.703z" /><path style="fill:#EEF7FF;" d="M68.188,273.22c0.136,0.157,0.438,0.064,0.673-0.208c0.236-0.272,0.317-0.62,0.181-0.777    c-0.136-0.157-0.438-0.064-0.673,0.208C68.132,272.714,68.052,273.063,68.188,273.22z" /></g><polygon style="fill:#16191C;" points="71.073,293.364 70.075,293.94 70.075,262.6 71.073,262.025  " /><polygon style="fill:#16191C;" points="88.594,283.247 87.597,283.823 87.597,252.484 88.594,251.908  " /><g><g id="Axonometric_Cube_69_"><polygon id="Cube_face_-_left_1154_" style="fill:#615A59;" points="69.437,298.951 68.255,298.268 68.255,289.082      69.437,289.765    " /><polygon id="Cube_face_-_right_1174_" style="fill:#807775;" points="72.54,297.16 69.437,298.951 69.437,289.765 72.54,287.973         " /><polygon id="Cube_face_-_top_1173_" style="fill:#A49896;" points="69.437,289.765 68.255,289.082 71.358,287.29 72.54,287.973         " /></g><g id="Axonometric_Cube_71_"><polygon id="Cube_face_-_left_1210_" style="fill:#BC7400;" points="106.625,320.423 69.437,298.953 69.437,297.565      97.077,313.523    " /><polygon id="Cube_face_-_right_1230_" style="fill:#FFDF27;" points="109.718,318.637 106.625,320.423 97.077,313.523      100.17,311.737    " /><polygon id="Cube_face_-_top_1229_" style="fill:#FFCB27;" points="97.077,313.523 69.437,297.565 72.531,295.779      100.17,311.737    " /></g></g><g><g id="Axonometric_Cube_74_"><polygon id="Cube_face_-_left_1213_" style="fill:#615A59;" points="88.283,288.07 87.101,287.388 87.101,278.201      88.283,278.884    " /><polygon id="Cube_face_-_right_1233_" style="fill:#807775;" points="91.386,286.279 88.283,288.07 88.283,278.884      91.386,277.092    " /><polygon id="Cube_face_-_top_1232_" style="fill:#A49896;" points="88.283,278.884 87.101,278.201 90.204,276.41 91.386,277.092         " /></g><g id="Axonometric_Cube_73_"><polygon id="Cube_face_-_left_1212_" style="fill:#BC7400;" points="125.471,309.543 88.283,288.072 88.283,286.685      115.923,302.642    " /><polygon id="Cube_face_-_right_1232_" style="fill:#FFDF27;" points="128.564,307.756 125.471,309.543 115.923,302.642      119.016,300.856    " /><polygon id="Cube_face_-_top_1231_" style="fill:#FFCB27;" points="115.923,302.642 88.283,286.685 91.377,284.898      119.016,300.856    " /></g></g><g><path style="fill:#615A59;" d="M62.563,238.577v4.789c0.001,0.092,0.06,0.184,0.177,0.254c0.236,0.142,0.618,0.142,0.854,0    c0.119-0.072,0.178-0.166,0.177-0.26v-4.789L62.563,238.577z" /><g id="Axonometric_Cylinder_78_"><path style="fill:#615A59;" d="M62.155,237.864v0.546c0.002,0.154,0.101,0.307,0.296,0.425c0.395,0.238,1.036,0.238,1.431,0     c0.2-0.12,0.299-0.279,0.296-0.436v-0.546L62.155,237.864z" /><path id="Cylinder_face_196_" style="fill:#A49896;" d="M63.882,238.289c-0.395,0.238-1.036,0.238-1.431,0     c-0.395-0.238-0.395-0.623,0-0.861c0.395-0.238,1.036-0.238,1.431,0C64.278,237.666,64.278,238.051,63.882,238.289z" /></g><g id="Axonometric_Cylinder_77_"><path style="fill:#85C100;" d="M62.237,235.806v1.968c0.002,0.141,0.093,0.283,0.272,0.391c0.363,0.219,0.952,0.219,1.315,0     c0.184-0.111,0.274-0.256,0.272-0.401v-1.968L62.237,235.806z" /></g><g id="Axonometric_Cylinder_75_"><path style="fill:#BF3737;" d="M62.237,233.941v1.968c0.002,0.141,0.093,0.283,0.272,0.391c0.363,0.218,0.952,0.218,1.315,0     c0.184-0.111,0.274-0.256,0.272-0.401v-1.968L62.237,233.941z" /></g><g id="Axonometric_Cylinder_73_"><path style="fill:#DBB100;" d="M62.237,232.075v1.968c0.002,0.141,0.093,0.283,0.272,0.391c0.363,0.218,0.952,0.218,1.315,0     c0.184-0.111,0.274-0.256,0.272-0.401v-1.968L62.237,232.075z" /><ellipse id="Cylinder_face_195_" style="fill:#FFD91F;" cx="63.167" cy="232.07" rx="0.93" ry="0.559" /></g></g><path style="fill:#A49896;" d="M71.658,252.955l-13.952,8.055c-0.682,0.394-1.787,0.394-2.468,0l-4.742-2.738   c-0.682-0.393-0.682-1.031,0-1.425l13.952-8.055c0.682-0.393,1.787-0.393,2.468,0l4.742,2.738   C72.34,251.923,72.34,252.561,71.658,252.955z" /></g></svg>