<?xml version='1.0' encoding='utf-8'?>
<svg xmlns:ns0="http://www.w3.org/2000/svg" xmlns="http://www.w3.org/2000/svg" viewBox="0 0 24 24"><g transform="translate(-151.8504534648235 -21.07739719996479) scale(0.4226468257462359)"><path style="opacity:0.4;fill:#615A59;" d="M410.648,88.943c-2.076-1.199-4.733-1.855-7.447-1.972l-12.456-0.017   c-2.912,0.043-5.801,0.705-8.024,1.988c-4.603,2.658-4.603,6.966,0,9.623c2.431,1.403,5.658,2.064,8.841,1.984l10.945,0.006   c2.951-0.026,5.888-0.689,8.141-1.99C415.251,95.909,415.251,91.601,410.648,88.943z" /><g><g><g><polygon style="fill:#1B1514;" points="371.422,80.092 370.569,79.596 370.564,78.077 371.418,78.573     " /><polygon style="fill:#362A29;" points="371.418,78.573 370.564,78.077 370.883,77.49 371.736,77.986     " /><polygon style="fill:#1B1514;" points="371.736,77.986 370.883,77.49 370.88,76.48 371.733,76.976     " /><polygon style="fill:#1B1514;" points="371.733,76.976 370.88,76.48 369.724,75.688 370.577,76.184     " /><polygon style="fill:#864D00;" points="370.577,76.184 369.724,75.688 370.404,75.295 371.257,75.791     " /><polygon style="fill:#2B2120;" points="371.257,75.791 372.31,76.512 372.317,79.112 371.953,79.785 371.422,80.092       371.418,78.573 371.736,77.986 371.733,76.976 370.577,76.184     " /></g><g><polygon style="fill:#4E2D00;" points="366.191,83.112 365.337,82.616 364.97,82.366 365.823,82.862     " /><polygon style="fill:#1B1514;" points="365.823,82.862 364.97,82.366 364.963,79.766 365.816,80.262     " /><polygon style="fill:#362A29;" points="365.816,80.262 364.963,79.766 366.005,77.835 366.858,78.331     " /><polygon style="fill:#864D00;" points="366.858,78.331 366.005,77.835 366.685,77.442 367.539,77.938     " /><polygon style="fill:#2B2120;" points="367.539,77.938 366.391,80.06 366.394,81.07 366.714,81.288 366.719,82.807       366.191,83.112 365.823,82.862 365.816,80.262 366.858,78.331     " /></g><g id="Axonometric_Cube_7_"><polygon id="Cube_face_-_left_428_" style="fill:#1B1514;" points="366.858,77.442 366.005,76.95 366.005,77.835       366.858,78.328     " /><polygon id="Cube_face_-_right_428_" style="fill:#2B2120;" points="371.257,75.788 366.858,78.328 366.858,77.442       371.257,74.903     " /><polygon id="Cube_face_-_top_428_" style="fill:#362A29;" points="366.858,77.442 366.005,76.95 370.404,74.41 371.257,74.903           " /></g></g><g><path style="fill:#2B2120;" d="M370.819,74.737l-1.172-2.509c-0.069-0.143-0.239-0.207-0.382-0.139     c-0.144,0.067-0.207,0.239-0.139,0.382l1.136,2.431C370.402,75.184,370.968,75.003,370.819,74.737z" /><path style="fill:#2B2120;" d="M367.867,72.07c-0.162-0.038-0.309,0.063-0.344,0.217l-1.033,4.588     c-0.059,0.26,0.526,0.304,0.581,0.033l1.014-4.496C368.12,72.258,368.022,72.104,367.867,72.07z" /></g><path style="fill:#2B2120;" d="M370.137,73.557c-0.04-0.07-0.13-0.091-0.197-0.053l-2.905,1.677    c-0.069,0.04-0.092,0.128-0.053,0.197c0.027,0.046,0.075,0.072,0.125,0.072c0.025,0,0.049-0.006,0.072-0.019l2.905-1.677    C370.153,73.714,370.176,73.626,370.137,73.557z" /></g><g><g><g><g style="enable-background:new    ;"><path style="fill:#E69F00;" d="M374.69,55.589c0.066-0.106,0.146-0.203,0.227-0.309L374.69,55.589z" /><path style="fill:#F4AE00;" d="M373.54,54.48c-0.081,0.106-0.161,0.203-0.227,0.309c-3.354,4.954-4.461,6.319-7.055,9.516       c-0.616,0.761-0.833,1.799-0.479,2.313c0.057,0.082,0.126,0.145,0.204,0.19l1.378,0.801l9.856-13.295L373.54,54.48z" /><path style="fill:#FFCB27;" d="M374.481,53.647c-0.32,0.185-0.644,0.465-0.942,0.832c-0.081,0.106-0.161,0.203-0.227,0.309       c-0.005,0.007,2.482,1.443,2.482,1.443l1.422-1.918l-1.378-0.801C375.476,53.302,374.984,53.357,374.481,53.647z" /><g><path style="fill:#E69F00;" d="M375.859,54.448c0.729-0.421,1.437-0.347,1.756,0.314c0.422,0.864-0.022,2.489-1.071,3.542        c-2.662,2.686-5.169,5.638-7.631,8.657c-0.199,0.244-0.416,0.43-0.631,0.554c-0.448,0.259-0.886,0.244-1.125-0.098        c-0.354-0.514-0.137-1.552,0.479-2.313c2.594-3.196,3.701-4.562,7.055-9.516c0.066-0.106,0.146-0.203,0.227-0.308        C375.215,54.913,375.539,54.633,375.859,54.448z" /></g></g><g><g><g id="Axonometric_Cylinder"><linearGradient id="SVGID_00000096742989413219831880000000381755398253449905_" gradientUnits="userSpaceOnUse" x1="390.5287" y1="94.6371" x2="414.1" y2="94.6371"><stop offset="0" style="stop-color:#544E4D" /><stop offset="1" style="stop-color:#6F6866" /></linearGradient><path style="fill:url(#SVGID_00000096742989413219831880000000381755398253449905_);" d="M390.529,88.84v4.978         c0.027,1.721,1.178,3.436,3.452,4.749c4.603,2.657,12.065,2.657,16.668,0c2.329-1.345,3.479-3.112,3.451-4.874v-4.978         L390.529,88.84z" /><linearGradient id="SVGID_00000008832478178326455650000003904784454176016256_" gradientUnits="userSpaceOnUse" x1="390.5287" y1="90.7459" x2="414.1" y2="90.7459"><stop offset="0" style="stop-color:#BC7400" /><stop offset="1" style="stop-color:#E69F00" /></linearGradient><path style="fill:url(#SVGID_00000008832478178326455650000003904784454176016256_);" d="M390.529,85.714v3.447         c0.027,1.72,1.178,3.436,3.452,4.749c4.603,2.657,12.065,2.657,16.668,0c2.329-1.345,3.479-3.112,3.451-4.874v-3.447         L390.529,85.714z" /></g><g id="Axonometric_Cylinder_1_"><path id="Cylinder_face_11_" style="fill:#FFCB27;" d="M410.648,90.463c-4.603,2.657-12.065,2.657-16.668,0         c-4.603-2.657-4.603-6.966,0-9.623c4.603-2.657,12.065-2.657,16.668,0C415.251,83.497,415.251,87.806,410.648,90.463z" /></g></g><g id="Axonometric_Cube_3_"><polygon id="Cube_face_-_left_330_" style="fill:#BC7400;" points="401.952,89.703 394.238,85.249 394.238,76.33         401.952,80.784       " /><polygon id="Cube_face_-_right_330_" style="fill:#E69F00;" points="410.391,84.832 401.952,89.703 401.952,80.784         410.391,75.912       " /><polygon id="Cube_face_-_top_330_" style="fill:#FFCB27;" points="401.952,80.784 394.238,76.33 402.676,71.458         410.391,75.912       " /></g><g style="enable-background:new    ;"><g><polygon style="fill:#FFE62B;" points="395.023,70.313 393.402,69.37 402.687,68.302 404.308,69.244        " /></g><polygon style="fill:#FFCB27;" points="393.402,69.37 390.509,71.041 392.13,71.983 395.023,70.313       " /><path style="fill:#F4AE00;" d="M390.509,71.041c-0.978,0.564-1.845,1.576-2.44,2.71l1.624,0.937        c0.595-1.132,1.461-2.141,2.437-2.705L390.509,71.041z" /><path style="fill:#C88000;" d="M388.888,77.598c-0.003-0.937,0.308-1.966,0.805-2.911l-1.624-0.937        c-0.495,0.944-0.805,1.971-0.802,2.906c0.003,1.026,0.365,1.746,0.949,2.085l1.621,0.942        C389.253,79.344,388.891,78.624,388.888,77.598z" /><path style="fill:#E69F00;" d="M404.308,69.245l-9.286,1.068l-2.893,1.67c-1.792,1.034-3.248,3.557-3.242,5.615        c0.006,2.067,1.472,2.894,3.263,1.86l12.166-7.024L404.308,69.245z" /></g><g><path style="fill:#E69F00;" d="M391.462,48.03c-0.357-0.761-0.683-1.371-0.877-1.57c-0.532-0.535-1.247-0.479-1.956-0.069        c-0.209,0.121-0.418,0.272-0.622,0.449c-1.818,1.591-2.427,4.578-1.212,5.527c0.353,0.27,0.831,0.688,1.335,1.252        c1.63-0.023,3.155-0.639,4.345-1.82c0.142-0.14,0.269-0.289,0.392-0.441C392.431,50.216,391.971,49.098,391.462,48.03z" /><g style="enable-background:new    ;"><path style="fill:#C88000;" d="M392.225,58.467c-0.569-1.713-1.468-2.986-2.281-3.865l-1.949-1.132         c-0.453-0.488-0.88-0.858-1.201-1.104c-0.661-0.516-0.766-1.638-0.446-2.808l-1.959-1.131         c-0.318,1.168-0.212,2.286,0.448,2.801c0.898,0.688,2.609,2.3,3.489,4.978c2.679,8.089,1.908,13.637,0.733,18.664         c-0.762,3.263-0.311,4.925,0.653,5.485l1.957,1.137c-0.122-0.071-0.235-0.16-0.339-0.266c0.1,0.1,0.207,0.185,0.323,0.252         l1.957,1.137c-0.963-0.56-1.415-2.222-0.653-5.485C394.132,72.104,394.904,66.557,392.225,58.467z" /><path style="fill:#FFCB27;" d="M386.336,49.643c0.252-1.005,0.816-2.056,1.671-2.804c0.204-0.176,0.413-0.328,0.622-0.449         c0.589-0.34,1.182-0.437,1.672-0.153l-1.957-1.138c-0.489-0.284-1.082-0.188-1.672,0.153         c-0.209,0.121-0.418,0.272-0.622,0.449c-0.856,0.749-1.421,1.803-1.672,2.81L386.336,49.643z" /><g><g style="enable-background:new    ;"><path style="fill:#D68900;" d="M389.943,54.602l-1.957-1.138c0.193-0.076,0.393-0.156,0.594-0.272           c1.473-0.85,2.718-2.634,3.208-4.407l1.957,1.138c-0.489,1.773-1.735,3.557-3.208,4.407           C390.337,54.446,390.136,54.527,389.943,54.602L389.943,54.602z" /></g></g><path style="fill:#E69F00;" d="M399.879,75.291c-1.266-8.071-2.207-12.906-3.105-16.549         c-0.781-3.152-1.801-6.094-3.029-8.819c-0.489,1.773-1.735,3.557-3.208,4.407c-0.2,0.116-0.401,0.196-0.594,0.272         c0.813,0.879,1.713,2.152,2.281,3.865c2.679,8.09,1.907,13.637,0.732,18.664c-1.311,5.614,0.97,6.49,3.269,5.163         C398.273,81.112,400.334,78.18,399.879,75.291z" /></g></g><g><g><path style="fill:#E69F00;" d="M406.726,78.603c-0.148,0-0.294-0.077-0.373-0.215c-0.119-0.206-0.049-0.47,0.157-0.589         l1.379-0.796v-2.685c0-0.275-0.064-0.377-0.08-0.389c-0.019-0.006-0.138-0.013-0.376,0.126l-0.905,0.523         c-0.59,0.34-1.1,0.416-1.517,0.225c-0.249-0.115-0.569-0.382-0.685-1.003l-2.902-15.672c-0.224-1.206-0.712-1.991-1.45-2.331         c-0.931-0.429-2.277-0.16-3.896,0.775l-1.527,0.882c-0.207,0.118-0.471,0.049-0.589-0.158         c-0.119-0.207-0.049-0.47,0.157-0.589l1.527-0.882c1.873-1.082,3.495-1.362,4.689-0.812c0.994,0.458,1.664,1.48,1.937,2.957         l2.902,15.672c0.021,0.117,0.076,0.321,0.198,0.377c0.142,0.064,0.41-0.007,0.725-0.189l0.905-0.523         c0.603-0.348,1.006-0.26,1.239-0.125c0.233,0.135,0.512,0.441,0.512,1.136v2.934c0,0.154-0.083,0.296-0.216,0.373         l-1.595,0.921C406.873,78.584,406.799,78.603,406.726,78.603z" /></g><g><path style="fill:#E69F00;" d="M409.053,79.277c-0.236,0-0.429-0.19-0.432-0.427l-0.035-3.393l-0.267,0.154         c-0.591,0.341-1.1,0.416-1.517,0.226c-0.249-0.115-0.57-0.382-0.686-1.003l-2.902-15.672c-0.224-1.206-0.711-1.99-1.45-2.331         c-0.928-0.429-2.277-0.161-3.896,0.775l-1.526,0.882c-0.207,0.119-0.471,0.048-0.589-0.158         c-0.119-0.207-0.049-0.47,0.157-0.589l1.526-0.882c1.873-1.081,3.496-1.363,4.69-0.811c0.994,0.459,1.664,1.481,1.936,2.957         l2.902,15.672c0.022,0.117,0.076,0.321,0.199,0.377c0.138,0.066,0.408-0.007,0.724-0.189l0.906-0.522         c0.135-0.077,0.297-0.076,0.43-0.001c0.133,0.076,0.216,0.217,0.218,0.37l0.043,4.131c0.002,0.238-0.189,0.433-0.427,0.436         C409.056,79.277,409.054,79.277,409.053,79.277z" /></g></g><g style="enable-background:new    ;"><g><polygon style="fill:#FFE62B;" points="401.096,73.819 399.475,72.877 408.76,71.809 410.382,72.751        " /></g><polygon style="fill:#FFCB27;" points="399.475,72.877 396.582,74.547 398.203,75.489 401.096,73.819       " /><path style="fill:#F4AE00;" d="M396.582,74.547c-0.978,0.564-1.845,1.576-2.44,2.71l1.624,0.937        c0.595-1.132,1.461-2.141,2.437-2.705L396.582,74.547z" /><path style="fill:#C88000;" d="M394.961,81.105c-0.003-0.937,0.308-1.966,0.805-2.911l-1.624-0.937        c-0.495,0.944-0.805,1.971-0.802,2.906c0.003,1.026,0.365,1.746,0.949,2.085l1.621,0.942        C395.326,82.851,394.964,82.13,394.961,81.105z" /><path style="fill:#E69F00;" d="M410.382,72.751l-9.286,1.068l-2.893,1.67c-1.792,1.034-3.248,3.557-3.242,5.616        c0.006,2.067,1.472,2.894,3.263,1.86l12.166-7.024L410.382,72.751z" /></g></g><g><path style="fill:#FFCB27;" d="M390.691,46.388c-0.438-0.255-1.045-0.222-1.711,0.162c-0.129,0.075-0.26,0.162-0.393,0.263       c-1.782,1.365-6.018,4.323-9.051,6.074c-1.164,0.672-2.15,1.166-2.754,1.325c-0.17,0.044-0.341,0.117-0.508,0.214       c-0.908,0.524-1.719,1.744-1.896,2.881c-0.131,0.86,0.097,1.459,0.528,1.709l2.026,1.178l15.784-12.629L390.691,46.388z" /><path style="fill:#E69F00;" d="M393.403,48.806c-0.13-1.295-1.162-1.791-2.397-1.078c-0.129,0.075-0.26,0.162-0.393,0.264       c-1.782,1.365-6.018,4.323-9.051,6.074c-1.164,0.672-2.151,1.166-2.754,1.325c-0.17,0.044-0.341,0.117-0.508,0.214       c-0.908,0.524-1.719,1.744-1.896,2.881c-0.238,1.566,0.712,2.267,1.917,1.572c0.464-0.268,1.162-1.057,3.628-2.481       c1.786-1.031,4.499-2.395,8.724-4.135c0.11-0.047,0.228-0.106,0.345-0.174C392.443,52.445,393.569,50.383,393.403,48.806z" /></g></g><path style="fill:#C88000;" d="M378.034,56.811c-0.562,0.471-0.928,1.359-0.818,1.984c0.11,0.625,0.654,0.75,1.216,0.279     c0.561-0.471,0.928-1.359,0.818-1.984C379.139,56.465,378.595,56.34,378.034,56.811z M378.418,58.997     c-0.523,0.438-1.03,0.322-1.133-0.26c-0.102-0.582,0.239-1.41,0.762-1.848c0.523-0.438,1.03-0.322,1.133,0.26     C379.282,57.731,378.941,58.558,378.418,58.997z" /><path style="fill:#C88000;" d="M391.022,49.281c-0.561,0.471-0.928,1.359-0.818,1.984s0.654,0.75,1.216,0.279     s0.928-1.359,0.818-1.984S391.584,48.811,391.022,49.281z M391.406,51.467c-0.523,0.439-1.03,0.322-1.133-0.26     c-0.102-0.582,0.239-1.41,0.762-1.848s1.03-0.322,1.133,0.26C392.271,50.201,391.93,51.029,391.406,51.467z" /><path style="fill:#C88000;" d="M398.004,78.25c-0.562,0.471-0.928,1.359-0.818,1.984s0.654,0.75,1.216,0.279     c0.561-0.471,0.928-1.359,0.818-1.984C399.11,77.905,398.566,77.78,398.004,78.25z M398.388,80.436     c-0.523,0.439-1.03,0.322-1.132-0.26c-0.102-0.582,0.239-1.41,0.762-1.848c0.523-0.438,1.03-0.322,1.133,0.26     C399.253,79.17,398.911,79.998,398.388,80.436z" /></g><g id="Axonometric_Cylinder_7_"><linearGradient id="SVGID_00000053544365080182602020000001652482746276343176_" gradientUnits="userSpaceOnUse" x1="366.4969" y1="72.7625" x2="370.6976" y2="72.7625"><stop offset="0" style="stop-color:#1B1514" /><stop offset="1" style="stop-color:#2B2120" /></linearGradient><path style="fill:url(#SVGID_00000053544365080182602020000001652482746276343176_);" d="M366.497,71.535v1.277     c0.005,0.307,0.21,0.612,0.615,0.846c0.82,0.474,2.15,0.474,2.97,0c0.415-0.24,0.62-0.555,0.615-0.869v-1.277L366.497,71.535z" /><path id="Cylinder_face_65_" style="fill:#1B1514;" d="M370.082,72.381c-0.82,0.474-2.15,0.474-2.97,0     c-0.82-0.474-0.82-1.241,0-1.715c0.82-0.474,2.15-0.474,2.97,0C370.903,71.139,370.903,71.907,370.082,72.381z" /></g><path id="Cylinder_face_64_" style="fill:#F4AE00;" d="M370.089,70.543c0.824-0.476,0.824-1.247,0-1.722    c-0.824-0.476-2.16-0.476-2.983,0c-0.824,0.476-0.824,1.247,0,1.722C367.929,71.019,369.265,71.019,370.089,70.543z" /><g style="enable-background:new    ;"><polygon style="fill:#C88000;" points="368.379,67.466 367.269,66.822 367.268,70.252 368.378,70.896    " /><path style="fill:#F4AE00;" d="M369.257,64.73c-0.213-0.124-0.506-0.107-0.829,0.08c-0.642,0.371-1.16,1.274-1.158,2.012     l1.109,0.645c-0.002-0.738,0.516-1.641,1.158-2.011c0.323-0.187,0.617-0.203,0.83-0.08L369.257,64.73z" /><linearGradient id="SVGID_00000046310971050424466230000009295515391037770915_" gradientUnits="userSpaceOnUse" x1="366.4872" y1="68.8841" x2="370.7072" y2="68.8841"><stop offset="0" style="stop-color:#C88000" /><stop offset="1" style="stop-color:#E69F00" /></linearGradient><path style="fill:url(#SVGID_00000046310971050424466230000009295515391037770915_);" d="M370.707,66.122     c-0.002-0.738-0.529-1.038-1.171-0.667c-0.642,0.371-1.16,1.274-1.158,2.011l-0.001,3.409c-0.463-0.028-0.918-0.127-1.272-0.332     c-0.417-0.241-0.623-0.557-0.618-0.873v1.572c-0.005,0.315,0.201,0.632,0.618,0.872c0.824,0.476,2.16,0.476,2.983,0     c0.407-0.235,0.613-0.542,0.618-0.85v-1.572C370.706,69.694,370.707,66.122,370.707,66.122z" /></g></g></g></svg>