<?xml version='1.0' encoding='utf-8'?>
<svg xmlns:ns0="http://www.w3.org/2000/svg" xmlns="http://www.w3.org/2000/svg" viewBox="0 0 24 24"><g transform="translate(-45.19309659796376 -5.360516513533651) scale(0.2979885771045444)"><path style="opacity:0.4;fill:#615A59;" d="M185.284,88.926c-2.076-1.199-4.733-1.855-7.447-1.972l-12.456-0.016   c-2.912,0.043-5.801,0.705-8.024,1.988c-4.603,2.657-4.603,6.966,0,9.623c2.431,1.403,5.658,2.064,8.841,1.984l10.946,0.006   c2.951-0.026,5.888-0.689,8.141-1.99C189.887,95.892,189.887,91.584,185.284,88.926z" /><g><g><g><polygon style="fill:#1B1514;" points="214.036,39.753 213.182,39.257 213.178,37.738 214.031,38.234     " /><polygon style="fill:#362A29;" points="214.031,38.234 213.178,37.738 213.496,37.151 214.35,37.647     " /><polygon style="fill:#1B1514;" points="214.35,37.647 213.496,37.151 213.493,36.141 214.347,36.637     " /><polygon style="fill:#1B1514;" points="214.347,36.637 213.493,36.141 212.337,35.349 213.191,35.845     " /><polygon style="fill:#864D00;" points="213.191,35.845 212.337,35.349 213.018,34.957 213.871,35.453     " /><polygon style="fill:#2B2120;" points="213.871,35.453 214.924,36.174 214.931,38.773 214.566,39.447 214.036,39.753       214.031,38.234 214.35,37.647 214.347,36.637 213.191,35.845     " /></g><g><polygon style="fill:#4E2D00;" points="208.804,42.773 207.951,42.278 207.584,42.027 208.437,42.523     " /><polygon style="fill:#1B1514;" points="208.437,42.523 207.584,42.027 207.576,39.427 208.43,39.923     " /><polygon style="fill:#362A29;" points="208.43,39.923 207.576,39.427 208.619,37.496 209.472,37.992     " /><polygon style="fill:#864D00;" points="209.472,37.992 208.619,37.496 209.299,37.104 210.152,37.6     " /><polygon style="fill:#2B2120;" points="210.152,37.6 209.005,39.722 209.007,40.731 209.328,40.95 209.332,42.468       208.804,42.773 208.437,42.523 208.43,39.923 209.472,37.992     " /></g><g id="Axonometric_Cube_9_"><polygon id="Cube_face_-_left_430_" style="fill:#1B1514;" points="209.472,37.104 208.619,36.611 208.619,37.496       209.472,37.989     " /><polygon id="Cube_face_-_right_430_" style="fill:#2B2120;" points="213.871,35.449 209.472,37.989 209.472,37.104       213.871,34.564     " /><polygon id="Cube_face_-_top_430_" style="fill:#362A29;" points="209.472,37.104 208.619,36.611 213.018,34.071       213.871,34.564     " /></g></g><g><path style="fill:#2B2120;" d="M213.433,34.398l-1.173-2.509c-0.069-0.143-0.239-0.207-0.382-0.139     c-0.144,0.067-0.207,0.239-0.139,0.382l1.136,2.431C213.015,34.846,213.582,34.664,213.433,34.398z" /><path style="fill:#2B2120;" d="M210.481,31.731c-0.162-0.038-0.309,0.063-0.344,0.217l-1.033,4.588     c-0.059,0.26,0.527,0.304,0.581,0.033l1.014-4.496C210.734,31.92,210.636,31.766,210.481,31.731z" /></g><path style="fill:#2B2120;" d="M212.751,33.219c-0.04-0.07-0.13-0.091-0.197-0.053l-2.905,1.677    c-0.068,0.04-0.092,0.128-0.053,0.196c0.027,0.046,0.075,0.072,0.125,0.072c0.025,0,0.049-0.006,0.072-0.019l2.905-1.677    C212.766,33.375,212.79,33.287,212.751,33.219z" /></g><g><g><g id="Axonometric_Cylinder_9_"><linearGradient id="SVGID_00000029022464743267665330000012175154100742082217_" gradientUnits="userSpaceOnUse" x1="209.0696" y1="32.4381" x2="213.2704" y2="32.4381"><stop offset="0" style="stop-color:#1B1514" /><stop offset="1" style="stop-color:#2B2120" /></linearGradient><path style="fill:url(#SVGID_00000029022464743267665330000012175154100742082217_);" d="M209.07,31.21v1.277      c0.005,0.307,0.21,0.612,0.615,0.846c0.82,0.474,2.15,0.474,2.97,0c0.415-0.24,0.62-0.555,0.615-0.869v-1.277L209.07,31.21z" /><path id="Cylinder_face_66_" style="fill:#1B1514;" d="M212.655,32.056c-0.82,0.474-2.15,0.474-2.97,0      c-0.82-0.474-0.82-1.241,0-1.715c0.82-0.474,2.15-0.474,2.97,0C213.475,30.815,213.475,31.583,212.655,32.056z" /></g><g id="Axonometric_Cylinder_8_"><linearGradient id="SVGID_00000098909893904465867610000004256863066585241791_" gradientUnits="userSpaceOnUse" x1="209.0603" y1="30.7816" x2="213.2796" y2="30.7816"><stop offset="0" style="stop-color:#C88000" /><stop offset="1" style="stop-color:#E69F00" /></linearGradient><path style="fill:url(#SVGID_00000098909893904465867610000004256863066585241791_);" d="M209.06,29.381v1.572      c-0.005,0.316,0.201,0.632,0.618,0.872c0.824,0.476,2.16,0.476,2.983,0c0.407-0.235,0.613-0.542,0.618-0.85v-1.572      L209.06,29.381z" /><path id="Cylinder_face_32_" style="fill:#F4AE00;" d="M212.662,30.253c0.824-0.476,0.824-1.247,0-1.723      c-0.824-0.476-2.16-0.476-2.983,0c-0.824,0.476-0.824,1.247,0,1.723C210.502,30.729,211.838,30.729,212.662,30.253z" /></g><g style="enable-background:new    ;"><polygon style="fill:#C88000;" points="210.182,26.688 209.073,26.043 209.071,29.473 210.181,30.118     " /><path style="fill:#F4AE00;" d="M211.06,23.951c-0.213-0.124-0.506-0.107-0.83,0.08c-0.642,0.371-1.16,1.274-1.158,2.011      l1.109,0.645c-0.002-0.738,0.516-1.641,1.158-2.011c0.323-0.187,0.617-0.203,0.829-0.08L211.06,23.951z" /><path style="fill:#E69F00;" d="M212.51,25.343c-0.002-0.738-0.529-1.038-1.171-0.667c-0.642,0.371-1.16,1.274-1.158,2.011      l-0.001,3.43l1.165-0.673l1.163-0.672L212.51,25.343z" /></g></g><g><g><g><g><g id="Axonometric_Cylinder_4_"><linearGradient id="SVGID_00000173855857352786813650000007718867037485921462_" gradientUnits="userSpaceOnUse" x1="165.195" y1="94.6371" x2="188.7663" y2="94.6371"><stop offset="0" style="stop-color:#544E4D" /><stop offset="1" style="stop-color:#6F6866" /></linearGradient><path style="fill:url(#SVGID_00000173855857352786813650000007718867037485921462_);" d="M165.195,88.84v4.978         c0.027,1.721,1.178,3.436,3.451,4.749c4.603,2.657,12.065,2.657,16.668,0c2.329-1.345,3.479-3.112,3.451-4.874v-4.978         L165.195,88.84z" /><linearGradient id="SVGID_00000163056029057827041340000000860710177755723191_" gradientUnits="userSpaceOnUse" x1="165.195" y1="90.7459" x2="188.7663" y2="90.7459"><stop offset="0" style="stop-color:#BC7400" /><stop offset="1" style="stop-color:#E69F00" /></linearGradient><path style="fill:url(#SVGID_00000163056029057827041340000000860710177755723191_);" d="M165.195,85.714v3.447         c0.027,1.72,1.178,3.436,3.451,4.749c4.603,2.657,12.065,2.657,16.668,0c2.329-1.345,3.479-3.112,3.451-4.874v-3.447         L165.195,85.714z" /></g><g id="Axonometric_Cylinder_2_"><path id="Cylinder_face_10_" style="fill:#FFCB27;" d="M185.314,90.463c-4.603,2.657-12.065,2.657-16.668,0         c-4.603-2.657-4.603-6.966,0-9.623c4.603-2.657,12.065-2.657,16.668,0C189.917,83.497,189.917,87.806,185.314,90.463z" /></g></g><g id="Axonometric_Cube_5_"><polygon id="Cube_face_-_left_332_" style="fill:#BC7400;" points="176.653,90.475 168.938,86.021 168.938,77.101         176.653,81.555       " /><polygon id="Cube_face_-_right_332_" style="fill:#E69F00;" points="185.091,85.603 176.653,90.475 176.653,81.555         185.091,76.684       " /><polygon id="Cube_face_-_top_332_" style="fill:#FFCB27;" points="176.653,81.555 168.938,77.101 177.377,72.229         185.091,76.684       " /></g><path style="fill:#9C5A00;" d="M188.385,36.923c-1.015,1.106-2.963,1.019-2.963,1.019l0.26,1.344l1.183,1.344       C186.865,40.63,189.353,35.868,188.385,36.923z" /><g style="enable-background:new    ;"><path style="fill:#FFCB27;" d="M183.398,62.386c-0.591-0.343-1.409-0.296-2.314,0.226l-2.893,1.67l1.621,0.942l2.893-1.67        c0.904-0.522,1.723-0.569,2.314-0.226L183.398,62.386z" /><g><polygon style="fill:#F4AE00;" points="170.551,74.864 168.93,73.922 178.191,64.282 179.812,65.224        " /></g><g><polygon style="fill:#BC7400;" points="170.56,78.053 168.939,77.111 168.93,73.922 170.551,74.864        " /></g><g><path style="fill:#DA9300;" d="M182.705,63.554c1.799-1.039,3.257-0.199,3.263,1.86c0.006,2.067-1.443,4.577-3.242,5.616         l-12.166,7.024l-0.009-3.189l9.261-9.64L182.705,63.554z" /></g></g><g style="enable-background:new    ;"><g style="enable-background:new    ;"><path style="fill:#BC7400;" d="M187.235,32.408c-0.83,0.843-1.445,2.075-1.538,3.168c-0.083,0.934,0.196,1.588,0.689,1.874         l2.026,1.178l4.02-3.22L187.235,32.408z" /><path style="fill:#FFCB27;" d="M192.302,35.513l11.891-9.523l-2.026-1.177c-0.357-0.208-0.852-0.175-1.379,0.129         c-0.167,0.097-0.337,0.22-0.507,0.372c-0.602,0.538-1.589,1.183-2.754,1.855c-3.035,1.752-7.276,3.688-9.055,4.379         c-0.133,0.052-0.264,0.116-0.393,0.19c-0.339,0.196-0.659,0.469-0.953,0.787L192.302,35.513z" /><path style="fill:#E69F00;" d="M204.713,26.81c-0.177-0.933-0.991-1.214-1.899-0.69c-0.167,0.096-0.337,0.22-0.507,0.372         c-0.602,0.538-1.589,1.183-2.754,1.855c-3.035,1.752-7.276,3.688-9.055,4.379c-0.133,0.052-0.264,0.116-0.393,0.19         c-1.235,0.713-2.261,2.397-2.383,3.838c-0.157,1.764,0.978,2.528,2.402,1.706c0.117-0.068,0.227-0.148,0.345-0.233         c4.202-3.123,6.91-4.888,8.696-5.919c2.484-1.434,3.187-1.448,3.653-1.717C204.023,29.896,204.959,28.096,204.713,26.81z" /></g><path style="fill:#BC7400;" d="M189.602,33.706c-0.394,0.414-0.766,0.937-1.072,1.604c-0.192,0.421-0.513,1.406-0.865,2.576        c-0.118,0.389-0.222,0.776-0.336,1.164l-1.906-1.107c-1.208,4.132-2.201,8.236-2.961,12.278        c-0.875,4.667-1.785,10.569-3.009,20.078c-0.217,1.697,0.19,2.684,0.906,3.1l3.86,2.245l4.28-27.379l4.902-12.365        L189.602,33.706z" /><path style="fill:#FFCB27;" d="M191.101,32.715c-0.204,0.059-0.413,0.149-0.622,0.27c-0.348,0.201-0.696,0.491-1.024,0.866        l3.87,2.235l0.85-2.145l-1.957-1.137C191.925,32.632,191.549,32.59,191.101,32.715z" /><path style="fill:#E69F00;" d="M193.059,33.853c-0.204,0.059-0.413,0.149-0.622,0.27c-0.709,0.41-1.422,1.177-1.95,2.324        c-0.192,0.421-0.513,1.406-0.865,2.576c-1.377,4.531-2.469,9.021-3.306,13.444c-0.875,4.658-1.785,10.56-3.001,20.074        c-0.438,3.405,1.633,3.952,3.681,2.769c2.298-1.327,4.567-4.831,3.229-8.915c-1.199-3.655-2-8.295,0.624-19.447        c0.862-3.683,2.559-7.263,3.45-8.984C195.504,35.609,194.88,33.343,193.059,33.853z" /></g><g><g><path style="fill:#E69F00;" d="M170.035,83.435c-0.074,0-0.149-0.019-0.216-0.058c-0.133-0.077-0.215-0.219-0.215-0.374         V80.07c0-0.939,0.505-1.815,1.319-2.286l0.906-0.522c0.731-0.422,1.224-1.144,1.352-1.979l2.902-19.023         c0.585-3.829,2.843-7.136,6.197-9.072l1.527-0.882c0.206-0.119,0.469-0.049,0.589,0.158c0.119,0.206,0.048,0.47-0.158,0.589         l-1.527,0.882c-3.126,1.804-5.231,4.886-5.776,8.454l-2.902,19.024c-0.167,1.096-0.814,2.042-1.773,2.596l-0.906,0.522         c-0.548,0.316-0.888,0.906-0.888,1.539v2.187l0.948-0.547c0.205-0.12,0.469-0.049,0.589,0.158         c0.119,0.206,0.048,0.47-0.158,0.589l-1.595,0.921C170.184,83.416,170.109,83.435,170.035,83.435z" /></g><g><path style="fill:#E69F00;" d="M172.005,84.573c-0.074,0-0.149-0.019-0.216-0.058c-0.133-0.077-0.215-0.219-0.215-0.373         v-2.934c0-0.94,0.505-1.816,1.319-2.286l0.906-0.522c0.732-0.423,1.225-1.144,1.352-1.979l2.902-19.023         c0.584-3.829,2.842-7.135,6.196-9.072l1.527-0.882c0.205-0.119,0.47-0.049,0.589,0.158c0.119,0.206,0.048,0.47-0.158,0.589         l-1.527,0.882c-3.126,1.805-5.231,4.886-5.775,8.455l-2.902,19.023c-0.167,1.095-0.814,2.041-1.773,2.596l-0.906,0.522         c-0.548,0.316-0.888,0.906-0.888,1.539v2.187l0.948-0.547c0.207-0.12,0.47-0.049,0.589,0.158         c0.119,0.207,0.048,0.47-0.158,0.589l-1.595,0.921C172.154,84.554,172.079,84.573,172.005,84.573z" /></g></g><g style="enable-background:new    ;"><path style="fill:#FFCB27;" d="M189.495,65.906c-0.591-0.343-1.409-0.296-2.313,0.226l-2.893,1.67l1.621,0.942l2.893-1.67        c0.904-0.522,1.723-0.57,2.314-0.226L189.495,65.906z" /><g><polygon style="fill:#F4AE00;" points="176.648,78.384 175.027,77.442 184.288,67.802 185.909,68.744        " /></g><g><polygon style="fill:#BC7400;" points="176.657,81.573 175.036,80.631 175.027,77.442 176.648,78.384        " /></g><g><path style="fill:#E69F00;" d="M188.802,67.074c1.799-1.038,3.257-0.199,3.263,1.86c0.006,2.067-1.443,4.577-3.242,5.616         l-12.166,7.024l-0.009-3.189l9.261-9.64L188.802,67.074z" /></g></g></g><g style="enable-background:new    ;"><path style="fill:#FFCB27;" d="M212.378,24.353c-0.166-0.097-0.38-0.116-0.626-0.039c-2.91,0.894-4.152,1.265-8.122,1.757       c-0.081,0.004-0.169,0.03-0.257,0.056c-0.15,0.045-0.3,0.112-0.448,0.197l1.378,0.801l4.651,1.295l4.802-3.265L212.378,24.353z       " /><path style="fill:#C88000;" d="M202.925,26.323c-0.93,0.537-1.766,1.811-1.889,3.02c-0.069,0.72,0.148,1.264,0.553,1.499       l1.378,0.801l2.631-3.772L202.925,26.323z" /><path style="fill:#E69F00;" d="M213.13,25.115c-2.91,0.894-4.152,1.265-8.122,1.757c-0.081,0.004-0.169,0.03-0.257,0.056       c-0.15,0.045-0.3,0.112-0.448,0.197c-0.93,0.537-1.766,1.811-1.889,3.02c-0.121,1.27,0.645,1.994,1.769,1.438       c2.835-1.4,5.612-2.378,8.375-3.238c0.098-0.03,0.195-0.074,0.291-0.129c0.584-0.337,1.111-1.105,1.247-1.866       C214.263,25.449,213.828,24.898,213.13,25.115z" /></g></g><path style="fill:#C88000;" d="M204.114,28.281c-0.562,0.471-0.928,1.359-0.818,1.984c0.11,0.625,0.654,0.75,1.216,0.279     c0.562-0.471,0.928-1.359,0.818-1.984C205.219,27.936,204.675,27.811,204.114,28.281z M204.498,30.467     c-0.523,0.438-1.03,0.322-1.133-0.26c-0.102-0.582,0.239-1.41,0.762-1.848c0.523-0.439,1.03-0.322,1.132,0.26     C205.362,29.201,205.021,30.029,204.498,30.467z" /><path style="fill:#C88000;" d="M192.642,35.48c-0.562,0.471-0.928,1.359-0.818,1.984c0.11,0.625,0.654,0.75,1.216,0.279     c0.561-0.471,0.928-1.359,0.818-1.984C193.747,35.135,193.203,35.01,192.642,35.48z M193.026,37.666     c-0.523,0.438-1.03,0.322-1.133-0.26c-0.102-0.582,0.239-1.41,0.762-1.848c0.523-0.438,1.03-0.322,1.133,0.26     C193.89,36.4,193.549,37.228,193.026,37.666z" /><path style="fill:#C88000;" d="M188.744,69.513c-0.561,0.471-0.928,1.359-0.818,1.984c0.11,0.625,0.654,0.75,1.216,0.279     c0.561-0.471,0.928-1.359,0.818-1.984C189.849,69.168,189.305,69.043,188.744,69.513z M189.128,71.699     c-0.523,0.438-1.03,0.322-1.133-0.26c-0.102-0.582,0.239-1.41,0.762-1.848c0.523-0.438,1.03-0.322,1.132,0.26     C189.992,70.433,189.651,71.26,189.128,71.699z" /></g></g></g></svg>