<?xml version='1.0' encoding='utf-8'?>
<svg xmlns:ns0="http://www.w3.org/2000/svg" xmlns="http://www.w3.org/2000/svg" viewBox="0 0 24 24"><g transform="translate(-46.419238334734686 -34.78347693945402) scale(0.16661909794271698)"><g><polygon style="opacity:0.4;fill:#615A59;" points="353.126,280.926 303.696,257.795 285.797,268.129 376.305,320.384     389.812,320.423 407.394,310.272   " /><g><g><path style="fill:#615A59;" d="M297.443,262.405l-0.445,0.258l-0.004,1.516c-0.003,0.876,0.612,1.94,1.371,2.378      c0.384,0.222,0.742,0.236,0.992,0.089c-0.004,0.003,0.434-0.25,0.434-0.25c0.247-0.144,0.401-0.45,0.402-0.885l0.004-1.516      L297.443,262.405z" /><path style="fill:#232120;" d="M299.624,267.279c-0.563,0.976-1.862,1.281-2.9,0.681c-1.039-0.6-1.424-1.877-0.86-2.853      c0.563-0.976,1.862-1.281,2.9-0.682C299.803,265.026,300.188,266.303,299.624,267.279z" /><path style="fill:#615A59;" d="M295.509,263.521l-0.445,0.258l-0.003,1.516c-0.003,0.876,0.612,1.94,1.371,2.378      c0.384,0.222,0.742,0.236,0.992,0.088c-0.004,0.003,0.434-0.25,0.434-0.25c0.247-0.144,0.401-0.45,0.402-0.885l0.004-1.516      L295.509,263.521z" /></g><g><path style="fill:#615A59;" d="M333.441,283.188l-0.445,0.258l-0.004,1.516c-0.003,0.876,0.612,1.94,1.371,2.378      c0.384,0.222,0.742,0.236,0.992,0.089c-0.004,0.002,0.434-0.25,0.434-0.25c0.247-0.144,0.401-0.45,0.402-0.885l0.004-1.516      L333.441,283.188z" /><path style="fill:#232120;" d="M335.622,288.062c-0.563,0.976-1.862,1.281-2.9,0.681c-1.038-0.599-1.424-1.877-0.86-2.853      c0.563-0.976,1.862-1.281,2.9-0.681C335.801,285.809,336.186,287.086,335.622,288.062z" /><path style="fill:#615A59;" d="M331.507,284.304l-0.445,0.258l-0.003,1.516c-0.002,0.876,0.612,1.94,1.371,2.378      c0.384,0.222,0.742,0.236,0.992,0.089c-0.004,0.003,0.434-0.25,0.434-0.25c0.247-0.144,0.401-0.45,0.402-0.885l0.004-1.516      L331.507,284.304z" /></g><g><path style="fill:#615A59;" d="M357.827,269.108l-0.445,0.258l-0.003,1.516c-0.003,0.876,0.612,1.94,1.371,2.378      c0.384,0.222,0.742,0.236,0.992,0.089c-0.004,0.003,0.434-0.25,0.434-0.25c0.247-0.144,0.401-0.45,0.402-0.885l0.004-1.516      L357.827,269.108z" /><path style="fill:#232120;" d="M360.009,273.983c-0.563,0.976-1.862,1.281-2.9,0.681c-1.039-0.599-1.424-1.877-0.86-2.853      c0.563-0.976,1.862-1.281,2.9-0.681C360.187,271.73,360.572,273.007,360.009,273.983z" /><path style="fill:#615A59;" d="M355.894,270.225l-0.445,0.258l-0.004,1.516c-0.003,0.876,0.612,1.94,1.371,2.378      c0.384,0.222,0.742,0.236,0.992,0.089c-0.004,0.003,0.434-0.25,0.434-0.25c0.247-0.144,0.401-0.45,0.402-0.885l0.004-1.516      L355.894,270.225z" /></g><g id="Axonometric_Cube_88_"><polygon id="Cube_face_-_left_1480_" style="fill:#615A59;" points="334.258,287.41 293.573,263.921 293.573,262.405       334.258,285.894     " /><polygon id="Cube_face_-_right_1499_" style="fill:#807775;" points="361.278,271.81 334.258,287.41 334.258,285.894       361.278,270.294     " /><polygon id="Cube_face_-_top_1499_" style="fill:#3A2C2B;" points="334.258,285.894 293.573,262.405 320.593,246.805       361.278,270.294     " /></g></g><g><path style="fill:#231C1C;" d="M348.358,286.729c-0.949-0.971-2.037-1.443-3.075-0.958l0.164-0.094     c-0.002,0.001-0.547,0.316-0.549,0.317l-2.495,1.441c-1.682,5.006,1.824,9.339,5.641,9.651c0,0,2.509-1.453,2.511-1.457     c0.676-0.429,1.093-1.293,1.093-2.514C351.646,290.856,350.223,288.172,348.358,286.729z" /><g id="Axonometric_Cube_82_"><polygon id="Cube_face_-_left_1333_" style="fill:#BC7400;" points="346.717,287.232 340.296,283.525 340.296,291.673       346.717,295.381     " /><polygon id="Cube_face_-_right_1352_" style="fill:#E69F00;" points="373.788,279.751 346.717,295.381 346.717,287.232       373.788,271.603     " /><polygon id="Cube_face_-_top_1352_" style="fill:#FFCB27;" points="346.717,287.232 340.296,283.525 367.367,267.896       373.788,271.603     " /></g><g id="Axonometric_Cube_79_"><polygon id="Cube_face_-_left_1331_" style="fill:#BC7400;" points="350.15,272.652 345.788,270.133 345.788,294.844       350.15,297.363     " /><polygon id="Cube_face_-_right_1350_" style="fill:#E69F00;" points="377.222,281.733 350.15,297.363 350.15,272.652       377.222,257.022     " /><polygon id="Cube_face_-_top_1350_" style="fill:#FFCB27;" points="350.15,272.652 345.788,270.133 372.859,254.503       377.222,257.022     " /></g><g id="Axonometric_Cube_78_"><polygon id="Cube_face_-_left_1296_" style="fill:#BC7400;" points="350.15,295.967 372.168,308.679 372.168,310.075       350.15,297.363     " /><polygon id="Cube_face_-_top_1315_" style="fill:#3A2C2B;" points="372.168,308.679 350.15,295.967 377.229,280.333       399.246,293.045     " /></g><path style="fill:#231C1C;" d="M385.648,312.773c-0.584-0.597-1.253-0.887-1.892-0.589l0.1-0.058     c-0.001,0-0.336,0.194-0.337,0.195l-1.535,0.886c-1.035,3.079,1.122,5.745,3.47,5.937c0,0,1.543-0.894,1.545-0.896     c0.416-0.264,0.672-0.796,0.672-1.546C387.671,315.312,386.795,313.66,385.648,312.773z" /><path id="Cylinder_face_107_" style="fill:#231C1C;" d="M386.15,317.579c0,1.55-1.089,2.179-2.431,1.404     c-1.343-0.775-2.431-2.661-2.431-4.211c0-1.551,1.089-2.179,2.431-1.404C385.062,314.143,386.15,316.028,386.15,317.579z" /><path id="Cylinder_face_193_" style="fill:#BC7400;" d="M385.34,317.111c0,1.034-0.726,1.453-1.621,0.936     c-0.896-0.517-1.621-1.775-1.621-2.809c0-1.034,0.726-1.453,1.621-0.936C384.615,314.82,385.34,316.077,385.34,317.111z" /><g><polygon style="fill:#F4AE00;" points="415.422,278.304 415.434,301.549 413.898,305.841 413.885,282.595     " /><polygon style="fill:#E69F00;" points="413.885,282.595 413.898,305.841 395.824,316.303 395.811,293.057     " /><polygon style="fill:#D89000;" points="395.811,293.057 395.824,316.303 388.419,317.207 388.407,293.962     " /><polygon style="fill:#BC7400;" points="388.407,293.962 388.419,317.207 370.082,306.62 374.083,285.692     " /></g><g><polygon style="fill:#3A2C2B;" points="388.803,277.115 387.372,270.526 386.242,270.776 387.752,277.725     " /><g><polygon style="fill:#3A2C2B;" points="391.222,266.573 386.578,269.935 387.374,270.664 391.9,266.783      " /><polygon style="fill:#3A2C2B;" points="380.373,269.87 380.234,270.493 386.497,270.867 386.497,269.87      " /><g style="enable-background:new    ;"><path style="fill:#3A2C2B;" d="M387.584,269.803l-1.785,0.395l0.258,1.17c0.017,0.078,0.1,0.142,0.248,0.177        c0.343,0.082,0.912-0.02,1.268-0.226c0.202-0.117,0.292-0.244,0.27-0.346L387.584,269.803z" /><path style="fill:#544141;" d="M387.336,269.626c-0.343-0.082-0.912,0.02-1.268,0.226c-0.355,0.207-0.365,0.441-0.022,0.523        c0.343,0.082,0.912-0.02,1.268-0.226C387.67,269.943,387.679,269.708,387.336,269.626z" /></g><polygon style="fill:#3A2C2B;" points="387.491,270.446 386.353,270.878 387.29,272.085 388.369,271.739      " /><path style="fill:#3A2C2B;" d="M393.573,267.454c0,0-0.089-0.979-2.011-1.423c-2.735-0.631-7.197,0.237-9.953,1.94       c-2.625,1.622-2.058,2.737-1.904,3.388c0.564,2.379,7.749,2.087,11.963-0.518C394.278,269.229,393.728,268.106,393.573,267.454       z M391.082,270.159c-2.505,1.548-6.565,2.34-9.054,1.765c-0.802-0.185-1.341-0.491-1.623-0.872       c-0.068-0.091-0.095-0.21-0.075-0.322c0.117-0.647,0.738-1.379,1.865-2.076c2.504-1.548,6.565-2.34,9.054-1.765       c0.801,0.185,1.339,0.49,1.621,0.87c0.068,0.091,0.096,0.21,0.076,0.322C392.83,268.729,392.21,269.462,391.082,270.159z" /></g></g><polygon style="fill:#FFCB27;" points="401.098,270.034 374.083,285.692 388.407,293.962 395.811,293.057 413.885,282.595      415.422,278.304    " /><g><polygon style="fill:#F4AE00;" points="415.422,300.82 415.434,303.799 413.898,308.091 413.885,305.112     " /><polygon style="fill:#3A2C2B;" points="413.885,305.112 413.898,308.091 395.824,318.553 395.811,315.574     " /><polygon style="fill:#D89000;" points="395.811,315.574 395.824,318.553 388.419,319.457 388.407,316.478     " /><polygon style="fill:#BC7400;" points="388.407,316.478 388.419,319.457 370.082,308.871 370.07,305.891     " /></g><g><path id="Cylinder_face_194_" style="fill:#231C1C;" d="M349.175,294.541c0,2.52-1.769,3.542-3.952,2.282      c-2.183-1.26-3.952-4.325-3.952-6.845c0-2.52,1.769-3.542,3.952-2.282C347.405,288.956,349.175,292.021,349.175,294.541z" /><path style="fill:#BC7400;" d="M345.123,289.307c-1.431-0.792-2.571-0.078-2.546,1.594c0.025,1.672,1.205,3.669,2.636,4.461      c1.431,0.792,2.571,0.078,2.546-1.594S346.553,290.099,345.123,289.307z" /></g><path style="fill:#C1591F;" d="M397.388,313.385c0,0.291-0.204,0.645-0.456,0.79c-0.252,0.146-0.456,0.027-0.456-0.263     c0-0.291,0.204-0.645,0.456-0.79C397.184,312.976,397.388,313.094,397.388,313.385z" /><path style="fill:#EEF7FF;" d="M398.519,312.205c-0.252,0.146-0.456,0.499-0.456,0.79c0,0.291,0.204,0.409,0.456,0.263     s0.456-0.499,0.456-0.79C398.975,312.178,398.771,312.06,398.519,312.205z" /><path style="fill:#EEF7FF;" d="M400.106,311.289c-0.252,0.145-0.456,0.499-0.456,0.79c0,0.291,0.204,0.409,0.456,0.264     c0.252-0.146,0.456-0.499,0.456-0.79C400.562,311.261,400.358,311.143,400.106,311.289z" /><path style="fill:#EEF7FF;" d="M410.116,306.037c0,0.291-0.204,0.645-0.456,0.79c-0.252,0.146-0.456,0.028-0.456-0.263     c0-0.291,0.204-0.645,0.456-0.79C409.911,305.628,410.116,305.746,410.116,306.037z" /><path style="fill:#EEF7FF;" d="M411.247,304.857c-0.252,0.145-0.456,0.499-0.456,0.79c0,0.291,0.204,0.409,0.456,0.263     c0.252-0.146,0.456-0.499,0.456-0.79S411.499,304.711,411.247,304.857z" /><path style="fill:#C1591F;" d="M412.834,303.941c-0.252,0.145-0.456,0.499-0.456,0.79c0,0.291,0.204,0.409,0.456,0.263     c0.252-0.145,0.456-0.499,0.456-0.79C413.29,303.913,413.086,303.795,412.834,303.941z" /><path style="fill:#3A2C2B;" d="M411.869,301.498l-13.975,8.068c-0.285,0.165-0.517,0.067-0.517-0.218v-14.847     c0-0.285,0.231-0.651,0.517-0.815l13.975-8.068c0.286-0.165,0.517-0.067,0.517,0.218v14.847     C412.386,300.968,412.155,301.333,411.869,301.498z" /></g><g id="Axonometric_Cube_83_"><polygon id="Cube_face_-_left_1404_" style="fill:#BC7400;" points="378.459,287.232 374.083,284.706 374.083,285.692      378.459,288.219    " /><polygon id="Cube_face_-_right_1423_" style="fill:#E69F00;" points="405.53,272.589 378.459,288.219 378.459,287.232      405.53,271.603    " /><polygon id="Cube_face_-_top_1423_" style="fill:#FFCB27;" points="378.459,287.232 374.083,284.706 401.154,269.077      405.53,271.603    " /></g><g><path style="fill:#615A59;" d="M372.069,250.418v5.521c0.002,0.106,0.07,0.212,0.204,0.292c0.272,0.164,0.712,0.164,0.984,0     c0.137-0.083,0.205-0.191,0.204-0.3v-5.521L372.069,250.418z" /><g id="Axonometric_Cylinder_82_"><path style="fill:#615A59;" d="M371.599,249.597v0.629c0.003,0.178,0.117,0.354,0.342,0.49c0.455,0.274,1.194,0.274,1.649,0      c0.23-0.139,0.344-0.321,0.341-0.503v-0.629L371.599,249.597z" /><path id="Cylinder_face_200_" style="fill:#A49896;" d="M373.59,250.087c-0.455,0.274-1.194,0.274-1.649,0      c-0.456-0.274-0.456-0.718,0-0.992c0.455-0.274,1.194-0.274,1.649,0C374.045,249.368,374.045,249.813,373.59,250.087z" /></g><g id="Axonometric_Cylinder_81_"><path style="fill:#85C100;" d="M371.693,247.224v2.269c0.003,0.163,0.107,0.326,0.314,0.45c0.419,0.252,1.097,0.252,1.516,0      c0.212-0.127,0.316-0.295,0.314-0.462v-2.269L371.693,247.224z" /></g><g id="Axonometric_Cylinder_80_"><path style="fill:#BF3737;" d="M371.693,245.074v2.269c0.003,0.163,0.107,0.326,0.314,0.45c0.419,0.252,1.097,0.252,1.516,0      c0.212-0.128,0.316-0.295,0.314-0.462v-2.269L371.693,245.074z" /></g><g id="Axonometric_Cylinder_79_"><path style="fill:#DBB100;" d="M371.693,242.924v2.269c0.003,0.163,0.107,0.326,0.314,0.45c0.419,0.252,1.097,0.252,1.516,0      c0.212-0.127,0.316-0.295,0.314-0.462v-2.269L371.693,242.924z" /><path id="Cylinder_face_199_" style="fill:#FFD91F;" d="M373.523,243.374c-0.419,0.252-1.097,0.252-1.516,0      c-0.419-0.252-0.419-0.66,0-0.912c0.419-0.252,1.097-0.252,1.516,0C373.941,242.714,373.941,243.122,373.523,243.374z" /></g></g><g id="Axonometric_Cube_84_"><polygon id="Cube_face_-_left_1425_" style="fill:#BC7400;" points="356.83,262.417 355.793,261.818 355.793,264.357      357.666,265.438    " /><polygon id="Cube_face_-_right_1445_" style="fill:#E69F00;" points="366.02,260.614 357.666,265.438 356.83,262.417      365.184,257.593    " /><polygon id="Cube_face_-_top_1445_" style="fill:#FFCB27;" points="356.83,262.417 355.793,261.818 364.147,256.995      365.184,257.593    " /></g></g><g><g><g><g id="Axonometric_Cube_94_"><polygon id="Cube_face_-_left_1522_" style="fill:#B78351;" points="323.663,262.472 311.8,255.623 311.8,246.749        323.663,253.598      " /><polygon id="Cube_face_-_right_1545_" style="fill:#E2B06D;" points="333.379,256.862 323.663,262.472 323.663,253.598        333.379,247.988      " /><polygon id="Cube_face_-_top_1545_" style="fill:#FECA85;" points="323.663,253.598 311.8,246.749 321.517,241.139        333.379,247.988      " /></g><g><g><polygon id="Cube_face_-_top_1544_" style="fill:#B6703B;" points="328.088,251.044 316.224,244.195 317.686,243.351         329.549,250.2       " /><polygon id="Cube_face_-_right_1544_" style="fill:#91592F;" points="329.549,254.473 328.088,255.317 328.088,251.044         329.549,250.2       " /></g></g><polygon style="fill:#FFF2E9;" points="326.375,253.379 324.341,254.553 324.341,253.886 326.375,252.712     " /><polygon style="fill:#BFB2A9;" points="312.29,255.252 314.324,256.426 314.324,254.334 312.29,253.16     " /><polygon style="fill:#BFB2A9;" points="322.227,260.989 323.089,261.487 323.089,261.028 322.227,260.53     " /><polygon style="fill:#FFF2E9;" points="332.813,256.561 332.112,256.965 332.112,256.297 332.813,255.893     " /><g><g><polygon style="fill:#594839;" points="319.668,252.165 319.514,252.076 319.514,251.945 319.668,252.033       " /><polygon style="fill:#594839;" points="320.079,252.403 319.794,252.238 319.794,252.107 320.079,252.271       " /><polygon style="fill:#594839;" points="320.797,252.817 320.206,252.476 320.206,252.344 320.797,252.685       " /><polygon style="fill:#594839;" points="321.599,253.28 320.924,252.89 320.924,252.758 321.599,253.148       " /><polygon style="fill:#594839;" points="321.726,253.221 321.726,253.353 322.401,253.743 322.401,253.611       " /><polygon style="fill:#594839;" points="322.809,253.979 322.527,253.816 322.527,253.684 322.809,253.847       " /><polygon style="fill:#594839;" points="323.087,254.139 322.935,254.052 322.935,253.92 323.087,254.007       " /><polygon style="fill:#594839;" points="319.911,252.663 319.514,252.434 319.514,252.302 319.911,252.531       " /><polygon style="fill:#594839;" points="320.322,252.9 320.037,252.736 320.037,252.604 320.322,252.769       " /><polygon style="fill:#594839;" points="320.99,253.286 320.449,252.973 320.449,252.842 320.99,253.154       " /><polygon style="fill:#594839;" points="321.31,253.471 321.117,253.359 321.117,253.228 321.31,253.339       " /><polygon style="fill:#594839;" points="321.437,253.412 321.437,253.544 322.06,253.903 322.06,253.772       " /><polygon style="fill:#594839;" points="322.605,254.218 322.186,253.977 322.186,253.845 322.605,254.087       " /><polygon style="fill:#594839;" points="323.087,254.497 322.732,254.291 322.732,254.16 323.087,254.365       " /><polygon style="fill:#594839;" points="319.668,252.88 319.514,252.791 319.514,252.66 319.668,252.748       " /><polygon style="fill:#594839;" points="320.079,253.118 319.794,252.953 319.794,252.821 320.079,252.986       " /><polygon style="fill:#594839;" points="320.797,253.532 320.206,253.191 320.206,253.059 320.797,253.4       " /><polygon style="fill:#594839;" points="321.599,253.995 320.924,253.605 320.924,253.473 321.599,253.863       " /><polygon style="fill:#594839;" points="321.726,253.936 321.726,254.068 322.401,254.458 322.401,254.326       " /><polygon style="fill:#594839;" points="322.809,254.693 322.527,254.531 322.527,254.399 322.809,254.562       " /><polygon style="fill:#594839;" points="323.087,254.854 322.935,254.766 322.935,254.635 323.087,254.722       " /><polygon style="fill:#594839;" points="319.911,253.378 319.514,253.149 319.514,253.017 319.911,253.246       " /><polygon style="fill:#594839;" points="320.322,253.615 320.037,253.451 320.037,253.319 320.322,253.484       " /><polygon style="fill:#594839;" points="320.99,254.001 320.449,253.688 320.449,253.557 320.99,253.869       " /><polygon style="fill:#594839;" points="321.31,254.186 321.117,254.074 321.117,253.942 321.31,254.054       " /><polygon style="fill:#594839;" points="321.437,254.127 321.437,254.259 322.06,254.618 322.06,254.487       " /><polygon style="fill:#594839;" points="322.605,254.933 322.186,254.691 322.186,254.56 322.605,254.801       " /><polygon style="fill:#594839;" points="323.087,255.211 322.732,255.006 322.732,254.874 323.087,255.08       " /></g><g><polygon style="fill:#594839;" points="319.668,258.398 319.514,258.309 319.514,258.177 319.668,258.266       " /><polygon style="fill:#594839;" points="320.079,258.635 319.794,258.471 319.794,258.339 320.079,258.504       " /><polygon style="fill:#594839;" points="320.501,258.879 320.206,258.709 320.206,258.577 320.501,258.747       " /><polygon style="fill:#594839;" points="321.599,259.513 320.628,258.952 320.628,258.821 321.599,259.381       " /><polygon style="fill:#594839;" points="321.726,259.454 321.726,259.586 322.401,259.976 322.401,259.844       " /><polygon style="fill:#594839;" points="322.809,260.211 322.527,260.049 322.527,259.917 322.809,260.08       " /><polygon style="fill:#594839;" points="323.087,260.372 322.935,260.284 322.935,260.153 323.087,260.24       " /><polygon style="fill:#594839;" points="319.911,258.895 319.514,258.667 319.514,258.535 319.911,258.764       " /><polygon style="fill:#594839;" points="320.322,259.133 320.037,258.969 320.037,258.837 320.322,259.001       " /><polygon style="fill:#594839;" points="320.927,259.482 320.449,259.206 320.449,259.074 320.927,259.351       " /><polygon style="fill:#594839;" points="321.31,259.704 321.054,259.555 321.054,259.424 321.31,259.572       " /><polygon style="fill:#594839;" points="321.437,259.645 321.437,259.777 322.06,260.136 322.06,260.004       " /><polygon style="fill:#594839;" points="322.605,260.451 322.186,260.209 322.186,260.078 322.605,260.319       " /><polygon style="fill:#594839;" points="323.087,260.729 322.732,260.524 322.732,260.392 323.087,260.598       " /></g><g><polygon style="fill:#594839;" points="312.476,248.013 312.322,247.924 312.322,247.792 312.476,247.881       " /><polygon style="fill:#594839;" points="312.887,248.25 312.603,248.086 312.603,247.954 312.887,248.119       " /><polygon style="fill:#594839;" points="313.605,248.665 313.014,248.324 313.014,248.192 313.605,248.533       " /><polygon style="fill:#594839;" points="314.407,249.128 313.732,248.738 313.732,248.606 314.407,248.996       " /><polygon style="fill:#594839;" points="312.719,248.51 312.322,248.281 312.322,248.15 312.719,248.379       " /><polygon style="fill:#594839;" points="313.13,248.748 312.845,248.583 312.845,248.452 313.13,248.616       " /><polygon style="fill:#594839;" points="313.798,249.134 313.257,248.821 313.257,248.689 313.798,249.002       " /><polygon style="fill:#594839;" points="312.476,248.728 312.322,248.639 312.322,248.507 312.476,248.596       " /><polygon style="fill:#594839;" points="312.887,248.965 312.603,248.801 312.603,248.669 312.887,248.834       " /><polygon style="fill:#594839;" points="313.605,249.38 313.014,249.038 313.014,248.907 313.605,249.248       " /><path style="fill:#594839;" d="M314.441,249.878c-0.08,0.092-0.256,0.037-0.394-0.122c-0.138-0.159-0.185-0.363-0.106-0.455        c0.08-0.092,0.256-0.037,0.394,0.122C314.473,249.583,314.521,249.786,314.441,249.878z" /></g></g></g><g><g id="Axonometric_Cube_93_"><polygon id="Cube_face_-_left_1521_" style="fill:#B78351;" points="335.322,269.204 325.34,263.44 325.34,254.566        335.322,260.33      " /><polygon id="Cube_face_-_right_1543_" style="fill:#E2B06D;" points="345.039,263.594 335.322,269.204 335.322,260.33        345.039,254.72      " /><polygon id="Cube_face_-_top_1543_" style="fill:#FECA85;" points="335.322,260.33 325.34,254.566 335.056,248.956        345.039,254.72      " /></g><g><g><polygon id="Cube_face_-_top_1542_" style="fill:#B6703B;" points="339.748,257.776 329.764,252.012 331.225,251.168         341.209,256.932       " /><polygon id="Cube_face_-_right_1542_" style="fill:#91592F;" points="341.209,261.205 339.748,262.049 339.748,257.776         341.209,256.932       " /></g></g><polygon style="fill:#FFF2E9;" points="338.035,260.111 336.001,261.285 336.001,260.618 338.035,259.444     " /><polygon style="fill:#BFB2A9;" points="325.829,263.069 327.863,264.243 327.863,262.151 325.829,260.977     " /><polygon style="fill:#BFB2A9;" points="333.887,267.721 334.749,268.219 334.749,267.76 333.887,267.262     " /><polygon style="fill:#FFF2E9;" points="344.473,263.293 343.772,263.697 343.772,263.029 344.473,262.625     " /><g><g><polygon style="fill:#594839;" points="331.328,258.897 331.174,258.808 331.174,258.677 331.328,258.765       " /><polygon style="fill:#594839;" points="331.74,259.135 331.455,258.97 331.455,258.839 331.74,259.003       " /><polygon style="fill:#594839;" points="332.457,259.549 331.866,259.208 331.866,259.076 332.457,259.417       " /><polygon style="fill:#594839;" points="333.259,260.012 332.584,259.622 332.584,259.49 333.259,259.88       " /><polygon style="fill:#594839;" points="333.386,259.953 333.386,260.085 334.061,260.475 334.061,260.343       " /><polygon style="fill:#594839;" points="334.469,260.711 334.188,260.548 334.188,260.416 334.469,260.579       " /><polygon style="fill:#594839;" points="334.747,260.871 334.595,260.784 334.595,260.652 334.747,260.739       " /><polygon style="fill:#594839;" points="331.571,259.395 331.174,259.166 331.174,259.034 331.571,259.263       " /><polygon style="fill:#594839;" points="331.982,259.632 331.697,259.468 331.697,259.336 331.982,259.5       " /><polygon style="fill:#594839;" points="332.65,260.018 332.109,259.705 332.109,259.574 332.65,259.886       " /><polygon style="fill:#594839;" points="332.97,260.203 332.777,260.091 332.777,259.96 332.97,260.071       " /><polygon style="fill:#594839;" points="333.097,260.144 333.097,260.276 333.72,260.635 333.72,260.504       " /><polygon style="fill:#594839;" points="334.265,260.95 333.846,260.708 333.846,260.577 334.265,260.819       " /><polygon style="fill:#594839;" points="334.747,261.228 334.391,261.023 334.391,260.892 334.747,261.097       " /><polygon style="fill:#594839;" points="331.328,259.612 331.174,259.523 331.174,259.392 331.328,259.48       " /><polygon style="fill:#594839;" points="331.74,259.849 331.455,259.685 331.455,259.553 331.74,259.718       " /><polygon style="fill:#594839;" points="332.457,260.264 331.866,259.923 331.866,259.791 332.457,260.132       " /><polygon style="fill:#594839;" points="333.259,260.727 332.584,260.337 332.584,260.205 333.259,260.595       " /><polygon style="fill:#594839;" points="333.386,260.668 333.386,260.8 334.061,261.19 334.061,261.058       " /><polygon style="fill:#594839;" points="334.469,261.425 334.188,261.263 334.188,261.131 334.469,261.294       " /><polygon style="fill:#594839;" points="334.747,261.586 334.595,261.498 334.595,261.367 334.747,261.454       " /><polygon style="fill:#594839;" points="331.571,260.109 331.174,259.88 331.174,259.749 331.571,259.978       " /><polygon style="fill:#594839;" points="331.982,260.347 331.697,260.182 331.697,260.051 331.982,260.215       " /><polygon style="fill:#594839;" points="332.65,260.733 332.109,260.42 332.109,260.289 332.65,260.601       " /><polygon style="fill:#594839;" points="332.97,260.918 332.777,260.806 332.777,260.674 332.97,260.786       " /><polygon style="fill:#594839;" points="333.097,260.859 333.097,260.991 333.72,261.35 333.72,261.219       " /><polygon style="fill:#594839;" points="334.265,261.665 333.846,261.423 333.846,261.292 334.265,261.533       " /><polygon style="fill:#594839;" points="334.747,261.943 334.391,261.738 334.391,261.606 334.747,261.812       " /></g><g><polygon style="fill:#594839;" points="331.328,265.13 331.174,265.041 331.174,264.909 331.328,264.998       " /><polygon style="fill:#594839;" points="331.74,265.367 331.455,265.203 331.455,265.071 331.74,265.236       " /><polygon style="fill:#594839;" points="332.161,265.611 331.866,265.44 331.866,265.309 332.161,265.479       " /><polygon style="fill:#594839;" points="333.259,266.245 332.288,265.684 332.288,265.552 333.259,266.113       " /><polygon style="fill:#594839;" points="333.386,266.186 333.386,266.318 334.061,266.708 334.061,266.576       " /><polygon style="fill:#594839;" points="334.469,266.943 334.188,266.781 334.188,266.649 334.469,266.812       " /><polygon style="fill:#594839;" points="334.747,267.104 334.595,267.016 334.595,266.885 334.747,266.972       " /><polygon style="fill:#594839;" points="331.571,265.627 331.174,265.398 331.174,265.267 331.571,265.496       " /><polygon style="fill:#594839;" points="331.982,265.865 331.697,265.7 331.697,265.569 331.982,265.733       " /><polygon style="fill:#594839;" points="332.587,266.214 332.109,265.938 332.109,265.806 332.587,266.083       " /><polygon style="fill:#594839;" points="332.97,266.435 332.714,266.287 332.714,266.156 332.97,266.304       " /><polygon style="fill:#594839;" points="333.097,266.377 333.097,266.509 333.72,266.868 333.72,266.736       " /><polygon style="fill:#594839;" points="334.265,267.183 333.846,266.941 333.846,266.81 334.265,267.051       " /><polygon style="fill:#594839;" points="334.747,267.461 334.391,267.256 334.391,267.124 334.747,267.329       " /></g><g><polygon style="fill:#594839;" points="326.015,255.83 325.861,255.741 325.861,255.609 326.015,255.698       " /><polygon style="fill:#594839;" points="326.427,256.067 326.142,255.903 326.142,255.771 326.427,255.936       " /><polygon style="fill:#594839;" points="327.144,256.482 326.553,256.14 326.553,256.009 327.144,256.35       " /><polygon style="fill:#594839;" points="327.946,256.945 327.271,256.555 327.271,256.423 327.946,256.813       " /><polygon style="fill:#594839;" points="326.258,256.327 325.861,256.098 325.861,255.967 326.258,256.196       " /><polygon style="fill:#594839;" points="326.669,256.565 326.385,256.4 326.385,256.269 326.669,256.433       " /><polygon style="fill:#594839;" points="327.338,256.951 326.796,256.638 326.796,256.506 327.338,256.819       " /><polygon style="fill:#594839;" points="326.015,256.545 325.861,256.456 325.861,256.324 326.015,256.413       " /><polygon style="fill:#594839;" points="326.427,256.782 326.142,256.618 326.142,256.486 326.427,256.651       " /><polygon style="fill:#594839;" points="327.144,257.197 326.553,256.855 326.553,256.724 327.144,257.065       " /><path style="fill:#594839;" d="M327.98,257.695c-0.08,0.092-0.256,0.038-0.394-0.122s-0.185-0.363-0.106-0.455        c0.08-0.092,0.256-0.037,0.394,0.122C328.013,257.399,328.06,257.603,327.98,257.695z" /></g></g></g></g><g><g><g id="Axonometric_Cube_92_"><polygon id="Cube_face_-_left_1520_" style="fill:#B78351;" points="311.56,269.459 299.698,262.61 299.698,253.736        311.56,260.585      " /><polygon id="Cube_face_-_right_1541_" style="fill:#E2B06D;" points="321.277,263.849 311.56,269.459 311.56,260.585        321.277,254.975      " /><polygon id="Cube_face_-_top_1541_" style="fill:#FECA85;" points="311.56,260.585 299.698,253.736 309.415,248.127        321.277,254.975      " /></g><g><g><polygon id="Cube_face_-_top_1540_" style="fill:#B6703B;" points="315.986,258.031 304.122,251.182 305.584,250.338         317.447,257.188       " /><polygon id="Cube_face_-_right_1540_" style="fill:#91592F;" points="317.447,261.46 315.986,262.304 315.986,258.031         317.447,257.188       " /></g></g><polygon style="fill:#FFF2E9;" points="314.273,260.366 312.239,261.541 312.239,260.873 314.273,259.699     " /><polygon style="fill:#BFB2A9;" points="300.188,262.239 302.222,263.413 302.222,261.321 300.188,260.147     " /><polygon style="fill:#BFB2A9;" points="310.125,267.976 310.987,268.474 310.987,268.015 310.125,267.517     " /><polygon style="fill:#FFF2E9;" points="320.711,263.548 320.01,263.952 320.01,263.285 320.711,262.88     " /><g><g><polygon style="fill:#594839;" points="307.566,259.152 307.412,259.063 307.412,258.932 307.566,259.021       " /><polygon style="fill:#594839;" points="307.977,259.39 307.693,259.225 307.693,259.094 307.977,259.258       " /><polygon style="fill:#594839;" points="308.695,259.804 308.104,259.463 308.104,259.331 308.695,259.672       " /><polygon style="fill:#594839;" points="309.497,260.267 308.822,259.877 308.822,259.746 309.497,260.135       " /><polygon style="fill:#594839;" points="309.624,260.209 309.624,260.34 310.299,260.73 310.299,260.599       " /><polygon style="fill:#594839;" points="310.707,260.966 310.426,260.803 310.426,260.672 310.707,260.834       " /><polygon style="fill:#594839;" points="310.985,261.126 310.833,261.039 310.833,260.907 310.985,260.995       " /><polygon style="fill:#594839;" points="307.809,259.65 307.412,259.421 307.412,259.289 307.809,259.518       " /><polygon style="fill:#594839;" points="308.22,259.887 307.935,259.723 307.935,259.591 308.22,259.756       " /><polygon style="fill:#594839;" points="308.888,260.273 308.347,259.961 308.347,259.829 308.888,260.142       " /><polygon style="fill:#594839;" points="309.208,260.458 309.015,260.346 309.015,260.215 309.208,260.326       " /><polygon style="fill:#594839;" points="309.335,260.4 309.335,260.531 309.958,260.891 309.958,260.759       " /><polygon style="fill:#594839;" points="310.503,261.205 310.084,260.964 310.084,260.832 310.503,261.074       " /><polygon style="fill:#594839;" points="310.985,261.484 310.629,261.278 310.629,261.147 310.985,261.352       " /><polygon style="fill:#594839;" points="307.566,259.867 307.412,259.778 307.412,259.647 307.566,259.735       " /><polygon style="fill:#594839;" points="307.977,260.105 307.693,259.94 307.693,259.809 307.977,259.973       " /><polygon style="fill:#594839;" points="308.695,260.519 308.104,260.178 308.104,260.046 308.695,260.387       " /><polygon style="fill:#594839;" points="309.497,260.982 308.822,260.592 308.822,260.46 309.497,260.85       " /><polygon style="fill:#594839;" points="309.624,260.923 309.624,261.055 310.299,261.445 310.299,261.313       " /><polygon style="fill:#594839;" points="310.707,261.681 310.426,261.518 310.426,261.386 310.707,261.549       " /><polygon style="fill:#594839;" points="310.985,261.841 310.833,261.754 310.833,261.622 310.985,261.709       " /><polygon style="fill:#594839;" points="307.809,260.365 307.412,260.136 307.412,260.004 307.809,260.233       " /><polygon style="fill:#594839;" points="308.22,260.602 307.935,260.438 307.935,260.306 308.22,260.471       " /><polygon style="fill:#594839;" points="308.888,260.988 308.347,260.675 308.347,260.544 308.888,260.856       " /><polygon style="fill:#594839;" points="309.208,261.173 309.015,261.061 309.015,260.93 309.208,261.041       " /><polygon style="fill:#594839;" points="309.335,261.114 309.335,261.246 309.958,261.605 309.958,261.474       " /><polygon style="fill:#594839;" points="310.503,261.92 310.084,261.678 310.084,261.547 310.503,261.789       " /><polygon style="fill:#594839;" points="310.985,262.198 310.629,261.993 310.629,261.862 310.985,262.067       " /></g><g><polygon style="fill:#594839;" points="307.566,265.385 307.412,265.296 307.412,265.164 307.566,265.253       " /><polygon style="fill:#594839;" points="307.977,265.623 307.693,265.458 307.693,265.326 307.977,265.491       " /><polygon style="fill:#594839;" points="308.4,265.866 308.104,265.696 308.104,265.564 308.4,265.735       " /><polygon style="fill:#594839;" points="309.497,266.5 308.526,265.939 308.526,265.808 309.497,266.368       " /><polygon style="fill:#594839;" points="309.624,266.441 309.624,266.573 310.299,266.963 310.299,266.831       " /><polygon style="fill:#594839;" points="310.707,267.198 310.426,267.036 310.426,266.904 310.707,267.067       " /><polygon style="fill:#594839;" points="310.985,267.359 310.833,267.272 310.833,267.14 310.985,267.227       " /><polygon style="fill:#594839;" points="307.809,265.883 307.412,265.654 307.412,265.522 307.809,265.751       " /><polygon style="fill:#594839;" points="308.22,266.12 307.935,265.956 307.935,265.824 308.22,265.988       " /><polygon style="fill:#594839;" points="308.825,266.469 308.347,266.193 308.347,266.062 308.825,266.338       " /><polygon style="fill:#594839;" points="309.208,266.691 308.952,266.543 308.952,266.411 309.208,266.559       " /><polygon style="fill:#594839;" points="309.335,266.632 309.335,266.764 309.958,267.123 309.958,266.992       " /><polygon style="fill:#594839;" points="310.503,267.438 310.084,267.196 310.084,267.065 310.503,267.306       " /><polygon style="fill:#594839;" points="310.985,267.716 310.629,267.511 310.629,267.379 310.985,267.585       " /></g><g><polygon style="fill:#594839;" points="300.374,255 300.22,254.911 300.22,254.779 300.374,254.868       " /><polygon style="fill:#594839;" points="300.785,255.238 300.5,255.073 300.5,254.941 300.785,255.106       " /><polygon style="fill:#594839;" points="301.503,255.652 300.912,255.311 300.912,255.179 301.503,255.52       " /><polygon style="fill:#594839;" points="302.305,256.115 301.63,255.725 301.63,255.593 302.305,255.983       " /><polygon style="fill:#594839;" points="300.617,255.497 300.22,255.269 300.22,255.137 300.617,255.366       " /><polygon style="fill:#594839;" points="301.028,255.735 300.743,255.571 300.743,255.439 301.028,255.603       " /><polygon style="fill:#594839;" points="301.696,256.121 301.155,255.808 301.155,255.676 301.696,255.989       " /><polygon style="fill:#594839;" points="300.374,255.715 300.22,255.626 300.22,255.494 300.374,255.583       " /><polygon style="fill:#594839;" points="300.785,255.952 300.5,255.788 300.5,255.656 300.785,255.821       " /><polygon style="fill:#594839;" points="301.503,256.367 300.912,256.026 300.912,255.894 301.503,256.235       " /><path style="fill:#594839;" d="M302.339,256.865c-0.08,0.092-0.256,0.038-0.394-0.122s-0.185-0.363-0.106-0.455        c0.08-0.092,0.256-0.037,0.394,0.122C302.371,256.57,302.419,256.773,302.339,256.865z" /></g></g></g><g><g id="Axonometric_Cube_90_"><polygon id="Cube_face_-_left_1518_" style="fill:#B78351;" points="327.487,278.654 313.237,270.427 313.237,261.553        327.487,269.78      " /><polygon id="Cube_face_-_right_1539_" style="fill:#E2B06D;" points="337.204,273.044 327.487,278.654 327.487,269.78        337.204,264.171      " /><polygon id="Cube_face_-_top_1539_" style="fill:#FECA85;" points="327.487,269.78 313.237,261.553 322.954,255.944        337.204,264.171      " /></g><g><g><polygon id="Cube_face_-_top_1537_" style="fill:#B6703B;" points="331.912,267.227 317.662,258.999 319.124,258.155         333.374,266.383       " /><polygon id="Cube_face_-_right_1537_" style="fill:#91592F;" points="333.374,270.655 331.912,271.499 331.912,267.227         333.374,266.383       " /></g></g><polygon style="fill:#FFF2E9;" points="330.199,269.562 328.165,270.736 328.165,270.068 330.199,268.894     " /><polygon style="fill:#BFB2A9;" points="313.727,270.056 315.761,271.23 315.761,269.138 313.727,267.964     " /><polygon style="fill:#BFB2A9;" points="326.052,277.172 326.913,277.669 326.913,277.21 326.052,276.712     " /><polygon style="fill:#FFF2E9;" points="336.638,272.743 335.937,273.148 335.937,272.48 336.638,272.075     " /><g><g><polygon style="fill:#594839;" points="323.493,268.348 323.339,268.259 323.339,268.127 323.493,268.216       " /><polygon style="fill:#594839;" points="323.904,268.585 323.619,268.421 323.619,268.289 323.904,268.453       " /><polygon style="fill:#594839;" points="324.622,268.999 324.031,268.658 324.031,268.527 324.622,268.868       " /><polygon style="fill:#594839;" points="325.424,269.462 324.748,269.073 324.748,268.941 325.424,269.331       " /><polygon style="fill:#594839;" points="325.55,269.404 325.55,269.535 326.225,269.925 326.225,269.794       " /><polygon style="fill:#594839;" points="326.633,270.161 326.352,269.999 326.352,269.867 326.633,270.029       " /><polygon style="fill:#594839;" points="326.911,270.322 326.76,270.234 326.76,270.102 326.911,270.19       " /><polygon style="fill:#594839;" points="323.735,268.845 323.339,268.616 323.339,268.484 323.735,268.713       " /><polygon style="fill:#594839;" points="324.147,269.083 323.862,268.918 323.862,268.786 324.147,268.951       " /><polygon style="fill:#594839;" points="324.815,269.469 324.273,269.156 324.273,269.024 324.815,269.337       " /><polygon style="fill:#594839;" points="325.135,269.653 324.942,269.542 324.942,269.41 325.135,269.522       " /><polygon style="fill:#594839;" points="325.262,269.595 325.262,269.726 325.884,270.086 325.884,269.954       " /><polygon style="fill:#594839;" points="326.43,270.401 326.011,270.159 326.011,270.027 326.43,270.269       " /><polygon style="fill:#594839;" points="326.911,270.679 326.556,270.474 326.556,270.342 326.911,270.547       " /><polygon style="fill:#594839;" points="323.493,269.062 323.339,268.974 323.339,268.842 323.493,268.931       " /><polygon style="fill:#594839;" points="323.904,269.3 323.619,269.135 323.619,269.004 323.904,269.168       " /><polygon style="fill:#594839;" points="324.622,269.714 324.031,269.373 324.031,269.241 324.622,269.583       " /><polygon style="fill:#594839;" points="325.424,270.177 324.748,269.787 324.748,269.656 325.424,270.046       " /><polygon style="fill:#594839;" points="325.55,270.119 325.55,270.25 326.225,270.64 326.225,270.509       " /><polygon style="fill:#594839;" points="326.633,270.876 326.352,270.713 326.352,270.582 326.633,270.744       " /><polygon style="fill:#594839;" points="326.911,271.036 326.76,270.949 326.76,270.817 326.911,270.905       " /><polygon style="fill:#594839;" points="323.735,269.56 323.339,269.331 323.339,269.199 323.735,269.428       " /><polygon style="fill:#594839;" points="324.147,269.797 323.862,269.633 323.862,269.501 324.147,269.666       " /><polygon style="fill:#594839;" points="324.815,270.183 324.273,269.871 324.273,269.739 324.815,270.052       " /><polygon style="fill:#594839;" points="325.135,270.368 324.942,270.256 324.942,270.125 325.135,270.237       " /><polygon style="fill:#594839;" points="325.262,270.31 325.262,270.441 325.884,270.801 325.884,270.669       " /><polygon style="fill:#594839;" points="326.43,271.116 326.011,270.874 326.011,270.742 326.43,270.984       " /><polygon style="fill:#594839;" points="326.911,271.394 326.556,271.189 326.556,271.057 326.911,271.262       " /></g><g><polygon style="fill:#594839;" points="323.493,274.58 323.339,274.491 323.339,274.36 323.493,274.449       " /><polygon style="fill:#594839;" points="323.904,274.818 323.619,274.653 323.619,274.522 323.904,274.686       " /><polygon style="fill:#594839;" points="324.326,275.061 324.031,274.891 324.031,274.759 324.326,274.93       " /><polygon style="fill:#594839;" points="325.424,275.695 324.453,275.135 324.453,275.003 325.424,275.564       " /><polygon style="fill:#594839;" points="325.55,275.637 325.55,275.768 326.225,276.158 326.225,276.026       " /><polygon style="fill:#594839;" points="326.633,276.394 326.352,276.231 326.352,276.1 326.633,276.262       " /><polygon style="fill:#594839;" points="326.911,276.554 326.76,276.467 326.76,276.335 326.911,276.422       " /><polygon style="fill:#594839;" points="323.735,275.078 323.339,274.849 323.339,274.717 323.735,274.946       " /><polygon style="fill:#594839;" points="324.147,275.315 323.862,275.151 323.862,275.019 324.147,275.184       " /><polygon style="fill:#594839;" points="324.752,275.665 324.273,275.388 324.273,275.257 324.752,275.533       " /><polygon style="fill:#594839;" points="325.135,275.886 324.878,275.738 324.878,275.606 325.135,275.754       " /><polygon style="fill:#594839;" points="325.262,275.828 325.262,275.959 325.884,276.319 325.884,276.187       " /><polygon style="fill:#594839;" points="326.43,276.633 326.011,276.392 326.011,276.26 326.43,276.502       " /><polygon style="fill:#594839;" points="326.911,276.912 326.556,276.706 326.556,276.575 326.911,276.78       " /></g><g><polygon style="fill:#594839;" points="313.913,262.817 313.759,262.728 313.759,262.596 313.913,262.685       " /><polygon style="fill:#594839;" points="314.325,263.054 314.04,262.89 314.04,262.758 314.325,262.923       " /><polygon style="fill:#594839;" points="315.042,263.469 314.451,263.128 314.451,262.996 315.042,263.337       " /><polygon style="fill:#594839;" points="315.844,263.932 315.169,263.542 315.169,263.41 315.844,263.8       " /><polygon style="fill:#594839;" points="314.156,263.314 313.759,263.086 313.759,262.954 314.156,263.183       " /><polygon style="fill:#594839;" points="314.567,263.552 314.283,263.388 314.283,263.256 314.567,263.42       " /><polygon style="fill:#594839;" points="315.236,263.938 314.694,263.625 314.694,263.493 315.236,263.806       " /><polygon style="fill:#594839;" points="313.913,263.532 313.759,263.443 313.759,263.311 313.913,263.4       " /><polygon style="fill:#594839;" points="314.325,263.769 314.04,263.605 314.04,263.473 314.325,263.638       " /><polygon style="fill:#594839;" points="315.042,264.184 314.451,263.842 314.451,263.711 315.042,264.052       " /><path style="fill:#594839;" d="M315.878,264.682c-0.08,0.092-0.256,0.037-0.394-0.122c-0.138-0.159-0.185-0.363-0.106-0.455        c0.08-0.092,0.256-0.037,0.394,0.122C315.911,264.387,315.958,264.59,315.878,264.682z" /></g></g></g></g></g><g><g><g id="Axonometric_Cylinder_83_"><linearGradient id="SVGID_00000086655501933912189940000008161552540859814038_" gradientUnits="userSpaceOnUse" x1="410.5703" y1="279.5148" x2="414.2019" y2="279.5148"><stop offset="0" style="stop-color:#615A59" /><stop offset="1" style="stop-color:#807775" /></linearGradient><path style="fill:url(#SVGID_00000086655501933912189940000008161552540859814038_);" d="M410.57,278.716v0.579      c0.004,0.265,0.181,0.529,0.532,0.732c0.709,0.409,1.859,0.409,2.568,0c0.359-0.207,0.536-0.48,0.532-0.751v-0.579      L410.57,278.716z" /><path id="Cylinder_face_241_" style="fill:#A49896;" d="M413.67,279.447c-0.709,0.409-1.859,0.409-2.568,0      c-0.709-0.409-0.709-1.073,0-1.483c0.709-0.41,1.859-0.41,2.568,0C414.379,278.374,414.379,279.038,413.67,279.447z" /></g><g id="Axonometric_Cylinder_85_"><path style="fill:#3A2C2B;" d="M410.89,276.12v2.45c0.004,0.219,0.15,0.436,0.438,0.603c0.584,0.337,1.532,0.337,2.116,0      c0.296-0.171,0.442-0.395,0.438-0.619v-2.45L410.89,276.12z" /><path id="Cylinder_face_243_" style="fill:#544141;" d="M413.444,276.723c-0.584,0.337-1.532,0.337-2.116,0      c-0.584-0.337-0.584-0.884,0-1.222c0.584-0.337,1.532-0.337,2.116,0C414.029,275.838,414.029,276.385,413.444,276.723z" /></g></g><g><g id="Axonometric_Cylinder_87_"><linearGradient id="SVGID_00000018210513980971716400000016156236848044025533_" gradientUnits="userSpaceOnUse" x1="388.7937" y1="292.0875" x2="392.4253" y2="292.0875"><stop offset="0" style="stop-color:#615A59" /><stop offset="1" style="stop-color:#807775" /></linearGradient><path style="fill:url(#SVGID_00000018210513980971716400000016156236848044025533_);" d="M388.794,291.288v0.579      c0.004,0.265,0.181,0.529,0.532,0.732c0.709,0.409,1.859,0.409,2.568,0c0.359-0.207,0.536-0.48,0.532-0.751v-0.579      L388.794,291.288z" /><path id="Cylinder_face_245_" style="fill:#A49896;" d="M391.893,292.02c-0.709,0.409-1.859,0.409-2.568,0      c-0.709-0.409-0.709-1.073,0-1.483c0.709-0.409,1.859-0.409,2.568,0C392.603,290.947,392.603,291.611,391.893,292.02z" /></g><g id="Axonometric_Cylinder_86_"><path style="fill:#3A2C2B;" d="M389.113,288.692v2.45c0.004,0.219,0.15,0.436,0.438,0.603c0.584,0.337,1.532,0.337,2.116,0      c0.296-0.171,0.442-0.395,0.438-0.619v-2.45L389.113,288.692z" /><path id="Cylinder_face_244_" style="fill:#544141;" d="M391.668,289.295c-0.584,0.337-1.532,0.337-2.116,0      c-0.584-0.337-0.584-0.884,0-1.222c0.584-0.337,1.532-0.337,2.116,0C392.252,288.411,392.252,288.958,391.668,289.295z" /></g></g></g></g></svg>